  0
SECTION
  2
HEADER
  9
$ACADVER
  1
AC1024
  9
$ACADMAINTVER
 70
6
  9
$DWGCODEPAGE
  3
ANSI_1252
  9
$LASTSAVEDBY
  1
ezdxf
  9
$INSBASE
 10
0.0
 20
0.0
 30
0.0
  9
$EXTMIN
 10
-100
 20
-100
 30
-100
  9
$EXTMAX
 10
100
 20
100
 30
100
  9
$LIMMIN
 10
0.0
 20
0.0
  9
$LIMMAX
 10
420.0
 20
297.0
  9
$ORTHOMODE
 70
0
  9
$REGENMODE
 70
1
  9
$FILLMODE
 70
1
  9
$QTEXTMODE
 70
0
  9
$MIRRTEXT
 70
1
  9
$LTSCALE
 40
1.0
  9
$ATTMODE
 70
1
  9
$TEXTSIZE
 40
2.5
  9
$TRACEWID
 40
1.0
  9
$TEXTSTYLE
  7
Standard
  9
$CLAYER
  8
0
  9
$CELTYPE
  6
ByLayer
  9
$CECOLOR
 62
256
  9
$CELTSCALE
 40
1.0
  9
$DISPSILH
 70
0
  9
$DIMSCALE
 40
1.0
  9
$DIMASZ
 40
2.5
  9
$DIMEXO
 40
0.625
  9
$DIMDLI
 40
3.75
  9
$DIMRND
 40
0.0
  9
$DIMDLE
 40
0.0
  9
$DIMEXE
 40
1.25
  9
$DIMTP
 40
0.0
  9
$DIMTM
 40
0.0
  9
$DIMTXT
 40
2.5
  9
$DIMCEN
 40
2.5
  9
$DIMTSZ
 40
0.0
  9
$DIMTOL
 70
0
  9
$DIMLIM
 70
0
  9
$DIMTIH
 70
0
  9
$DIMTOH
 70
0
  9
$DIMSE1
 70
0
  9
$DIMSE2
 70
0
  9
$DIMTAD
 70
1
  9
$DIMZIN
 70
8
  9
$DIMBLK
  1

  9
$DIMASO
 70
1
  9
$DIMSHO
 70
1
  9
$DIMPOST
  1

  9
$DIMAPOST
  1

  9
$DIMALT
 70
0
  9
$DIMALTD
 70
3
  9
$DIMALTF
 40
0.03937007874
  9
$DIMLFAC
 40
1.0
  9
$DIMTOFL
 70
1
  9
$DIMTVP
 40
0.0
  9
$DIMTIX
 70
0
  9
$DIMSOXD
 70
0
  9
$DIMSAH
 70
0
  9
$DIMBLK1
  1

  9
$DIMBLK2
  1

  9
$DIMSTYLE
  2
ISO-25
  9
$DIMCLRD
 70
0
  9
$DIMCLRE
 70
0
  9
$DIMCLRT
 70
0
  9
$DIMTFAC
 40
1.0
  9
$DIMGAP
 40
0.625
  9
$DIMJUST
 70
0
  9
$DIMSD1
 70
0
  9
$DIMSD2
 70
0
  9
$DIMTOLJ
 70
0
  9
$DIMTZIN
 70
8
  9
$DIMALTZ
 70
0
  9
$DIMALTTZ
 70
0
  9
$DIMUPT
 70
0
  9
$DIMDEC
 70
2
  9
$DIMTDEC
 70
2
  9
$DIMALTU
 70
2
  9
$DIMALTTD
 70
3
  9
$DIMTXSTY
  7
Standard
  9
$DIMAUNIT
 70
0
  9
$DIMADEC
 70
0
  9
$DIMALTRND
 40
0.0
  9
$DIMAZIN
 70
0
  9
$DIMDSEP
 70
44
  9
$DIMATFIT
 70
3
  9
$DIMFRAC
 70
0
  9
$DIMLDRBLK
  1

  9
$DIMLUNIT
 70
2
  9
$DIMLWD
 70
-2
  9
$DIMLWE
 70
-2
  9
$DIMTMOVE
 70
0
  9
$DIMFXL
 40
1.0
  9
$DIMFXLON
 70
0
  9
$DIMJOGANG
 40
0.785398163397
  9
$DIMTFILL
 70
0
  9
$DIMTFILLCLR
 70
0
  9
$DIMARCSYM
 70
0
  9
$DIMLTYPE
  6

  9
$DIMLTEX1
  6

  9
$DIMLTEX2
  6

  9
$DIMTXTDIRECTION
 70
0
  9
$LUNITS
 70
2
  9
$LUPREC
 70
4
  9
$SKETCHINC
 40
1.0
  9
$FILLETRAD
 40
10.0
  9
$AUNITS
 70
0
  9
$AUPREC
 70
2
  9
$MENU
  1
.
  9
$ELEVATION
 40
0.0
  9
$PELEVATION
 40
0.0
  9
$THICKNESS
 40
0.0
  9
$LIMCHECK
 70
0
  9
$CHAMFERA
 40
0.0
  9
$CHAMFERB
 40
0.0
  9
$CHAMFERC
 40
0.0
  9
$CHAMFERD
 40
0.0
  9
$SKPOLY
 70
0
  9
$TDCREATE
 40
2459411.643148148
  9
$TDUCREATE
 40
2458532.153996898
  9
$TDUPDATE
 40
2459411.643148148
  9
$TDUUPDATE
 40
2458532.1544311
  9
$TDINDWG
 40
0.0
  9
$TDUSRTIMER
 40
0.0
  9
$USRTIMER
 70
1
  9
$ANGBASE
 50
0.0
  9
$ANGDIR
 70
0
  9
$PDMODE
 70
0
  9
$PDSIZE
 40
0.0
  9
$PLINEWID
 40
0.0
  9
$SPLFRAME
 70
0
  9
$SPLINETYPE
 70
6
  9
$SPLINESEGS
 70
8
  9
$HANDSEED
  5
65
  9
$SURFTAB1
 70
6
  9
$SURFTAB2
 70
6
  9
$SURFTYPE
 70
6
  9
$SURFU
 70
6
  9
$SURFV
 70
6
  9
$UCSBASE
  2

  9
$UCSNAME
  2

  9
$UCSORG
 10
0.0
 20
0.0
 30
0.0
  9
$UCSXDIR
 10
1.0
 20
0.0
 30
0.0
  9
$UCSYDIR
 10
0.0
 20
1.0
 30
0.0
  9
$UCSORTHOREF
  2

  9
$UCSORTHOVIEW
 70
0
  9
$UCSORGTOP
 10
0.0
 20
0.0
 30
0.0
  9
$UCSORGBOTTOM
 10
0.0
 20
0.0
 30
0.0
  9
$UCSORGLEFT
 10
0.0
 20
0.0
 30
0.0
  9
$UCSORGRIGHT
 10
0.0
 20
0.0
 30
0.0
  9
$UCSORGFRONT
 10
0.0
 20
0.0
 30
0.0
  9
$UCSORGBACK
 10
0.0
 20
0.0
 30
0.0
  9
$PUCSBASE
  2

  9
$PUCSNAME
  2

  9
$PUCSORG
 10
0.0
 20
0.0
 30
0.0
  9
$PUCSXDIR
 10
1.0
 20
0.0
 30
0.0
  9
$PUCSYDIR
 10
0.0
 20
1.0
 30
0.0
  9
$PUCSORTHOREF
  2

  9
$PUCSORTHOVIEW
 70
0
  9
$PUCSORGTOP
 10
0.0
 20
0.0
 30
0.0
  9
$PUCSORGBOTTOM
 10
0.0
 20
0.0
 30
0.0
  9
$PUCSORGLEFT
 10
0.0
 20
0.0
 30
0.0
  9
$PUCSORGRIGHT
 10
0.0
 20
0.0
 30
0.0
  9
$PUCSORGFRONT
 10
0.0
 20
0.0
 30
0.0
  9
$PUCSORGBACK
 10
0.0
 20
0.0
 30
0.0
  9
$USERI1
 70
0
  9
$USERI2
 70
0
  9
$USERI3
 70
0
  9
$USERI4
 70
0
  9
$USERI5
 70
0
  9
$USERR1
 40
0.0
  9
$USERR2
 40
0.0
  9
$USERR3
 40
0.0
  9
$USERR4
 40
0.0
  9
$USERR5
 40
0.0
  9
$WORLDVIEW
 70
1
  9
$SHADEDGE
 70
3
  9
$SHADEDIF
 70
70
  9
$TILEMODE
 70
1
  9
$MAXACTVP
 70
64
  9
$PINSBASE
 10
0.0
 20
0.0
 30
0.0
  9
$PLIMCHECK
 70
0
  9
$PEXTMIN
 10
1e+20
 20
1e+20
 30
1e+20
  9
$PEXTMAX
 10
-1e+20
 20
-1e+20
 30
-1e+20
  9
$PLIMMIN
 10
0.0
 20
0.0
  9
$PLIMMAX
 10
420.0
 20
297.0
  9
$UNITMODE
 70
0
  9
$VISRETAIN
 70
1
  9
$PLINEGEN
 70
0
  9
$PSLTSCALE
 70
1
  9
$TREEDEPTH
 70
3020
  9
$CMLSTYLE
  2
Standard
  9
$CMLJUST
 70
0
  9
$CMLSCALE
 40
20.0
  9
$PROXYGRAPHICS
 70
1
  9
$MEASUREMENT
 70
1
  9
$CELWEIGHT
370
-1
  9
$ENDCAPS
280
0
  9
$JOINSTYLE
280
0
  9
$LWDISPLAY
290
0
  9
$INSUNITS
 70
6
  9
$HYPERLINKBASE
  1

  9
$STYLESHEET
  1

  9
$XEDIT
290
1
  9
$CEPSNTYPE
380
0
  9
$PSTYLEMODE
290
1
  9
$FINGERPRINTGUID
  2
A6F45A1A-E5BB-11EB-A7CE-8ADB33BF8A49
  9
$VERSIONGUID
  2
A6F6BC4B-E5BB-11EB-B0B4-8ADB33BF8A49
  9
$EXTNAMES
290
1
  9
$PSVPSCALE
 40
0.0
  9
$OLESTARTUP
290
0
  9
$SORTENTS
280
127
  9
$INDEXCTL
280
0
  9
$HIDETEXT
280
1
  9
$XCLIPFRAME
280
2
  9
$HALOGAP
280
0
  9
$OBSCOLOR
 70
257
  9
$OBSLTYPE
280
0
  9
$INTERSECTIONDISPLAY
280
0
  9
$INTERSECTIONCOLOR
 70
257
  9
$DIMASSOC
280
2
  9
$PROJECTNAME
  1

  9
$CAMERADISPLAY
290
0
  9
$LENSLENGTH
 40
50.0
  9
$CAMERAHEIGHT
 40
0.0
  9
$STEPSPERSEC
 40
24.0
  9
$STEPSIZE
 40
100.0
  9
$3DDWFPREC
 40
2.0
  9
$PSOLWIDTH
 40
0.005
  9
$PSOLHEIGHT
 40
0.08
  9
$LOFTANG1
 40
1.570796326795
  9
$LOFTANG2
 40
1.570796326795
  9
$LOFTMAG1
 40
0.0
  9
$LOFTMAG2
 40
0.0
  9
$LOFTPARAM
 70
7
  9
$LOFTNORMALS
280
1
  9
$LATITUDE
 40
37.795
  9
$LONGITUDE
 40
-122.394
  9
$NORTHDIRECTION
 40
0.0
  9
$TIMEZONE
 70
-8000
  9
$LIGHTGLYPHDISPLAY
280
1
  9
$TILEMODELIGHTSYNCH
280
1
  9
$CMATERIAL
347
20
  9
$SOLIDHIST
280
0
  9
$SHOWHIST
280
1
  9
$DWFFRAME
280
2
  9
$DGNFRAME
280
2
  9
$REALWORLDSCALE
290
1
  9
$INTERFERECOLOR
 62
256
  9
$CSHADOW
280
0
  9
$SHADOWPLANELOCATION
 40
0.0
  0
ENDSEC
  0
SECTION
  2
CLASSES
  0
CLASS
  1
ACDBDICTIONARYWDFLT
  2
AcDbDictionaryWithDefault
  3
ObjectDBX Classes
 90
0
 91
0
280
0
281
0
  0
CLASS
  1
SUN
  2
AcDbSun
  3
SCENEOE
 90
1153
 91
0
280
0
281
0
  0
CLASS
  1
VISUALSTYLE
  2
AcDbVisualStyle
  3
ObjectDBX Classes
 90
4095
 91
0
280
0
281
0
  0
CLASS
  1
MATERIAL
  2
AcDbMaterial
  3
ObjectDBX Classes
 90
1153
 91
0
280
0
281
0
  0
CLASS
  1
SCALE
  2
AcDbScale
  3
ObjectDBX Classes
 90
1153
 91
0
280
0
281
0
  0
CLASS
  1
TABLESTYLE
  2
AcDbTableStyle
  3
ObjectDBX Classes
 90
4095
 91
0
280
0
281
0
  0
CLASS
  1
MLEADERSTYLE
  2
AcDbMLeaderStyle
  3
ACDB_MLEADERSTYLE_CLASS
 90
4095
 91
0
280
0
281
0
  0
CLASS
  1
DICTIONARYVAR
  2
AcDbDictionaryVar
  3
ObjectDBX Classes
 90
0
 91
0
280
0
281
0
  0
CLASS
  1
CELLSTYLEMAP
  2
AcDbCellStyleMap
  3
ObjectDBX Classes
 90
1152
 91
0
280
0
281
0
  0
CLASS
  1
MENTALRAYRENDERSETTINGS
  2
AcDbMentalRayRenderSettings
  3
SCENEOE
 90
1024
 91
0
280
0
281
0
  0
CLASS
  1
ACDBDETAILVIEWSTYLE
  2
AcDbDetailViewStyle
  3
ObjectDBX Classes
 90
1025
 91
0
280
0
281
0
  0
CLASS
  1
ACDBSECTIONVIEWSTYLE
  2
AcDbSectionViewStyle
  3
ObjectDBX Classes
 90
1025
 91
0
280
0
281
0
  0
CLASS
  1
RASTERVARIABLES
  2
AcDbRasterVariables
  3
ISM
 90
0
 91
0
280
0
281
0
  0
CLASS
  1
ACDBPLACEHOLDER
  2
AcDbPlaceHolder
  3
ObjectDBX Classes
 90
0
 91
0
280
0
281
0
  0
CLASS
  1
LAYOUT
  2
AcDbLayout
  3
ObjectDBX Classes
 90
0
 91
0
280
0
281
0
  0
ENDSEC
  0
SECTION
  2
TABLES
  0
TABLE
  2
VPORT
  5
8
330
0
100
AcDbSymbolTable
 70
1
  0
VPORT
  5
23
330
8
100
AcDbSymbolTableRecord
100
AcDbViewportTableRecord
  2
*Active
 70
0
 10
0.0
 20
0.0
 11
1.0
 21
1.0
 12
70.0
 22
50.0
 13
0.0
 23
0.0
 14
0.5
 24
0.5
 15
0.5
 25
0.5
 16
0.0
 26
0.0
 36
1.0
 17
0.0
 27
0.0
 37
0.0
 40
1.0
 41
1.34
 42
50.0
 43
0.0
 44
0.0
 50
0.0
 51
0.0
 71
0
 72
1000
 73
1
 74
3
 75
0
 76
0
 77
0
 78
0
281
0
 65
0
146
0.0
  0
ENDTAB
  0
TABLE
  2
LTYPE
  5
2
330
0
100
AcDbSymbolTable
 70
3
  0
LTYPE
  5
24
330
2
100
AcDbSymbolTableRecord
100
AcDbLinetypeTableRecord
  2
ByBlock
 70
0
  3

 72
65
 73
0
 40
0.0
  0
LTYPE
  5
25
330
2
100
AcDbSymbolTableRecord
100
AcDbLinetypeTableRecord
  2
ByLayer
 70
0
  3

 72
65
 73
0
 40
0.0
  0
LTYPE
  5
26
330
2
100
AcDbSymbolTableRecord
100
AcDbLinetypeTableRecord
  2
Continuous
 70
0
  3

 72
65
 73
0
 40
0.0
  0
ENDTAB
  0
TABLE
  2
LAYER
  5
1
330
0
100
AcDbSymbolTable
 70
2
  0
LAYER
  5
27
330
1
100
AcDbSymbolTableRecord
100
AcDbLayerTableRecord
  2
0
 70
0
 62
7
  6
Continuous
370
-3
390
13
347
21
  0
LAYER
  5
28
330
1
100
AcDbSymbolTableRecord
100
AcDbLayerTableRecord
  2
Defpoints
 70
0
 62
7
  6
Continuous
290
0
370
-3
390
13
347
21
  0
ENDTAB
  0
TABLE
  2
STYLE
  5
5
330
0
100
AcDbSymbolTable
 70
1
  0
STYLE
  5
29
330
5
100
AcDbSymbolTableRecord
100
AcDbTextStyleTableRecord
  2
Standard
 70
0
 40
0.0
 41
1.0
 50
0.0
 71
0
 42
2.5
  3
txt
  4

  0
ENDTAB
  0
TABLE
  2
VIEW
  5
7
330
0
100
AcDbSymbolTable
 70
0
  0
ENDTAB
  0
TABLE
  2
UCS
  5
6
330
0
100
AcDbSymbolTable
 70
0
  0
ENDTAB
  0
TABLE
  2
APPID
  5
3
330
0
100
AcDbSymbolTable
 70
2
  0
APPID
  5
2A
330
3
100
AcDbSymbolTableRecord
100
AcDbRegAppTableRecord
  2
ACAD
 70
0
  0
APPID
  5
64
330
3
100
AcDbSymbolTableRecord
100
AcDbRegAppTableRecord
  2
HATCHBACKGROUNDCOLOR
 70
0
  0
ENDTAB
  0
TABLE
  2
DIMSTYLE
  5
4
330
0
100
AcDbSymbolTable
 70
1
100
AcDbDimStyleTable
  0
DIMSTYLE
105
2B
330
4
100
AcDbSymbolTableRecord
100
AcDbDimStyleTableRecord
  2
Standard
 70
0
 40
1.0
 41
2.5
 42
0.625
 43
3.75
 44
1.25
 45
0.0
 46
0.0
 47
0.0
 48
0.0
 49
2.5
140
2.5
141
2.5
142
0.0
143
0.03937007874
144
1.0
145
0.0
146
1.0
147
0.625
148
0.0
 69
0
 70
0
 71
0
 72
0
 73
0
 74
0
 75
0
 76
0
 77
1
 78
8
 79
0
170
0
171
3
172
1
173
0
174
0
175
0
176
0
177
0
178
0
179
0
271
0
272
2
273
2
274
3
275
0
276
0
277
2
278
44
279
0
280
0
281
0
282
0
283
0
284
8
285
0
286
0
288
0
289
3
290
0
371
-2
372
-2
  0
ENDTAB
  0
TABLE
  2
BLOCK_RECORD
  5
9
330
0
100
AcDbSymbolTable
 70
2
  0
BLOCK_RECORD
  5
17
330
9
100
AcDbSymbolTableRecord
100
AcDbBlockTableRecord
  2
*Model_Space
340
1A
 70
0
280
1
281
0
  0
BLOCK_RECORD
  5
1B
330
9
100
AcDbSymbolTableRecord
100
AcDbBlockTableRecord
  2
*Paper_Space
340
1E
 70
0
280
1
281
0
  0
ENDTAB
  0
ENDSEC
  0
SECTION
  2
BLOCKS
  0
BLOCK
  5
18
330
17
100
AcDbEntity
  8
0
100
AcDbBlockBegin
  2
*Model_Space
 70
0
 10
0.0
 20
0.0
 30
0.0
  3
*Model_Space
  1

  0
ENDBLK
  5
19
330
17
100
AcDbEntity
  8
0
100
AcDbBlockEnd
  0
BLOCK
  5
1C
330
1B
100
AcDbEntity
  8
0
100
AcDbBlockBegin
  2
*Paper_Space
 70
0
 10
0.0
 20
0.0
 30
0.0
  3
*Paper_Space
  1

  0
ENDBLK
  5
1D
330
1B
100
AcDbEntity
  8
0
100
AcDbBlockEnd
  0
ENDSEC
  0
SECTION
  2
ENTITIES
  0
LWPOLYLINE
  5
2D
330
17
100
AcDbEntity
  8
0
100
AcDbPolyline
 90
4
 70
0
 10
134.3571381062921
 20
-74.65231435813105
 10
133.2360443562921
 20
-74.65231435813105
 10
134.3571381062921
 20
-73.03903310813105
 10
134.3571381062921
 20
-74.65231435813105
  0
LWPOLYLINE
  5
2E
330
17
100
AcDbEntity
  8
0
100
AcDbPolyline
 90
92
 70
0
 10
-51.29352908340182
 20
-74.61090810813104
 10
-51.29352908340182
 20
-74.77262685813105
 10
-51.294240020901825
 20
-74.82918935813105
 10
-51.296372833401826
 20
-74.88293935813104
 10
-51.299927520901825
 20
-74.93387685813104
 10
-51.30490408340182
 20
-74.98200185813104
 10
-51.311302520901826
 20
-75.02731435813105
 10
-51.31912283340183
 20
-75.06981435813104
 10
-51.32836502090183
 20
-75.10950185813104
 10
-51.339029083401826
 20
-75.14637685813105
 10
-51.35111502090182
 20
-75.18043935813104
 10
-51.364622833401825
 20
-75.21168935813104
 10
-51.384263458401826
 20
-75.24946279563105
 10
-51.40599783340183
 20
-75.28559560813105
 10
-51.42982595840182
 20
-75.32008779563104
 10
-51.45574783340182
 20
-75.35293935813104
 10
-51.483763458401825
 20
-75.38415029563104
 10
-51.51387283340183
 20
-75.41372060813104
 10
-51.54607595840182
 20
-75.44165029563105
 10
-51.580372833401825
 20
-75.46793935813105
 10
-51.61676345840182
 20
-75.49258779563104
 10
-51.65524783340182
 20
-75.51559560813105
 10
-51.69534158340183
 20
-75.53667373313104
 10
-51.736560333401826
 20
-75.55553310813104
 10
-51.77890408340183
 20
-75.57217373313104
 10
-51.82237283340182
 20
-75.58659560813105
 10
-51.866966583401826
 20
-75.59879873313105
 10
-51.912685333401825
 20
-75.60878310813105
 10
-51.959529083401826
 20
-75.61654873313104
 10
-52.00749783340182
 20
-75.62209560813105
 10
-52.056591583401826
 20
-75.62542373313104
 10
-52.106810333401825
 20
-75.62653310813104
 10
-52.15683377090183
 20
-75.62536123313104
 10
-52.204404083401826
 20
-75.62184560813104
 10
-52.24952127090182
 20
-75.61598623313104
 10
-52.292185333401825
 20
-75.60778310813104
 10
-52.332396270901825
 20
-75.59723623313104
 10
-52.37015408340182
 20
-75.58434560813104
 10
-52.405458770901824
 20
-75.56911123313104
 10
-52.43831033340182
 20
-75.55153310813104
 10
-52.46870877090183
 20
-75.53161123313104
 10
-52.49665408340182
 20
-75.50934560813104
 10
-52.521888458401826
 20
-75.48532217063105
 10
-52.54446658340182
 20
-75.46012685813105
 10
-52.56438845840182
 20
-75.43375967063105
 10
-52.58165408340182
 20
-75.40622060813105
 10
-52.59626345840182
 20
-75.37750967063104
 10
-52.60821658340183
 20
-75.34762685813105
 10
-52.617513458401824
 20
-75.31657217063105
 10
-52.62415408340183
 20
-75.28434560813105
 10
-52.62813845840182
 20
-75.25094717063105
 10
-52.62946658340182
 20
-75.21637685813104
 10
-52.628857208401826
 20
-75.19361904563104
 10
-52.62702908340182
 20
-75.17128310813105
 10
-52.62398220840183
 20
-75.14936904563105
 10
-52.619716583401825
 20
-75.12787685813105
 10
-52.61423220840182
 20
-75.10680654563104
 10
-52.60752908340182
 20
-75.08615810813104
 10
-52.59960720840182
 20
-75.06593154563105
 10
-52.59046658340182
 20
-75.04612685813105
 10
-52.58010720840183
 20
-75.02674404563105
 10
-52.56852908340183
 20
-75.00778310813105
 10
-52.555685333401826
 20
-74.98948623313105
 10
-52.541841583401826
 20
-74.97209560813104
 10
-52.52699783340182
 20
-74.95561123313105
 10
-52.51115408340183
 20
-74.94003310813105
 10
-52.49431033340183
 20
-74.92536123313104
 10
-52.47646658340182
 20
-74.91159560813105
 10
-52.45762283340183
 20
-74.89873623313105
 10
-52.43777908340182
 20
-74.88678310813104
 10
-52.416935333401824
 20
-74.87573623313105
 10
-52.39509158340182
 20
-74.86559560813104
 10
-52.371005645901825
 20
-74.85585342063105
 10
-52.34374783340182
 20
-74.84631435813104
 10
-52.313318145901825
 20
-74.83697842063104
 10
-52.27971658340182
 20
-74.82784560813104
 10
-52.242943145901826
 20
-74.81891592063104
 10
-52.202997833401824
 20
-74.81018935813104
 10
-52.15988064590182
 20
-74.80166592063104
 10
-52.11359158340182
 20
-74.79334560813105
 10
-52.06413064590183
 20
-74.78522842063104
 10
-52.011497833401826
 20
-74.77731435813105
 10
-51.91825564590182
 20
-74.76327529563105
 10
-51.829779083401824
 20
-74.74865810813104
 10
-51.74606814590182
 20
-74.73346279563104
 10
-51.66712283340183
 20
-74.71768935813104
 10
-51.59294314590183
 20
-74.70133779563105
 10
-51.523529083401826
 20
-74.68440810813104
 10
-51.45888064590182
 20
-74.66690029563105
 10
-51.39899783340182
 20
-74.64881435813105
 10
-51.34388064590183
 20
-74.63015029563104
 10
-51.29352908340182
 20
-74.61090810813104
  0
LWPOLYLINE
  5
2F
330
17
100
AcDbEntity
  8
0
100
AcDbPolyline
 90
42
 70
0
 10
127.56748966879209
 20
-74.36715810813105
 10
127.57370841879208
 20
-74.30056435813104
 10
127.58361466879208
 20
-74.23672060813105
 10
127.59720841879209
 20
-74.17562685813104
 10
127.61448966879209
 20
-74.11728310813105
 10
127.63545841879208
 20
-74.06168935813105
 10
127.66011466879209
 20
-74.00884560813104
 10
127.6884584187921
 20
-73.95875185813105
 10
127.72048966879208
 20
-73.91140810813104
 10
127.75620841879208
 20
-73.86681435813105
 10
127.79561466879208
 20
-73.82497060813104
 10
127.83783341879209
 20
-73.78652529563105
 10
127.88198966879209
 20
-73.75212685813105
 10
127.92808341879208
 20
-73.72177529563105
 10
127.97611466879209
 20
-73.69547060813105
 10
128.0260834187921
 20
-73.67321279563104
 10
128.0779896687921
 20
-73.65500185813104
 10
128.1318334187921
 20
-73.64083779563104
 10
128.1876146687921
 20
-73.63072060813104
 10
128.2453334187921
 20
-73.62465029563104
 10
128.30498966879208
 20
-73.62262685813104
 10
128.3706224812921
 20
-73.62516592063105
 10
128.4337709187921
 20
-73.63278310813105
 10
128.4944349812921
 20
-73.64547842063105
 10
128.5526146687921
 20
-73.66325185813105
 10
128.60830998129208
 20
-73.68610342063104
 10
128.6615209187921
 20
-73.71403310813105
 10
128.71224748129208
 20
-73.74704092063105
 10
128.7604896687921
 20
-73.78512685813105
 10
128.80624748129208
 20
-73.82829092063105
 10
128.84952091879208
 20
-73.87653310813104
 10
128.8757865437921
 20
-73.91082998313104
 10
128.89989591879208
 20
-73.94840810813105
 10
128.9218490437921
 20
-73.98926748313104
 10
128.9416459187921
 20
-74.03340810813104
 10
128.95928654379208
 20
-74.08082998313104
 10
128.9747709187921
 20
-74.13153310813104
 10
128.9880990437921
 20
-74.18551748313105
 10
128.9992709187921
 20
-74.24278310813105
 10
129.00828654379208
 20
-74.30332998313105
 10
129.0151459187921
 20
-74.36715810813105
 10
127.56748966879209
 20
-74.36715810813105
  0
LWPOLYLINE
  5
30
330
17
100
AcDbEntity
  8
0
100
AcDbPolyline
 90
92
 70
0
 10
123.61016545004209
 20
-74.61090810813104
 10
123.61016545004209
 20
-74.77262685813105
 10
123.60945451254209
 20
-74.82918935813105
 10
123.60732170004209
 20
-74.88293935813104
 10
123.60376701254208
 20
-74.93387685813104
 10
123.59879045004209
 20
-74.98200185813104
 10
123.59239201254209
 20
-75.02731435813105
 10
123.58457170004209
 20
-75.06981435813104
 10
123.57532951254208
 20
-75.10950185813104
 10
123.56466545004209
 20
-75.14637685813105
 10
123.55257951254208
 20
-75.18043935813104
 10
123.53907170004209
 20
-75.21168935813104
 10
123.51943107504209
 20
-75.24946279563105
 10
123.49769670004208
 20
-75.28559560813105
 10
123.47386857504209
 20
-75.32008779563104
 10
123.44794670004208
 20
-75.35293935813104
 10
123.41993107504209
 20
-75.38415029563104
 10
123.38982170004209
 20
-75.41372060813104
 10
123.3576185750421
 20
-75.44165029563105
 10
123.32332170004209
 20
-75.46793935813105
 10
123.28693107504209
 20
-75.49258779563104
 10
123.24844670004208
 20
-75.51559560813105
 10
123.20835295004208
 20
-75.53667373313104
 10
123.16713420004209
 20
-75.55553310813104
 10
123.12479045004208
 20
-75.57217373313104
 10
123.08132170004208
 20
-75.58659560813105
 10
123.03672795004209
 20
-75.59879873313105
 10
122.99100920004209
 20
-75.60878310813105
 10
122.94416545004208
 20
-75.61654873313104
 10
122.89619670004208
 20
-75.62209560813105
 10
122.84710295004209
 20
-75.62542373313104
 10
122.79688420004209
 20
-75.62653310813104
 10
122.74686076254208
 20
-75.62536123313104
 10
122.69929045004208
 20
-75.62184560813104
 10
122.65417326254209
 20
-75.61598623313104
 10
122.6115092000421
 20
-75.60778310813104
 10
122.57129826254209
 20
-75.59723623313104
 10
122.5335404500421
 20
-75.58434560813104
 10
122.4982357625421
 20
-75.56911123313104
 10
122.46538420004208
 20
-75.55153310813104
 10
122.43498576254208
 20
-75.53161123313104
 10
122.40704045004209
 20
-75.50934560813104
 10
122.38180607504208
 20
-75.48532217063105
 10
122.35922795004208
 20
-75.46012685813105
 10
122.33930607504209
 20
-75.43375967063105
 10
122.3220404500421
 20
-75.40622060813105
 10
122.30743107504209
 20
-75.37750967063104
 10
122.29547795004208
 20
-75.34762685813105
 10
122.2861810750421
 20
-75.31657217063105
 10
122.27954045004208
 20
-75.28434560813105
 10
122.27555607504209
 20
-75.25094717063105
 10
122.27422795004209
 20
-75.21637685813104
 10
122.27483732504209
 20
-75.19361904563104
 10
122.27666545004209
 20
-75.17128310813105
 10
122.27971232504208
 20
-75.14936904563105
 10
122.28397795004209
 20
-75.12787685813105
 10
122.28946232504208
 20
-75.10680654563104
 10
122.29616545004208
 20
-75.08615810813104
 10
122.30408732504209
 20
-75.06593154563105
 10
122.31322795004209
 20
-75.04612685813105
 10
122.32358732504208
 20
-75.02674404563105
 10
122.33516545004208
 20
-75.00778310813105
 10
122.34800920004209
 20
-74.98948623313105
 10
122.36185295004208
 20
-74.97209560813104
 10
122.37669670004209
 20
-74.95561123313105
 10
122.39254045004208
 20
-74.94003310813105
 10
122.40938420004208
 20
-74.92536123313104
 10
122.4272279500421
 20
-74.91159560813105
 10
122.44607170004208
 20
-74.89873623313105
 10
122.46591545004209
 20
-74.88678310813104
 10
122.48675920004209
 20
-74.87573623313105
 10
122.50860295004209
 20
-74.86559560813104
 10
122.5326888875421
 20
-74.85585342063105
 10
122.55994670004209
 20
-74.84631435813104
 10
122.59037638754208
 20
-74.83697842063104
 10
122.62397795004209
 20
-74.82784560813104
 10
122.66075138754209
 20
-74.81891592063104
 10
122.70069670004209
 20
-74.81018935813104
 10
122.74381388754209
 20
-74.80166592063104
 10
122.7901029500421
 20
-74.79334560813105
 10
122.83956388754208
 20
-74.78522842063104
 10
122.89219670004209
 20
-74.77731435813105
 10
122.98543888754209
 20
-74.76327529563105
 10
123.07391545004208
 20
-74.74865810813104
 10
123.15762638754208
 20
-74.73346279563104
 10
123.23657170004208
 20
-74.71768935813104
 10
123.31075138754208
 20
-74.70133779563105
 10
123.38016545004209
 20
-74.68440810813104
 10
123.4448138875421
 20
-74.66690029563105
 10
123.50469670004209
 20
-74.64881435813105
 10
123.55981388754208
 20
-74.63015029563104
 10
123.61016545004209
 20
-74.61090810813104
  0
LWPOLYLINE
  5
31
330
17
100
AcDbEntity
  8
0
100
AcDbPolyline
 90
81
 70
0
 10
-41.50358767715183
 20
-74.14762685813105
 10
-41.50132205215182
 20
-73.97677529563104
 10
-41.49452517715182
 20
-73.81703310813104
 10
-41.48319705215182
 20
-73.66840029563105
 10
-41.46733767715182
 20
-73.53087685813105
 10
-41.44694705215183
 20
-73.40446279563105
 10
-41.42202517715182
 20
-73.28915810813105
 10
-41.39257205215182
 20
-73.18496279563105
 10
-41.35858767715182
 20
-73.09187685813104
 10
-41.32007205215182
 20
-73.00990029563104
 10
-41.27702517715183
 20
-72.93903310813104
 10
-41.23956423965183
 20
-72.89034560813104
 10
-41.19968142715182
 20
-72.84678310813105
 10
-41.15737673965182
 20
-72.80834560813105
 10
-41.11265017715182
 20
-72.77503310813104
 10
-41.06550173965182
 20
-72.74684560813104
 10
-41.01593142715183
 20
-72.72378310813104
 10
-40.96393923965182
 20
-72.70584560813104
 10
-40.90952517715182
 20
-72.69303310813105
 10
-40.85268923965182
 20
-72.68534560813104
 10
-40.79343142715182
 20
-72.68278310813105
 10
-40.73288455215182
 20
-72.68568935813104
 10
-40.67436892715182
 20
-72.69440810813104
 10
-40.61788455215182
 20
-72.70893935813105
 10
-40.563431427151826
 20
-72.72928310813104
 10
-40.511009552151826
 20
-72.75543935813104
 10
-40.46061892715182
 20
-72.78740810813105
 10
-40.41225955215182
 20
-72.82518935813104
 10
-40.36593142715182
 20
-72.86878310813104
 10
-40.32163455215182
 20
-72.91818935813104
 10
-40.27936892715182
 20
-72.97340810813104
 10
-40.240181427151825
 20
-73.03732217063104
 10
-40.20511892715182
 20
-73.11312685813104
 10
-40.17418142715182
 20
-73.20082217063104
 10
-40.147368927151824
 20
-73.30040810813105
 10
-40.12468142715183
 20
-73.41188467063104
 10
-40.106118927151826
 20
-73.53525185813105
 10
-40.091681427151826
 20
-73.67050967063105
 10
-40.08136892715182
 20
-73.81765810813104
 10
-40.075181427151826
 20
-73.97669717063104
 10
-40.073118927151825
 20
-74.14762685813105
 10
-40.075181427151826
 20
-74.31754873313105
 10
-40.08136892715182
 20
-74.47575185813105
 10
-40.091681427151826
 20
-74.62223623313105
 10
-40.106118927151826
 20
-74.75700185813105
 10
-40.12468142715183
 20
-74.88004873313105
 10
-40.147368927151824
 20
-74.99137685813105
 10
-40.17418142715182
 20
-75.09098623313105
 10
-40.20511892715182
 20
-75.17887685813105
 10
-40.240181427151825
 20
-75.25504873313105
 10
-40.27936892715182
 20
-75.31950185813105
 10
-40.321587677151825
 20
-75.37516592063105
 10
-40.365743927151826
 20
-75.42497060813105
 10
-40.41183767715182
 20
-75.46891592063105
 10
-40.459868927151824
 20
-75.50700185813105
 10
-40.50983767715182
 20
-75.53922842063105
 10
-40.561743927151824
 20
-75.56559560813105
 10
-40.61558767715182
 20
-75.58610342063105
 10
-40.67136892715182
 20
-75.60075185813105
 10
-40.729087677151824
 20
-75.60954092063105
 10
-40.78874392715183
 20
-75.61247060813105
 10
-40.84825173965182
 20
-75.60955654563105
 10
-40.90583767715182
 20
-75.60081435813105
 10
-40.96150173965182
 20
-75.58624404563105
 10
-41.01524392715183
 20
-75.56584560813104
 10
-41.06706423965183
 20
-75.53961904563104
 10
-41.11696267715182
 20
-75.50756435813105
 10
-41.16493923965182
 20
-75.46968154563105
 10
-41.21099392715182
 20
-75.42597060813104
 10
-41.25512673965182
 20
-75.37643154563105
 10
-41.29733767715182
 20
-75.32106435813104
 10
-41.33652517715183
 20
-75.25673623313105
 10
-41.37158767715182
 20
-75.18062685813105
 10
-41.40252517715182
 20
-75.09273623313105
 10
-41.42933767715182
 20
-74.99306435813105
 10
-41.452025177151825
 20
-74.88161123313104
 10
-41.470587677151826
 20
-74.75837685813104
 10
-41.485025177151826
 20
-74.62336123313105
 10
-41.495337677151824
 20
-74.47656435813104
 10
-41.50152517715182
 20
-74.31798623313105
 10
-41.50358767715183
 20
-74.14762685813105
  0
LWPOLYLINE
  5
32
330
17
100
AcDbEntity
  8
0
100
AcDbPolyline
 90
42
 70
0
 10
-47.336204864651826
 20
-74.36715810813105
 10
-47.329986114651824
 20
-74.30056435813104
 10
-47.320079864651824
 20
-74.23672060813105
 10
-47.306486114651825
 20
-74.17562685813104
 10
-47.28920486465182
 20
-74.11728310813105
 10
-47.26823611465183
 20
-74.06168935813105
 10
-47.24357986465182
 20
-74.00884560813104
 10
-47.21523611465182
 20
-73.95875185813105
 10
-47.18320486465183
 20
-73.91140810813104
 10
-47.14748611465183
 20
-73.86681435813105
 10
-47.10807986465183
 20
-73.82497060813104
 10
-47.065861114651824
 20
-73.78652529563105
 10
-47.021704864651824
 20
-73.75212685813105
 10
-46.97561111465183
 20
-73.72177529563105
 10
-46.927579864651825
 20
-73.69547060813105
 10
-46.87761111465183
 20
-73.67321279563104
 10
-46.825704864651826
 20
-73.65500185813104
 10
-46.77186111465183
 20
-73.64083779563104
 10
-46.716079864651824
 20
-73.63072060813104
 10
-46.658361114651825
 20
-73.62465029563104
 10
-46.59870486465182
 20
-73.62262685813104
 10
-46.53307205215182
 20
-73.62516592063105
 10
-46.46992361465182
 20
-73.63278310813105
 10
-46.40925955215182
 20
-73.64547842063105
 10
-46.35107986465182
 20
-73.66325185813105
 10
-46.29538455215182
 20
-73.68610342063104
 10
-46.242173614651826
 20
-73.71403310813105
 10
-46.19144705215182
 20
-73.74704092063105
 10
-46.14320486465182
 20
-73.78512685813105
 10
-46.09744705215182
 20
-73.82829092063105
 10
-46.05417361465182
 20
-73.87653310813104
 10
-46.02790798965182
 20
-73.91082998313104
 10
-46.00379861465182
 20
-73.94840810813105
 10
-45.981845489651825
 20
-73.98926748313104
 10
-45.96204861465182
 20
-74.03340810813104
 10
-45.94440798965182
 20
-74.08082998313104
 10
-45.92892361465182
 20
-74.13153310813104
 10
-45.91559548965182
 20
-74.18551748313105
 10
-45.90442361465182
 20
-74.24278310813105
 10
-45.89540798965182
 20
-74.30332998313105
 10
-45.888548614651825
 20
-74.36715810813105
 10
-47.336204864651826
 20
-74.36715810813105
  0
LWPOLYLINE
  5
33
330
17
100
AcDbEntity
  8
0
100
AcDbPolyline
 90
5
 70
0
 10
91.39240021457013
 20
-85.864317874853
 10
-73.5112943188738
 20
-85.864317874853
 10
-73.5112943188738
 20
59.039376658590925
 10
91.39240021457013
 20
59.039376658590925
 10
91.39240021457013
 20
-85.864317874853
  0
LWPOLYLINE
  5
34
330
17
100
AcDbEntity
  8
0
100
AcDbPolyline
 90
48
 70
0
 10
0.9654972033714853
 20
-0.20600662387478394
 10
0.9684575378682938
 20
-0.20611113511808632
 10
1.0845985129920974
 20
-0.4354990194477203
 10
0.7339315595628668
 20
-0.6466306352688062
 10
0.7276868838108328
 20
-0.6799565845370754
 10
0.748990722886505
 20
-0.8852815165287856
 10
0.8178993066457156
 20
-1.091375920601558
 10
0.8182238104294653
 20
-1.0919148865579096
 10
0.96812710167776
 20
-1.249243522154452
 10
1.3123617603867797
 20
-1.4798671373755243
 10
1.2453860019481795
 20
-0.8343593965621207
 10
11.468063419418387
 20
-7.68314920787121
 10
11.495810987092222
 20
-7.677665369052831
 10
12.003773514461077
 20
-6.919467614337076
 10
11.998289675642699
 20
-6.8917200466632424
 10
1.9079562333223195
 20
-0.13159546771737415
 10
1.913522557594626
 20
-0.002687960776496929
 10
13.665386077929526
 20
6.721316424569751
 10
13.672813017885924
 20
6.7486081918794
 10
13.223697244624127
 20
7.533549273075697
 10
13.234200523837394
 20
7.572145660546135
 10
26.39475154764923
 20
15.102151658706502
 10
26.43334793511967
 20
15.091648379493234
 10
26.642768562710902
 20
14.725633949288735
 10
26.642858382611234
 20
14.72586980243674
 10
26.82590033318674
 20
14.787209562762417
 10
26.82665967807784
 20
14.788191214127401
 10
26.865114211918474
 20
15.34182085472384
 10
26.838430192075048
 20
15.388457790416435
 10
26.390030823362693
 20
16.173018688074762
 10
26.33719593528367
 20
16.142822013062858
 10
26.335751554748157
 20
16.143372472452594
 10
26.3294077742328
 20
16.162302738265378
 10
25.94620663992407
 20
15.943048481006263
 10
12.753915303061552
 20
8.39488178826535
 10
12.746488363105154
 20
8.3675900209557
 10
13.195604136366953
 20
7.582648939759401
 10
13.185100857153685
 20
7.544052552288963
 10
1.1169531627605083
 20
0.6390814487959693
 10
0.9078079474864986
 20
0.7792004764202565
 10
0.8140878657304198
 20
0.9792568047841933
 10
0.6196546472434069
 20
0.6572287254418517
 10
0.6196129830345138
 20
0.6560485653850636
 10
0.84046587658624
 20
0.22368030452345328
 10
1.2379832088487277
 20
-0.043061340068184455
 10
1.237922629841133
 20
-0.044759686280355426
 10
0.9768178514603405
 20
-0.19415468832937452
 10
0.9654972033714853
 20
-0.20600662387478394
  0
LWPOLYLINE
  5
35
330
17
100
AcDbEntity
  8
0
100
AcDbPolyline
 90
46
 70
0
 10
0.23722497676837406
 20
-0.9456906475933943
 10
-0.021893402689898644
 20
-1.1017021611077615
 10
-0.19523300363293883
 20
-0.8335883903992846
 10
-0.3165715317347192
 20
-0.8535471366565092
 10
-0.5563371321845283
 20
-0.9588508114541451
 10
-0.5577339129848538
 20
-0.9580384273635303
 10
-0.6116909398705046
 20
-0.4380043233715144
 10
-0.8575747207133382
 20
-0.057682531465580396
 10
-0.8585578081888544
 20
-0.057111346604910004
 10
-1.256502312750162
 20
-0.03487211979973143
 10
-1.1263772055588517
 20
-0.31263917553502857
 10
-1.1081928178341858
 20
-0.48789905032965347
 10
-10.233154945153192
 20
-4.50530494266701
 10
-10.270438355464574
 20
-4.490815383820959
 10
-10.634836560631248
 20
-3.6631370484675085
 10
-10.661199912888186
 20
-3.652891383151064
 10
-20.901936833833425
 20
-8.161534408080499
 10
-21.307487789153736
 20
-8.340084496816655
 10
-21.295698560857524
 20
-8.35721224084748
 10
-21.296119348303673
 20
-8.358694449102728
 10
-21.349925488118153
 20
-8.38238343544183
 10
-20.986177279336818
 20
-9.208585396926791
 10
-20.964478447469514
 20
-9.25787118585728
 10
-20.49636326980378
 20
-9.555952904676385
 10
-20.49511939567431
 20
-9.55592549744996
 10
-20.336554723407055
 20
-9.446189179334425
 10
-20.33631826385925
 20
-9.446255984102233
 10
-20.50668593373117
 20
-9.059290221378074
 10
-20.49219637488512
 20
-9.022006811066694
 10
-10.284927914310625
 20
-4.52809879413234
 10
-10.247644503999243
 20
-4.542588352978392
 10
-9.883246298832569
 20
-5.370266688331843
 10
-9.856882946575631
 20
-5.380512353648288
 10
-0.9460082771667178
 20
-1.4573617801695773
 10
-0.7975832670105955
 20
-1.543598377477667
 10
0.3668203749143256
 20
-12.76604037465063
 10
0.3887776355283578
 20
-12.783869527920697
 10
1.2965324632447883
 20
-12.689683874955485
 10
1.3143616165148533
 20
-12.667726614341452
 10
0.15470567283755282
 20
-1.4910426054515886
 10
0.6938628380023837
 20
-1.8522565955521368
 10
0.6511009518079578
 20
-1.4401204855172405
 10
0.582192368076775
 20
-1.2340260815354926
 10
0.5818678642932039
 20
-1.2334871155793317
 10
0.43196457313962
 20
-1.076158480023991
 10
0.23722497676837406
 20
-0.9456906475933943
  0
LWPOLYLINE
  5
36
330
17
100
AcDbEntity
  8
0
100
AcDbPolyline
 90
5
 70
0
 10
-52.11770326122012
 20
-23.110712558450917
 10
-52.10723379486905
 20
-23.113896934687556
 10
-52.10185985334117
 20
-23.1104861852011
 10
-52.10558273042768
 20
-23.103019863254783
 10
-52.11770326122012
 20
-23.110712558450917
  0
LWPOLYLINE
  5
37
330
17
100
AcDbEntity
  8
0
100
AcDbPolyline
 90
36
 70
0
 10
-51.28112782225225
 20
-23.365164013632647
 10
-51.276346788149375
 20
-23.366618205362506
 10
-51.27713454406978
 20
-23.36996534005012
 10
-51.03625896628516
 20
-23.659582597374683
 10
-50.76666384110985
 20
-23.82639124873171
 10
-50.76580917119039
 20
-23.82659239728172
 10
-50.45011597788467
 20
-23.79753271066156
 10
-50.32010105515336
 20
-23.740291627424394
 10
-50.65202302067875
 20
-23.34120455441495
 10
-40.67061625334479
 20
-18.94673564578782
 10
-40.66037058802834
 20
-18.920372293530882
 10
-41.02810687545743
 20
-18.085111982385413
 10
-41.05447022771437
 20
-18.07486631706897
 10
-51.2746612438706
 20
-22.574463689226256
 10
-51.276200660334624
 20
-22.572038200606354
 10
-51.275203593221484
 20
-22.56732760919976
 10
-51.26853633220094
 20
-22.56429213382478
 10
-51.27199921199431
 20
-22.56236541875177
 10
-50.87827624625569
 20
-21.854728196545864
 10
-51.474464528061
 20
-22.117209320610552
 10
-51.75106549259501
 20
-22.428997135246462
 10
-51.75139560068995
 20
-22.430082451595595
 10
-51.743561763270804
 20
-22.697173845910342
 10
-51.744332075915054
 20
-22.69817652928648
 10
-51.755801572772825
 20
-22.7008779475949
 10
-51.752060707261954
 20
-22.71676065820235
 10
-51.74224068867176
 20
-22.74392129987531
 10
-51.74218153952035
 20
-22.744231994586357
 10
-51.74205525725585
 20
-22.7485375353194
 10
-51.73874206444294
 20
-22.757505028838494
 10
-51.73844050666004
 20
-22.757393613192992
 10
-51.73715351659409
 20
-22.757991625370238
 10
-51.712877007950944
 20
-22.82513666651971
 10
-51.71272412764728
 20
-22.825443271743666
 10
-51.64974619584186
 20
-22.92195493722756
 10
-51.28112782225225
 20
-23.365164013632647
  0
LWPOLYLINE
  5
38
330
17
100
AcDbEntity
  8
0
100
AcDbPolyline
 90
45
 70
0
 10
5.878149101589572
 20
-63.8026467481595
 10
5.904776221445463
 20
-63.778155085599664
 10
5.953179871485014
 20
-63.816834591712635
 10
6.458060251441831
 20
-63.912304275068614
 10
6.573710004659526
 20
-63.92047927232529
 10
6.573869430323786
 20
-63.920471974031486
 10
6.580836227125992
 20
-63.9201598359456
 10
6.617824901569201
 20
-63.91712245990425
 10
6.638290410927154
 20
-63.914673604818596
 10
6.978753188552211
 20
-63.71812258771326
 10
6.979358585135155
 20
-63.71731414043782
 10
7.076366962361087
 20
-63.36639111311107
 10
7.058390704175615
 20
-63.1930795759029
 10
6.607059603080885
 20
-63.4147153844762
 10
6.600619993579671
 20
-63.41662152509715
 10
6.5792770964233975
 20
-63.41917536637673
 10
6.580064297262203
 20
-63.418205899475446
 10
5.268621693443735
 20
-50.77861252819054
 10
5.293835923803884
 20
-50.747560272437624
 10
6.193350715405829
 20
-50.65422957849682
 10
6.211179868675895
 20
-50.63227231788278
 10
4.896818252161039
 20
-37.96454570354132
 10
4.851087500887796
 20
-37.52379587661471
 10
4.831171729136789
 20
-37.52977145645003
 10
4.829889683474973
 20
-37.52891684407807
 10
4.823822393616314
 20
-37.47044072292305
 10
3.925912115265455
 20
-37.5636049379602
 10
3.8723486786135326
 20
-37.5691625037512
 10
3.4451968408070965
 20
-37.92345876153548
 10
3.4448418858582093
 20
-37.9246512299797
 10
3.5007282221786276
 20
-38.109208897088266
 10
3.500592192892918
 20
-38.109413523644285
 10
3.9211437675039744
 20
-38.065778476546896
 10
3.952196023256896
 20
-38.090992706907045
 10
5.262783668050962
 20
-50.72234604207747
 10
5.237569437690813
 20
-50.75339829783039
 10
4.338054646088867
 20
-50.846728991771194
 10
4.3202254928188015
 20
-50.86868625238523
 10
5.604142620694271
 20
-63.24299098484019
 10
5.092424046476868
 20
-63.14622824228136
 10
5.107713564997781
 20
-63.2935875673329
 10
5.236909122684427
 20
-63.58018054467378
 10
5.23749939075646
 20
-63.580822278923705
 10
5.512318508782612
 20
-63.73347049920287
 10
5.878149101589572
 20
-63.8026467481595
  0
LWPOLYLINE
  5
39
330
17
100
AcDbEntity
  8
0
100
AcDbPolyline
 90
51
 70
0
 10
57.99170927462554
 20
-37.79766954577545
 10
57.98512556784673
 20
-37.76331081187574
 10
57.99617413403275
 20
-37.75819078891497
 10
58.03034383711682
 20
-37.45605867745945
 10
57.98721110923182
 20
-37.189911709081606
 10
57.98688966171723
 20
-37.189218053180525
 10
57.81170894999232
 20
-36.98426352351207
 10
57.59773331649427
 20
-36.840908306603865
 10
57.53458860676911
 20
-37.39924047680523
 10
46.4855584501284
 20
-29.996826992415517
 10
46.45781088245457
 20
-30.002310831233896
 10
45.95445932430618
 20
-30.75362613631675
 10
45.915218337778974
 20
-30.761381455547568
 10
34.47753552087251
 20
-23.098586050545016
 10
34.46978020164168
 20
-23.059345064017815
 10
34.70449072720597
 20
-22.70901017925224
 10
34.70423953487511
 20
-22.70903460739738
 10
34.567903217864256
 20
-22.572362259293364
 10
34.566686297829534
 20
-22.572118641364426
 10
34.05370582992571
 20
-22.783862755333022
 10
34.023799414421326
 20
-22.828501829837432
 10
33.52046981308237
 20
-23.579006398557294
 10
33.57101123717717
 20
-23.61290225463598
 10
33.571160481836124
 20
-23.61444074958245
 10
33.55702577739277
 20
-23.628540701516634
 10
33.92381111176919
 20
-23.87427237810479
 10
45.39187453118759
 20
-31.55742158597601
 10
45.419622098861424
 20
-31.55193774715763
 10
45.92297365700981
 20
-30.800622442074772
 10
45.96221464353702
 20
-30.792867122843955
 10
57.40231676811613
 20
-38.457283368362376
 10
57.391463925627455
 20
-38.4730833343143
 10
57.38379420790155
 20
-38.479711783894665
 10
56.89647010445809
 20
-38.719022727549934
 10
57.1235915397628
 20
-38.87118511207506
 10
57.49559769357982
 20
-38.94677995140153
 10
57.496590805274785
 20
-38.94658965462909
 10
57.814302167113254
 20
-38.738833430247176
 10
57.82409550067883
 20
-38.72457593628162
 10
57.83264870208247
 20
-38.70480923761979
 10
57.83268730852975
 20
-38.7047298321682
 10
57.88317317001027
 20
-38.611587458568806
 10
57.88330951328056
 20
-38.6112345472244
 10
57.89661418429227
 20
-38.55701847769638
 10
57.89666760364997
 20
-38.55685968326846
 10
57.90038024365997
 20
-38.54827966359465
 10
57.9004998059521
 20
-38.54773186249066
 10
57.90065094321276
 20
-38.54066927083066
 10
57.90067952996226
 20
-38.54045233612809
 10
57.913708681897226
 20
-38.48735899721159
 10
57.99170927462554
 20
-37.79766954577545
  0
LWPOLYLINE
  5
3A
330
17
100
AcDbEntity
  8
0
100
AcDbPolyline
 90
48
 70
0
 10
66.42916381615511
 20
36.80719166379851
 10
66.38921973127943
 20
36.83346785580619
 10
66.43510470513444
 20
36.85972162950674
 10
66.5291390229568
 20
37.69118296598344
 10
66.52570064989364
 20
37.82826187002808
 10
66.52563486694049
 20
37.82866243485077
 10
66.48505134546264
 20
37.959641158793715
 10
66.47646783321635
 20
37.97796098158838
 10
66.40179758284869
 20
38.092968819178765
 10
66.40152931940527
 20
38.09327869162664
 10
66.3048974651961
 20
38.179300819857346
 10
66.29783712690644
 20
38.18410527706787
 10
66.11809296181542
 20
38.26027541685688
 10
66.11707168729711
 20
38.26048685328798
 10
65.7677687680925
 20
38.20491823106476
 10
65.02593571552708
 20
37.78049553208771
 10
66.00620028233183
 20
37.78049553208771
 10
66.01390793358944
 20
37.77895066991139
 10
66.0146662242938
 20
37.77863397543005
 10
66.0165800395634
 20
37.77237311542024
 10
52.86315259532401
 20
30.246442979798754
 10
52.824556207853576
 20
30.256946259012018
 10
52.37544043459179
 20
31.041887340208316
 10
52.34814866728213
 20
31.04931428016471
 10
39.15585733041961
 20
23.501147587423798
 10
38.77124703958284
 20
23.28108706019245
 10
38.78476600385436
 20
23.265288860243242
 10
38.784502837069724
 20
23.263770721043734
 10
38.73347498263346
 20
23.234574371336155
 10
39.18178964398485
 20
22.451033431793963
 10
39.20853315557991
 20
22.404292519526184
 10
39.70530433647994
 20
22.1569002714765
 10
39.70653849202547
 20
22.15705785984959
 10
39.85273227646842
 20
22.282804400449482
 10
39.852974434171095
 20
22.28276273942572
 10
39.642998625615206
 20
22.649747485910783
 10
39.653501904828474
 20
22.688343873381218
 10
52.81405292864031
 20
30.21834987154158
 10
52.85264931611074
 20
30.207846592328316
 10
53.30176508937253
 20
29.42290551113202
 10
53.329056856682186
 20
29.415478571175623
 10
65.90477923340664
 20
36.61086611662105
 10
65.8352616581467
 20
35.99618439853313
 10
66.15205059614888
 20
36.17743992491503
 10
66.32129052885276
 20
36.33647462609433
 10
66.32165803765548
 20
36.337033299238605
 10
66.40068850699159
 20
36.55540998279119
 10
66.42916381615511
 20
36.80719166379851
  0
LWPOLYLINE
  5
3B
330
17
100
AcDbEntity
  8
0
100
AcDbPolyline
 90
48
 70
0
 10
-18.558963989081093
 20
37.25900953974385
 10
-18.53977435104421
 20
37.21804704316512
 10
-18.58095701462639
 20
37.21948153437222
 10
-18.705589070478254
 20
36.99548067723487
 10
-18.705914830498404
 20
36.994895189631094
 10
-18.7044810285823
 20
36.54581104163507
 10
-18.70505679863704
 20
36.544902292038685
 10
-18.71989937871783
 20
36.53794901128011
 10
-18.568697298095007
 20
36.21519072379696
 10
-18.269539328039667
 20
36.75286653484237
 10
-15.034067745419494
 20
29.846379118095488
 10
-15.007472110683288
 20
29.836752477301403
 10
-14.188537468322833
 20
30.22039753498378
 10
-14.150925560978976
 20
30.206783409012687
 10
-10.634192229435405
 20
22.699910335910097
 10
-10.647806355406495
 20
22.66229842856624
 10
-11.029671827436117
 20
22.483406495723532
 10
-11.029444079738127
 20
22.483297751489154
 10
-10.98322720201563
 20
22.29586530508785
 10
-10.982310706927688
 20
22.295028477256032
 10
-10.433657251083071
 20
22.211578397711854
 10
-10.385000602733685
 20
22.234372503182428
 10
-9.566503269371323
 20
22.617334526562097
 10
-9.59229318031444
 20
22.67245480495235
 10
-9.591626828355224
 20
22.673849514861903
 10
-9.572242495782866
 20
22.678629281393963
 10
-9.759534541965943
 20
23.07842576459245
 10
-13.291781157911222
 20
30.61841373324484
 10
-13.318376792647427
 20
30.628040374038925
 10
-14.137311435007883
 20
30.24439531635655
 10
-14.17492334235174
 20
30.25800944232764
 10
-17.69232765787141
 20
37.76631480814843
 10
-17.67895265248036
 20
37.77336009027367
 10
-17.66596012257298
 20
37.78049553208771
 10
-17.14792874614002
 20
37.78049553208771
 10
-17.239923290070614
 20
37.97686850086253
 10
-17.533245417475477
 20
38.238478090482175
 10
-17.53422836553911
 20
38.23880812890293
 10
-17.925993632384152
 20
38.20722611656851
 10
-17.9383288639633
 20
38.200728535176026
 10
-17.999565041990014
 20
38.16258365010956
 10
-17.99973949599532
 20
38.16245661917858
 10
-18.054841882022554
 20
38.115888080360364
 10
-18.062737946960905
 20
38.10817094182588
 10
-18.110557028137716
 20
38.05415023503538
 10
-18.11068802364281
 20
38.05397873800656
 10
-18.150226231460504
 20
37.993632806812734
 10
-18.558963989081093
 20
37.25900953974385
  0
LWPOLYLINE
  5
3C
330
17
100
AcDbEntity
  8
0
100
AcDbPolyline
 90
33
 70
0
 10
81.44055294784818
 20
-73.41247060813104
 10
81.39251614885625
 20
-72.92474480309072
 10
81.25025177912639
 20
-72.45576202721831
 10
81.01922697860454
 20
-72.02354502558204
 10
80.70831990081454
 20
-71.64470365516468
 10
80.32947853039717
 20
-71.33379657737468
 10
79.8972615287609
 20
-71.10277177685282
 10
79.42827875288849
 20
-70.96050740712296
 10
78.94055294784816
 20
-70.91247060813104
 10
78.45282714280785
 20
-70.96050740712298
 10
77.98384436693544
 20
-71.10277177685283
 10
77.55162736529915
 20
-71.33379657737468
 10
77.17278599488179
 20
-71.64470365516469
 10
76.8618789170918
 20
-72.02354502558205
 10
76.63085411656995
 20
-72.45576202721833
 10
76.48858974684009
 20
-72.92474480309073
 10
76.44055294784818
 20
-73.41247060813106
 10
76.4885897468401
 20
-73.90019641317137
 10
76.63085411656996
 20
-74.36917918904378
 10
76.86187891709181
 20
-74.80139619068005
 10
77.1727859948818
 20
-75.18023756109741
 10
77.55162736529917
 20
-75.4911446388874
 10
77.98384436693546
 20
-75.72216943940927
 10
78.45282714280786
 20
-75.86443380913911
 10
78.94055294784818
 20
-75.91247060813104
 10
79.4282787528885
 20
-75.86443380913911
 10
79.89726152876091
 20
-75.72216943940926
 10
80.32947853039718
 20
-75.4911446388874
 10
80.70831990081454
 20
-75.18023756109741
 10
81.01922697860454
 20
-74.80139619068005
 10
81.25025177912639
 20
-74.36917918904376
 10
81.39251614885625
 20
-73.90019641317137
 10
81.44055294784818
 20
-73.41247060813104
  0
LWPOLYLINE
  5
3D
330
17
100
AcDbEntity
  8
0
100
AcDbPolyline
 90
33
 70
0
 10
-58.559447052151825
 20
-73.41247060813104
 10
-58.60748385114375
 20
-72.92474480309072
 10
-58.74974822087361
 20
-72.45576202721831
 10
-58.980773021395464
 20
-72.02354502558204
 10
-59.29168009918546
 20
-71.64470365516468
 10
-59.670521469602825
 20
-71.33379657737468
 10
-60.10273847123911
 20
-71.10277177685282
 10
-60.57172124711151
 20
-70.96050740712296
 10
-61.05944705215183
 20
-70.91247060813104
 10
-61.54717285719215
 20
-70.96050740712298
 10
-62.01615563306456
 20
-71.10277177685283
 10
-62.44837263470084
 20
-71.33379657737468
 10
-62.8272140051182
 20
-71.64470365516469
 10
-63.13812108290819
 20
-72.02354502558205
 10
-63.36914588343004
 20
-72.45576202721833
 10
-63.5114102531599
 20
-72.92474480309073
 10
-63.559447052151825
 20
-73.41247060813106
 10
-63.5114102531599
 20
-73.90019641317137
 10
-63.369145883430036
 20
-74.36917918904378
 10
-63.138121082908185
 20
-74.80139619068005
 10
-62.827214005118186
 20
-75.18023756109741
 10
-62.448372634700824
 20
-75.4911446388874
 10
-62.01615563306454
 20
-75.72216943940927
 10
-61.54717285719214
 20
-75.86443380913911
 10
-61.05944705215182
 20
-75.91247060813104
 10
-60.5717212471115
 20
-75.86443380913911
 10
-60.1027384712391
 20
-75.72216943940926
 10
-59.67052146960282
 20
-75.4911446388874
 10
-59.291680099185456
 20
-75.18023756109741
 10
-58.980773021395464
 20
-74.80139619068005
 10
-58.749748220873606
 20
-74.36917918904376
 10
-58.60748385114375
 20
-73.90019641317137
 10
-58.559447052151825
 20
-73.41247060813104
  0
LWPOLYLINE
  5
3E
330
17
100
AcDbEntity
  8
0
100
AcDbPolyline
 90
33
 70
0
 10
81.44055294784818
 20
46.587529391868955
 10
81.39251614885625
 20
47.07525519690928
 10
81.25025177912639
 20
47.54423797278169
 10
81.01922697860454
 20
47.97645497441797
 10
80.70831990081454
 20
48.35529634483533
 10
80.32947853039717
 20
48.66620342262532
 10
79.8972615287609
 20
48.897228223147174
 10
79.42827875288849
 20
49.03949259287703
 10
78.94055294784816
 20
49.087529391868955
 10
78.45282714280785
 20
49.03949259287703
 10
77.98384436693544
 20
48.89722822314717
 10
77.55162736529915
 20
48.666203422625316
 10
77.17278599488179
 20
48.35529634483532
 10
76.8618789170918
 20
47.976454974417955
 10
76.63085411656995
 20
47.54423797278167
 10
76.48858974684009
 20
47.07525519690927
 10
76.44055294784818
 20
46.58752939186895
 10
76.4885897468401
 20
46.09980358682863
 10
76.63085411656996
 20
45.63082081095622
 10
76.86187891709181
 20
45.19860380931994
 10
77.1727859948818
 20
44.81976243890258
 10
77.55162736529917
 20
44.50885536111259
 10
77.98384436693546
 20
44.277830560590736
 10
78.45282714280786
 20
44.13556619086088
 10
78.94055294784818
 20
44.087529391868955
 10
79.4282787528885
 20
44.13556619086088
 10
79.89726152876091
 20
44.277830560590736
 10
80.32947853039718
 20
44.508855361112595
 10
80.70831990081454
 20
44.819762438902586
 10
81.01922697860454
 20
45.19860380931995
 10
81.25025177912639
 20
45.63082081095623
 10
81.39251614885625
 20
46.099803586828635
 10
81.44055294784818
 20
46.587529391868955
  0
LWPOLYLINE
  5
3F
330
17
100
AcDbEntity
  8
0
100
AcDbPolyline
 90
33
 70
0
 10
-58.559447052151825
 20
46.587529391868955
 10
-58.60748385114375
 20
47.07525519690928
 10
-58.74974822087361
 20
47.54423797278169
 10
-58.980773021395464
 20
47.97645497441797
 10
-59.29168009918546
 20
48.35529634483533
 10
-59.670521469602825
 20
48.66620342262532
 10
-60.10273847123911
 20
48.897228223147174
 10
-60.57172124711151
 20
49.03949259287703
 10
-61.05944705215183
 20
49.087529391868955
 10
-61.54717285719215
 20
49.03949259287703
 10
-62.01615563306456
 20
48.89722822314717
 10
-62.44837263470084
 20
48.666203422625316
 10
-62.8272140051182
 20
48.35529634483532
 10
-63.13812108290819
 20
47.976454974417955
 10
-63.36914588343004
 20
47.54423797278167
 10
-63.5114102531599
 20
47.07525519690927
 10
-63.559447052151825
 20
46.58752939186895
 10
-63.5114102531599
 20
46.09980358682863
 10
-63.369145883430036
 20
45.63082081095622
 10
-63.138121082908185
 20
45.19860380931994
 10
-62.827214005118186
 20
44.81976243890258
 10
-62.448372634700824
 20
44.50885536111259
 10
-62.01615563306454
 20
44.277830560590736
 10
-61.54717285719214
 20
44.13556619086088
 10
-61.05944705215182
 20
44.087529391868955
 10
-60.5717212471115
 20
44.13556619086088
 10
-60.1027384712391
 20
44.277830560590736
 10
-59.67052146960282
 20
44.508855361112595
 10
-59.291680099185456
 20
44.819762438902586
 10
-58.980773021395464
 20
45.19860380931995
 10
-58.749748220873606
 20
45.63082081095623
 10
-58.60748385114375
 20
46.099803586828635
 10
-58.559447052151825
 20
46.587529391868955
  0
LWPOLYLINE
  5
40
330
17
100
AcDbEntity
  8
0
100
AcDbPolyline
 90
121
 70
0
 10
-41.95515017715182
 20
-74.14762685813105
 10
-41.951611114651826
 20
-74.34357998313105
 10
-41.94099392715182
 20
-74.52831435813104
 10
-41.92329861465183
 20
-74.70182998313105
 10
-41.898525177151825
 20
-74.86412685813104
 10
-41.86667361465182
 20
-75.01520498313104
 10
-41.82774392715182
 20
-75.15506435813104
 10
-41.78173611465182
 20
-75.28370498313105
 10
-41.72865017715182
 20
-75.40112685813105
 10
-41.66848611465183
 20
-75.50732998313104
 10
-41.60124392715183
 20
-75.60231435813104
 10
-41.53996267715182
 20
-75.67282217063105
 10
-41.47424392715182
 20
-75.73590810813104
 10
-41.40408767715182
 20
-75.79157217063104
 10
-41.32949392715182
 20
-75.83981435813105
 10
-41.25046267715182
 20
-75.88063467063104
 10
-41.16699392715182
 20
-75.91403310813105
 10
-41.079087677151826
 20
-75.94000967063104
 10
-40.98674392715182
 20
-75.95856435813104
 10
-40.88996267715182
 20
-75.96969717063105
 10
-40.78874392715183
 20
-75.97340810813104
 10
-40.71136111465182
 20
-75.97129873313105
 10
-40.63671267715182
 20
-75.96497060813104
 10
-40.56479861465182
 20
-75.95442373313105
 10
-40.495618927151824
 20
-75.93965810813104
 10
-40.42917361465182
 20
-75.92067373313104
 10
-40.365462677151825
 20
-75.89747060813104
 10
-40.30448611465182
 20
-75.87004873313104
 10
-40.24624392715182
 20
-75.83840810813105
 10
-40.19073611465183
 20
-75.80254873313105
 10
-40.137962677151826
 20
-75.76247060813104
 10
-40.08768923965182
 20
-75.71837685813105
 10
-40.039993927151826
 20
-75.67078310813105
 10
-39.99487673965182
 20
-75.61968935813104
 10
-39.952337677151824
 20
-75.56509560813105
 10
-39.91237673965182
 20
-75.50700185813105
 10
-39.87499392715182
 20
-75.44540810813105
 10
-39.84018923965182
 20
-75.38031435813105
 10
-39.80796267715182
 20
-75.31172060813104
 10
-39.77831423965182
 20
-75.23962685813105
 10
-39.75124392715182
 20
-75.16403310813105
 10
-39.72660330215182
 20
-75.08425967063104
 10
-39.70455642715182
 20
-74.99962685813105
 10
-39.68510330215182
 20
-74.91013467063104
 10
-39.66824392715182
 20
-74.81578310813104
 10
-39.65397830215183
 20
-74.71657217063104
 10
-39.64230642715182
 20
-74.61250185813104
 10
-39.63322830215182
 20
-74.50357217063105
 10
-39.62674392715182
 20
-74.38978310813104
 10
-39.622853302151825
 20
-74.27113467063104
 10
-39.62155642715182
 20
-74.14762685813105
 10
-39.622361114651824
 20
-74.04325967063104
 10
-39.62477517715182
 20
-73.94328310813104
 10
-39.62879861465183
 20
-73.84769717063105
 10
-39.634431427151824
 20
-73.75650185813105
 10
-39.64167361465182
 20
-73.66969717063104
 10
-39.65052517715182
 20
-73.58728310813105
 10
-39.66098611465182
 20
-73.50925967063104
 10
-39.67305642715182
 20
-73.43562685813104
 10
-39.68673611465182
 20
-73.36638467063105
 10
-39.702025177151825
 20
-73.30153310813104
 10
-39.718736114651826
 20
-73.23968154563104
 10
-39.73668142715182
 20
-73.17975185813104
 10
-39.75586111465182
 20
-73.12174404563105
 10
-39.776275177151824
 20
-73.06565810813105
 10
-39.79792361465182
 20
-73.01149404563104
 10
-39.82080642715182
 20
-72.95925185813104
 10
-39.84492361465182
 20
-72.90893154563105
 10
-39.870275177151825
 20
-72.86053310813105
 10
-39.89686111465183
 20
-72.81405654563105
 10
-39.924681427151825
 20
-72.76950185813105
 10
-39.95372048965182
 20
-72.72678310813104
 10
-39.98427517715182
 20
-72.68612685813105
 10
-40.016345489651826
 20
-72.64753310813104
 10
-40.049931427151826
 20
-72.61100185813105
 10
-40.08503298965182
 20
-72.57653310813104
 10
-40.12165017715182
 20
-72.54412685813105
 10
-40.15978298965182
 20
-72.51378310813105
 10
-40.19943142715182
 20
-72.48550185813104
 10
-40.240595489651824
 20
-72.45928310813105
 10
-40.28327517715182
 20
-72.43512685813104
 10
-40.32742361465182
 20
-72.41300967063104
 10
-40.372993927151825
 20
-72.39322060813105
 10
-40.41998611465182
 20
-72.37575967063104
 10
-40.46840017715182
 20
-72.36062685813104
 10
-40.51823611465183
 20
-72.34782217063105
 10
-40.569493927151825
 20
-72.33734560813105
 10
-40.62217361465183
 20
-72.32919717063105
 10
-40.67627517715182
 20
-72.32337685813104
 10
-40.73179861465182
 20
-72.31988467063104
 10
-40.78874392715183
 20
-72.31872060813104
 10
-40.86554080215183
 20
-72.32082217063105
 10
-40.939681427151825
 20
-72.32712685813104
 10
-41.01116580215182
 20
-72.33763467063105
 10
-41.079993927151826
 20
-72.35234560813105
 10
-41.14616580215183
 20
-72.37125967063105
 10
-41.20968142715182
 20
-72.39437685813104
 10
-41.27054080215183
 20
-72.42169717063105
 10
-41.32874392715182
 20
-72.45322060813105
 10
-41.384290802151824
 20
-72.48894717063105
 10
-41.43718142715183
 20
-72.52887685813104
 10
-41.487322052151825
 20
-72.57253310813104
 10
-41.534931427151825
 20
-72.61975185813104
 10
-41.58000955215182
 20
-72.67053310813104
 10
-41.62255642715182
 20
-72.72487685813104
 10
-41.66257205215182
 20
-72.78278310813104
 10
-41.70005642715182
 20
-72.84425185813105
 10
-41.73500955215182
 20
-72.90928310813105
 10
-41.76743142715182
 20
-72.97787685813104
 10
-41.79732205215183
 20
-73.05003310813105
 10
-41.82468142715182
 20
-73.12575185813104
 10
-41.84947048965182
 20
-73.20557998313105
 10
-41.87165017715182
 20
-73.29037685813104
 10
-41.89122048965182
 20
-73.38014248313104
 10
-41.908181427151824
 20
-73.47487685813104
 10
-41.92253298965183
 20
-73.57457998313104
 10
-41.934275177151825
 20
-73.67925185813104
 10
-41.943407989651824
 20
-73.78889248313105
 10
-41.949931427151824
 20
-73.90350185813105
 10
-41.953845489651826
 20
-74.02307998313104
 10
-41.95515017715182
 20
-74.14762685813105
  0
LWPOLYLINE
  5
41
330
17
100
AcDbEntity
  8
0
100
AcDbPolyline
 90
7
 70
0
 10
-55.69304080215183
 20
-75.91247060813104
 10
-53.45710330215182
 20
-75.91247060813104
 10
-53.45710330215182
 20
-75.48981435813104
 10
-55.219603302151825
 20
-75.48981435813104
 10
-55.219603302151825
 20
-72.33356435813104
 10
-55.69304080215183
 20
-72.33356435813104
 10
-55.69304080215183
 20
-75.91247060813104
  0
LWPOLYLINE
  5
42
330
17
100
AcDbEntity
  8
0
100
AcDbPolyline
 90
77
 70
0
 10
-44.89216189590182
 20
-75.91247060813104
 10
-44.45309939590182
 20
-75.91247060813104
 10
-44.45309939590182
 20
-74.55465810813105
 10
-44.45236502090182
 20
-74.49947060813105
 10
-44.45016189590182
 20
-74.44515810813104
 10
-44.44649002090182
 20
-74.39172060813104
 10
-44.441349395901824
 20
-74.33915810813104
 10
-44.43474002090183
 20
-74.28747060813104
 10
-44.42666189590182
 20
-74.23665810813104
 10
-44.417115020901825
 20
-74.18672060813104
 10
-44.40609939590182
 20
-74.13765810813105
 10
-44.39361502090182
 20
-74.08947060813105
 10
-44.379661895901826
 20
-74.04215810813105
 10
-44.36931033340183
 20
-74.01204873313104
 10
-44.35763064590182
 20
-73.98328310813105
 10
-44.34462283340183
 20
-73.95586123313105
 10
-44.33028689590182
 20
-73.92978310813105
 10
-44.31462283340183
 20
-73.90504873313104
 10
-44.297630645901826
 20
-73.88165810813105
 10
-44.279310333401824
 20
-73.85961123313105
 10
-44.25966189590182
 20
-73.83890810813105
 10
-44.238685333401826
 20
-73.81954873313104
 10
-44.21638064590182
 20
-73.80153310813104
 10
-44.19311502090182
 20
-73.78505654563105
 10
-44.16925564590182
 20
-73.77031435813105
 10
-44.14480252090182
 20
-73.75730654563104
 10
-44.11975564590182
 20
-73.74603310813104
 10
-44.094115020901825
 20
-73.73649404563105
 10
-44.06788064590182
 20
-73.72868935813105
 10
-44.04105252090182
 20
-73.72261904563105
 10
-44.01363064590182
 20
-73.71828310813105
 10
-43.985615020901825
 20
-73.71568154563104
 10
-43.95700564590182
 20
-73.71481435813105
 10
-43.924818145901824
 20
-73.71576748313105
 10
-43.89263064590182
 20
-73.71862685813105
 10
-43.860443145901826
 20
-73.72339248313105
 10
-43.82825564590182
 20
-73.73006435813105
 10
-43.79606814590183
 20
-73.73864248313104
 10
-43.76388064590182
 20
-73.74912685813105
 10
-43.73169314590182
 20
-73.76151748313104
 10
-43.69950564590182
 20
-73.77581435813104
 10
-43.667318145901824
 20
-73.79201748313105
 10
-43.635130645901825
 20
-73.81012685813104
 10
-43.48356814590183
 20
-73.40231435813105
 10
-43.52942752090182
 20
-73.37544717063105
 10
-43.57513064590182
 20
-73.35140810813104
 10
-43.62067752090182
 20
-73.33019717063104
 10
-43.666068145901825
 20
-73.31181435813104
 10
-43.711302520901825
 20
-73.29625967063104
 10
-43.75638064590183
 20
-73.28353310813104
 10
-43.80130252090183
 20
-73.27363467063104
 10
-43.846068145901825
 20
-73.26656435813105
 10
-43.890677520901825
 20
-73.26232217063104
 10
-43.93513064590182
 20
-73.26090810813105
 10
-43.96565408340182
 20
-73.26179092063104
 10
-43.99566189590182
 20
-73.26443935813104
 10
-44.02515408340182
 20
-73.26885342063105
 10
-44.05413064590182
 20
-73.27503310813104
 10
-44.08259158340182
 20
-73.28297842063104
 10
-44.110536895901824
 20
-73.29268935813104
 10
-44.13796658340182
 20
-73.30416592063105
 10
-44.16488064590182
 20
-73.31740810813105
 10
-44.191279083401824
 20
-73.33241592063105
 10
-44.217161895901825
 20
-73.34918935813104
 10
-44.24302127090182
 20
-73.36857217063104
 10
-44.26934939590183
 20
-73.39172060813104
 10
-44.29614627090182
 20
-73.41863467063105
 10
-44.32341189590183
 20
-73.44931435813105
 10
-44.35114627090182
 20
-73.48375967063104
 10
-44.379349395901826
 20
-73.52197060813104
 10
-44.40802127090183
 20
-73.56394717063104
 10
-44.43716189590182
 20
-73.60968935813105
 10
-44.46677127090182
 20
-73.65919717063105
 10
-44.496849395901826
 20
-73.71247060813104
 10
-44.496849395901826
 20
-73.31950185813105
 10
-44.89216189590182
 20
-73.31950185813105
 10
-44.89216189590182
 20
-75.91247060813104
  0
LWPOLYLINE
  5
43
330
17
100
AcDbEntity
  8
0
100
AcDbPolyline
 90
133
 70
0
 10
-45.89323611465183
 20
-75.07731435813105
 10
-45.913947052151826
 20
-75.13143154563105
 10
-45.93607986465182
 20
-75.18253310813104
 10
-45.959634552151826
 20
-75.23061904563104
 10
-45.98461111465183
 20
-75.27568935813105
 10
-46.01100955215182
 20
-75.31774404563104
 10
-46.038829864651824
 20
-75.35678310813104
 10
-46.06807205215183
 20
-75.39280654563105
 10
-46.09873611465182
 20
-75.42581435813105
 10
-46.13082205215182
 20
-75.45580654563105
 10
-46.164329864651826
 20
-75.48278310813104
 10
-46.19925173965183
 20
-75.50682998313104
 10
-46.235579864651825
 20
-75.52834560813105
 10
-46.273314239651825
 20
-75.54732998313105
 10
-46.312454864651826
 20
-75.56378310813105
 10
-46.35300173965182
 20
-75.57770498313104
 10
-46.39495486465182
 20
-75.58909560813105
 10
-46.438314239651824
 20
-75.59795498313105
 10
-46.48307986465182
 20
-75.60428310813104
 10
-46.529251739651826
 20
-75.60807998313105
 10
-46.57682986465183
 20
-75.60934560813105
 10
-46.640751739651826
 20
-75.60707998313104
 10
-46.702517364651825
 20
-75.60028310813105
 10
-46.762126739651826
 20
-75.58895498313105
 10
-46.81957986465183
 20
-75.57309560813104
 10
-46.874876739651825
 20
-75.55270498313105
 10
-46.92801736465182
 20
-75.52778310813105
 10
-46.97900173965182
 20
-75.49832998313104
 10
-47.02782986465182
 20
-75.46434560813104
 10
-47.07450173965182
 20
-75.42582998313104
 10
-47.119017364651825
 20
-75.38278310813105
 10
-47.160525177151825
 20
-75.33531435813104
 10
-47.19817361465182
 20
-75.28384560813105
 10
-47.23196267715183
 20
-75.22837685813104
 10
-47.26189236465183
 20
-75.16890810813105
 10
-47.287962677151825
 20
-75.10543935813105
 10
-47.31017361465182
 20
-75.03797060813105
 10
-47.328525177151825
 20
-74.96650185813104
 10
-47.34301736465182
 20
-74.89103310813104
 10
-47.35365017715182
 20
-74.81156435813105
 10
-47.36042361465182
 20
-74.72809560813104
 10
-45.42682986465182
 20
-74.72809560813104
 10
-45.42638455215182
 20
-74.71286123313105
 10
-45.42598611465182
 20
-74.69840810813105
 10
-45.42563455215182
 20
-74.68473623313105
 10
-45.42532986465182
 20
-74.67184560813105
 10
-45.425072052151826
 20
-74.65973623313104
 10
-45.42486111465182
 20
-74.64840810813105
 10
-45.42469705215183
 20
-74.63786123313105
 10
-45.42457986465182
 20
-74.62809560813105
 10
-45.42450955215182
 20
-74.61911123313105
 10
-45.42448611465183
 20
-74.61090810813104
 10
-45.427782989651824
 20
-74.48535342063104
 10
-45.43767361465182
 20
-74.36556435813104
 10
-45.454157989651826
 20
-74.25154092063104
 10
-45.477236114651824
 20
-74.14328310813104
 10
-45.50690798965182
 20
-74.04079092063104
 10
-45.54317361465182
 20
-73.94406435813104
 10
-45.58603298965183
 20
-73.85310342063104
 10
-45.635486114651826
 20
-73.76790810813104
 10
-45.69153298965182
 20
-73.68847842063104
 10
-45.754173614651826
 20
-73.61481435813104
 10
-45.82201736465183
 20
-73.54757217063104
 10
-45.893673614651824
 20
-73.48740810813105
 10
-45.96914236465182
 20
-73.43432217063105
 10
-46.048423614651824
 20
-73.38831435813104
 10
-46.13151736465183
 20
-73.34938467063104
 10
-46.218423614651826
 20
-73.31753310813104
 10
-46.30914236465183
 20
-73.29275967063104
 10
-46.40367361465182
 20
-73.27506435813105
 10
-46.50201736465182
 20
-73.26444717063104
 10
-46.60417361465183
 20
-73.26090810813105
 10
-46.709525177151825
 20
-73.26452529563105
 10
-46.81089236465182
 20
-73.27537685813104
 10
-46.90827517715182
 20
-73.29346279563104
 10
-47.00167361465182
 20
-73.31878310813104
 10
-47.091087677151826
 20
-73.35133779563104
 10
-47.17651736465182
 20
-73.39112685813105
 10
-47.25796267715182
 20
-73.43815029563105
 10
-47.33542361465182
 20
-73.49240810813104
 10
-47.40890017715182
 20
-73.55390029563104
 10
-47.478392364651825
 20
-73.62262685813104
 10
-47.54236892715183
 20
-73.69775185813104
 10
-47.59961111465182
 20
-73.77875185813105
 10
-47.65011892715182
 20
-73.86562685813105
 10
-47.69389236465182
 20
-73.95837685813105
 10
-47.73093142715182
 20
-74.05700185813104
 10
-47.76123611465182
 20
-74.16150185813105
 10
-47.78480642715182
 20
-74.27187685813105
 10
-47.801642364651826
 20
-74.38812685813105
 10
-47.811743927151824
 20
-74.51025185813104
 10
-47.81511111465183
 20
-74.63825185813104
 10
-47.81177517715182
 20
-74.76184560813104
 10
-47.80176736465182
 20
-74.87981435813104
 10
-47.78508767715182
 20
-74.99215810813105
 10
-47.761736114651825
 20
-75.09887685813105
 10
-47.73171267715182
 20
-75.19997060813104
 10
-47.695017364651825
 20
-75.29543935813105
 10
-47.65165017715182
 20
-75.38528310813105
 10
-47.601611114651824
 20
-75.46950185813104
 10
-47.544900177151824
 20
-75.54809560813105
 10
-47.48151736465182
 20
-75.62106435813105
 10
-47.41244705215182
 20
-75.68756435813104
 10
-47.338673614651825
 20
-75.74706435813104
 10
-47.260197052151824
 20
-75.79956435813105
 10
-47.177017364651824
 20
-75.84506435813104
 10
-47.089134552151826
 20
-75.88356435813104
 10
-46.99654861465183
 20
-75.91506435813105
 10
-46.899259552151825
 20
-75.93956435813105
 10
-46.79726736465182
 20
-75.95706435813105
 10
-46.69057205215182
 20
-75.96756435813104
 10
-46.57917361465182
 20
-75.97106435813104
 10
-46.49047048965183
 20
-75.96886904563104
 10
-46.40498611465182
 20
-75.96228310813105
 10
-46.32272048965182
 20
-75.95130654563104
 10
-46.243673614651826
 20
-75.93593935813105
 10
-46.167845489651825
 20
-75.91618154563105
 10
-46.095236114651826
 20
-75.89203310813105
 10
-46.02584548965182
 20
-75.86349404563104
 10
-45.95967361465182
 20
-75.83056435813104
 10
-45.89672048965183
 20
-75.79324404563104
 10
-45.83698611465182
 20
-75.75153310813104
 10
-45.78069705215182
 20
-75.70569717063104
 10
-45.728079864651825
 20
-75.65631435813104
 10
-45.67913455215182
 20
-75.60338467063104
 10
-45.63386111465182
 20
-75.54690810813105
 10
-45.59225955215182
 20
-75.48688467063104
 10
-45.55432986465183
 20
-75.42331435813105
 10
-45.520072052151825
 20
-75.35619717063105
 10
-45.489486114651825
 20
-75.28553310813105
 10
-45.46257205215183
 20
-75.21132217063105
 10
-45.439329864651825
 20
-75.13356435813104
 10
-45.89323611465183
 20
-75.07731435813105
  0
LWPOLYLINE
  5
44
330
17
100
AcDbEntity
  8
0
100
AcDbPolyline
 90
244
 70
0
 10
-51.25681033340182
 20
-75.59293935813105
 10
-51.252419708401824
 20
-75.62904092063104
 10
-51.247060333401826
 20
-75.66422060813105
 10
-51.24073220840182
 20
-75.69847842063105
 10
-51.23343533340182
 20
-75.73181435813105
 10
-51.22516970840182
 20
-75.76422842063104
 10
-51.21593533340182
 20
-75.79572060813105
 10
-51.20573220840183
 20
-75.82629092063104
 10
-51.194560333401824
 20
-75.85593935813104
 10
-51.182419708401824
 20
-75.88466592063105
 10
-51.169310333401825
 20
-75.91247060813104
 10
-50.70993533340182
 20
-75.91247060813104
 10
-50.72609939590183
 20
-75.88250185813105
 10
-50.741154083401824
 20
-75.85228310813105
 10
-50.75509939590182
 20
-75.82181435813105
 10
-50.76793533340182
 20
-75.79109560813104
 10
-50.779661895901825
 20
-75.76012685813104
 10
-50.79027908340183
 20
-75.72890810813105
 10
-50.799786895901825
 20
-75.69743935813105
 10
-50.80818533340182
 20
-75.66572060813104
 10
-50.81547439590182
 20
-75.63375185813105
 10
-50.821654083401825
 20
-75.60153310813105
 10
-50.826997833401826
 20
-75.56452529563104
 10
-50.83177908340183
 20
-75.51850185813105
 10
-50.83599783340183
 20
-75.46346279563105
 10
-50.839654083401825
 20
-75.39940810813104
 10
-50.84274783340182
 20
-75.32633779563105
 10
-50.84527908340182
 20
-75.24425185813105
 10
-50.84724783340182
 20
-75.15315029563105
 10
-50.848654083401826
 20
-75.05303310813105
 10
-50.84949783340183
 20
-74.94390029563104
 10
-50.84977908340183
 20
-74.82575185813104
 10
-50.84977908340183
 20
-74.23981435813104
 10
-50.84999783340182
 20
-74.18303310813104
 10
-50.85065408340182
 20
-74.12987685813104
 10
-50.851747833401824
 20
-74.08034560813104
 10
-50.85327908340182
 20
-74.03443935813104
 10
-50.855247833401826
 20
-73.99215810813105
 10
-50.857654083401826
 20
-73.95350185813105
 10
-50.86049783340182
 20
-73.91847060813105
 10
-50.86377908340182
 20
-73.88706435813104
 10
-50.86749783340183
 20
-73.85928310813104
 10
-50.87165408340182
 20
-73.83512685813105
 10
-50.88005252090183
 20
-73.79950967063104
 10
-50.88962283340182
 20
-73.76515810813105
 10
-50.90036502090182
 20
-73.73207217063104
 10
-50.91227908340183
 20
-73.70025185813104
 10
-50.92536502090182
 20
-73.66969717063104
 10
-50.93962283340183
 20
-73.64040810813104
 10
-50.95505252090182
 20
-73.61238467063104
 10
-50.97165408340182
 20
-73.58562685813105
 10
-50.98942752090183
 20
-73.56013467063104
 10
-51.00837283340182
 20
-73.53590810813104
 10
-51.029005645901826
 20
-73.51256435813104
 10
-51.051841583401824
 20
-73.49003310813104
 10
-51.076880645901824
 20
-73.46831435813104
 10
-51.104122833401824
 20
-73.44740810813104
 10
-51.133568145901826
 20
-73.42731435813104
 10
-51.16521658340182
 20
-73.40803310813105
 10
-51.199068145901826
 20
-73.38956435813104
 10
-51.235122833401824
 20
-73.37190810813104
 10
-51.273380645901824
 20
-73.35506435813105
 10
-51.313841583401825
 20
-73.33903310813105
 10
-51.356497833401825
 20
-73.32418935813105
 10
-51.40165408340182
 20
-73.31090810813104
 10
-51.449310333401826
 20
-73.29918935813104
 10
-51.499466583401826
 20
-73.28903310813105
 10
-51.552122833401825
 20
-73.28043935813105
 10
-51.60727908340182
 20
-73.27340810813105
 10
-51.66493533340182
 20
-73.26793935813104
 10
-51.72509158340182
 20
-73.26403310813104
 10
-51.78774783340182
 20
-73.26168935813105
 10
-51.852904083401825
 20
-73.26090810813105
 10
-51.91897439590183
 20
-73.26182998313105
 10
-51.98343533340182
 20
-73.26459560813105
 10
-52.04628689590182
 20
-73.26920498313105
 10
-52.10752908340182
 20
-73.27565810813104
 10
-52.16716189590183
 20
-73.28395498313104
 10
-52.225185333401825
 20
-73.29409560813104
 10
-52.28159939590182
 20
-73.30607998313104
 10
-52.336404083401824
 20
-73.31990810813105
 10
-52.389599395901826
 20
-73.33557998313104
 10
-52.441185333401826
 20
-73.35309560813104
 10
-52.490771270901824
 20
-73.37215810813105
 10
-52.537966583401825
 20
-73.39278310813104
 10
-52.58277127090182
 20
-73.41497060813104
 10
-52.625185333401824
 20
-73.43872060813105
 10
-52.66520877090183
 20
-73.46403310813105
 10
-52.70284158340183
 20
-73.49090810813105
 10
-52.738083770901824
 20
-73.51934560813105
 10
-52.77093533340182
 20
-73.54934560813105
 10
-52.801396270901826
 20
-73.58090810813104
 10
-52.829466583401825
 20
-73.61403310813104
 10
-52.85558377090182
 20
-73.64900185813104
 10
-52.880185333401826
 20
-73.68609560813104
 10
-52.903271270901826
 20
-73.72531435813104
 10
-52.92484158340182
 20
-73.76665810813104
 10
-52.94489627090182
 20
-73.81012685813104
 10
-52.963435333401826
 20
-73.85572060813105
 10
-52.980458770901826
 20
-73.90343935813104
 10
-52.995966583401824
 20
-73.95328310813105
 10
-53.009958770901825
 20
-74.00525185813105
 10
-53.02243533340182
 20
-74.05934560813104
 10
-52.59274783340182
 20
-74.11793935813104
 10
-52.577763458401826
 20
-74.06445498313104
 10
-52.56124783340182
 20
-74.01431435813105
 10
-52.543200958401826
 20
-73.96751748313105
 10
-52.523622833401824
 20
-73.92406435813105
 10
-52.50251345840182
 20
-73.88395498313105
 10
-52.47987283340183
 20
-73.84718935813105
 10
-52.45570095840183
 20
-73.81376748313104
 10
-52.42999783340182
 20
-73.78368935813104
 10
-52.40276345840182
 20
-73.75695498313104
 10
-52.37399783340182
 20
-73.73356435813105
 10
-52.34284158340182
 20
-73.71293154563105
 10
-52.308435333401825
 20
-73.69447060813104
 10
-52.27077908340183
 20
-73.67818154563105
 10
-52.22987283340183
 20
-73.66406435813104
 10
-52.18571658340183
 20
-73.65211904563104
 10
-52.138310333401826
 20
-73.64234560813105
 10
-52.08765408340182
 20
-73.63474404563104
 10
-52.033747833401826
 20
-73.62931435813104
 10
-51.97659158340183
 20
-73.62605654563104
 10
-51.91618533340183
 20
-73.62497060813105
 10
-51.85141970840183
 20
-73.62645498313104
 10
-51.78993533340183
 20
-73.63090810813104
 10
-51.73173220840182
 20
-73.63832998313104
 10
-51.676810333401825
 20
-73.64872060813104
 10
-51.62516970840183
 20
-73.66207998313105
 10
-51.57681033340182
 20
-73.67840810813104
 10
-51.53173220840183
 20
-73.69770498313105
 10
-51.489935333401824
 20
-73.71997060813105
 10
-51.45141970840182
 20
-73.74520498313105
 10
-51.41618533340183
 20
-73.77340810813105
 10
-51.39243533340182
 20
-73.79702529563104
 10
-51.371185333401826
 20
-73.82381435813105
 10
-51.35243533340183
 20
-73.85377529563104
 10
-51.33618533340182
 20
-73.88690810813104
 10
-51.32243533340183
 20
-73.92321279563104
 10
-51.31118533340182
 20
-73.96268935813104
 10
-51.302435333401824
 20
-74.00533779563105
 10
-51.29618533340182
 20
-74.05115810813105
 10
-51.292435333401826
 20
-74.10015029563104
 10
-51.29118533340183
 20
-74.15231435813105
 10
-51.291208770901825
 20
-74.15782217063105
 10
-51.291279083401825
 20
-74.16465810813105
 10
-51.29139627090183
 20
-74.17282217063105
 10
-51.291560333401826
 20
-74.18231435813104
 10
-51.291771270901826
 20
-74.19313467063104
 10
-51.29202908340183
 20
-74.20528310813104
 10
-51.29233377090183
 20
-74.21875967063104
 10
-51.29268533340182
 20
-74.23356435813105
 10
-51.29308377090182
 20
-74.24969717063104
 10
-51.29352908340182
 20
-74.26715810813104
 10
-51.34664627090182
 20
-74.28441592063105
 10
-51.40537283340183
 20
-74.30118935813104
 10
-51.469708770901825
 20
-74.31747842063105
 10
-51.53965408340183
 20
-74.33328310813104
 10
-51.61520877090182
 20
-74.34860342063105
 10
-51.696372833401824
 20
-74.36343935813105
 10
-51.783146270901824
 20
-74.37779092063104
 10
-51.87552908340182
 20
-74.39165810813104
 10
-51.97352127090183
 20
-74.40504092063105
 10
-52.07712283340182
 20
-74.41793935813105
 10
-52.12813845840182
 20
-74.42436904563104
 10
-52.176497833401825
 20
-74.43084560813105
 10
-52.22220095840183
 20
-74.43736904563104
 10
-52.26524783340182
 20
-74.44393935813105
 10
-52.30563845840182
 20
-74.45055654563104
 10
-52.34337283340182
 20
-74.45722060813104
 10
-52.37845095840183
 20
-74.46393154563104
 10
-52.410872833401825
 20
-74.47068935813104
 10
-52.44063845840182
 20
-74.47749404563105
 10
-52.46774783340182
 20
-74.48434560813105
 10
-52.50255252090182
 20
-74.49450185813104
 10
-52.53665408340183
 20
-74.50559560813105
 10
-52.570052520901825
 20
-74.51762685813104
 10
-52.60274783340182
 20
-74.53059560813105
 10
-52.63474002090182
 20
-74.54450185813104
 10
-52.666029083401824
 20
-74.55934560813104
 10
-52.696615020901824
 20
-74.57512685813104
 10
-52.72649783340182
 20
-74.59184560813104
 10
-52.75567752090183
 20
-74.60950185813104
 10
-52.78415408340182
 20
-74.62809560813105
 10
-52.81174002090182
 20
-74.64778310813105
 10
-52.83824783340182
 20
-74.66872060813104
 10
-52.863677520901824
 20
-74.69090810813104
 10
-52.888029083401825
 20
-74.71434560813104
 10
-52.91130252090183
 20
-74.73903310813104
 10
-52.93349783340182
 20
-74.76497060813105
 10
-52.95461502090183
 20
-74.79215810813105
 10
-52.97465408340182
 20
-74.82059560813104
 10
-52.99361502090182
 20
-74.85028310813105
 10
-53.011497833401826
 20
-74.88122060813104
 10
-53.02797439590182
 20
-74.91296279563105
 10
-53.04271658340183
 20
-74.94537685813104
 10
-53.05572439590183
 20
-74.97846279563105
 10
-53.06699783340183
 20
-75.01222060813105
 10
-53.076536895901825
 20
-75.04665029563104
 10
-53.08434158340182
 20
-75.08175185813104
 10
-53.09041189590182
 20
-75.11752529563104
 10
-53.094747833401826
 20
-75.15397060813105
 10
-53.09734939590182
 20
-75.19108779563105
 10
-53.09821658340182
 20
-75.22887685813104
 10
-53.09591970840182
 20
-75.29271279563105
 10
-53.089029083401826
 20
-75.35422060813104
 10
-53.077544708401824
 20
-75.41340029563105
 10
-53.061466583401824
 20
-75.47025185813105
 10
-53.040794708401826
 20
-75.52477529563104
 10
-53.01552908340182
 20
-75.57697060813105
 10
-52.98566970840182
 20
-75.62683779563105
 10
-52.95121658340182
 20
-75.67437685813104
 10
-52.91216970840183
 20
-75.71958779563104
 10
-52.868529083401825
 20
-75.76247060813104
 10
-52.820615020901826
 20
-75.80210342063104
 10
-52.768747833401825
 20
-75.83756435813105
 10
-52.71292752090182
 20
-75.86885342063104
 10
-52.65315408340182
 20
-75.89597060813105
 10
-52.58942752090182
 20
-75.91891592063105
 10
-52.521747833401825
 20
-75.93768935813104
 10
-52.450115020901826
 20
-75.95229092063104
 10
-52.374529083401825
 20
-75.96272060813105
 10
-52.29499002090182
 20
-75.96897842063105
 10
-52.21149783340182
 20
-75.97106435813104
 10
-52.160107208401826
 20
-75.97021279563104
 10
-52.10937283340182
 20
-75.96765810813105
 10
-52.05929470840182
 20
-75.96340029563105
 10
-52.00987283340182
 20
-75.95743935813104
 10
-51.96110720840183
 20
-75.94977529563104
 10
-51.912997833401825
 20
-75.94040810813104
 10
-51.86554470840183
 20
-75.92933779563104
 10
-51.81874783340182
 20
-75.91656435813104
 10
-51.77260720840182
 20
-75.90208779563105
 10
-51.72712283340182
 20
-75.88590810813105
 10
-51.68177908340182
 20
-75.86750967063105
 10
-51.63606033340182
 20
-75.84668935813104
 10
-51.589966583401825
 20
-75.82344717063104
 10
-51.54349783340182
 20
-75.79778310813104
 10
-51.49665408340182
 20
-75.76969717063105
 10
-51.44943533340182
 20
-75.73918935813104
 10
-51.401841583401826
 20
-75.70625967063104
 10
-51.35387283340182
 20
-75.67090810813104
 10
-51.30552908340182
 20
-75.63313467063105
 10
-51.25681033340182
 20
-75.59293935813105
  0
LWPOLYLINE
  5
45
330
17
100
AcDbEntity
  8
0
100
AcDbPolyline
 90
118
 70
0
 10
-50.187767364651826
 20
-76.91090810813104
 10
-50.15681423965182
 20
-76.92115029563105
 10
-50.126454864651826
 20
-76.93031435813104
 10
-50.09668923965182
 20
-76.93840029563104
 10
-50.06751736465182
 20
-76.94540810813105
 10
-50.038939239651825
 20
-76.95133779563105
 10
-50.01095486465182
 20
-76.95618935813104
 10
-49.98356423965183
 20
-76.95996279563104
 10
-49.956767364651824
 20
-76.96265810813105
 10
-49.93056423965182
 20
-76.96427529563104
 10
-49.90495486465183
 20
-76.96481435813105
 10
-49.863509552151825
 20
-76.96379873313104
 10
-49.82323611465182
 20
-76.96075185813105
 10
-49.784134552151826
 20
-76.95567373313105
 10
-49.74620486465182
 20
-76.94856435813105
 10
-49.70944705215182
 20
-76.93942373313105
 10
-49.67386111465183
 20
-76.92825185813105
 10
-49.63944705215182
 20
-76.91504873313104
 10
-49.60620486465182
 20
-76.89981435813104
 10
-49.574134552151826
 20
-76.88254873313105
 10
-49.543236114651826
 20
-76.86325185813105
 10
-49.513267364651824
 20
-76.84192373313104
 10
-49.48398611465183
 20
-76.81825185813105
 10
-49.45539236465182
 20
-76.79223623313105
 10
-49.42748611465183
 20
-76.76387685813104
 10
-49.400267364651825
 20
-76.73317373313104
 10
-49.37373611465183
 20
-76.70012685813104
 10
-49.34789236465183
 20
-76.66473623313105
 10
-49.322736114651825
 20
-76.62700185813104
 10
-49.29826736465182
 20
-76.58692373313104
 10
-49.27448611465182
 20
-76.54450185813104
 10
-49.25627517715182
 20
-76.50965029563105
 10
-49.23664236465183
 20
-76.46947060813105
 10
-49.215587677151824
 20
-76.42396279563104
 10
-49.19311111465183
 20
-76.37312685813104
 10
-49.169212677151826
 20
-76.31696279563104
 10
-49.143892364651826
 20
-76.25547060813105
 10
-49.11715017715183
 20
-76.18865029563105
 10
-49.088986114651824
 20
-76.11650185813104
 10
-49.05940017715182
 20
-76.03902529563105
 10
-49.02839236465182
 20
-75.95622060813105
 10
-48.04167361465183
 20
-73.31950185813105
 10
-48.48151736465182
 20
-73.31950185813105
 10
-49.035423614651826
 20
-74.83122060813105
 10
-49.056072052151826
 20
-74.88887685813104
 10
-49.07614236465182
 20
-74.94684560813104
 10
-49.09563455215182
 20
-75.00512685813105
 10
-49.114548614651824
 20
-75.06372060813105
 10
-49.13288455215182
 20
-75.12262685813104
 10
-49.15064236465182
 20
-75.18184560813104
 10
-49.16782205215183
 20
-75.24137685813105
 10
-49.18442361465182
 20
-75.30122060813105
 10
-49.20044705215182
 20
-75.36137685813104
 10
-49.21589236465182
 20
-75.42184560813105
 10
-49.232822052151825
 20
-75.35916592063104
 10
-49.25017361465182
 20
-75.29706435813104
 10
-49.267947052151825
 20
-75.23554092063104
 10
-49.28614236465182
 20
-75.17459560813104
 10
-49.30475955215182
 20
-75.11422842063105
 10
-49.32379861465182
 20
-75.05443935813105
 10
-49.34325955215183
 20
-74.99522842063105
 10
-49.36314236465182
 20
-74.93659560813104
 10
-49.38344705215182
 20
-74.87854092063104
 10
-49.404173614651825
 20
-74.82106435813104
 10
-49.94401736465183
 20
-73.31950185813105
 10
-50.41745486465182
 20
-73.31950185813105
 10
-49.43307986465182
 20
-75.91715810813105
 10
-49.438392364651826
 20
-75.93103310813105
 10
-49.44339236465183
 20
-75.94422060813105
 10
-49.448079864651824
 20
-75.95672060813105
 10
-49.45245486465183
 20
-75.96853310813104
 10
-49.45651736465182
 20
-75.97965810813105
 10
-49.46026736465183
 20
-75.99009560813104
 10
-49.463704864651824
 20
-75.99984560813104
 10
-49.46682986465182
 20
-76.00890810813104
 10
-49.469642364651826
 20
-76.01728310813104
 10
-49.47214236465182
 20
-76.02497060813104
 10
-49.490220489651826
 20
-76.07521279563105
 10
-49.507267364651824
 20
-76.12156435813104
 10
-49.523282989651825
 20
-76.16402529563105
 10
-49.53826736465182
 20
-76.20259560813105
 10
-49.55222048965182
 20
-76.23727529563105
 10
-49.56514236465183
 20
-76.26806435813104
 10
-49.577032989651826
 20
-76.29496279563105
 10
-49.58789236465182
 20
-76.31797060813105
 10
-49.59772048965183
 20
-76.33708779563105
 10
-49.60651736465182
 20
-76.35231435813104
 10
-49.61808767715183
 20
-76.36942373313104
 10
-49.63029861465182
 20
-76.38575185813104
 10
-49.643150177151824
 20
-76.40129873313104
 10
-49.65664236465182
 20
-76.41606435813104
 10
-49.670775177151825
 20
-76.43004873313104
 10
-49.68554861465182
 20
-76.44325185813105
 10
-49.70096267715182
 20
-76.45567373313105
 10
-49.717017364651824
 20
-76.46731435813105
 10
-49.73371267715182
 20
-76.47817373313104
 10
-49.75104861465182
 20
-76.48825185813105
 10
-49.76914236465183
 20
-76.49760342063105
 10
-49.788423614651826
 20
-76.50597060813105
 10
-49.808892364651825
 20
-76.51335342063105
 10
-49.830548614651825
 20
-76.51975185813104
 10
-49.853392364651825
 20
-76.52516592063104
 10
-49.877423614651825
 20
-76.52959560813105
 10
-49.902642364651825
 20
-76.53304092063104
 10
-49.929048614651826
 20
-76.53550185813104
 10
-49.95664236465183
 20
-76.53697842063104
 10
-49.98542361465182
 20
-76.53747060813104
 10
-50.007204864651825
 20
-76.53707998313105
 10
-50.029736114651826
 20
-76.53590810813104
 10
-50.05301736465182
 20
-76.53395498313104
 10
-50.07704861465182
 20
-76.53122060813105
 10
-50.101829864651826
 20
-76.52770498313104
 10
-50.127361114651826
 20
-76.52340810813105
 10
-50.15364236465182
 20
-76.51832998313104
 10
-50.18067361465182
 20
-76.51247060813104
 10
-50.20845486465183
 20
-76.50582998313105
 10
-50.23698611465183
 20
-76.49840810813104
 10
-50.187767364651826
 20
-76.91090810813104
  0
LWPOLYLINE
  5
46
330
17
100
AcDbEntity
  8
0
100
AcDbPolyline
 90
18
 70
0
 10
-7.48995305255238
 20
14.924833140858281
 10
-7.107075242490154
 20
15.104199322148693
 10
-7.069463335146293
 20
15.090585196177603
 10
-3.549215609887398
 20
7.57621024418269
 10
-3.5226199751511933
 20
7.566583603388604
 10
-2.6961834538984113
 20
7.953743054786304
 10
-2.6865568131043247
 20
7.980338689522508
 10
-6.218803429049607
 20
15.520326658174898
 10
-6.406784209693747
 20
15.921593324549889
 10
-6.423631708963998
 20
15.90940696809103
 10
-6.425123347872169
 20
15.909792994972442
 10
-6.450063543536969
 20
15.96303072033234
 10
-7.267537408826993
 20
15.580069990636126
 10
-7.316302536756552
 20
15.557225065807707
 10
-7.603360944076791
 20
15.082270329581062
 10
-7.603304469635318
 20
15.081027435923692
 10
-7.489891793116068
 20
14.925071097317359
 10
-7.48995305255238
 20
14.924833140858281
  0
LWPOLYLINE
  5
47
330
17
100
AcDbEntity
  8
0
100
AcDbPolyline
 90
23
 70
0
 10
-0.05604400323666806
 20
1.2958954080077212
 10
-0.4906056860273902
 20
1.0472544451738552
 10
-3.532246615945279
 20
7.539987968652397
 10
-3.558842250681484
 20
7.5496146094464835
 10
-4.385278771934265
 20
7.162455158048783
 10
-4.394905412728352
 20
7.135859523312579
 10
-1.359939631727437
 20
0.6573748754068043
 10
-1.4763464930676118
 20
0.47893567557525846
 10
-1.4574578707190688
 20
0.39409070586466605
 10
-1.3564416122516592
 20
0.1784598464438492
 10
-1.3564385309672597
 20
0.1784682752163965
 10
-1.1794887512085002
 20
0.259994051380605
 10
-1.1781550742674696
 20
0.25948875441125374
 10
-1.1545462363937617
 20
0.20586466035353032
 10
-0.31885337204819014
 20
0.5737913860770684
 10
-0.2951473612708376
 20
0.5849798828562212
 10
-0.2950771144884747
 20
0.5850153200702747
 10
-0.27199071710990946
 20
0.597432069369591
 10
-0.24375531460478267
 20
0.6135873770178555
 10
-0.015603637635482562
 20
0.8964187374878205
 10
-0.015308347071978475
 20
0.8973518225431104
 10
-0.03920364242111955
 20
1.259947714728047
 10
-0.05604400323666806
 20
1.2958954080077212
  0
LWPOLYLINE
  5
48
330
17
100
AcDbEntity
  8
0
100
AcDbPolyline
 90
17
 70
0
 10
-30.756913188488365
 20
-12.500340369532575
 10
-41.401715184510564
 20
-17.186879301409615
 10
-41.41196084982701
 20
-17.213242653666555
 10
-41.04422456239792
 20
-18.048502964812023
 10
-41.017861210140985
 20
-18.058748630128466
 10
-30.803010773774467
 20
-13.561502530931703
 10
-30.76572736346309
 20
-13.575992089777754
 10
-30.595810149748328
 20
-13.961934705853489
 10
-30.59569611177854
 20
-13.961709562201284
 10
-30.407234587446105
 20
-13.919886416403779
 10
-30.406376565806497
 20
-13.918989731993117
 10
-30.31012488863277
 20
-13.372436765617538
 10
-30.331775450746207
 20
-13.323260614304129
 10
-30.695501030001275
 20
-12.496035434000937
 10
-30.751209069974273
 20
-12.520529900059055
 10
-30.75258782330696
 20
-12.51983112977296
 10
-30.756913188488365
 20
-12.500340369532575
  0
LWPOLYLINE
  5
49
330
17
100
AcDbEntity
  8
0
100
AcDbPolyline
 90
18
 70
0
 10
23.22043383001131
 20
-15.013800357431936
 10
22.98510107897718
 20
-15.365063991718866
 10
22.94586009244998
 20
-15.372819310949685
 10
11.501294825910604
 20
-7.705412936726667
 10
11.473547258236769
 20
-7.710896775545046
 10
10.965584730867912
 20
-8.4690945302608
 10
10.97106856968629
 20
-8.496842097934636
 10
22.43913198910468
 20
-16.179991305805846
 10
22.807266113966104
 20
-16.426626618707076
 10
22.815404804918117
 20
-16.407492690148338
 10
22.816881611787874
 20
-16.40705332144143
 10
22.865723504396563
 20
-16.439775458987043
 10
23.368177207828083
 20
-15.68980031480113
 10
23.398150299537996
 20
-15.645061717700772
 10
23.398833372774693
 20
-15.090098598445632
 10
23.3981434194296
 20
-15.089063253871512
 10
23.220504197084836
 20
-15.014035781451891
 10
23.22043383001131
 20
-15.013800357431936
  0
LWPOLYLINE
  5
4A
330
17
100
AcDbEntity
  8
0
100
AcDbPolyline
 90
18
 70
0
 10
3.6259557823644677
 20
-25.716060865329524
 10
3.580392581974202
 20
-25.276925882257824
 10
2.2660309654593482
 20
-12.609199267916372
 10
2.244073704845316
 20
-12.591370114646306
 10
1.3363188771288859
 20
-12.685555767611518
 10
1.318489723858821
 20
-12.70751302822555
 10
2.6299323276772895
 20
-25.347106399510462
 10
2.6047180973171327
 20
-25.37815865526339
 10
2.18527847096448
 20
-25.42167833026957
 10
2.1854578563863476
 20
-25.421855855458332
 10
2.167537562380747
 20
-25.614068719067294
 10
2.1681282933730612
 20
-25.615160177248505
 10
2.6589192859100965
 20
-25.87421370894013
 10
2.7123635687952725
 20
-25.868668506056586
 10
3.611240941199258
 20
-25.775839282197765
 10
3.604989518695291
 20
-25.71530595004704
 10
3.6060770573161665
 20
-25.71420754191829
 10
3.6259557823644677
 20
-25.716060865329524
  0
LWPOLYLINE
  5
4B
330
17
100
AcDbEntity
  8
0
100
AcDbPolyline
 90
5
 70
0
 10
266.29609474801407
 20
-85.864317874853
 10
101.39240021457012
 20
-85.864317874853
 10
101.39240021457012
 20
59.039376658590925
 10
266.29609474801407
 20
59.039376658590925
 10
266.29609474801407
 20
-85.864317874853
  0
LWPOLYLINE
  5
4C
330
17
100
AcDbEntity
  8
0
100
AcDbPolyline
 90
49
 70
0
 10
175.352919377764
 20
0.5818360071420793
 10
175.44110207452832
 20
0.5797790262865777
 10
175.49047776413866
 20
0.5567494904077842
 10
175.48521874841526
 20
0.4077851763944903
 10
175.53404988352142
 20
0.36444612034828416
 10
175.74227658338197
 20
0.2249424617460569
 10
176.00266651406233
 20
0.14073228256934137
 10
176.0034406201704
 20
0.14070495363340804
 10
176.26910724775408
 20
0.2063350923855493
 10
176.48349554214022
 20
0.328991686400241
 10
176.0206476962044
 20
0.63908144879597
 10
188.0887953905976
 20
7.544052552288964
 10
188.12739177806804
 20
7.533549273075697
 10
188.57650755132983
 20
6.7486081918794
 10
188.6037993186395
 20
6.741181251923003
 10
201.79609065550198
 20
14.289347944663914
 10
202.18070094628646
 20
14.509408471865338
 10
202.16718198203728
 20
14.525206671794702
 10
202.16744514882208
 20
14.526724810994097
 10
202.21847300326695
 20
14.55592116070224
 10
201.7701583417075
 20
15.339462100725063
 10
201.74341483007805
 20
15.386203012942316
 10
201.2466436491667
 20
15.633595260515964
 10
201.24540949362137
 20
15.633437672142225
 10
201.09921570942723
 20
15.507691131684178
 10
201.0989735517242
 20
15.50773279270796
 10
201.3089493603064
 20
15.140748046176942
 10
201.29844608109315
 20
15.102151658706507
 10
188.1378950572813
 20
7.572145660546135
 10
188.09929866981088
 20
7.582648939759402
 10
187.65018289654907
 20
8.3675900209557
 10
187.6228911292394
 20
8.375016960912097
 10
175.49339184475215
 20
1.4349426280353776
 10
175.32782746890737
 20
1.5402124954643852
 10
175.24451069066725
 20
1.518061772092313
 10
172.2341067142817
 20
7.944116413992216
 10
172.2075110795455
 20
7.953743054786302
 10
171.3810745582927
 20
7.566583603388602
 10
171.37144791749864
 20
7.539987968652397
 10
174.41308884741653
 20
1.047254445173855
 10
174.38383310671364
 20
1.0305153358026207
 10
173.9577651805938
 20
0.8429323329312778
 10
173.96066673649284
 20
0.8367386270698611
 10
174.26227069161874
 20
0.5724287464209541
 10
174.26327333812583
 20
0.5721114419578804
 10
174.6620030724419
 20
0.6147682296178401
 10
175.19377763556935
 20
0.9189931772583492
 10
175.1951797666364
 20
0.9185494078183506
 10
175.352919377764
 20
0.5818360071420793
  0
LWPOLYLINE
  5
4D
330
17
100
AcDbEntity
  8
0
100
AcDbPolyline
 90
53
 70
0
 10
181.76755110504286
 20
-63.84453047733636
 10
181.90680721207377
 20
-63.36290157163346
 10
182.30244876160785
 20
-63.58185752098748
 10
182.61522297864283
 20
-63.428263039407796
 10
182.83208015800125
 20
-63.22177685569719
 10
182.83248547122247
 20
-63.22104447664393
 10
182.89227971098506
 20
-62.92763651970776
 10
182.87338852467252
 20
-62.74556456886795
 10
182.39603198310013
 20
-62.97998072767582
 10
181.11900250946377
 20
-50.672058731766874
 10
181.09704524884975
 20
-50.65422957849681
 10
180.1975304572478
 20
-50.74756027243761
 10
180.16647820149487
 20
-50.72234604207746
 10
178.8558905567008
 20
-38.090992706907045
 10
178.88110478706096
 20
-38.05994045115412
 10
179.3005444134178
 20
-38.016420776147505
 10
179.30036502799655
 20
-38.01624325095948
 10
179.31828532186682
 20
-37.8240303871271
 10
179.31769459087403
 20
-37.8229389289463
 10
178.8269035985274
 20
-37.56388539746024
 10
178.7734593156093
 20
-37.56943060033905
 10
177.87458194317486
 20
-37.66225982419309
 10
177.88083336567965
 20
-37.72279315635687
 10
177.87974582706028
 20
-37.723891564485754
 10
177.85986710201541
 20
-37.72203824110528
 10
177.9054303024039
 20
-38.16117322415968
 10
179.21979191891876
 20
-50.82889983850114
 10
179.24174917953277
 20
-50.8467289917712
 10
180.14126397113472
 20
-50.7533982978304
 10
180.17231622688763
 20
-50.77861252819055
 10
181.4837588307061
 20
-63.41820589947545
 10
181.48469831567704
 20
-63.41896875518119
 10
181.46139217083902
 20
-63.421757514098005
 10
181.46120645603136
 20
-63.420205463047814
 10
181.45475951874508
 20
-63.422048008771334
 10
180.97302722395307
 20
-63.33095548180077
 10
180.98737040497363
 20
-63.46919407129227
 10
181.0449162260997
 20
-63.65539797065655
 10
181.04518676945565
 20
-63.655897837368734
 10
181.1696093231054
 20
-63.805905976520336
 10
181.16974407160416
 20
-63.806015391427756
 10
181.34586463538994
 20
-63.898094562081674
 10
181.34642076055508
 20
-63.89825535771624
 10
181.54450477727136
 20
-63.91437208746802
 10
181.5634958930642
 20
-63.91209965485954
 10
181.6050681993566
 20
-63.90533677237353
 10
181.60519190869493
 20
-63.905311252097974
 10
181.64604666898384
 20
-63.89507007101887
 10
181.65228369236132
 20
-63.89322389640047
 10
181.6921304214545
 20
-63.87957723349599
 10
181.6922480900003
 20
-63.87953130531028
 10
181.73080347001263
 20
-63.862576190967275
 10
181.76755110504286
 20
-63.84453047733636
  0
LWPOLYLINE
  5
4E
330
17
100
AcDbEntity
  8
0
100
AcDbPolyline
 90
37
 70
0
 10
239.79298739001527
 20
38.27949553208771
 10
239.23441485480873
 20
37.95989990627367
 10
239.14944668335679
 20
38.27949553208771
 10
239.0165809891232
 20
38.27949553208771
 10
238.88824195115734
 20
38.2627265859542
 10
238.88787107086765
 20
38.26262798316525
 10
238.76814912812034
 20
38.213447065666884
 10
238.01145906042342
 20
37.78049553208771
 10
239.01625007345635
 20
37.78049553208771
 10
227.28656190799208
 20
31.069179107517957
 10
227.2791349680357
 20
31.04188734020831
 10
227.73236488174945
 20
30.24975577930319
 10
227.75790129355505
 20
30.256544927968914
 10
227.75469044222078
 20
30.25100851616331
 10
227.75965664905908
 20
30.242328839346797
 10
240.9202745730073
 20
37.772373115420244
 10
240.92051380698385
 20
37.77159048479724
 10
240.9281522084203
 20
37.76656575827262
 10
240.93703400784165
 20
37.74760930012109
 10
240.8716703895879
 20
37.16965730714081
 10
241.16724752369043
 20
37.33877618283866
 10
241.38356082516978
 20
37.58833516606453
 10
241.3838952288928
 20
37.58917921355096
 10
241.39719433507952
 20
37.919170522952804
 10
241.3957332747494
 20
37.92395023933293
 10
241.28829082205488
 20
38.11322845274428
 10
241.28786791109246
 20
38.11369543300841
 10
241.11013133609652
 20
38.239313236769995
 10
241.1100227516073
 20
38.23935858627553
 10
241.06356901876427
 20
38.25611415615077
 10
241.06342746130395
 20
38.25615743628244
 10
241.01554623685854
 20
38.26824407199107
 10
241.00808167251688
 20
38.269740211700665
 10
240.95924096405435
 20
38.277039774300235
 10
240.9590936615245
 20
38.27705439103731
 10
240.90977085496792
 20
38.27949553208771
 10
239.79298739001527
 20
38.27949553208771
  0
LWPOLYLINE
  5
4F
330
17
100
AcDbEntity
  8
0
100
AcDbPolyline
 90
45
 70
0
 10
157.93815586735963
 20
38.27949553208771
 10
157.92299647626632
 20
38.2556534281139
 10
157.85198792533853
 20
38.27949553208771
 10
157.23805379922734
 20
38.27949553208771
 10
157.1139375467593
 20
38.26382953664861
 10
157.1135779440654
 20
38.263737288645
 10
156.99725395102365
 20
38.21772573054994
 10
156.98834105651716
 20
38.2128309878734
 10
156.98832573990214
 20
38.2128227489101
 10
156.97982434418947
 20
38.208344639967116
 10
156.7391029473021
 20
37.9254088081869
 10
156.738786201378
 20
37.92446544894707
 10
156.7599695731835
 20
37.55361139581839
 10
156.90610114293128
 20
37.24163423337069
 10
157.1896064025997
 20
37.751177470342334
 10
157.19776240335062
 20
37.75914865440376
 10
157.2113668755725
 20
37.76631480814843
 10
160.72877119109216
 20
30.258009442327637
 10
160.71515706512108
 20
30.22039753498378
 10
159.89622242276062
 20
29.836752477301403
 10
159.88659578196655
 20
29.810156842565195
 10
163.41884239791182
 20
22.270168873912798
 10
163.60682317854383
 20
21.868902207563657
 10
163.62367067781486
 20
21.881088564020487
 10
163.62516231672294
 20
21.88070253713901
 10
163.6501025124022
 20
21.827464811746726
 10
164.46757637746535
 20
22.21042554132586
 10
164.5163415053803
 20
22.233270466114845
 10
164.80339991297726
 20
22.708225201823
 10
164.80334343853738
 20
22.709468095480265
 10
164.6899307619223
 20
22.86542443474587
 10
164.68999202135834
 20
22.865662391203074
 10
164.30711421135237
 20
22.68629620993901
 10
164.2695023040085
 20
22.6999103359101
 10
160.75276897246493
 20
30.20678340901269
 10
160.76638309843602
 20
30.24439531635655
 10
161.58531774079648
 20
30.628040374038925
 10
161.59494438159058
 20
30.65463600877513
 10
158.25670388418285
 20
37.78049553208771
 10
158.8077460180021
 20
37.78049553208771
 10
158.70890697297335
 20
37.99147887820673
 10
158.52459255979508
 20
38.201086139268675
 10
158.52392757281154
 20
38.20150895420845
 10
158.25592551971116
 20
38.27949553208771
 10
157.93815586735963
 20
38.27949553208771
  0
LWPOLYLINE
  5
50
330
17
100
AcDbEntity
  8
0
100
AcDbPolyline
 90
36
 70
0
 10
123.87276179792809
 20
-21.102772126080804
 10
124.04947184217622
 20
-21.29673213374802
 10
123.67250168671305
 20
-21.462699082724058
 10
123.19622849100733
 20
-22.318703610141082
 10
123.19203550594567
 20
-22.35499151182109
 10
123.1919458724034
 20
-22.355304773838213
 10
123.14017809887291
 20
-22.464604894455597
 10
123.1394143877263
 20
-22.46821300780819
 10
123.13652166035803
 20
-22.6603208874674
 10
123.1366212170619
 20
-22.660872777423343
 10
123.20645683167675
 20
-22.839861023481898
 10
123.2071690870113
 20
-22.840983245602267
 10
123.35237615803234
 20
-22.951431223101736
 10
123.35255435771512
 20
-22.951605877411392
 10
123.38956905922504
 20
-22.998292022679372
 10
123.39626829445888
 20
-22.986251505299784
 10
123.397747539656
 20
-22.98594178310029
 10
123.48353744333497
 20
-23.051195639435175
 10
123.48444144112307
 20
-23.051470597964855
 10
123.83105227109618
 20
-23.030742562765916
 10
123.9499298717673
 20
-22.97840485804567
 10
123.63741060892399
 20
-22.602646665394015
 10
123.63331926487314
 20
-22.58527591680777
 10
123.63401619378558
 20
-22.582314701439884
 10
123.6290332895733
 20
-22.57446368922625
 10
133.84922430572954
 20
-18.074866317068967
 10
133.859469971046
 20
-18.048502964812027
 10
133.4917336836169
 20
-17.21324265366655
 10
133.46537033135996
 20
-17.202996988350108
 10
124.39066110827785
 20
-21.198278261344228
 10
124.79243566840256
 20
-20.476169930309272
 10
124.1899748301726
 20
-20.741412644485738
 10
124.05484652366411
 20
-20.829330001002884
 10
124.05449569530043
 20
-20.829649628210657
 10
123.95440850460622
 20
-20.956028720834976
 10
123.87276179792809
 20
-21.102772126080804
  0
LWPOLYLINE
  5
51
330
17
100
AcDbEntity
  8
0
100
AcDbPolyline
 90
33
 70
0
 10
256.3442474812921
 20
-73.41247060813104
 10
256.29621068230017
 20
-72.92474480309072
 10
256.15394631257027
 20
-72.45576202721831
 10
255.92292151204845
 20
-72.02354502558204
 10
255.61201443425847
 20
-71.64470365516468
 10
255.2331730638411
 20
-71.33379657737468
 10
254.80095606220482
 20
-71.10277177685282
 10
254.3319732863324
 20
-70.96050740712296
 10
253.8442474812921
 20
-70.91247060813104
 10
253.35652167625176
 20
-70.96050740712298
 10
252.88753890037935
 20
-71.10277177685283
 10
252.45532189874308
 20
-71.33379657737468
 10
252.0764805283257
 20
-71.64470365516469
 10
251.76557345053573
 20
-72.02354502558205
 10
251.53454865001385
 20
-72.45576202721833
 10
251.392284280284
 20
-72.92474480309073
 10
251.3442474812921
 20
-73.41247060813106
 10
251.392284280284
 20
-73.90019641317137
 10
251.53454865001387
 20
-74.36917918904378
 10
251.76557345053573
 20
-74.80139619068005
 10
252.0764805283257
 20
-75.18023756109741
 10
252.45532189874308
 20
-75.4911446388874
 10
252.88753890037935
 20
-75.72216943940927
 10
253.35652167625176
 20
-75.86443380913911
 10
253.8442474812921
 20
-75.91247060813104
 10
254.3319732863324
 20
-75.86443380913911
 10
254.80095606220482
 20
-75.72216943940926
 10
255.2331730638411
 20
-75.4911446388874
 10
255.61201443425847
 20
-75.18023756109741
 10
255.92292151204845
 20
-74.80139619068005
 10
256.15394631257027
 20
-74.36917918904376
 10
256.29621068230017
 20
-73.90019641317137
 10
256.3442474812921
 20
-73.41247060813104
  0
LWPOLYLINE
  5
52
330
17
100
AcDbEntity
  8
0
100
AcDbPolyline
 90
33
 70
0
 10
116.34424748129209
 20
-73.41247060813104
 10
116.29621068230017
 20
-72.92474480309072
 10
116.1539463125703
 20
-72.45576202721831
 10
115.92292151204845
 20
-72.02354502558204
 10
115.61201443425844
 20
-71.64470365516468
 10
115.2331730638411
 20
-71.33379657737468
 10
114.8009560622048
 20
-71.10277177685282
 10
114.3319732863324
 20
-70.96050740712296
 10
113.84424748129209
 20
-70.91247060813104
 10
113.35652167625176
 20
-70.96050740712298
 10
112.88753890037935
 20
-71.10277177685283
 10
112.45532189874308
 20
-71.33379657737468
 10
112.0764805283257
 20
-71.64470365516469
 10
111.76557345053573
 20
-72.02354502558205
 10
111.53454865001387
 20
-72.45576202721833
 10
111.392284280284
 20
-72.92474480309073
 10
111.34424748129209
 20
-73.41247060813106
 10
111.392284280284
 20
-73.90019641317137
 10
111.53454865001387
 20
-74.36917918904378
 10
111.76557345053573
 20
-74.80139619068005
 10
112.07648052832573
 20
-75.18023756109741
 10
112.45532189874308
 20
-75.4911446388874
 10
112.88753890037937
 20
-75.72216943940927
 10
113.35652167625177
 20
-75.86443380913911
 10
113.84424748129209
 20
-75.91247060813104
 10
114.33197328633241
 20
-75.86443380913911
 10
114.80095606220482
 20
-75.72216943940926
 10
115.2331730638411
 20
-75.4911446388874
 10
115.61201443425846
 20
-75.18023756109741
 10
115.92292151204845
 20
-74.80139619068005
 10
116.1539463125703
 20
-74.36917918904376
 10
116.29621068230017
 20
-73.90019641317137
 10
116.34424748129209
 20
-73.41247060813104
  0
LWPOLYLINE
  5
53
330
17
100
AcDbEntity
  8
0
100
AcDbPolyline
 90
33
 70
0
 10
256.3442474812921
 20
46.587529391868955
 10
256.29621068230017
 20
47.07525519690928
 10
256.15394631257027
 20
47.54423797278169
 10
255.92292151204845
 20
47.97645497441797
 10
255.61201443425847
 20
48.35529634483533
 10
255.2331730638411
 20
48.66620342262532
 10
254.80095606220482
 20
48.897228223147174
 10
254.3319732863324
 20
49.03949259287703
 10
253.8442474812921
 20
49.087529391868955
 10
253.35652167625176
 20
49.03949259287703
 10
252.88753890037935
 20
48.89722822314717
 10
252.45532189874308
 20
48.666203422625316
 10
252.0764805283257
 20
48.35529634483532
 10
251.76557345053573
 20
47.976454974417955
 10
251.53454865001385
 20
47.54423797278167
 10
251.392284280284
 20
47.07525519690927
 10
251.3442474812921
 20
46.58752939186895
 10
251.392284280284
 20
46.09980358682863
 10
251.53454865001387
 20
45.63082081095622
 10
251.76557345053573
 20
45.19860380931994
 10
252.0764805283257
 20
44.81976243890258
 10
252.45532189874308
 20
44.50885536111259
 10
252.88753890037935
 20
44.277830560590736
 10
253.35652167625176
 20
44.13556619086088
 10
253.8442474812921
 20
44.087529391868955
 10
254.3319732863324
 20
44.13556619086088
 10
254.80095606220482
 20
44.277830560590736
 10
255.2331730638411
 20
44.508855361112595
 10
255.61201443425847
 20
44.819762438902586
 10
255.92292151204845
 20
45.19860380931995
 10
256.15394631257027
 20
45.63082081095623
 10
256.29621068230017
 20
46.099803586828635
 10
256.3442474812921
 20
46.587529391868955
  0
LWPOLYLINE
  5
54
330
17
100
AcDbEntity
  8
0
100
AcDbPolyline
 90
33
 70
0
 10
116.34424748129209
 20
46.587529391868955
 10
116.29621068230017
 20
47.07525519690928
 10
116.1539463125703
 20
47.54423797278169
 10
115.92292151204845
 20
47.97645497441797
 10
115.61201443425844
 20
48.35529634483533
 10
115.2331730638411
 20
48.66620342262532
 10
114.8009560622048
 20
48.897228223147174
 10
114.3319732863324
 20
49.03949259287703
 10
113.84424748129209
 20
49.087529391868955
 10
113.35652167625176
 20
49.03949259287703
 10
112.88753890037935
 20
48.89722822314717
 10
112.45532189874308
 20
48.666203422625316
 10
112.0764805283257
 20
48.35529634483532
 10
111.76557345053573
 20
47.976454974417955
 10
111.53454865001387
 20
47.54423797278167
 10
111.392284280284
 20
47.07525519690927
 10
111.34424748129209
 20
46.58752939186895
 10
111.392284280284
 20
46.09980358682863
 10
111.53454865001387
 20
45.63082081095622
 10
111.76557345053573
 20
45.19860380931994
 10
112.07648052832573
 20
44.81976243890258
 10
112.45532189874308
 20
44.50885536111259
 10
112.88753890037937
 20
44.277830560590736
 10
113.35652167625177
 20
44.13556619086088
 10
113.84424748129209
 20
44.087529391868955
 10
114.33197328633241
 20
44.13556619086088
 10
114.80095606220482
 20
44.277830560590736
 10
115.2331730638411
 20
44.508855361112595
 10
115.61201443425846
 20
44.819762438902586
 10
115.92292151204845
 20
45.19860380931995
 10
116.1539463125703
 20
45.63082081095623
 10
116.29621068230017
 20
46.099803586828635
 10
116.34424748129209
 20
46.587529391868955
  0
LWPOLYLINE
  5
55
330
17
100
AcDbEntity
  8
0
100
AcDbPolyline
 90
7
 70
0
 10
119.21065373129208
 20
-75.91247060813104
 10
121.44659123129209
 20
-75.91247060813104
 10
121.44659123129209
 20
-75.48981435813104
 10
119.68409123129209
 20
-75.48981435813104
 10
119.68409123129209
 20
-72.33356435813104
 10
119.21065373129208
 20
-72.33356435813104
 10
119.21065373129208
 20
-75.91247060813104
  0
LWPOLYLINE
  5
56
330
17
100
AcDbEntity
  8
0
100
AcDbPolyline
 90
12
 70
0
 10
134.3571381062921
 20
-75.91247060813104
 10
134.79620060629208
 20
-75.91247060813104
 10
134.79620060629208
 20
-75.05543935813104
 10
135.2797943562921
 20
-75.05543935813104
 10
135.2797943562921
 20
-74.65231435813105
 10
134.79620060629208
 20
-74.65231435813105
 10
134.79620060629208
 20
-72.33356435813104
 10
134.4376068562921
 20
-72.33356435813104
 10
132.80401310629208
 20
-74.65231435813105
 10
132.80401310629208
 20
-75.05543935813104
 10
134.3571381062921
 20
-75.05543935813104
 10
134.3571381062921
 20
-75.91247060813104
  0
LWPOLYLINE
  5
57
330
17
100
AcDbEntity
  8
0
100
AcDbPolyline
 90
77
 70
0
 10
130.01153263754208
 20
-75.91247060813104
 10
130.45059513754208
 20
-75.91247060813104
 10
130.45059513754208
 20
-74.55465810813105
 10
130.4513295125421
 20
-74.49947060813105
 10
130.45353263754208
 20
-74.44515810813104
 10
130.4572045125421
 20
-74.39172060813104
 10
130.4623451375421
 20
-74.33915810813104
 10
130.4689545125421
 20
-74.28747060813104
 10
130.4770326375421
 20
-74.23665810813104
 10
130.48657951254208
 20
-74.18672060813104
 10
130.49759513754208
 20
-74.13765810813105
 10
130.5100795125421
 20
-74.08947060813105
 10
130.5240326375421
 20
-74.04215810813105
 10
130.5343842000421
 20
-74.01204873313104
 10
130.5460638875421
 20
-73.98328310813105
 10
130.55907170004207
 20
-73.95586123313105
 10
130.5734076375421
 20
-73.92978310813105
 10
130.5890717000421
 20
-73.90504873313104
 10
130.6060638875421
 20
-73.88165810813105
 10
130.62438420004207
 20
-73.85961123313105
 10
130.6440326375421
 20
-73.83890810813105
 10
130.66500920004208
 20
-73.81954873313104
 10
130.68731388754208
 20
-73.80153310813104
 10
130.7105795125421
 20
-73.78505654563105
 10
130.7344388875421
 20
-73.77031435813105
 10
130.7588920125421
 20
-73.75730654563104
 10
130.7839388875421
 20
-73.74603310813104
 10
130.8095795125421
 20
-73.73649404563105
 10
130.8358138875421
 20
-73.72868935813105
 10
130.8626420125421
 20
-73.72261904563105
 10
130.89006388754208
 20
-73.71828310813105
 10
130.91807951254208
 20
-73.71568154563104
 10
130.94668888754208
 20
-73.71481435813105
 10
130.97887638754207
 20
-73.71576748313105
 10
131.0110638875421
 20
-73.71862685813105
 10
131.04325138754209
 20
-73.72339248313105
 10
131.07543888754208
 20
-73.73006435813105
 10
131.1076263875421
 20
-73.73864248313104
 10
131.1398138875421
 20
-73.74912685813105
 10
131.17200138754208
 20
-73.76151748313104
 10
131.2041888875421
 20
-73.77581435813104
 10
131.2363763875421
 20
-73.79201748313105
 10
131.2685638875421
 20
-73.81012685813104
 10
131.4201263875421
 20
-73.40231435813105
 10
131.37426701254208
 20
-73.37544717063105
 10
131.3285638875421
 20
-73.35140810813104
 10
131.28301701254208
 20
-73.33019717063104
 10
131.2376263875421
 20
-73.31181435813104
 10
131.1923920125421
 20
-73.29625967063104
 10
131.14731388754208
 20
-73.28353310813104
 10
131.10239201254208
 20
-73.27363467063104
 10
131.0576263875421
 20
-73.26656435813105
 10
131.0130170125421
 20
-73.26232217063104
 10
130.96856388754208
 20
-73.26090810813105
 10
130.93804045004208
 20
-73.26179092063104
 10
130.90803263754208
 20
-73.26443935813104
 10
130.8785404500421
 20
-73.26885342063105
 10
130.8495638875421
 20
-73.27503310813104
 10
130.82110295004208
 20
-73.28297842063104
 10
130.7931576375421
 20
-73.29268935813104
 10
130.7657279500421
 20
-73.30416592063105
 10
130.7388138875421
 20
-73.31740810813105
 10
130.7124154500421
 20
-73.33241592063105
 10
130.6865326375421
 20
-73.34918935813104
 10
130.6606732625421
 20
-73.36857217063104
 10
130.63434513754208
 20
-73.39172060813104
 10
130.60754826254208
 20
-73.41863467063105
 10
130.5802826375421
 20
-73.44931435813105
 10
130.55254826254208
 20
-73.48375967063104
 10
130.52434513754207
 20
-73.52197060813104
 10
130.49567326254208
 20
-73.56394717063104
 10
130.4665326375421
 20
-73.60968935813105
 10
130.43692326254208
 20
-73.65919717063105
 10
130.4068451375421
 20
-73.71247060813104
 10
130.4068451375421
 20
-73.31950185813105
 10
130.01153263754208
 20
-73.31950185813105
 10
130.01153263754208
 20
-75.91247060813104
  0
LWPOLYLINE
  5
58
330
17
100
AcDbEntity
  8
0
100
AcDbPolyline
 90
133
 70
0
 10
129.0104584187921
 20
-75.07731435813105
 10
128.98974748129208
 20
-75.13143154563105
 10
128.9676146687921
 20
-75.18253310813104
 10
128.94405998129207
 20
-75.23061904563104
 10
128.91908341879207
 20
-75.27568935813105
 10
128.8926849812921
 20
-75.31774404563104
 10
128.86486466879208
 20
-75.35678310813104
 10
128.8356224812921
 20
-75.39280654563105
 10
128.8049584187921
 20
-75.42581435813105
 10
128.7728724812921
 20
-75.45580654563105
 10
128.7393646687921
 20
-75.48278310813104
 10
128.70444279379208
 20
-75.50682998313104
 10
128.6681146687921
 20
-75.52834560813105
 10
128.6303802937921
 20
-75.54732998313105
 10
128.59123966879207
 20
-75.56378310813105
 10
128.55069279379208
 20
-75.57770498313104
 10
128.5087396687921
 20
-75.58909560813105
 10
128.4653802937921
 20
-75.59795498313105
 10
128.4206146687921
 20
-75.60428310813104
 10
128.37444279379207
 20
-75.60807998313105
 10
128.3268646687921
 20
-75.60934560813105
 10
128.2629427937921
 20
-75.60707998313104
 10
128.20117716879207
 20
-75.60028310813105
 10
128.1415677937921
 20
-75.58895498313105
 10
128.0841146687921
 20
-75.57309560813104
 10
128.0288177937921
 20
-75.55270498313105
 10
127.97567716879209
 20
-75.52778310813105
 10
127.92469279379209
 20
-75.49832998313104
 10
127.87586466879209
 20
-75.46434560813104
 10
127.82919279379209
 20
-75.42582998313104
 10
127.78467716879209
 20
-75.38278310813105
 10
127.74316935629209
 20
-75.33531435813104
 10
127.70552091879209
 20
-75.28384560813105
 10
127.67173185629208
 20
-75.22837685813104
 10
127.64180216879208
 20
-75.16890810813105
 10
127.61573185629209
 20
-75.10543935813105
 10
127.59352091879208
 20
-75.03797060813105
 10
127.5751693562921
 20
-74.96650185813104
 10
127.5606771687921
 20
-74.89103310813104
 10
127.55004435629209
 20
-74.81156435813105
 10
127.54327091879209
 20
-74.72809560813104
 10
129.47686466879208
 20
-74.72809560813104
 10
129.47730998129208
 20
-74.71286123313105
 10
129.47770841879208
 20
-74.69840810813105
 10
129.4780599812921
 20
-74.68473623313105
 10
129.4783646687921
 20
-74.67184560813105
 10
129.4786224812921
 20
-74.65973623313104
 10
129.47883341879208
 20
-74.64840810813105
 10
129.47899748129208
 20
-74.63786123313105
 10
129.47911466879208
 20
-74.62809560813105
 10
129.4791849812921
 20
-74.61911123313105
 10
129.4792084187921
 20
-74.61090810813104
 10
129.47591154379208
 20
-74.48535342063104
 10
129.46602091879208
 20
-74.36556435813104
 10
129.44953654379208
 20
-74.25154092063104
 10
129.4264584187921
 20
-74.14328310813104
 10
129.39678654379208
 20
-74.04079092063104
 10
129.36052091879208
 20
-73.94406435813104
 10
129.3176615437921
 20
-73.85310342063104
 10
129.26820841879209
 20
-73.76790810813104
 10
129.2121615437921
 20
-73.68847842063104
 10
129.1495209187921
 20
-73.61481435813104
 10
129.08167716879208
 20
-73.54757217063104
 10
129.0100209187921
 20
-73.48740810813105
 10
128.9345521687921
 20
-73.43432217063105
 10
128.8552709187921
 20
-73.38831435813104
 10
128.7721771687921
 20
-73.34938467063104
 10
128.68527091879207
 20
-73.31753310813104
 10
128.5945521687921
 20
-73.29275967063104
 10
128.50002091879207
 20
-73.27506435813105
 10
128.4016771687921
 20
-73.26444717063104
 10
128.2995209187921
 20
-73.26090810813105
 10
128.1941693562921
 20
-73.26452529563105
 10
128.0928021687921
 20
-73.27537685813104
 10
127.99541935629209
 20
-73.29346279563104
 10
127.90202091879209
 20
-73.31878310813104
 10
127.81260685629209
 20
-73.35133779563104
 10
127.72717716879208
 20
-73.39112685813105
 10
127.64573185629209
 20
-73.43815029563105
 10
127.56827091879208
 20
-73.49240810813104
 10
127.49479435629209
 20
-73.55390029563104
 10
127.42530216879209
 20
-73.62262685813104
 10
127.36132560629208
 20
-73.69775185813104
 10
127.30408341879209
 20
-73.77875185813105
 10
127.25357560629209
 20
-73.86562685813105
 10
127.2098021687921
 20
-73.95837685813105
 10
127.17276310629208
 20
-74.05700185813104
 10
127.14245841879209
 20
-74.16150185813105
 10
127.11888810629209
 20
-74.27187685813105
 10
127.10205216879208
 20
-74.38812685813105
 10
127.09195060629209
 20
-74.51025185813104
 10
127.08858341879208
 20
-74.63825185813104
 10
127.0919193562921
 20
-74.76184560813104
 10
127.10192716879209
 20
-74.87981435813104
 10
127.11860685629209
 20
-74.99215810813105
 10
127.14195841879209
 20
-75.09887685813105
 10
127.17198185629209
 20
-75.19997060813104
 10
127.2086771687921
 20
-75.29543935813105
 10
127.25204435629209
 20
-75.38528310813105
 10
127.30208341879208
 20
-75.46950185813104
 10
127.3587943562921
 20
-75.54809560813105
 10
127.42217716879209
 20
-75.62106435813105
 10
127.49124748129209
 20
-75.68756435813104
 10
127.56502091879209
 20
-75.74706435813104
 10
127.64349748129209
 20
-75.79956435813105
 10
127.7266771687921
 20
-75.84506435813104
 10
127.81455998129209
 20
-75.88356435813104
 10
127.90714591879208
 20
-75.91506435813105
 10
128.0044349812921
 20
-75.93956435813105
 10
128.1064271687921
 20
-75.95706435813105
 10
128.2131224812921
 20
-75.96756435813104
 10
128.32452091879208
 20
-75.97106435813104
 10
128.41322404379207
 20
-75.96886904563104
 10
128.4987084187921
 20
-75.96228310813105
 10
128.58097404379208
 20
-75.95130654563104
 10
128.6600209187921
 20
-75.93593935813105
 10
128.7358490437921
 20
-75.91618154563105
 10
128.8084584187921
 20
-75.89203310813105
 10
128.87784904379208
 20
-75.86349404563104
 10
128.9440209187921
 20
-75.83056435813104
 10
129.00697404379207
 20
-75.79324404563104
 10
129.06670841879208
 20
-75.75153310813104
 10
129.1229974812921
 20
-75.70569717063104
 10
129.1756146687921
 20
-75.65631435813104
 10
129.2245599812921
 20
-75.60338467063104
 10
129.26983341879208
 20
-75.54690810813105
 10
129.31143498129208
 20
-75.48688467063104
 10
129.34936466879208
 20
-75.42331435813105
 10
129.3836224812921
 20
-75.35619717063105
 10
129.4142084187921
 20
-75.28553310813105
 10
129.4411224812921
 20
-75.21132217063105
 10
129.4643646687921
 20
-75.13356435813104
 10
129.0104584187921
 20
-75.07731435813105
  0
LWPOLYLINE
  5
59
330
17
100
AcDbEntity
  8
0
100
AcDbPolyline
 90
244
 70
0
 10
123.64688420004208
 20
-75.59293935813105
 10
123.6512748250421
 20
-75.62904092063104
 10
123.65663420004208
 20
-75.66422060813105
 10
123.66296232504209
 20
-75.69847842063105
 10
123.6702592000421
 20
-75.73181435813105
 10
123.67852482504209
 20
-75.76422842063104
 10
123.68775920004208
 20
-75.79572060813105
 10
123.69796232504208
 20
-75.82629092063104
 10
123.70913420004209
 20
-75.85593935813104
 10
123.72127482504209
 20
-75.88466592063105
 10
123.73438420004209
 20
-75.91247060813104
 10
124.19375920004208
 20
-75.91247060813104
 10
124.17759513754208
 20
-75.88250185813105
 10
124.16254045004209
 20
-75.85228310813105
 10
124.14859513754209
 20
-75.82181435813105
 10
124.13575920004209
 20
-75.79109560813104
 10
124.12403263754209
 20
-75.76012685813104
 10
124.11341545004208
 20
-75.72890810813105
 10
124.10390763754208
 20
-75.69743935813105
 10
124.09550920004209
 20
-75.66572060813104
 10
124.0882201375421
 20
-75.63375185813105
 10
124.08204045004209
 20
-75.60153310813105
 10
124.07669670004208
 20
-75.56452529563104
 10
124.07191545004208
 20
-75.51850185813105
 10
124.06769670004209
 20
-75.46346279563105
 10
124.06404045004209
 20
-75.39940810813104
 10
124.06094670004208
 20
-75.32633779563105
 10
124.05841545004209
 20
-75.24425185813105
 10
124.05644670004209
 20
-75.15315029563105
 10
124.05504045004209
 20
-75.05303310813105
 10
124.05419670004208
 20
-74.94390029563104
 10
124.05391545004208
 20
-74.82575185813104
 10
124.05391545004208
 20
-74.23981435813104
 10
124.05369670004208
 20
-74.18303310813104
 10
124.05304045004209
 20
-74.12987685813104
 10
124.0519467000421
 20
-74.08034560813104
 10
124.0504154500421
 20
-74.03443935813104
 10
124.04844670004209
 20
-73.99215810813105
 10
124.04604045004209
 20
-73.95350185813105
 10
124.04319670004209
 20
-73.91847060813105
 10
124.03991545004209
 20
-73.88706435813104
 10
124.03619670004208
 20
-73.85928310813104
 10
124.03204045004209
 20
-73.83512685813105
 10
124.02364201254208
 20
-73.79950967063104
 10
124.01407170004208
 20
-73.76515810813105
 10
124.00332951254208
 20
-73.73207217063104
 10
123.99141545004208
 20
-73.70025185813104
 10
123.97832951254209
 20
-73.66969717063104
 10
123.96407170004208
 20
-73.64040810813104
 10
123.94864201254208
 20
-73.61238467063104
 10
123.93204045004208
 20
-73.58562685813105
 10
123.91426701254208
 20
-73.56013467063104
 10
123.89532170004209
 20
-73.53590810813104
 10
123.87468888754208
 20
-73.51256435813104
 10
123.85185295004209
 20
-73.49003310813104
 10
123.82681388754209
 20
-73.46831435813104
 10
123.7995717000421
 20
-73.44740810813104
 10
123.77012638754209
 20
-73.42731435813104
 10
123.7384779500421
 20
-73.40803310813105
 10
123.70462638754208
 20
-73.38956435813104
 10
123.6685717000421
 20
-73.37190810813104
 10
123.63031388754209
 20
-73.35506435813105
 10
123.58985295004209
 20
-73.33903310813105
 10
123.5471967000421
 20
-73.32418935813105
 10
123.50204045004209
 20
-73.31090810813104
 10
123.45438420004209
 20
-73.29918935813104
 10
123.40422795004208
 20
-73.28903310813105
 10
123.35157170004209
 20
-73.28043935813105
 10
123.29641545004209
 20
-73.27340810813105
 10
123.2387592000421
 20
-73.26793935813104
 10
123.17860295004209
 20
-73.26403310813104
 10
123.11594670004209
 20
-73.26168935813105
 10
123.05079045004209
 20
-73.26090810813105
 10
122.98472013754208
 20
-73.26182998313105
 10
122.9202592000421
 20
-73.26459560813105
 10
122.85740763754208
 20
-73.26920498313105
 10
122.79616545004208
 20
-73.27565810813104
 10
122.73653263754208
 20
-73.28395498313104
 10
122.67850920004209
 20
-73.29409560813104
 10
122.62209513754209
 20
-73.30607998313104
 10
122.5672904500421
 20
-73.31990810813105
 10
122.51409513754209
 20
-73.33557998313104
 10
122.46250920004209
 20
-73.35309560813104
 10
122.41292326254208
 20
-73.37215810813105
 10
122.36572795004209
 20
-73.39278310813104
 10
122.3209232625421
 20
-73.41497060813104
 10
122.2785092000421
 20
-73.43872060813105
 10
122.23848576254208
 20
-73.46403310813105
 10
122.20085295004208
 20
-73.49090810813105
 10
122.16561076254209
 20
-73.51934560813105
 10
122.13275920004209
 20
-73.54934560813105
 10
122.10229826254209
 20
-73.58090810813104
 10
122.07422795004209
 20
-73.61403310813104
 10
122.04811076254208
 20
-73.64900185813104
 10
122.02350920004208
 20
-73.68609560813104
 10
122.00042326254209
 20
-73.72531435813104
 10
121.9788529500421
 20
-73.76665810813104
 10
121.95879826254209
 20
-73.81012685813104
 10
121.94025920004208
 20
-73.85572060813105
 10
121.92323576254208
 20
-73.90343935813104
 10
121.90772795004209
 20
-73.95328310813105
 10
121.8937357625421
 20
-74.00525185813105
 10
121.88125920004208
 20
-74.05934560813104
 10
122.31094670004208
 20
-74.11793935813104
 10
122.32593107504209
 20
-74.06445498313104
 10
122.34244670004209
 20
-74.01431435813105
 10
122.36049357504209
 20
-73.96751748313105
 10
122.3800717000421
 20
-73.92406435813105
 10
122.40118107504209
 20
-73.88395498313105
 10
122.42382170004208
 20
-73.84718935813105
 10
122.44799357504209
 20
-73.81376748313104
 10
122.4736967000421
 20
-73.78368935813104
 10
122.50093107504209
 20
-73.75695498313104
 10
122.52969670004208
 20
-73.73356435813105
 10
122.56085295004209
 20
-73.71293154563105
 10
122.59525920004208
 20
-73.69447060813104
 10
122.63291545004208
 20
-73.67818154563105
 10
122.67382170004208
 20
-73.66406435813104
 10
122.71797795004208
 20
-73.65211904563104
 10
122.76538420004209
 20
-73.64234560813105
 10
122.8160404500421
 20
-73.63474404563104
 10
122.86994670004208
 20
-73.62931435813104
 10
122.92710295004208
 20
-73.62605654563104
 10
122.98750920004208
 20
-73.62497060813105
 10
123.05227482504208
 20
-73.62645498313104
 10
123.11375920004208
 20
-73.63090810813104
 10
123.17196232504209
 20
-73.63832998313104
 10
123.2268842000421
 20
-73.64872060813104
 10
123.27852482504208
 20
-73.66207998313105
 10
123.32688420004209
 20
-73.67840810813104
 10
123.37196232504209
 20
-73.69770498313105
 10
123.41375920004208
 20
-73.71997060813105
 10
123.45227482504208
 20
-73.74520498313105
 10
123.48750920004208
 20
-73.77340810813105
 10
123.51125920004209
 20
-73.79702529563104
 10
123.53250920004209
 20
-73.82381435813105
 10
123.55125920004208
 20
-73.85377529563104
 10
123.56750920004208
 20
-73.88690810813104
 10
123.58125920004208
 20
-73.92321279563104
 10
123.59250920004209
 20
-73.96268935813104
 10
123.60125920004208
 20
-74.00533779563105
 10
123.60750920004209
 20
-74.05115810813105
 10
123.61125920004208
 20
-74.10015029563104
 10
123.61250920004208
 20
-74.15231435813105
 10
123.6124857625421
 20
-74.15782217063105
 10
123.61241545004208
 20
-74.16465810813105
 10
123.61229826254208
 20
-74.17282217063105
 10
123.61213420004208
 20
-74.18231435813104
 10
123.61192326254209
 20
-74.19313467063104
 10
123.61166545004208
 20
-74.20528310813104
 10
123.61136076254209
 20
-74.21875967063104
 10
123.61100920004209
 20
-74.23356435813105
 10
123.61061076254208
 20
-74.24969717063104
 10
123.61016545004209
 20
-74.26715810813104
 10
123.55704826254208
 20
-74.28441592063105
 10
123.49832170004208
 20
-74.30118935813104
 10
123.43398576254208
 20
-74.31747842063105
 10
123.36404045004208
 20
-74.33328310813104
 10
123.28848576254208
 20
-74.34860342063105
 10
123.20732170004209
 20
-74.36343935813105
 10
123.12054826254209
 20
-74.37779092063104
 10
123.02816545004208
 20
-74.39165810813104
 10
122.93017326254208
 20
-74.40504092063105
 10
122.82657170004208
 20
-74.41793935813105
 10
122.77555607504209
 20
-74.42436904563104
 10
122.72719670004209
 20
-74.43084560813105
 10
122.68149357504208
 20
-74.43736904563104
 10
122.6384467000421
 20
-74.44393935813105
 10
122.59805607504208
 20
-74.45055654563104
 10
122.5603217000421
 20
-74.45722060813104
 10
122.52524357504208
 20
-74.46393154563104
 10
122.49282170004209
 20
-74.47068935813104
 10
122.46305607504209
 20
-74.47749404563105
 10
122.43594670004208
 20
-74.48434560813105
 10
122.4011420125421
 20
-74.49450185813104
 10
122.36704045004208
 20
-74.50559560813105
 10
122.33364201254209
 20
-74.51762685813104
 10
122.30094670004209
 20
-74.53059560813105
 10
122.26895451254208
 20
-74.54450185813104
 10
122.23766545004209
 20
-74.55934560813104
 10
122.2070795125421
 20
-74.57512685813104
 10
122.17719670004209
 20
-74.59184560813104
 10
122.14801701254208
 20
-74.60950185813104
 10
122.11954045004208
 20
-74.62809560813105
 10
122.09195451254209
 20
-74.64778310813105
 10
122.06544670004209
 20
-74.66872060813104
 10
122.04001701254208
 20
-74.69090810813104
 10
122.01566545004209
 20
-74.71434560813104
 10
121.99239201254208
 20
-74.73903310813104
 10
121.9701967000421
 20
-74.76497060813105
 10
121.94907951254208
 20
-74.79215810813105
 10
121.9290404500421
 20
-74.82059560813104
 10
121.9100795125421
 20
-74.85028310813105
 10
121.89219670004209
 20
-74.88122060813104
 10
121.87572013754209
 20
-74.91296279563105
 10
121.86097795004208
 20
-74.94537685813104
 10
121.84797013754209
 20
-74.97846279563105
 10
121.83669670004208
 20
-75.01222060813105
 10
121.82715763754209
 20
-75.04665029563104
 10
121.81935295004209
 20
-75.08175185813104
 10
121.81328263754209
 20
-75.11752529563104
 10
121.80894670004209
 20
-75.15397060813105
 10
121.80634513754208
 20
-75.19108779563105
 10
121.80547795004209
 20
-75.22887685813104
 10
121.80777482504209
 20
-75.29271279563105
 10
121.81466545004209
 20
-75.35422060813104
 10
121.82614982504208
 20
-75.41340029563105
 10
121.84222795004209
 20
-75.47025185813105
 10
121.86289982504209
 20
-75.52477529563104
 10
121.8881654500421
 20
-75.57697060813105
 10
121.9180248250421
 20
-75.62683779563105
 10
121.9524779500421
 20
-75.67437685813104
 10
121.99152482504209
 20
-75.71958779563104
 10
122.03516545004209
 20
-75.76247060813104
 10
122.08307951254208
 20
-75.80210342063104
 10
122.1349467000421
 20
-75.83756435813105
 10
122.1907670125421
 20
-75.86885342063104
 10
122.25054045004208
 20
-75.89597060813105
 10
122.31426701254209
 20
-75.91891592063105
 10
122.38194670004208
 20
-75.93768935813104
 10
122.45357951254209
 20
-75.95229092063104
 10
122.52916545004209
 20
-75.96272060813105
 10
122.60870451254209
 20
-75.96897842063105
 10
122.69219670004209
 20
-75.97106435813104
 10
122.74358732504209
 20
-75.97021279563104
 10
122.79432170004209
 20
-75.96765810813105
 10
122.84439982504209
 20
-75.96340029563105
 10
122.89382170004208
 20
-75.95743935813104
 10
122.94258732504208
 20
-75.94977529563104
 10
122.9906967000421
 20
-75.94040810813104
 10
123.03814982504208
 20
-75.92933779563104
 10
123.08494670004208
 20
-75.91656435813104
 10
123.13108732504209
 20
-75.90208779563105
 10
123.17657170004209
 20
-75.88590810813105
 10
123.22191545004209
 20
-75.86750967063105
 10
123.2676342000421
 20
-75.84668935813104
 10
123.31372795004208
 20
-75.82344717063104
 10
123.36019670004208
 20
-75.79778310813104
 10
123.40704045004209
 20
-75.76969717063105
 10
123.45425920004209
 20
-75.73918935813104
 10
123.50185295004209
 20
-75.70625967063104
 10
123.54982170004209
 20
-75.67090810813104
 10
123.59816545004209
 20
-75.63313467063105
 10
123.64688420004208
 20
-75.59293935813105
  0
LWPOLYLINE
  5
5A
330
17
100
AcDbEntity
  8
0
100
AcDbPolyline
 90
118
 70
0
 10
124.71592716879209
 20
-76.91090810813104
 10
124.74688029379209
 20
-76.92115029563105
 10
124.77723966879208
 20
-76.93031435813104
 10
124.80700529379209
 20
-76.93840029563104
 10
124.83617716879209
 20
-76.94540810813105
 10
124.86475529379209
 20
-76.95133779563105
 10
124.89273966879209
 20
-76.95618935813104
 10
124.92013029379208
 20
-76.95996279563104
 10
124.94692716879209
 20
-76.96265810813105
 10
124.97313029379208
 20
-76.96427529563104
 10
124.99873966879208
 20
-76.96481435813105
 10
125.04018498129209
 20
-76.96379873313104
 10
125.08045841879209
 20
-76.96075185813105
 10
125.11955998129208
 20
-76.95567373313105
 10
125.1574896687921
 20
-76.94856435813105
 10
125.19424748129208
 20
-76.93942373313105
 10
125.22983341879208
 20
-76.92825185813105
 10
125.26424748129209
 20
-76.91504873313104
 10
125.29748966879208
 20
-76.89981435813104
 10
125.32955998129208
 20
-76.88254873313105
 10
125.36045841879209
 20
-76.86325185813105
 10
125.39042716879209
 20
-76.84192373313104
 10
125.41970841879208
 20
-76.81825185813105
 10
125.44830216879208
 20
-76.79223623313105
 10
125.47620841879208
 20
-76.76387685813104
 10
125.50342716879209
 20
-76.73317373313104
 10
125.52995841879209
 20
-76.70012685813104
 10
125.55580216879208
 20
-76.66473623313105
 10
125.58095841879208
 20
-76.62700185813104
 10
125.60542716879209
 20
-76.58692373313104
 10
125.62920841879209
 20
-76.54450185813104
 10
125.64741935629209
 20
-76.50965029563105
 10
125.66705216879208
 20
-76.46947060813105
 10
125.68810685629208
 20
-76.42396279563104
 10
125.71058341879208
 20
-76.37312685813104
 10
125.73448185629209
 20
-76.31696279563104
 10
125.75980216879208
 20
-76.25547060813105
 10
125.78654435629208
 20
-76.18865029563105
 10
125.8147084187921
 20
-76.11650185813104
 10
125.8442943562921
 20
-76.03902529563105
 10
125.87530216879209
 20
-75.95622060813105
 10
126.86202091879208
 20
-73.31950185813105
 10
126.42217716879209
 20
-73.31950185813105
 10
125.86827091879209
 20
-74.83122060813105
 10
125.84762248129209
 20
-74.88887685813104
 10
125.8275521687921
 20
-74.94684560813104
 10
125.80805998129209
 20
-75.00512685813105
 10
125.78914591879209
 20
-75.06372060813105
 10
125.77080998129209
 20
-75.12262685813104
 10
125.7530521687921
 20
-75.18184560813104
 10
125.73587248129209
 20
-75.24137685813105
 10
125.71927091879209
 20
-75.30122060813105
 10
125.7032474812921
 20
-75.36137685813104
 10
125.68780216879209
 20
-75.42184560813105
 10
125.6708724812921
 20
-75.35916592063104
 10
125.65352091879208
 20
-75.29706435813104
 10
125.63574748129209
 20
-75.23554092063104
 10
125.61755216879209
 20
-75.17459560813104
 10
125.59893498129209
 20
-75.11422842063105
 10
125.57989591879209
 20
-75.05443935813105
 10
125.56043498129208
 20
-74.99522842063105
 10
125.54055216879209
 20
-74.93659560813104
 10
125.52024748129209
 20
-74.87854092063104
 10
125.49952091879209
 20
-74.82106435813104
 10
124.95967716879208
 20
-73.31950185813105
 10
124.48623966879208
 20
-73.31950185813105
 10
125.47061466879208
 20
-75.91715810813105
 10
125.46530216879208
 20
-75.93103310813105
 10
125.46030216879208
 20
-75.94422060813105
 10
125.4556146687921
 20
-75.95672060813105
 10
125.45123966879208
 20
-75.96853310813104
 10
125.44717716879208
 20
-75.97965810813105
 10
125.44342716879208
 20
-75.99009560813104
 10
125.4399896687921
 20
-75.99984560813104
 10
125.43686466879208
 20
-76.00890810813104
 10
125.43405216879208
 20
-76.01728310813104
 10
125.43155216879208
 20
-76.02497060813104
 10
125.41347404379209
 20
-76.07521279563105
 10
125.39642716879209
 20
-76.12156435813104
 10
125.38041154379209
 20
-76.16402529563105
 10
125.36542716879208
 20
-76.20259560813105
 10
125.35147404379208
 20
-76.23727529563105
 10
125.33855216879209
 20
-76.26806435813104
 10
125.32666154379208
 20
-76.29496279563105
 10
125.31580216879209
 20
-76.31797060813105
 10
125.30597404379208
 20
-76.33708779563105
 10
125.29717716879209
 20
-76.35231435813104
 10
125.28560685629208
 20
-76.36942373313104
 10
125.27339591879209
 20
-76.38575185813104
 10
125.26054435629209
 20
-76.40129873313104
 10
125.2470521687921
 20
-76.41606435813104
 10
125.23291935629209
 20
-76.43004873313104
 10
125.21814591879209
 20
-76.44325185813105
 10
125.20273185629209
 20
-76.45567373313105
 10
125.18667716879209
 20
-76.46731435813105
 10
125.16998185629208
 20
-76.47817373313104
 10
125.15264591879209
 20
-76.48825185813105
 10
125.13455216879208
 20
-76.49760342063105
 10
125.11527091879208
 20
-76.50597060813105
 10
125.09480216879209
 20
-76.51335342063105
 10
125.07314591879208
 20
-76.51975185813104
 10
125.05030216879209
 20
-76.52516592063104
 10
125.02627091879208
 20
-76.52959560813105
 10
125.00105216879209
 20
-76.53304092063104
 10
124.97464591879208
 20
-76.53550185813104
 10
124.94705216879208
 20
-76.53697842063104
 10
124.91827091879209
 20
-76.53747060813104
 10
124.89648966879209
 20
-76.53707998313105
 10
124.87395841879209
 20
-76.53590810813104
 10
124.85067716879209
 20
-76.53395498313104
 10
124.82664591879208
 20
-76.53122060813105
 10
124.80186466879209
 20
-76.52770498313104
 10
124.77633341879209
 20
-76.52340810813105
 10
124.75005216879208
 20
-76.51832998313104
 10
124.72302091879209
 20
-76.51247060813104
 10
124.69523966879208
 20
-76.50582998313105
 10
124.66670841879208
 20
-76.49840810813104
 10
124.71592716879209
 20
-76.91090810813104
  0
LWPOLYLINE
  5
5B
330
17
100
AcDbEntity
  8
0
100
AcDbPolyline
 90
18
 70
0
 10
166.77228146463045
 20
15.111866250724999
 10
166.95957351082816
 20
14.712069767495262
 10
170.49182012677343
 20
7.172081798842871
 10
170.51841576150966
 20
7.162455158048785
 10
171.34485228276242
 20
7.549614609446485
 10
171.3544789235565
 20
7.57621024418269
 10
167.83423119829763
 20
15.090585196177603
 10
167.84784532426872
 20
15.128197103521464
 10
168.22971079619768
 20
15.30708903631702
 10
168.2294830485009
 20
15.307197780550663
 10
168.1832661704279
 20
15.494630227412028
 10
168.18234967533903
 20
15.495467055242782
 10
167.63369621944076
 20
15.578917134178061
 10
167.58503957129398
 20
15.556123028739918
 10
166.7665422382442
 20
15.17316100547095
 10
166.79233214915416
 20
15.118040727156668
 10
166.79166579719458
 20
15.116646017246985
 10
166.77228146463045
 20
15.111866250724999
  0
LWPOLYLINE
  5
5C
330
17
100
AcDbEntity
  8
0
100
AcDbPolyline
 90
30
 70
0
 10
232.38087992407063
 20
-37.90680575638019
 10
232.32152753782177
 20
-38.431605803212236
 10
232.31543853611402
 20
-38.44005012764004
 10
232.31707604160107
 20
-38.44117491418574
 10
232.30601130156003
 20
-38.457283368362376
 10
220.859026727348
 20
-30.788256153623493
 10
220.85346079513414
 20
-30.796564005246545
 10
220.85595797100183
 20
-30.801242816574185
 10
220.83127915967418
 20
-30.793739992441864
 10
220.3233166323053
 20
-31.551937747157623
 10
220.3288004711237
 20
-31.57968531483146
 10
231.3298733702243
 20
-38.94996933221309
 10
230.81254337408862
 20
-39.204015312458296
 10
231.05154461314106
 20
-39.36413669593415
 10
231.2961670093573
 20
-39.447540691531415
 10
231.29690178855034
 20
-39.44758992179787
 10
231.55046397781365
 20
-39.397564334457876
 10
232.50729886842953
 20
-38.92769005781615
 10
232.562776832928
 20
-38.89588608786312
 10
232.56293648561484
 20
-38.895780437878216
 10
232.61389650725997
 20
-38.857149190924076
 10
232.62132281946782
 20
-38.850731101263285
 10
232.66692966426777
 20
-38.80590574287116
 10
232.66705733036125
 20
-38.80576308149481
 10
232.7065635028022
 20
-38.75547829862354
 10
232.71663900613314
 20
-38.74081001151412
 10
232.79548470472062
 20
-38.364012163227684
 10
232.79529245644852
 20
-38.36300886714465
 10
232.58274434028982
 20
-38.04204693641637
 10
232.38087992407063
 20
-37.90680575638019
  0
LWPOLYLINE
  5
5D
330
17
100
AcDbEntity
  8
0
100
AcDbPolyline
 90
18
 70
0
 10
177.98523069164185
 20
-25.328685582756975
 10
177.56467911687412
 20
-25.37232062987062
 10
177.5336268611212
 20
-25.347106399510462
 10
176.22218425730273
 20
-12.70751302822555
 10
176.2002269966887
 20
-12.689683874955485
 10
175.29247216897227
 20
-12.783869527920697
 10
175.2746430157022
 20
-12.805826788534729
 10
176.58900463221707
 20
-25.47355340287618
 10
176.63473538347424
 20
-25.91430322964799
 10
176.65465115514675
 20
-25.908327649837894
 10
176.6559332008085
 20
-25.909182262209992
 10
176.6620004906723
 20
-25.967658383483382
 10
177.55991076987704
 20
-25.874494168467507
 10
177.6134742065726
 20
-25.868936602584963
 10
178.04062604366194
 20
-25.514640344610324
 10
178.04098099861008
 20
-25.513447876166115
 10
177.98509466235612
 20
-25.328890209313048
 10
177.98523069164185
 20
-25.328685582756975
  0
LWPOLYLINE
  5
5E
330
17
100
AcDbEntity
  8
0
100
AcDbPolyline
 90
20
 70
0
 10
214.6225402117774
 20
21.628192793873026
 10
215.00574134599754
 20
21.847447051081463
 10
228.19803268286006
 20
29.395613743822377
 10
228.20545962281645
 20
29.422905511132026
 10
227.7522297091027
 20
30.215037072037145
 10
227.7266932972971
 20
30.208247923371417
 10
227.72990414863136
 20
30.213784335177024
 10
227.72493794179303
 20
30.222464011993537
 10
214.5571964382724
 20
22.688343873381218
 10
214.51860005080195
 20
22.69884715259448
 10
214.30917942327423
 20
23.06486158268799
 10
214.30908960337405
 20
23.06462572954029
 10
214.12604765260016
 20
23.003285969088708
 10
214.12528830770952
 20
23.002304317723233
 10
214.08683377428576
 20
22.448674676896164
 10
214.11351779401218
 20
22.402037741518413
 10
214.56191716254074
 20
21.61747684407141
 10
214.6147520506652
 20
21.64767351910503
 10
214.61619643119988
 20
21.647123059717583
 10
214.6225402117774
 20
21.628192793873026
  0
LWPOLYLINE
  5
5F
330
17
100
AcDbEntity
  8
0
100
AcDbPolyline
 90
38
 70
0
 10
173.7567991269186
 20
0.7544539154946206
 10
173.54675960567383
 20
0.6619807634421717
 10
173.4273480403763
 20
0.47893567557525846
 10
173.44520102704632
 20
0.3987426320959099
 10
164.2791036381291
 20
-3.63677369621057
 10
164.26885797281267
 20
-3.663137048467508
 10
164.63325617797935
 20
-4.490815383820959
 10
164.61876661913328
 20
-4.52809879413234
 10
154.4114981585588
 20
-9.02200681106669
 10
154.37421474824743
 20
-9.007517252220639
 10
154.20429753460374
 20
-8.621574636306397
 10
154.20418349663498
 20
-8.621799779957042
 10
154.01572197166882
 20
-8.663622926208491
 10
154.01486395003062
 20
-8.664519610620426
 10
153.91861227365163
 20
-9.21107257707336
 10
153.94026283565742
 20
-9.260248727960867
 10
154.30398841483276
 20
-10.087473908026704
 10
154.35969645481327
 20
-10.062979441963622
 10
154.3610752081461
 20
-10.063678212250222
 10
154.3654005733078
 20
-10.083168972450373
 10
154.76946564834967
 20
-9.905273065518216
 10
165.0102025692949
 20
-5.396630040588781
 10
165.02044823461134
 20
-5.370266688331843
 10
164.65605002944466
 20
-4.542588352978392
 10
164.67053958829072
 20
-4.505304942667011
 10
173.79550171560973
 20
-0.4878990503296531
 10
173.84960076573444
 20
-1.0093019644627552
 10
173.99575765076355
 20
-0.9449541323371101
 10
174.2263756259992
 20
-0.7387391466615358
 10
174.22680784563065
 20
-0.7379952374027121
 10
174.2917456424253
 20
-0.4355182079170935
 10
174.2736745966297
 20
-0.26135071481826483
 10
174.25814578553576
 20
-0.17930903984847224
 10
174.2580790094455
 20
-0.17906845878302752
 10
174.22930896727
 20
-0.10120493897149378
 10
173.89761761174577
 20
0.6086455492626148
 10
173.75671783660187
 20
0.754038363845357
 10
173.7567991269186
 20
0.7544539154946206
  0
LWPOLYLINE
  5
60
330
17
100
AcDbEntity
  8
0
100
AcDbPolyline
 90
20
 70
0
 10
143.94480564868272
 20
-13.137253357985065
 10
144.1151733185155
 20
-13.524219120620321
 10
144.10068375966944
 20
-13.561502530931701
 10
133.88583332330293
 20
-18.058748630128473
 10
133.88986274503804
 20
-18.06790088452182
 10
133.89356681842156
 20
-18.067991501136902
 10
133.87558765798647
 20
-18.08511198238541
 10
134.24332394541557
 20
-18.920372293530885
 10
134.2696872976725
 20
-18.93061795884733
 10
144.51042421861774
 20
-14.421974933917896
 10
144.91597517379418
 20
-14.243424845245091
 10
144.90418594556635
 20
-14.226297101284747
 10
144.90460673301303
 20
-14.224814893030118
 10
144.95841287290716
 20
-14.20112590666079
 10
144.59466466420878
 20
-13.37492394519511
 10
144.57296583237562
 20
-13.325638156307718
 10
144.1048506551245
 20
-13.027556437360468
 10
144.10360678099514
 20
-13.027583844585727
 10
143.94504210822907
 20
-13.137320162752623
 10
143.94480564868272
 20
-13.137253357985065
  0
LWPOLYLINE
  5
61
330
17
100
AcDbEntity
  8
0
100
AcDbPolyline
 90
26
 70
0
 10
174.64877990894382
 20
-1.3716224911009476
 10
174.7883994997122
 20
-1.3101528040148662
 10
175.05840020628148
 20
-1.4910426054515884
 10
176.21805614995876
 20
-12.667726614341452
 10
176.2400134105728
 20
-12.685555767611518
 10
177.14776823828922
 20
-12.591370114646306
 10
177.1655973915593
 20
-12.569412854032274
 10
176.07052816521878
 20
-2.0152111725780077
 10
176.13877958124434
 20
-1.9741179597541803
 10
185.841531696638
 20
-8.474578369079179
 10
185.8692792643118
 20
-8.4690945302608
 10
186.3772417916807
 20
-7.710896775545044
 10
186.3717579528623
 20
-7.68314920787121
 10
176.1490805353921
 20
-0.8343593965621205
 10
176.12763472407877
 20
-0.6276661461458484
 10
176.45635452793354
 20
-0.43958419651761177
 10
176.42883349006945
 20
-0.421146188936739
 10
175.89321389630135
 20
-0.40820105019363423
 10
175.89216083596233
 20
-0.40883508293826876
 10
175.65295464718037
 20
-0.8878786097467102
 10
175.69706878818334
 20
-1.3163161403360577
 10
175.69551745409402
 20
-1.3172493491559027
 10
175.33815316095883
 20
-1.0778293978262072
 10
174.80253356719072
 20
-1.0648842590830994
 10
174.80148068877014
 20
-1.0655181822972215
 10
174.64877990894382
 20
-1.3716224911009476
  0
LWPOLYLINE
  5
62
330
17
100
AcDbEntity
  8
0
100
AcDbPolyline
 90
20
 70
0
 10
186.40498935935452
 20
-7.705412936726667
 10
197.8495546258939
 20
-15.372819310949687
 10
197.8573099451247
 20
-15.41206029747689
 10
197.6225994195759
 20
-15.762395182219363
 10
197.62285061190752
 20
-15.762370754074228
 10
197.7591869286139
 20
-15.899043102053373
 10
197.7604038486485
 20
-15.899286719983
 10
198.2733843167267
 20
-15.68754260621866
 10
198.30329073219633
 20
-15.642903531800881
 10
198.80662033366397
 20
-14.892398963013639
 10
198.75607890972628
 20
-14.858503107034698
 10
198.7559296650666
 20
-14.856964612089058
 10
198.77006436954233
 20
-14.842864660091088
 10
198.4032790349972
 20
-14.597132983389908
 10
186.9352156155788
 20
-6.913983775518698
 10
186.90746804790498
 20
-6.919467614337077
 10
186.39950552053614
 20
-7.677665369052832
 10
186.40781337215918
 20
-7.683231301266696
 10
186.40900343661056
 20
-7.682394666022023
 10
186.40498935935452
 20
-7.705412936726667
  0
LWPOLYLINE
  5
63
330
17
100
AcDbEntity
  8
0
100
AcDbPolyline
 90
17
 70
0
 10
209.10665631682463
 20
-23.457605003958964
 10
209.34198906778923
 20
-23.10634136977583
 10
209.38123005431643
 20
-23.098586050545013
 10
220.8257953208558
 20
-30.765992424768037
 10
220.85354288852963
 20
-30.76050858594966
 10
221.36150541589848
 20
-30.002310831233903
 10
221.3560215770801
 20
-29.974563263560068
 10
209.51982403284532
 20
-22.044778742817787
 10
209.5116853418117
 20
-22.063912671416958
 10
209.51020853494313
 20
-22.064352040121296
 10
209.46136664228587
 20
-22.031629902550524
 10
208.9589129390952
 20
-22.781605046546048
 10
208.92893984741045
 20
-22.826343643574035
 10
208.92825677398656
 20
-23.38130676284769
 10
208.92894672733138
 20
-23.382342107422062
 10
209.10658594975126
 20
-23.45736957993935
 10
209.10665631682463
 20
-23.457605003958964
  0
ENDSEC
  0
SECTION
  2
OBJECTS
  0
DICTIONARY
  5
A
330
0
100
AcDbDictionary
281
1
  3
ACAD_COLOR
350
B
  3
ACAD_GROUP
350
C
  3
ACAD_LAYOUT
350
D
  3
ACAD_MATERIAL
350
E
  3
ACAD_MLEADERSTYLE
350
F
  3
ACAD_MLINESTYLE
350
10
  3
ACAD_PLOTSETTINGS
350
11
  3
ACAD_PLOTSTYLENAME
350
12
  3
ACAD_SCALELIST
350
14
  3
ACAD_TABLESTYLE
350
15
  3
ACAD_VISUALSTYLE
350
16
  0
DICTIONARY
  5
B
330
A
100
AcDbDictionary
281
1
  0
DICTIONARY
  5
C
330
A
100
AcDbDictionary
281
1
  0
DICTIONARY
  5
D
330
A
100
AcDbDictionary
281
1
  3
Model
350
1A
  3
Layout1
350
1E
  0
DICTIONARY
  5
E
330
A
100
AcDbDictionary
281
1
  3
ByBlock
350
1F
  3
ByLayer
350
20
  3
Global
350
21
  0
DICTIONARY
  5
F
330
A
100
AcDbDictionary
281
1
  3
Standard
350
2C
  0
DICTIONARY
  5
10
330
A
100
AcDbDictionary
281
1
  3
Standard
350
22
  0
DICTIONARY
  5
11
330
A
100
AcDbDictionary
281
1
  0
ACDBDICTIONARYWDFLT
  5
12
330
A
100
AcDbDictionary
281
1
  3
Normal
350
13
100
AcDbDictionaryWithDefault
340
13
  0
ACDBPLACEHOLDER
  5
13
330
12
  0
DICTIONARY
  5
14
330
A
100
AcDbDictionary
281
1
  0
DICTIONARY
  5
15
330
A
100
AcDbDictionary
281
1
  0
DICTIONARY
  5
16
330
A
100
AcDbDictionary
281
1
  0
LAYOUT
  5
1A
330
D
100
AcDbPlotSettings
  1

  2
Adobe PDF
  4
A4
  6

 40
3.175
 41
3.175
 42
3.175
 43
3.175
 44
209.91
 45
297.03
 46
0.0
 47
0.0
 48
0.0
 49
0.0
140
0.0
141
0.0
142
1.0
143
1.0
 70
1024
 72
0
 73
1
 74
5
  7

 75
16
 76
0
 77
2
 78
300
147
1.0
148
0.0
149
0.0
100
AcDbLayout
  1
Model
 70
1
 71
0
 10
-3.175
 20
-3.175
 11
293.857
 21
206.735
 12
0.0
 22
0.0
 32
0.0
 14
29.068
 24
20.356
 34
0.0
 15
261.614
 25
183.204
 35
0.0
146
0.0
 13
0.0
 23
0.0
 33
0.0
 16
1.0
 26
0.0
 36
0.0
 17
0.0
 27
1.0
 37
0.0
 76
1
330
17
  0
LAYOUT
  5
1E
330
D
100
AcDbPlotSettings
  1

  2
Adobe PDF
  4
A4
  6

 40
3.175
 41
3.175
 42
3.175
 43
3.175
 44
209.91
 45
297.03
 46
0.0
 47
0.0
 48
0.0
 49
0.0
140
0.0
141
0.0
142
1.0
143
1.0
 70
0
 72
0
 73
1
 74
5
  7

 75
16
 76
0
 77
2
 78
300
147
1.0
148
0.0
149
0.0
100
AcDbLayout
  1
Layout1
 70
1
 71
1
 10
-3.175
 20
-3.175
 11
293.857
 21
206.735
 12
0.0
 22
0.0
 32
0.0
 14
29.068
 24
20.356
 34
0.0
 15
261.614
 25
183.204
 35
0.0
146
0.0
 13
0.0
 23
0.0
 33
0.0
 16
1.0
 26
0.0
 36
0.0
 17
0.0
 27
1.0
 37
0.0
 76
1
330
1B
  0
MATERIAL
  5
1F
102
{ACAD_REACTORS
330
E
102
}
330
E
100
AcDbMaterial
  1
ByBlock
  2

 70
0
 40
1.0
 71
1
 41
1.0
 91
-1023410177
 42
1.0
 72
1
  3

 73
1
 74
1
 75
1
 44
0.5
 73
0
 45
1.0
 46
1.0
 77
1
  4

 78
1
 79
1
170
1
 48
1.0
171
1
  6

172
1
173
1
174
1
140
1.0
141
1.0
175
1
  7

176
1
177
1
178
1
143
1.0
179
1
  8

270
1
271
1
272
1
145
1.0
146
1.0
273
1
  9

274
1
275
1
276
1
 42
1.0
 72
1
  3

 73
1
 74
1
 75
1
 94
63
  0
MATERIAL
  5
20
102
{ACAD_REACTORS
330
E
102
}
330
E
100
AcDbMaterial
  1
ByLayer
  2

 70
0
 40
1.0
 71
1
 41
1.0
 91
-1023410177
 42
1.0
 72
1
  3

 73
1
 74
1
 75
1
 44
0.5
 73
0
 45
1.0
 46
1.0
 77
1
  4

 78
1
 79
1
170
1
 48
1.0
171
1
  6

172
1
173
1
174
1
140
1.0
141
1.0
175
1
  7

176
1
177
1
178
1
143
1.0
179
1
  8

270
1
271
1
272
1
145
1.0
146
1.0
273
1
  9

274
1
275
1
276
1
 42
1.0
 72
1
  3

 73
1
 74
1
 75
1
 94
63
  0
MATERIAL
  5
21
102
{ACAD_REACTORS
330
E
102
}
330
E
100
AcDbMaterial
  1
Global
  2

 70
0
 40
1.0
 71
1
 41
1.0
 91
-1023410177
 42
1.0
 72
1
  3

 73
1
 74
1
 75
1
 44
0.5
 73
0
 45
1.0
 46
1.0
 77
1
  4

 78
1
 79
1
170
1
 48
1.0
171
1
  6

172
1
173
1
174
1
140
1.0
141
1.0
175
1
  7

176
1
177
1
178
1
143
1.0
179
1
  8

270
1
271
1
272
1
145
1.0
146
1.0
273
1
  9

274
1
275
1
276
1
 42
1.0
 72
1
  3

 73
1
 74
1
 75
1
 94
63
  0
MLINESTYLE
  5
22
102
{ACAD_REACTORS
330
10
102
}
330
10
100
AcDbMlineStyle
  2
Standard
 70
0
  3

 62
256
 51
90.0
 52
90.0
 71
2
 49
0.5
 62
256
  6
BYLAYER
 49
-0.5
 62
256
  6
BYLAYER
  0
MLEADERSTYLE
  5
2C
102
{ACAD_REACTORS
330
F
102
}
330
F
100
AcDbMLeaderStyle
179
2
170
2
171
1
172
0
 90
2
 40
0.0
 41
0.0
173
1
 91
-1056964608
 92
-2
290
1
 42
2.0
291
1
 43
8.0
  3
Standard
 44
4.0
300

342
29
174
1
175
1
176
0
178
1
 93
-1056964608
 45
4.0
292
0
297
0
 46
4.0
 94
-1056964608
 47
1.0
 49
0.0
140
1.0
294
1
141
0.0
177
0
142
1.0
295
0
296
0
143
3.75
271
0
272
9
272
9
  0
ENDSEC
  0
EOF
