  0
SECTION
  2
HEADER
  9
$ACADVER
  1
AC1024
  9
$ACADMAINTVER
 70
6
  9
$DWGCODEPAGE
  3
ANSI_1252
  9
$LASTSAVEDBY
  1
ezdxf
  9
$INSBASE
 10
0.0
 20
0.0
 30
0.0
  9
$EXTMIN
 10
-100
 20
-100
 30
-100
  9
$EXTMAX
 10
100
 20
100
 30
100
  9
$LIMMIN
 10
0.0
 20
0.0
  9
$LIMMAX
 10
420.0
 20
297.0
  9
$ORTHOMODE
 70
0
  9
$REGENMODE
 70
1
  9
$FILLMODE
 70
1
  9
$QTEXTMODE
 70
0
  9
$MIRRTEXT
 70
1
  9
$LTSCALE
 40
1.0
  9
$ATTMODE
 70
1
  9
$TEXTSIZE
 40
2.5
  9
$TRACEWID
 40
1.0
  9
$TEXTSTYLE
  7
Standard
  9
$CLAYER
  8
0
  9
$CELTYPE
  6
ByLayer
  9
$CECOLOR
 62
256
  9
$CELTSCALE
 40
1.0
  9
$DISPSILH
 70
0
  9
$DIMSCALE
 40
1.0
  9
$DIMASZ
 40
2.5
  9
$DIMEXO
 40
0.625
  9
$DIMDLI
 40
3.75
  9
$DIMRND
 40
0.0
  9
$DIMDLE
 40
0.0
  9
$DIMEXE
 40
1.25
  9
$DIMTP
 40
0.0
  9
$DIMTM
 40
0.0
  9
$DIMTXT
 40
2.5
  9
$DIMCEN
 40
2.5
  9
$DIMTSZ
 40
0.0
  9
$DIMTOL
 70
0
  9
$DIMLIM
 70
0
  9
$DIMTIH
 70
0
  9
$DIMTOH
 70
0
  9
$DIMSE1
 70
0
  9
$DIMSE2
 70
0
  9
$DIMTAD
 70
1
  9
$DIMZIN
 70
8
  9
$DIMBLK
  1

  9
$DIMASO
 70
1
  9
$DIMSHO
 70
1
  9
$DIMPOST
  1

  9
$DIMAPOST
  1

  9
$DIMALT
 70
0
  9
$DIMALTD
 70
3
  9
$DIMALTF
 40
0.03937007874
  9
$DIMLFAC
 40
1.0
  9
$DIMTOFL
 70
1
  9
$DIMTVP
 40
0.0
  9
$DIMTIX
 70
0
  9
$DIMSOXD
 70
0
  9
$DIMSAH
 70
0
  9
$DIMBLK1
  1

  9
$DIMBLK2
  1

  9
$DIMSTYLE
  2
ISO-25
  9
$DIMCLRD
 70
0
  9
$DIMCLRE
 70
0
  9
$DIMCLRT
 70
0
  9
$DIMTFAC
 40
1.0
  9
$DIMGAP
 40
0.625
  9
$DIMJUST
 70
0
  9
$DIMSD1
 70
0
  9
$DIMSD2
 70
0
  9
$DIMTOLJ
 70
0
  9
$DIMTZIN
 70
8
  9
$DIMALTZ
 70
0
  9
$DIMALTTZ
 70
0
  9
$DIMUPT
 70
0
  9
$DIMDEC
 70
2
  9
$DIMTDEC
 70
2
  9
$DIMALTU
 70
2
  9
$DIMALTTD
 70
3
  9
$DIMTXSTY
  7
Standard
  9
$DIMAUNIT
 70
0
  9
$DIMADEC
 70
0
  9
$DIMALTRND
 40
0.0
  9
$DIMAZIN
 70
0
  9
$DIMDSEP
 70
44
  9
$DIMATFIT
 70
3
  9
$DIMFRAC
 70
0
  9
$DIMLDRBLK
  1

  9
$DIMLUNIT
 70
2
  9
$DIMLWD
 70
-2
  9
$DIMLWE
 70
-2
  9
$DIMTMOVE
 70
0
  9
$DIMFXL
 40
1.0
  9
$DIMFXLON
 70
0
  9
$DIMJOGANG
 40
0.785398163397
  9
$DIMTFILL
 70
0
  9
$DIMTFILLCLR
 70
0
  9
$DIMARCSYM
 70
0
  9
$DIMLTYPE
  6

  9
$DIMLTEX1
  6

  9
$DIMLTEX2
  6

  9
$DIMTXTDIRECTION
 70
0
  9
$LUNITS
 70
2
  9
$LUPREC
 70
4
  9
$SKETCHINC
 40
1.0
  9
$FILLETRAD
 40
10.0
  9
$AUNITS
 70
0
  9
$AUPREC
 70
2
  9
$MENU
  1
.
  9
$ELEVATION
 40
0.0
  9
$PELEVATION
 40
0.0
  9
$THICKNESS
 40
0.0
  9
$LIMCHECK
 70
0
  9
$CHAMFERA
 40
0.0
  9
$CHAMFERB
 40
0.0
  9
$CHAMFERC
 40
0.0
  9
$CHAMFERD
 40
0.0
  9
$SKPOLY
 70
0
  9
$TDCREATE
 40
2459411.643148148
  9
$TDUCREATE
 40
2458532.153996898
  9
$TDUPDATE
 40
2459411.643148148
  9
$TDUUPDATE
 40
2458532.1544311
  9
$TDINDWG
 40
0.0
  9
$TDUSRTIMER
 40
0.0
  9
$USRTIMER
 70
1
  9
$ANGBASE
 50
0.0
  9
$ANGDIR
 70
0
  9
$PDMODE
 70
0
  9
$PDSIZE
 40
0.0
  9
$PLINEWID
 40
0.0
  9
$SPLFRAME
 70
0
  9
$SPLINETYPE
 70
6
  9
$SPLINESEGS
 70
8
  9
$HANDSEED
  5
63
  9
$SURFTAB1
 70
6
  9
$SURFTAB2
 70
6
  9
$SURFTYPE
 70
6
  9
$SURFU
 70
6
  9
$SURFV
 70
6
  9
$UCSBASE
  2

  9
$UCSNAME
  2

  9
$UCSORG
 10
0.0
 20
0.0
 30
0.0
  9
$UCSXDIR
 10
1.0
 20
0.0
 30
0.0
  9
$UCSYDIR
 10
0.0
 20
1.0
 30
0.0
  9
$UCSORTHOREF
  2

  9
$UCSORTHOVIEW
 70
0
  9
$UCSORGTOP
 10
0.0
 20
0.0
 30
0.0
  9
$UCSORGBOTTOM
 10
0.0
 20
0.0
 30
0.0
  9
$UCSORGLEFT
 10
0.0
 20
0.0
 30
0.0
  9
$UCSORGRIGHT
 10
0.0
 20
0.0
 30
0.0
  9
$UCSORGFRONT
 10
0.0
 20
0.0
 30
0.0
  9
$UCSORGBACK
 10
0.0
 20
0.0
 30
0.0
  9
$PUCSBASE
  2

  9
$PUCSNAME
  2

  9
$PUCSORG
 10
0.0
 20
0.0
 30
0.0
  9
$PUCSXDIR
 10
1.0
 20
0.0
 30
0.0
  9
$PUCSYDIR
 10
0.0
 20
1.0
 30
0.0
  9
$PUCSORTHOREF
  2

  9
$PUCSORTHOVIEW
 70
0
  9
$PUCSORGTOP
 10
0.0
 20
0.0
 30
0.0
  9
$PUCSORGBOTTOM
 10
0.0
 20
0.0
 30
0.0
  9
$PUCSORGLEFT
 10
0.0
 20
0.0
 30
0.0
  9
$PUCSORGRIGHT
 10
0.0
 20
0.0
 30
0.0
  9
$PUCSORGFRONT
 10
0.0
 20
0.0
 30
0.0
  9
$PUCSORGBACK
 10
0.0
 20
0.0
 30
0.0
  9
$USERI1
 70
0
  9
$USERI2
 70
0
  9
$USERI3
 70
0
  9
$USERI4
 70
0
  9
$USERI5
 70
0
  9
$USERR1
 40
0.0
  9
$USERR2
 40
0.0
  9
$USERR3
 40
0.0
  9
$USERR4
 40
0.0
  9
$USERR5
 40
0.0
  9
$WORLDVIEW
 70
1
  9
$SHADEDGE
 70
3
  9
$SHADEDIF
 70
70
  9
$TILEMODE
 70
1
  9
$MAXACTVP
 70
64
  9
$PINSBASE
 10
0.0
 20
0.0
 30
0.0
  9
$PLIMCHECK
 70
0
  9
$PEXTMIN
 10
1e+20
 20
1e+20
 30
1e+20
  9
$PEXTMAX
 10
-1e+20
 20
-1e+20
 30
-1e+20
  9
$PLIMMIN
 10
0.0
 20
0.0
  9
$PLIMMAX
 10
420.0
 20
297.0
  9
$UNITMODE
 70
0
  9
$VISRETAIN
 70
1
  9
$PLINEGEN
 70
0
  9
$PSLTSCALE
 70
1
  9
$TREEDEPTH
 70
3020
  9
$CMLSTYLE
  2
Standard
  9
$CMLJUST
 70
0
  9
$CMLSCALE
 40
20.0
  9
$PROXYGRAPHICS
 70
1
  9
$MEASUREMENT
 70
1
  9
$CELWEIGHT
370
-1
  9
$ENDCAPS
280
0
  9
$JOINSTYLE
280
0
  9
$LWDISPLAY
290
0
  9
$INSUNITS
 70
6
  9
$HYPERLINKBASE
  1

  9
$STYLESHEET
  1

  9
$XEDIT
290
1
  9
$CEPSNTYPE
380
0
  9
$PSTYLEMODE
290
1
  9
$FINGERPRINTGUID
  2
A6F91E7D-E5BB-11EB-ABC3-8ADB33BF8A49
  9
$VERSIONGUID
  2
A6FC8001-E5BB-11EB-9BA9-8ADB33BF8A49
  9
$EXTNAMES
290
1
  9
$PSVPSCALE
 40
0.0
  9
$OLESTARTUP
290
0
  9
$SORTENTS
280
127
  9
$INDEXCTL
280
0
  9
$HIDETEXT
280
1
  9
$XCLIPFRAME
280
2
  9
$HALOGAP
280
0
  9
$OBSCOLOR
 70
257
  9
$OBSLTYPE
280
0
  9
$INTERSECTIONDISPLAY
280
0
  9
$INTERSECTIONCOLOR
 70
257
  9
$DIMASSOC
280
2
  9
$PROJECTNAME
  1

  9
$CAMERADISPLAY
290
0
  9
$LENSLENGTH
 40
50.0
  9
$CAMERAHEIGHT
 40
0.0
  9
$STEPSPERSEC
 40
24.0
  9
$STEPSIZE
 40
100.0
  9
$3DDWFPREC
 40
2.0
  9
$PSOLWIDTH
 40
0.005
  9
$PSOLHEIGHT
 40
0.08
  9
$LOFTANG1
 40
1.570796326795
  9
$LOFTANG2
 40
1.570796326795
  9
$LOFTMAG1
 40
0.0
  9
$LOFTMAG2
 40
0.0
  9
$LOFTPARAM
 70
7
  9
$LOFTNORMALS
280
1
  9
$LATITUDE
 40
37.795
  9
$LONGITUDE
 40
-122.394
  9
$NORTHDIRECTION
 40
0.0
  9
$TIMEZONE
 70
-8000
  9
$LIGHTGLYPHDISPLAY
280
1
  9
$TILEMODELIGHTSYNCH
280
1
  9
$CMATERIAL
347
20
  9
$SOLIDHIST
280
0
  9
$SHOWHIST
280
1
  9
$DWFFRAME
280
2
  9
$DGNFRAME
280
2
  9
$REALWORLDSCALE
290
1
  9
$INTERFERECOLOR
 62
256
  9
$CSHADOW
280
0
  9
$SHADOWPLANELOCATION
 40
0.0
  0
ENDSEC
  0
SECTION
  2
CLASSES
  0
CLASS
  1
ACDBDICTIONARYWDFLT
  2
AcDbDictionaryWithDefault
  3
ObjectDBX Classes
 90
0
 91
0
280
0
281
0
  0
CLASS
  1
SUN
  2
AcDbSun
  3
SCENEOE
 90
1153
 91
0
280
0
281
0
  0
CLASS
  1
VISUALSTYLE
  2
AcDbVisualStyle
  3
ObjectDBX Classes
 90
4095
 91
0
280
0
281
0
  0
CLASS
  1
MATERIAL
  2
AcDbMaterial
  3
ObjectDBX Classes
 90
1153
 91
0
280
0
281
0
  0
CLASS
  1
SCALE
  2
AcDbScale
  3
ObjectDBX Classes
 90
1153
 91
0
280
0
281
0
  0
CLASS
  1
TABLESTYLE
  2
AcDbTableStyle
  3
ObjectDBX Classes
 90
4095
 91
0
280
0
281
0
  0
CLASS
  1
MLEADERSTYLE
  2
AcDbMLeaderStyle
  3
ACDB_MLEADERSTYLE_CLASS
 90
4095
 91
0
280
0
281
0
  0
CLASS
  1
DICTIONARYVAR
  2
AcDbDictionaryVar
  3
ObjectDBX Classes
 90
0
 91
0
280
0
281
0
  0
CLASS
  1
CELLSTYLEMAP
  2
AcDbCellStyleMap
  3
ObjectDBX Classes
 90
1152
 91
0
280
0
281
0
  0
CLASS
  1
MENTALRAYRENDERSETTINGS
  2
AcDbMentalRayRenderSettings
  3
SCENEOE
 90
1024
 91
0
280
0
281
0
  0
CLASS
  1
ACDBDETAILVIEWSTYLE
  2
AcDbDetailViewStyle
  3
ObjectDBX Classes
 90
1025
 91
0
280
0
281
0
  0
CLASS
  1
ACDBSECTIONVIEWSTYLE
  2
AcDbSectionViewStyle
  3
ObjectDBX Classes
 90
1025
 91
0
280
0
281
0
  0
CLASS
  1
RASTERVARIABLES
  2
AcDbRasterVariables
  3
ISM
 90
0
 91
0
280
0
281
0
  0
CLASS
  1
ACDBPLACEHOLDER
  2
AcDbPlaceHolder
  3
ObjectDBX Classes
 90
0
 91
0
280
0
281
0
  0
CLASS
  1
LAYOUT
  2
AcDbLayout
  3
ObjectDBX Classes
 90
0
 91
0
280
0
281
0
  0
ENDSEC
  0
SECTION
  2
TABLES
  0
TABLE
  2
VPORT
  5
8
330
0
100
AcDbSymbolTable
 70
1
  0
VPORT
  5
23
330
8
100
AcDbSymbolTableRecord
100
AcDbViewportTableRecord
  2
*Active
 70
0
 10
0.0
 20
0.0
 11
1.0
 21
1.0
 12
70.0
 22
50.0
 13
0.0
 23
0.0
 14
0.5
 24
0.5
 15
0.5
 25
0.5
 16
0.0
 26
0.0
 36
1.0
 17
0.0
 27
0.0
 37
0.0
 40
1.0
 41
1.34
 42
50.0
 43
0.0
 44
0.0
 50
0.0
 51
0.0
 71
0
 72
1000
 73
1
 74
3
 75
0
 76
0
 77
0
 78
0
281
0
 65
0
146
0.0
  0
ENDTAB
  0
TABLE
  2
LTYPE
  5
2
330
0
100
AcDbSymbolTable
 70
3
  0
LTYPE
  5
24
330
2
100
AcDbSymbolTableRecord
100
AcDbLinetypeTableRecord
  2
ByBlock
 70
0
  3

 72
65
 73
0
 40
0.0
  0
LTYPE
  5
25
330
2
100
AcDbSymbolTableRecord
100
AcDbLinetypeTableRecord
  2
ByLayer
 70
0
  3

 72
65
 73
0
 40
0.0
  0
LTYPE
  5
26
330
2
100
AcDbSymbolTableRecord
100
AcDbLinetypeTableRecord
  2
Continuous
 70
0
  3

 72
65
 73
0
 40
0.0
  0
ENDTAB
  0
TABLE
  2
LAYER
  5
1
330
0
100
AcDbSymbolTable
 70
2
  0
LAYER
  5
27
330
1
100
AcDbSymbolTableRecord
100
AcDbLayerTableRecord
  2
0
 70
0
 62
7
  6
Continuous
370
-3
390
13
347
21
  0
LAYER
  5
28
330
1
100
AcDbSymbolTableRecord
100
AcDbLayerTableRecord
  2
Defpoints
 70
0
 62
7
  6
Continuous
290
0
370
-3
390
13
347
21
  0
ENDTAB
  0
TABLE
  2
STYLE
  5
5
330
0
100
AcDbSymbolTable
 70
1
  0
STYLE
  5
29
330
5
100
AcDbSymbolTableRecord
100
AcDbTextStyleTableRecord
  2
Standard
 70
0
 40
0.0
 41
1.0
 50
0.0
 71
0
 42
2.5
  3
txt
  4

  0
ENDTAB
  0
TABLE
  2
VIEW
  5
7
330
0
100
AcDbSymbolTable
 70
0
  0
ENDTAB
  0
TABLE
  2
UCS
  5
6
330
0
100
AcDbSymbolTable
 70
0
  0
ENDTAB
  0
TABLE
  2
APPID
  5
3
330
0
100
AcDbSymbolTable
 70
2
  0
APPID
  5
2A
330
3
100
AcDbSymbolTableRecord
100
AcDbRegAppTableRecord
  2
ACAD
 70
0
  0
APPID
  5
62
330
3
100
AcDbSymbolTableRecord
100
AcDbRegAppTableRecord
  2
HATCHBACKGROUNDCOLOR
 70
0
  0
ENDTAB
  0
TABLE
  2
DIMSTYLE
  5
4
330
0
100
AcDbSymbolTable
 70
1
100
AcDbDimStyleTable
  0
DIMSTYLE
105
2B
330
4
100
AcDbSymbolTableRecord
100
AcDbDimStyleTableRecord
  2
Standard
 70
0
 40
1.0
 41
2.5
 42
0.625
 43
3.75
 44
1.25
 45
0.0
 46
0.0
 47
0.0
 48
0.0
 49
2.5
140
2.5
141
2.5
142
0.0
143
0.03937007874
144
1.0
145
0.0
146
1.0
147
0.625
148
0.0
 69
0
 70
0
 71
0
 72
0
 73
0
 74
0
 75
0
 76
0
 77
1
 78
8
 79
0
170
0
171
3
172
1
173
0
174
0
175
0
176
0
177
0
178
0
179
0
271
0
272
2
273
2
274
3
275
0
276
0
277
2
278
44
279
0
280
0
281
0
282
0
283
0
284
8
285
0
286
0
288
0
289
3
290
0
371
-2
372
-2
  0
ENDTAB
  0
TABLE
  2
BLOCK_RECORD
  5
9
330
0
100
AcDbSymbolTable
 70
2
  0
BLOCK_RECORD
  5
17
330
9
100
AcDbSymbolTableRecord
100
AcDbBlockTableRecord
  2
*Model_Space
340
1A
 70
0
280
1
281
0
  0
BLOCK_RECORD
  5
1B
330
9
100
AcDbSymbolTableRecord
100
AcDbBlockTableRecord
  2
*Paper_Space
340
1E
 70
0
280
1
281
0
  0
ENDTAB
  0
ENDSEC
  0
SECTION
  2
BLOCKS
  0
BLOCK
  5
18
330
17
100
AcDbEntity
  8
0
100
AcDbBlockBegin
  2
*Model_Space
 70
0
 10
0.0
 20
0.0
 30
0.0
  3
*Model_Space
  1

  0
ENDBLK
  5
19
330
17
100
AcDbEntity
  8
0
100
AcDbBlockEnd
  0
BLOCK
  5
1C
330
1B
100
AcDbEntity
  8
0
100
AcDbBlockBegin
  2
*Paper_Space
 70
0
 10
0.0
 20
0.0
 30
0.0
  3
*Paper_Space
  1

  0
ENDBLK
  5
1D
330
1B
100
AcDbEntity
  8
0
100
AcDbBlockEnd
  0
ENDSEC
  0
SECTION
  2
ENTITIES
  0
LWPOLYLINE
  5
2D
330
17
100
AcDbEntity
  8
0
100
AcDbPolyline
 90
92
 70
0
 10
-51.29352908340182
 20
-74.61090810813104
 10
-51.29352908340182
 20
-74.77262685813105
 10
-51.294240020901825
 20
-74.82918935813105
 10
-51.296372833401826
 20
-74.88293935813104
 10
-51.299927520901825
 20
-74.93387685813104
 10
-51.30490408340182
 20
-74.98200185813104
 10
-51.311302520901826
 20
-75.02731435813105
 10
-51.31912283340183
 20
-75.06981435813104
 10
-51.32836502090183
 20
-75.10950185813104
 10
-51.339029083401826
 20
-75.14637685813105
 10
-51.35111502090182
 20
-75.18043935813104
 10
-51.364622833401825
 20
-75.21168935813104
 10
-51.384263458401826
 20
-75.24946279563105
 10
-51.40599783340183
 20
-75.28559560813105
 10
-51.42982595840182
 20
-75.32008779563104
 10
-51.45574783340182
 20
-75.35293935813104
 10
-51.483763458401825
 20
-75.38415029563104
 10
-51.51387283340183
 20
-75.41372060813104
 10
-51.54607595840182
 20
-75.44165029563105
 10
-51.580372833401825
 20
-75.46793935813105
 10
-51.61676345840182
 20
-75.49258779563104
 10
-51.65524783340182
 20
-75.51559560813105
 10
-51.69534158340183
 20
-75.53667373313104
 10
-51.736560333401826
 20
-75.55553310813104
 10
-51.77890408340183
 20
-75.57217373313104
 10
-51.82237283340182
 20
-75.58659560813105
 10
-51.866966583401826
 20
-75.59879873313105
 10
-51.912685333401825
 20
-75.60878310813105
 10
-51.959529083401826
 20
-75.61654873313104
 10
-52.00749783340182
 20
-75.62209560813105
 10
-52.056591583401826
 20
-75.62542373313104
 10
-52.106810333401825
 20
-75.62653310813104
 10
-52.15683377090183
 20
-75.62536123313104
 10
-52.204404083401826
 20
-75.62184560813104
 10
-52.24952127090182
 20
-75.61598623313104
 10
-52.292185333401825
 20
-75.60778310813104
 10
-52.332396270901825
 20
-75.59723623313104
 10
-52.37015408340182
 20
-75.58434560813104
 10
-52.405458770901824
 20
-75.56911123313104
 10
-52.43831033340182
 20
-75.55153310813104
 10
-52.46870877090183
 20
-75.53161123313104
 10
-52.49665408340182
 20
-75.50934560813104
 10
-52.521888458401826
 20
-75.48532217063105
 10
-52.54446658340182
 20
-75.46012685813105
 10
-52.56438845840182
 20
-75.43375967063105
 10
-52.58165408340182
 20
-75.40622060813105
 10
-52.59626345840182
 20
-75.37750967063104
 10
-52.60821658340183
 20
-75.34762685813105
 10
-52.617513458401824
 20
-75.31657217063105
 10
-52.62415408340183
 20
-75.28434560813105
 10
-52.62813845840182
 20
-75.25094717063105
 10
-52.62946658340182
 20
-75.21637685813104
 10
-52.628857208401826
 20
-75.19361904563104
 10
-52.62702908340182
 20
-75.17128310813105
 10
-52.62398220840183
 20
-75.14936904563105
 10
-52.619716583401825
 20
-75.12787685813105
 10
-52.61423220840182
 20
-75.10680654563104
 10
-52.60752908340182
 20
-75.08615810813104
 10
-52.59960720840182
 20
-75.06593154563105
 10
-52.59046658340182
 20
-75.04612685813105
 10
-52.58010720840183
 20
-75.02674404563105
 10
-52.56852908340183
 20
-75.00778310813105
 10
-52.555685333401826
 20
-74.98948623313105
 10
-52.541841583401826
 20
-74.97209560813104
 10
-52.52699783340182
 20
-74.95561123313105
 10
-52.51115408340183
 20
-74.94003310813105
 10
-52.49431033340183
 20
-74.92536123313104
 10
-52.47646658340182
 20
-74.91159560813105
 10
-52.45762283340183
 20
-74.89873623313105
 10
-52.43777908340182
 20
-74.88678310813104
 10
-52.416935333401824
 20
-74.87573623313105
 10
-52.39509158340182
 20
-74.86559560813104
 10
-52.371005645901825
 20
-74.85585342063105
 10
-52.34374783340182
 20
-74.84631435813104
 10
-52.313318145901825
 20
-74.83697842063104
 10
-52.27971658340182
 20
-74.82784560813104
 10
-52.242943145901826
 20
-74.81891592063104
 10
-52.202997833401824
 20
-74.81018935813104
 10
-52.15988064590182
 20
-74.80166592063104
 10
-52.11359158340182
 20
-74.79334560813105
 10
-52.06413064590183
 20
-74.78522842063104
 10
-52.011497833401826
 20
-74.77731435813105
 10
-51.91825564590182
 20
-74.76327529563105
 10
-51.829779083401824
 20
-74.74865810813104
 10
-51.74606814590182
 20
-74.73346279563104
 10
-51.66712283340183
 20
-74.71768935813104
 10
-51.59294314590183
 20
-74.70133779563105
 10
-51.523529083401826
 20
-74.68440810813104
 10
-51.45888064590182
 20
-74.66690029563105
 10
-51.39899783340182
 20
-74.64881435813105
 10
-51.34388064590183
 20
-74.63015029563104
 10
-51.29352908340182
 20
-74.61090810813104
  0
LWPOLYLINE
  5
2E
330
17
100
AcDbEntity
  8
0
100
AcDbPolyline
 90
92
 70
0
 10
244.0783295125421
 20
-74.61090810813104
 10
244.1286810750421
 20
-74.63015029563104
 10
244.1837982625421
 20
-74.64881435813105
 10
244.24368107504208
 20
-74.66690029563105
 10
244.3083295125421
 20
-74.68440810813104
 10
244.37774357504208
 20
-74.70133779563105
 10
244.4519232625421
 20
-74.71768935813104
 10
244.5308685750421
 20
-74.73346279563104
 10
244.6145795125421
 20
-74.74865810813104
 10
244.70305607504207
 20
-74.76327529563105
 10
244.79629826254208
 20
-74.77731435813105
 10
244.8489310750421
 20
-74.78522842063104
 10
244.89839201254208
 20
-74.79334560813105
 10
244.94468107504207
 20
-74.80166592063104
 10
244.98779826254207
 20
-74.81018935813104
 10
245.02774357504208
 20
-74.81891592063104
 10
245.06451701254207
 20
-74.82784560813104
 10
245.0981185750421
 20
-74.83697842063104
 10
245.1285482625421
 20
-74.84631435813104
 10
245.15580607504208
 20
-74.85585342063105
 10
245.1798920125421
 20
-74.86559560813104
 10
245.20173576254209
 20
-74.87573623313105
 10
245.2225795125421
 20
-74.88678310813104
 10
245.2424232625421
 20
-74.89873623313105
 10
245.26126701254208
 20
-74.91159560813105
 10
245.27911076254208
 20
-74.92536123313104
 10
245.2959545125421
 20
-74.94003310813105
 10
245.31179826254208
 20
-74.95561123313105
 10
245.3266420125421
 20
-74.97209560813104
 10
245.34048576254207
 20
-74.98948623313105
 10
245.35332951254208
 20
-75.00778310813105
 10
245.3649076375421
 20
-75.02674404563105
 10
245.37526701254208
 20
-75.04612685813105
 10
245.3844076375421
 20
-75.06593154563105
 10
245.3923295125421
 20
-75.08615810813104
 10
245.3990326375421
 20
-75.10680654563104
 10
245.4045170125421
 20
-75.12787685813105
 10
245.4087826375421
 20
-75.14936904563105
 10
245.41182951254208
 20
-75.17128310813105
 10
245.4136576375421
 20
-75.19361904563104
 10
245.4142670125421
 20
-75.21637685813104
 10
245.41293888754208
 20
-75.25094717063105
 10
245.4089545125421
 20
-75.28434560813105
 10
245.40231388754208
 20
-75.31657217063105
 10
245.3930170125421
 20
-75.34762685813105
 10
245.3810638875421
 20
-75.37750967063104
 10
245.36645451254208
 20
-75.40622060813105
 10
245.34918888754208
 20
-75.43375967063105
 10
245.3292670125421
 20
-75.46012685813105
 10
245.3066888875421
 20
-75.48532217063105
 10
245.2814545125421
 20
-75.50934560813104
 10
245.2535092000421
 20
-75.53161123313104
 10
245.2231107625421
 20
-75.55153310813104
 10
245.19025920004208
 20
-75.56911123313104
 10
245.15495451254208
 20
-75.58434560813104
 10
245.1171967000421
 20
-75.59723623313104
 10
245.07698576254208
 20
-75.60778310813104
 10
245.03432170004209
 20
-75.61598623313104
 10
244.98920451254207
 20
-75.62184560813104
 10
244.94163420004207
 20
-75.62536123313104
 10
244.8916107625421
 20
-75.62653310813104
 10
244.8413920125421
 20
-75.62542373313104
 10
244.7922982625421
 20
-75.62209560813105
 10
244.7443295125421
 20
-75.61654873313104
 10
244.6974857625421
 20
-75.60878310813105
 10
244.65176701254208
 20
-75.59879873313105
 10
244.6071732625421
 20
-75.58659560813105
 10
244.56370451254207
 20
-75.57217373313104
 10
244.5213607625421
 20
-75.55553310813104
 10
244.4801420125421
 20
-75.53667373313104
 10
244.4400482625421
 20
-75.51559560813105
 10
244.40156388754207
 20
-75.49258779563104
 10
244.3651732625421
 20
-75.46793935813105
 10
244.33087638754208
 20
-75.44165029563105
 10
244.29867326254208
 20
-75.41372060813104
 10
244.2685638875421
 20
-75.38415029563104
 10
244.2405482625421
 20
-75.35293935813104
 10
244.21462638754207
 20
-75.32008779563104
 10
244.1907982625421
 20
-75.28559560813105
 10
244.16906388754208
 20
-75.24946279563105
 10
244.1494232625421
 20
-75.21168935813104
 10
244.1359154500421
 20
-75.18043935813104
 10
244.1238295125421
 20
-75.14637685813105
 10
244.1131654500421
 20
-75.10950185813104
 10
244.10392326254208
 20
-75.06981435813104
 10
244.09610295004208
 20
-75.02731435813105
 10
244.08970451254208
 20
-74.98200185813104
 10
244.0847279500421
 20
-74.93387685813104
 10
244.08117326254208
 20
-74.88293935813104
 10
244.0790404500421
 20
-74.82918935813105
 10
244.0783295125421
 20
-74.77262685813105
 10
244.0783295125421
 20
-74.61090810813104
  0
LWPOLYLINE
  5
2F
330
17
100
AcDbEntity
  8
0
100
AcDbPolyline
 90
42
 70
0
 10
-47.336204864651826
 20
-74.36715810813105
 10
-47.329986114651824
 20
-74.30056435813104
 10
-47.320079864651824
 20
-74.23672060813105
 10
-47.306486114651825
 20
-74.17562685813104
 10
-47.28920486465182
 20
-74.11728310813105
 10
-47.26823611465183
 20
-74.06168935813105
 10
-47.24357986465182
 20
-74.00884560813104
 10
-47.21523611465182
 20
-73.95875185813105
 10
-47.18320486465183
 20
-73.91140810813104
 10
-47.14748611465183
 20
-73.86681435813105
 10
-47.10807986465183
 20
-73.82497060813104
 10
-47.065861114651824
 20
-73.78652529563105
 10
-47.021704864651824
 20
-73.75212685813105
 10
-46.97561111465183
 20
-73.72177529563105
 10
-46.927579864651825
 20
-73.69547060813105
 10
-46.87761111465183
 20
-73.67321279563104
 10
-46.825704864651826
 20
-73.65500185813104
 10
-46.77186111465183
 20
-73.64083779563104
 10
-46.716079864651824
 20
-73.63072060813104
 10
-46.658361114651825
 20
-73.62465029563104
 10
-46.59870486465182
 20
-73.62262685813104
 10
-46.53307205215182
 20
-73.62516592063105
 10
-46.46992361465182
 20
-73.63278310813105
 10
-46.40925955215182
 20
-73.64547842063105
 10
-46.35107986465182
 20
-73.66325185813105
 10
-46.29538455215182
 20
-73.68610342063104
 10
-46.242173614651826
 20
-73.71403310813105
 10
-46.19144705215182
 20
-73.74704092063105
 10
-46.14320486465182
 20
-73.78512685813105
 10
-46.09744705215182
 20
-73.82829092063105
 10
-46.05417361465182
 20
-73.87653310813104
 10
-46.02790798965182
 20
-73.91082998313104
 10
-46.00379861465182
 20
-73.94840810813105
 10
-45.981845489651825
 20
-73.98926748313104
 10
-45.96204861465182
 20
-74.03340810813104
 10
-45.94440798965182
 20
-74.08082998313104
 10
-45.92892361465182
 20
-74.13153310813104
 10
-45.91559548965182
 20
-74.18551748313105
 10
-45.90442361465182
 20
-74.24278310813105
 10
-45.89540798965182
 20
-74.30332998313105
 10
-45.888548614651825
 20
-74.36715810813105
 10
-47.336204864651826
 20
-74.36715810813105
  0
LWPOLYLINE
  5
30
330
17
100
AcDbEntity
  8
0
100
AcDbPolyline
 90
5
 70
0
 10
91.39240021457013
 20
-85.864317874853
 10
-73.5112943188738
 20
-85.864317874853
 10
-73.5112943188738
 20
59.039376658590925
 10
91.39240021457013
 20
59.039376658590925
 10
91.39240021457013
 20
-85.864317874853
  0
LWPOLYLINE
  5
31
330
17
100
AcDbEntity
  8
0
100
AcDbPolyline
 90
5
 70
0
 10
-52.11770326122012
 20
-23.110712558450917
 10
-52.10723379486905
 20
-23.113896934687556
 10
-52.10185985334117
 20
-23.1104861852011
 10
-52.10558273042768
 20
-23.103019863254783
 10
-52.11770326122012
 20
-23.110712558450917
  0
LWPOLYLINE
  5
32
330
17
100
AcDbEntity
  8
0
100
AcDbPolyline
 90
36
 70
0
 10
-51.28112782225225
 20
-23.365164013632647
 10
-51.276346788149375
 20
-23.366618205362506
 10
-51.27713454406978
 20
-23.36996534005012
 10
-51.03625896628516
 20
-23.659582597374683
 10
-50.76666384110985
 20
-23.82639124873171
 10
-50.76580917119039
 20
-23.82659239728172
 10
-50.45011597788467
 20
-23.79753271066156
 10
-50.32010105515336
 20
-23.740291627424394
 10
-50.65202302067875
 20
-23.34120455441495
 10
-40.67061625334479
 20
-18.94673564578782
 10
-40.66037058802834
 20
-18.920372293530882
 10
-41.02810687545743
 20
-18.085111982385413
 10
-41.05447022771437
 20
-18.07486631706897
 10
-51.2746612438706
 20
-22.574463689226256
 10
-51.276200660334624
 20
-22.572038200606354
 10
-51.275203593221484
 20
-22.56732760919976
 10
-51.26853633220094
 20
-22.56429213382478
 10
-51.27199921199431
 20
-22.56236541875177
 10
-50.87827624625569
 20
-21.854728196545864
 10
-51.474464528061
 20
-22.117209320610552
 10
-51.75106549259501
 20
-22.428997135246462
 10
-51.75139560068995
 20
-22.430082451595595
 10
-51.743561763270804
 20
-22.697173845910342
 10
-51.744332075915054
 20
-22.69817652928648
 10
-51.755801572772825
 20
-22.7008779475949
 10
-51.752060707261954
 20
-22.71676065820235
 10
-51.74224068867176
 20
-22.74392129987531
 10
-51.74218153952035
 20
-22.744231994586357
 10
-51.74205525725585
 20
-22.7485375353194
 10
-51.73874206444294
 20
-22.757505028838494
 10
-51.73844050666004
 20
-22.757393613192992
 10
-51.73715351659409
 20
-22.757991625370238
 10
-51.712877007950944
 20
-22.82513666651971
 10
-51.71272412764728
 20
-22.825443271743666
 10
-51.64974619584186
 20
-22.92195493722756
 10
-51.28112782225225
 20
-23.365164013632647
  0
LWPOLYLINE
  5
33
330
17
100
AcDbEntity
  8
0
100
AcDbPolyline
 90
45
 70
0
 10
5.878149101589572
 20
-63.8026467481595
 10
5.904776221445463
 20
-63.778155085599664
 10
5.953179871485014
 20
-63.816834591712635
 10
6.458060251441831
 20
-63.912304275068614
 10
6.573710004659526
 20
-63.92047927232529
 10
6.573869430323786
 20
-63.920471974031486
 10
6.580836227125992
 20
-63.9201598359456
 10
6.617824901569201
 20
-63.91712245990425
 10
6.638290410927154
 20
-63.914673604818596
 10
6.978753188552211
 20
-63.71812258771326
 10
6.979358585135155
 20
-63.71731414043782
 10
7.076366962361087
 20
-63.36639111311107
 10
7.058390704175615
 20
-63.1930795759029
 10
6.607059603080885
 20
-63.4147153844762
 10
6.600619993579671
 20
-63.41662152509715
 10
6.5792770964233975
 20
-63.41917536637673
 10
6.580064297262203
 20
-63.418205899475446
 10
5.268621693443735
 20
-50.77861252819054
 10
5.293835923803884
 20
-50.747560272437624
 10
6.193350715405829
 20
-50.65422957849682
 10
6.211179868675895
 20
-50.63227231788278
 10
4.896818252161039
 20
-37.96454570354132
 10
4.851087500887796
 20
-37.52379587661471
 10
4.831171729136789
 20
-37.52977145645003
 10
4.829889683474973
 20
-37.52891684407807
 10
4.823822393616314
 20
-37.47044072292305
 10
3.925912115265455
 20
-37.5636049379602
 10
3.8723486786135326
 20
-37.5691625037512
 10
3.4451968408070965
 20
-37.92345876153548
 10
3.4448418858582093
 20
-37.9246512299797
 10
3.5007282221786276
 20
-38.109208897088266
 10
3.500592192892918
 20
-38.109413523644285
 10
3.9211437675039744
 20
-38.065778476546896
 10
3.952196023256896
 20
-38.090992706907045
 10
5.262783668050962
 20
-50.72234604207747
 10
5.237569437690813
 20
-50.75339829783039
 10
4.338054646088867
 20
-50.846728991771194
 10
4.3202254928188015
 20
-50.86868625238523
 10
5.604142620694271
 20
-63.24299098484019
 10
5.092424046476868
 20
-63.14622824228136
 10
5.107713564997781
 20
-63.2935875673329
 10
5.236909122684427
 20
-63.58018054467378
 10
5.23749939075646
 20
-63.580822278923705
 10
5.512318508782612
 20
-63.73347049920287
 10
5.878149101589572
 20
-63.8026467481595
  0
LWPOLYLINE
  5
34
330
17
100
AcDbEntity
  8
0
100
AcDbPolyline
 90
51
 70
0
 10
57.99170927462554
 20
-37.79766954577545
 10
57.98512556784673
 20
-37.76331081187574
 10
57.99617413403275
 20
-37.75819078891497
 10
58.03034383711682
 20
-37.45605867745945
 10
57.98721110923182
 20
-37.189911709081606
 10
57.98688966171723
 20
-37.189218053180525
 10
57.81170894999232
 20
-36.98426352351207
 10
57.59773331649427
 20
-36.840908306603865
 10
57.53458860676911
 20
-37.39924047680523
 10
46.4855584501284
 20
-29.996826992415517
 10
46.45781088245457
 20
-30.002310831233896
 10
45.95445932430618
 20
-30.75362613631675
 10
45.915218337778974
 20
-30.761381455547568
 10
34.47753552087251
 20
-23.098586050545016
 10
34.46978020164168
 20
-23.059345064017815
 10
34.70449072720597
 20
-22.70901017925224
 10
34.70423953487511
 20
-22.70903460739738
 10
34.567903217864256
 20
-22.572362259293364
 10
34.566686297829534
 20
-22.572118641364426
 10
34.05370582992571
 20
-22.783862755333022
 10
34.023799414421326
 20
-22.828501829837432
 10
33.52046981308237
 20
-23.579006398557294
 10
33.57101123717717
 20
-23.61290225463598
 10
33.571160481836124
 20
-23.61444074958245
 10
33.55702577739277
 20
-23.628540701516634
 10
33.92381111176919
 20
-23.87427237810479
 10
45.39187453118759
 20
-31.55742158597601
 10
45.419622098861424
 20
-31.55193774715763
 10
45.92297365700981
 20
-30.800622442074772
 10
45.96221464353702
 20
-30.792867122843955
 10
57.40231676811613
 20
-38.457283368362376
 10
57.391463925627455
 20
-38.4730833343143
 10
57.38379420790155
 20
-38.479711783894665
 10
56.89647010445809
 20
-38.719022727549934
 10
57.1235915397628
 20
-38.87118511207506
 10
57.49559769357982
 20
-38.94677995140153
 10
57.496590805274785
 20
-38.94658965462909
 10
57.814302167113254
 20
-38.738833430247176
 10
57.82409550067883
 20
-38.72457593628162
 10
57.83264870208247
 20
-38.70480923761979
 10
57.83268730852975
 20
-38.7047298321682
 10
57.88317317001027
 20
-38.611587458568806
 10
57.88330951328056
 20
-38.6112345472244
 10
57.89661418429227
 20
-38.55701847769638
 10
57.89666760364997
 20
-38.55685968326846
 10
57.90038024365997
 20
-38.54827966359465
 10
57.9004998059521
 20
-38.54773186249066
 10
57.90065094321276
 20
-38.54066927083066
 10
57.90067952996226
 20
-38.54045233612809
 10
57.913708681897226
 20
-38.48735899721159
 10
57.99170927462554
 20
-37.79766954577545
  0
LWPOLYLINE
  5
35
330
17
100
AcDbEntity
  8
0
100
AcDbPolyline
 90
48
 70
0
 10
66.42916381615511
 20
36.80719166379851
 10
66.38921973127943
 20
36.83346785580619
 10
66.43510470513444
 20
36.85972162950674
 10
66.5291390229568
 20
37.69118296598344
 10
66.52570064989364
 20
37.82826187002808
 10
66.52563486694049
 20
37.82866243485077
 10
66.48505134546264
 20
37.959641158793715
 10
66.47646783321635
 20
37.97796098158838
 10
66.40179758284869
 20
38.092968819178765
 10
66.40152931940527
 20
38.09327869162664
 10
66.3048974651961
 20
38.179300819857346
 10
66.29783712690644
 20
38.18410527706787
 10
66.11809296181542
 20
38.26027541685688
 10
66.11707168729711
 20
38.26048685328798
 10
65.7677687680925
 20
38.20491823106476
 10
65.02593571552708
 20
37.78049553208771
 10
66.00620028233183
 20
37.78049553208771
 10
66.01390793358944
 20
37.77895066991139
 10
66.0146662242938
 20
37.77863397543005
 10
66.0165800395634
 20
37.77237311542024
 10
52.86315259532401
 20
30.246442979798754
 10
52.824556207853576
 20
30.256946259012018
 10
52.37544043459179
 20
31.041887340208316
 10
52.34814866728213
 20
31.04931428016471
 10
39.15585733041961
 20
23.501147587423798
 10
38.77124703958284
 20
23.28108706019245
 10
38.78476600385436
 20
23.265288860243242
 10
38.784502837069724
 20
23.263770721043734
 10
38.73347498263346
 20
23.234574371336155
 10
39.18178964398485
 20
22.451033431793963
 10
39.20853315557991
 20
22.404292519526184
 10
39.70530433647994
 20
22.1569002714765
 10
39.70653849202547
 20
22.15705785984959
 10
39.85273227646842
 20
22.282804400449482
 10
39.852974434171095
 20
22.28276273942572
 10
39.642998625615206
 20
22.649747485910783
 10
39.653501904828474
 20
22.688343873381218
 10
52.81405292864031
 20
30.21834987154158
 10
52.85264931611074
 20
30.207846592328316
 10
53.30176508937253
 20
29.42290551113202
 10
53.329056856682186
 20
29.415478571175623
 10
65.90477923340664
 20
36.61086611662105
 10
65.8352616581467
 20
35.99618439853313
 10
66.15205059614888
 20
36.17743992491503
 10
66.32129052885276
 20
36.33647462609433
 10
66.32165803765548
 20
36.337033299238605
 10
66.40068850699159
 20
36.55540998279119
 10
66.42916381615511
 20
36.80719166379851
  0
LWPOLYLINE
  5
36
330
17
100
AcDbEntity
  8
0
100
AcDbPolyline
 90
48
 70
0
 10
-18.558963989081093
 20
37.25900953974385
 10
-18.53977435104421
 20
37.21804704316512
 10
-18.58095701462639
 20
37.21948153437222
 10
-18.705589070478254
 20
36.99548067723487
 10
-18.705914830498404
 20
36.994895189631094
 10
-18.7044810285823
 20
36.54581104163507
 10
-18.70505679863704
 20
36.544902292038685
 10
-18.71989937871783
 20
36.53794901128011
 10
-18.568697298095007
 20
36.21519072379696
 10
-18.269539328039667
 20
36.75286653484237
 10
-15.034067745419494
 20
29.846379118095488
 10
-15.007472110683288
 20
29.836752477301403
 10
-14.188537468322833
 20
30.22039753498378
 10
-14.150925560978976
 20
30.206783409012687
 10
-10.634192229435405
 20
22.699910335910097
 10
-10.647806355406495
 20
22.66229842856624
 10
-11.029671827436117
 20
22.483406495723532
 10
-11.029444079738127
 20
22.483297751489154
 10
-10.98322720201563
 20
22.29586530508785
 10
-10.982310706927688
 20
22.295028477256032
 10
-10.433657251083071
 20
22.211578397711854
 10
-10.385000602733685
 20
22.234372503182428
 10
-9.566503269371323
 20
22.617334526562097
 10
-9.59229318031444
 20
22.67245480495235
 10
-9.591626828355224
 20
22.673849514861903
 10
-9.572242495782866
 20
22.678629281393963
 10
-9.759534541965943
 20
23.07842576459245
 10
-13.291781157911222
 20
30.61841373324484
 10
-13.318376792647427
 20
30.628040374038925
 10
-14.137311435007883
 20
30.24439531635655
 10
-14.17492334235174
 20
30.25800944232764
 10
-17.69232765787141
 20
37.76631480814843
 10
-17.67895265248036
 20
37.77336009027367
 10
-17.66596012257298
 20
37.78049553208771
 10
-17.14792874614002
 20
37.78049553208771
 10
-17.239923290070614
 20
37.97686850086253
 10
-17.533245417475477
 20
38.238478090482175
 10
-17.53422836553911
 20
38.23880812890293
 10
-17.925993632384152
 20
38.20722611656851
 10
-17.9383288639633
 20
38.200728535176026
 10
-17.999565041990014
 20
38.16258365010956
 10
-17.99973949599532
 20
38.16245661917858
 10
-18.054841882022554
 20
38.115888080360364
 10
-18.062737946960905
 20
38.10817094182588
 10
-18.110557028137716
 20
38.05415023503538
 10
-18.11068802364281
 20
38.05397873800656
 10
-18.150226231460504
 20
37.993632806812734
 10
-18.558963989081093
 20
37.25900953974385
  0
LWPOLYLINE
  5
37
330
17
100
AcDbEntity
  8
0
100
AcDbPolyline
 90
33
 70
0
 10
81.44055294784818
 20
-73.41247060813104
 10
81.39251614885625
 20
-72.92474480309072
 10
81.25025177912639
 20
-72.45576202721831
 10
81.01922697860454
 20
-72.02354502558204
 10
80.70831990081454
 20
-71.64470365516468
 10
80.32947853039717
 20
-71.33379657737468
 10
79.8972615287609
 20
-71.10277177685282
 10
79.42827875288849
 20
-70.96050740712296
 10
78.94055294784816
 20
-70.91247060813104
 10
78.45282714280785
 20
-70.96050740712298
 10
77.98384436693544
 20
-71.10277177685283
 10
77.55162736529915
 20
-71.33379657737468
 10
77.17278599488179
 20
-71.64470365516469
 10
76.8618789170918
 20
-72.02354502558205
 10
76.63085411656995
 20
-72.45576202721833
 10
76.48858974684009
 20
-72.92474480309073
 10
76.44055294784818
 20
-73.41247060813106
 10
76.4885897468401
 20
-73.90019641317137
 10
76.63085411656996
 20
-74.36917918904378
 10
76.86187891709181
 20
-74.80139619068005
 10
77.1727859948818
 20
-75.18023756109741
 10
77.55162736529917
 20
-75.4911446388874
 10
77.98384436693546
 20
-75.72216943940927
 10
78.45282714280786
 20
-75.86443380913911
 10
78.94055294784818
 20
-75.91247060813104
 10
79.4282787528885
 20
-75.86443380913911
 10
79.89726152876091
 20
-75.72216943940926
 10
80.32947853039718
 20
-75.4911446388874
 10
80.70831990081454
 20
-75.18023756109741
 10
81.01922697860454
 20
-74.80139619068005
 10
81.25025177912639
 20
-74.36917918904376
 10
81.39251614885625
 20
-73.90019641317137
 10
81.44055294784818
 20
-73.41247060813104
  0
LWPOLYLINE
  5
38
330
17
100
AcDbEntity
  8
0
100
AcDbPolyline
 90
33
 70
0
 10
-58.559447052151825
 20
-73.41247060813104
 10
-58.60748385114375
 20
-72.92474480309072
 10
-58.74974822087361
 20
-72.45576202721831
 10
-58.980773021395464
 20
-72.02354502558204
 10
-59.29168009918546
 20
-71.64470365516468
 10
-59.670521469602825
 20
-71.33379657737468
 10
-60.10273847123911
 20
-71.10277177685282
 10
-60.57172124711151
 20
-70.96050740712296
 10
-61.05944705215183
 20
-70.91247060813104
 10
-61.54717285719215
 20
-70.96050740712298
 10
-62.01615563306456
 20
-71.10277177685283
 10
-62.44837263470084
 20
-71.33379657737468
 10
-62.8272140051182
 20
-71.64470365516469
 10
-63.13812108290819
 20
-72.02354502558205
 10
-63.36914588343004
 20
-72.45576202721833
 10
-63.5114102531599
 20
-72.92474480309073
 10
-63.559447052151825
 20
-73.41247060813106
 10
-63.5114102531599
 20
-73.90019641317137
 10
-63.369145883430036
 20
-74.36917918904378
 10
-63.138121082908185
 20
-74.80139619068005
 10
-62.827214005118186
 20
-75.18023756109741
 10
-62.448372634700824
 20
-75.4911446388874
 10
-62.01615563306454
 20
-75.72216943940927
 10
-61.54717285719214
 20
-75.86443380913911
 10
-61.05944705215182
 20
-75.91247060813104
 10
-60.5717212471115
 20
-75.86443380913911
 10
-60.1027384712391
 20
-75.72216943940926
 10
-59.67052146960282
 20
-75.4911446388874
 10
-59.291680099185456
 20
-75.18023756109741
 10
-58.980773021395464
 20
-74.80139619068005
 10
-58.749748220873606
 20
-74.36917918904376
 10
-58.60748385114375
 20
-73.90019641317137
 10
-58.559447052151825
 20
-73.41247060813104
  0
LWPOLYLINE
  5
39
330
17
100
AcDbEntity
  8
0
100
AcDbPolyline
 90
33
 70
0
 10
81.44055294784818
 20
46.587529391868955
 10
81.39251614885625
 20
47.07525519690928
 10
81.25025177912639
 20
47.54423797278169
 10
81.01922697860454
 20
47.97645497441797
 10
80.70831990081454
 20
48.35529634483533
 10
80.32947853039717
 20
48.66620342262532
 10
79.8972615287609
 20
48.897228223147174
 10
79.42827875288849
 20
49.03949259287703
 10
78.94055294784816
 20
49.087529391868955
 10
78.45282714280785
 20
49.03949259287703
 10
77.98384436693544
 20
48.89722822314717
 10
77.55162736529915
 20
48.666203422625316
 10
77.17278599488179
 20
48.35529634483532
 10
76.8618789170918
 20
47.976454974417955
 10
76.63085411656995
 20
47.54423797278167
 10
76.48858974684009
 20
47.07525519690927
 10
76.44055294784818
 20
46.58752939186895
 10
76.4885897468401
 20
46.09980358682863
 10
76.63085411656996
 20
45.63082081095622
 10
76.86187891709181
 20
45.19860380931994
 10
77.1727859948818
 20
44.81976243890258
 10
77.55162736529917
 20
44.50885536111259
 10
77.98384436693546
 20
44.277830560590736
 10
78.45282714280786
 20
44.13556619086088
 10
78.94055294784818
 20
44.087529391868955
 10
79.4282787528885
 20
44.13556619086088
 10
79.89726152876091
 20
44.277830560590736
 10
80.32947853039718
 20
44.508855361112595
 10
80.70831990081454
 20
44.819762438902586
 10
81.01922697860454
 20
45.19860380931995
 10
81.25025177912639
 20
45.63082081095623
 10
81.39251614885625
 20
46.099803586828635
 10
81.44055294784818
 20
46.587529391868955
  0
LWPOLYLINE
  5
3A
330
17
100
AcDbEntity
  8
0
100
AcDbPolyline
 90
33
 70
0
 10
-58.559447052151825
 20
46.587529391868955
 10
-58.60748385114375
 20
47.07525519690928
 10
-58.74974822087361
 20
47.54423797278169
 10
-58.980773021395464
 20
47.97645497441797
 10
-59.29168009918546
 20
48.35529634483533
 10
-59.670521469602825
 20
48.66620342262532
 10
-60.10273847123911
 20
48.897228223147174
 10
-60.57172124711151
 20
49.03949259287703
 10
-61.05944705215183
 20
49.087529391868955
 10
-61.54717285719215
 20
49.03949259287703
 10
-62.01615563306456
 20
48.89722822314717
 10
-62.44837263470084
 20
48.666203422625316
 10
-62.8272140051182
 20
48.35529634483532
 10
-63.13812108290819
 20
47.976454974417955
 10
-63.36914588343004
 20
47.54423797278167
 10
-63.5114102531599
 20
47.07525519690927
 10
-63.559447052151825
 20
46.58752939186895
 10
-63.5114102531599
 20
46.09980358682863
 10
-63.369145883430036
 20
45.63082081095622
 10
-63.138121082908185
 20
45.19860380931994
 10
-62.827214005118186
 20
44.81976243890258
 10
-62.448372634700824
 20
44.50885536111259
 10
-62.01615563306454
 20
44.277830560590736
 10
-61.54717285719214
 20
44.13556619086088
 10
-61.05944705215182
 20
44.087529391868955
 10
-60.5717212471115
 20
44.13556619086088
 10
-60.1027384712391
 20
44.277830560590736
 10
-59.67052146960282
 20
44.508855361112595
 10
-59.291680099185456
 20
44.819762438902586
 10
-58.980773021395464
 20
45.19860380931995
 10
-58.749748220873606
 20
45.63082081095623
 10
-58.60748385114375
 20
46.099803586828635
 10
-58.559447052151825
 20
46.587529391868955
  0
LWPOLYLINE
  5
3B
330
17
100
AcDbEntity
  8
0
100
AcDbPolyline
 90
7
 70
0
 10
-55.69304080215183
 20
-75.91247060813104
 10
-53.45710330215182
 20
-75.91247060813104
 10
-53.45710330215182
 20
-75.48981435813104
 10
-55.219603302151825
 20
-75.48981435813104
 10
-55.219603302151825
 20
-72.33356435813104
 10
-55.69304080215183
 20
-72.33356435813104
 10
-55.69304080215183
 20
-75.91247060813104
  0
LWPOLYLINE
  5
3C
330
17
100
AcDbEntity
  8
0
100
AcDbPolyline
 90
46
 70
0
 10
-40.30046267715183
 20
-75.91247060813104
 10
-40.30046267715183
 20
-72.31872060813104
 10
-40.583275177151826
 20
-72.31872060813104
 10
-40.607853302151824
 20
-72.36527529563105
 10
-40.635650177151824
 20
-72.41212685813105
 10
-40.666665802151826
 20
-72.45927529563104
 10
-40.70090017715182
 20
-72.50672060813105
 10
-40.73835330215182
 20
-72.55446279563104
 10
-40.77902517715182
 20
-72.60250185813105
 10
-40.822915802151826
 20
-72.65083779563105
 10
-40.870025177151824
 20
-72.69947060813105
 10
-40.920353302151824
 20
-72.74840029563104
 10
-40.973900177151826
 20
-72.79762685813104
 10
-41.02998611465183
 20
-72.84611904563104
 10
-41.08793142715182
 20
-72.89315810813105
 10
-41.14773611465182
 20
-72.93874404563104
 10
-41.20940017715182
 20
-72.98287685813105
 10
-41.27292361465182
 20
-73.02555654563105
 10
-41.33830642715182
 20
-73.06678310813105
 10
-41.40554861465182
 20
-73.10655654563105
 10
-41.47465017715182
 20
-73.14487685813104
 10
-41.54561111465182
 20
-73.18174404563105
 10
-41.618431427151826
 20
-73.21715810813104
 10
-41.618431427151826
 20
-73.64215810813104
 10
-41.576962677151826
 20
-73.62624404563104
 10
-41.53443142715182
 20
-73.60881435813104
 10
-41.49083767715182
 20
-73.58986904563105
 10
-41.44618142715183
 20
-73.56940810813104
 10
-41.40046267715182
 20
-73.54743154563104
 10
-41.35368142715183
 20
-73.52393935813105
 10
-41.30583767715183
 20
-73.49893154563105
 10
-41.25693142715182
 20
-73.47240810813105
 10
-41.20696267715182
 20
-73.44436904563105
 10
-41.15593142715183
 20
-73.41481435813104
 10
-41.10536111465183
 20
-73.38450967063105
 10
-41.05677517715182
 20
-73.35422060813104
 10
-41.010173614651826
 20
-73.32394717063104
 10
-40.965556427151824
 20
-73.29368935813105
 10
-40.92292361465182
 20
-73.26344717063104
 10
-40.882275177151826
 20
-73.23322060813105
 10
-40.84361111465182
 20
-73.20300967063105
 10
-40.806931427151824
 20
-73.17281435813105
 10
-40.772236114651825
 20
-73.14263467063104
 10
-40.739525177151826
 20
-73.11247060813105
 10
-40.739525177151826
 20
-75.91247060813104
 10
-40.30046267715183
 20
-75.91247060813104
  0
LWPOLYLINE
  5
3D
330
17
100
AcDbEntity
  8
0
100
AcDbPolyline
 90
77
 70
0
 10
-44.89216189590182
 20
-75.91247060813104
 10
-44.45309939590182
 20
-75.91247060813104
 10
-44.45309939590182
 20
-74.55465810813105
 10
-44.45236502090182
 20
-74.49947060813105
 10
-44.45016189590182
 20
-74.44515810813104
 10
-44.44649002090182
 20
-74.39172060813104
 10
-44.441349395901824
 20
-74.33915810813104
 10
-44.43474002090183
 20
-74.28747060813104
 10
-44.42666189590182
 20
-74.23665810813104
 10
-44.417115020901825
 20
-74.18672060813104
 10
-44.40609939590182
 20
-74.13765810813105
 10
-44.39361502090182
 20
-74.08947060813105
 10
-44.379661895901826
 20
-74.04215810813105
 10
-44.36931033340183
 20
-74.01204873313104
 10
-44.35763064590182
 20
-73.98328310813105
 10
-44.34462283340183
 20
-73.95586123313105
 10
-44.33028689590182
 20
-73.92978310813105
 10
-44.31462283340183
 20
-73.90504873313104
 10
-44.297630645901826
 20
-73.88165810813105
 10
-44.279310333401824
 20
-73.85961123313105
 10
-44.25966189590182
 20
-73.83890810813105
 10
-44.238685333401826
 20
-73.81954873313104
 10
-44.21638064590182
 20
-73.80153310813104
 10
-44.19311502090182
 20
-73.78505654563105
 10
-44.16925564590182
 20
-73.77031435813105
 10
-44.14480252090182
 20
-73.75730654563104
 10
-44.11975564590182
 20
-73.74603310813104
 10
-44.094115020901825
 20
-73.73649404563105
 10
-44.06788064590182
 20
-73.72868935813105
 10
-44.04105252090182
 20
-73.72261904563105
 10
-44.01363064590182
 20
-73.71828310813105
 10
-43.985615020901825
 20
-73.71568154563104
 10
-43.95700564590182
 20
-73.71481435813105
 10
-43.924818145901824
 20
-73.71576748313105
 10
-43.89263064590182
 20
-73.71862685813105
 10
-43.860443145901826
 20
-73.72339248313105
 10
-43.82825564590182
 20
-73.73006435813105
 10
-43.79606814590183
 20
-73.73864248313104
 10
-43.76388064590182
 20
-73.74912685813105
 10
-43.73169314590182
 20
-73.76151748313104
 10
-43.69950564590182
 20
-73.77581435813104
 10
-43.667318145901824
 20
-73.79201748313105
 10
-43.635130645901825
 20
-73.81012685813104
 10
-43.48356814590183
 20
-73.40231435813105
 10
-43.52942752090182
 20
-73.37544717063105
 10
-43.57513064590182
 20
-73.35140810813104
 10
-43.62067752090182
 20
-73.33019717063104
 10
-43.666068145901825
 20
-73.31181435813104
 10
-43.711302520901825
 20
-73.29625967063104
 10
-43.75638064590183
 20
-73.28353310813104
 10
-43.80130252090183
 20
-73.27363467063104
 10
-43.846068145901825
 20
-73.26656435813105
 10
-43.890677520901825
 20
-73.26232217063104
 10
-43.93513064590182
 20
-73.26090810813105
 10
-43.96565408340182
 20
-73.26179092063104
 10
-43.99566189590182
 20
-73.26443935813104
 10
-44.02515408340182
 20
-73.26885342063105
 10
-44.05413064590182
 20
-73.27503310813104
 10
-44.08259158340182
 20
-73.28297842063104
 10
-44.110536895901824
 20
-73.29268935813104
 10
-44.13796658340182
 20
-73.30416592063105
 10
-44.16488064590182
 20
-73.31740810813105
 10
-44.191279083401824
 20
-73.33241592063105
 10
-44.217161895901825
 20
-73.34918935813104
 10
-44.24302127090182
 20
-73.36857217063104
 10
-44.26934939590183
 20
-73.39172060813104
 10
-44.29614627090182
 20
-73.41863467063105
 10
-44.32341189590183
 20
-73.44931435813105
 10
-44.35114627090182
 20
-73.48375967063104
 10
-44.379349395901826
 20
-73.52197060813104
 10
-44.40802127090183
 20
-73.56394717063104
 10
-44.43716189590182
 20
-73.60968935813105
 10
-44.46677127090182
 20
-73.65919717063105
 10
-44.496849395901826
 20
-73.71247060813104
 10
-44.496849395901826
 20
-73.31950185813105
 10
-44.89216189590182
 20
-73.31950185813105
 10
-44.89216189590182
 20
-75.91247060813104
  0
LWPOLYLINE
  5
3E
330
17
100
AcDbEntity
  8
0
100
AcDbPolyline
 90
133
 70
0
 10
-45.89323611465183
 20
-75.07731435813105
 10
-45.913947052151826
 20
-75.13143154563105
 10
-45.93607986465182
 20
-75.18253310813104
 10
-45.959634552151826
 20
-75.23061904563104
 10
-45.98461111465183
 20
-75.27568935813105
 10
-46.01100955215182
 20
-75.31774404563104
 10
-46.038829864651824
 20
-75.35678310813104
 10
-46.06807205215183
 20
-75.39280654563105
 10
-46.09873611465182
 20
-75.42581435813105
 10
-46.13082205215182
 20
-75.45580654563105
 10
-46.164329864651826
 20
-75.48278310813104
 10
-46.19925173965183
 20
-75.50682998313104
 10
-46.235579864651825
 20
-75.52834560813105
 10
-46.273314239651825
 20
-75.54732998313105
 10
-46.312454864651826
 20
-75.56378310813105
 10
-46.35300173965182
 20
-75.57770498313104
 10
-46.39495486465182
 20
-75.58909560813105
 10
-46.438314239651824
 20
-75.59795498313105
 10
-46.48307986465182
 20
-75.60428310813104
 10
-46.529251739651826
 20
-75.60807998313105
 10
-46.57682986465183
 20
-75.60934560813105
 10
-46.640751739651826
 20
-75.60707998313104
 10
-46.702517364651825
 20
-75.60028310813105
 10
-46.762126739651826
 20
-75.58895498313105
 10
-46.81957986465183
 20
-75.57309560813104
 10
-46.874876739651825
 20
-75.55270498313105
 10
-46.92801736465182
 20
-75.52778310813105
 10
-46.97900173965182
 20
-75.49832998313104
 10
-47.02782986465182
 20
-75.46434560813104
 10
-47.07450173965182
 20
-75.42582998313104
 10
-47.119017364651825
 20
-75.38278310813105
 10
-47.160525177151825
 20
-75.33531435813104
 10
-47.19817361465182
 20
-75.28384560813105
 10
-47.23196267715183
 20
-75.22837685813104
 10
-47.26189236465183
 20
-75.16890810813105
 10
-47.287962677151825
 20
-75.10543935813105
 10
-47.31017361465182
 20
-75.03797060813105
 10
-47.328525177151825
 20
-74.96650185813104
 10
-47.34301736465182
 20
-74.89103310813104
 10
-47.35365017715182
 20
-74.81156435813105
 10
-47.36042361465182
 20
-74.72809560813104
 10
-45.42682986465182
 20
-74.72809560813104
 10
-45.42638455215182
 20
-74.71286123313105
 10
-45.42598611465182
 20
-74.69840810813105
 10
-45.42563455215182
 20
-74.68473623313105
 10
-45.42532986465182
 20
-74.67184560813105
 10
-45.425072052151826
 20
-74.65973623313104
 10
-45.42486111465182
 20
-74.64840810813105
 10
-45.42469705215183
 20
-74.63786123313105
 10
-45.42457986465182
 20
-74.62809560813105
 10
-45.42450955215182
 20
-74.61911123313105
 10
-45.42448611465183
 20
-74.61090810813104
 10
-45.427782989651824
 20
-74.48535342063104
 10
-45.43767361465182
 20
-74.36556435813104
 10
-45.454157989651826
 20
-74.25154092063104
 10
-45.477236114651824
 20
-74.14328310813104
 10
-45.50690798965182
 20
-74.04079092063104
 10
-45.54317361465182
 20
-73.94406435813104
 10
-45.58603298965183
 20
-73.85310342063104
 10
-45.635486114651826
 20
-73.76790810813104
 10
-45.69153298965182
 20
-73.68847842063104
 10
-45.754173614651826
 20
-73.61481435813104
 10
-45.82201736465183
 20
-73.54757217063104
 10
-45.893673614651824
 20
-73.48740810813105
 10
-45.96914236465182
 20
-73.43432217063105
 10
-46.048423614651824
 20
-73.38831435813104
 10
-46.13151736465183
 20
-73.34938467063104
 10
-46.218423614651826
 20
-73.31753310813104
 10
-46.30914236465183
 20
-73.29275967063104
 10
-46.40367361465182
 20
-73.27506435813105
 10
-46.50201736465182
 20
-73.26444717063104
 10
-46.60417361465183
 20
-73.26090810813105
 10
-46.709525177151825
 20
-73.26452529563105
 10
-46.81089236465182
 20
-73.27537685813104
 10
-46.90827517715182
 20
-73.29346279563104
 10
-47.00167361465182
 20
-73.31878310813104
 10
-47.091087677151826
 20
-73.35133779563104
 10
-47.17651736465182
 20
-73.39112685813105
 10
-47.25796267715182
 20
-73.43815029563105
 10
-47.33542361465182
 20
-73.49240810813104
 10
-47.40890017715182
 20
-73.55390029563104
 10
-47.478392364651825
 20
-73.62262685813104
 10
-47.54236892715183
 20
-73.69775185813104
 10
-47.59961111465182
 20
-73.77875185813105
 10
-47.65011892715182
 20
-73.86562685813105
 10
-47.69389236465182
 20
-73.95837685813105
 10
-47.73093142715182
 20
-74.05700185813104
 10
-47.76123611465182
 20
-74.16150185813105
 10
-47.78480642715182
 20
-74.27187685813105
 10
-47.801642364651826
 20
-74.38812685813105
 10
-47.811743927151824
 20
-74.51025185813104
 10
-47.81511111465183
 20
-74.63825185813104
 10
-47.81177517715182
 20
-74.76184560813104
 10
-47.80176736465182
 20
-74.87981435813104
 10
-47.78508767715182
 20
-74.99215810813105
 10
-47.761736114651825
 20
-75.09887685813105
 10
-47.73171267715182
 20
-75.19997060813104
 10
-47.695017364651825
 20
-75.29543935813105
 10
-47.65165017715182
 20
-75.38528310813105
 10
-47.601611114651824
 20
-75.46950185813104
 10
-47.544900177151824
 20
-75.54809560813105
 10
-47.48151736465182
 20
-75.62106435813105
 10
-47.41244705215182
 20
-75.68756435813104
 10
-47.338673614651825
 20
-75.74706435813104
 10
-47.260197052151824
 20
-75.79956435813105
 10
-47.177017364651824
 20
-75.84506435813104
 10
-47.089134552151826
 20
-75.88356435813104
 10
-46.99654861465183
 20
-75.91506435813105
 10
-46.899259552151825
 20
-75.93956435813105
 10
-46.79726736465182
 20
-75.95706435813105
 10
-46.69057205215182
 20
-75.96756435813104
 10
-46.57917361465182
 20
-75.97106435813104
 10
-46.49047048965183
 20
-75.96886904563104
 10
-46.40498611465182
 20
-75.96228310813105
 10
-46.32272048965182
 20
-75.95130654563104
 10
-46.243673614651826
 20
-75.93593935813105
 10
-46.167845489651825
 20
-75.91618154563105
 10
-46.095236114651826
 20
-75.89203310813105
 10
-46.02584548965182
 20
-75.86349404563104
 10
-45.95967361465182
 20
-75.83056435813104
 10
-45.89672048965183
 20
-75.79324404563104
 10
-45.83698611465182
 20
-75.75153310813104
 10
-45.78069705215182
 20
-75.70569717063104
 10
-45.728079864651825
 20
-75.65631435813104
 10
-45.67913455215182
 20
-75.60338467063104
 10
-45.63386111465182
 20
-75.54690810813105
 10
-45.59225955215182
 20
-75.48688467063104
 10
-45.55432986465183
 20
-75.42331435813105
 10
-45.520072052151825
 20
-75.35619717063105
 10
-45.489486114651825
 20
-75.28553310813105
 10
-45.46257205215183
 20
-75.21132217063105
 10
-45.439329864651825
 20
-75.13356435813104
 10
-45.89323611465183
 20
-75.07731435813105
  0
LWPOLYLINE
  5
3F
330
17
100
AcDbEntity
  8
0
100
AcDbPolyline
 90
244
 70
0
 10
-51.25681033340182
 20
-75.59293935813105
 10
-51.252419708401824
 20
-75.62904092063104
 10
-51.247060333401826
 20
-75.66422060813105
 10
-51.24073220840182
 20
-75.69847842063105
 10
-51.23343533340182
 20
-75.73181435813105
 10
-51.22516970840182
 20
-75.76422842063104
 10
-51.21593533340182
 20
-75.79572060813105
 10
-51.20573220840183
 20
-75.82629092063104
 10
-51.194560333401824
 20
-75.85593935813104
 10
-51.182419708401824
 20
-75.88466592063105
 10
-51.169310333401825
 20
-75.91247060813104
 10
-50.70993533340182
 20
-75.91247060813104
 10
-50.72609939590183
 20
-75.88250185813105
 10
-50.741154083401824
 20
-75.85228310813105
 10
-50.75509939590182
 20
-75.82181435813105
 10
-50.76793533340182
 20
-75.79109560813104
 10
-50.779661895901825
 20
-75.76012685813104
 10
-50.79027908340183
 20
-75.72890810813105
 10
-50.799786895901825
 20
-75.69743935813105
 10
-50.80818533340182
 20
-75.66572060813104
 10
-50.81547439590182
 20
-75.63375185813105
 10
-50.821654083401825
 20
-75.60153310813105
 10
-50.826997833401826
 20
-75.56452529563104
 10
-50.83177908340183
 20
-75.51850185813105
 10
-50.83599783340183
 20
-75.46346279563105
 10
-50.839654083401825
 20
-75.39940810813104
 10
-50.84274783340182
 20
-75.32633779563105
 10
-50.84527908340182
 20
-75.24425185813105
 10
-50.84724783340182
 20
-75.15315029563105
 10
-50.848654083401826
 20
-75.05303310813105
 10
-50.84949783340183
 20
-74.94390029563104
 10
-50.84977908340183
 20
-74.82575185813104
 10
-50.84977908340183
 20
-74.23981435813104
 10
-50.84999783340182
 20
-74.18303310813104
 10
-50.85065408340182
 20
-74.12987685813104
 10
-50.851747833401824
 20
-74.08034560813104
 10
-50.85327908340182
 20
-74.03443935813104
 10
-50.855247833401826
 20
-73.99215810813105
 10
-50.857654083401826
 20
-73.95350185813105
 10
-50.86049783340182
 20
-73.91847060813105
 10
-50.86377908340182
 20
-73.88706435813104
 10
-50.86749783340183
 20
-73.85928310813104
 10
-50.87165408340182
 20
-73.83512685813105
 10
-50.88005252090183
 20
-73.79950967063104
 10
-50.88962283340182
 20
-73.76515810813105
 10
-50.90036502090182
 20
-73.73207217063104
 10
-50.91227908340183
 20
-73.70025185813104
 10
-50.92536502090182
 20
-73.66969717063104
 10
-50.93962283340183
 20
-73.64040810813104
 10
-50.95505252090182
 20
-73.61238467063104
 10
-50.97165408340182
 20
-73.58562685813105
 10
-50.98942752090183
 20
-73.56013467063104
 10
-51.00837283340182
 20
-73.53590810813104
 10
-51.029005645901826
 20
-73.51256435813104
 10
-51.051841583401824
 20
-73.49003310813104
 10
-51.076880645901824
 20
-73.46831435813104
 10
-51.104122833401824
 20
-73.44740810813104
 10
-51.133568145901826
 20
-73.42731435813104
 10
-51.16521658340182
 20
-73.40803310813105
 10
-51.199068145901826
 20
-73.38956435813104
 10
-51.235122833401824
 20
-73.37190810813104
 10
-51.273380645901824
 20
-73.35506435813105
 10
-51.313841583401825
 20
-73.33903310813105
 10
-51.356497833401825
 20
-73.32418935813105
 10
-51.40165408340182
 20
-73.31090810813104
 10
-51.449310333401826
 20
-73.29918935813104
 10
-51.499466583401826
 20
-73.28903310813105
 10
-51.552122833401825
 20
-73.28043935813105
 10
-51.60727908340182
 20
-73.27340810813105
 10
-51.66493533340182
 20
-73.26793935813104
 10
-51.72509158340182
 20
-73.26403310813104
 10
-51.78774783340182
 20
-73.26168935813105
 10
-51.852904083401825
 20
-73.26090810813105
 10
-51.91897439590183
 20
-73.26182998313105
 10
-51.98343533340182
 20
-73.26459560813105
 10
-52.04628689590182
 20
-73.26920498313105
 10
-52.10752908340182
 20
-73.27565810813104
 10
-52.16716189590183
 20
-73.28395498313104
 10
-52.225185333401825
 20
-73.29409560813104
 10
-52.28159939590182
 20
-73.30607998313104
 10
-52.336404083401824
 20
-73.31990810813105
 10
-52.389599395901826
 20
-73.33557998313104
 10
-52.441185333401826
 20
-73.35309560813104
 10
-52.490771270901824
 20
-73.37215810813105
 10
-52.537966583401825
 20
-73.39278310813104
 10
-52.58277127090182
 20
-73.41497060813104
 10
-52.625185333401824
 20
-73.43872060813105
 10
-52.66520877090183
 20
-73.46403310813105
 10
-52.70284158340183
 20
-73.49090810813105
 10
-52.738083770901824
 20
-73.51934560813105
 10
-52.77093533340182
 20
-73.54934560813105
 10
-52.801396270901826
 20
-73.58090810813104
 10
-52.829466583401825
 20
-73.61403310813104
 10
-52.85558377090182
 20
-73.64900185813104
 10
-52.880185333401826
 20
-73.68609560813104
 10
-52.903271270901826
 20
-73.72531435813104
 10
-52.92484158340182
 20
-73.76665810813104
 10
-52.94489627090182
 20
-73.81012685813104
 10
-52.963435333401826
 20
-73.85572060813105
 10
-52.980458770901826
 20
-73.90343935813104
 10
-52.995966583401824
 20
-73.95328310813105
 10
-53.009958770901825
 20
-74.00525185813105
 10
-53.02243533340182
 20
-74.05934560813104
 10
-52.59274783340182
 20
-74.11793935813104
 10
-52.577763458401826
 20
-74.06445498313104
 10
-52.56124783340182
 20
-74.01431435813105
 10
-52.543200958401826
 20
-73.96751748313105
 10
-52.523622833401824
 20
-73.92406435813105
 10
-52.50251345840182
 20
-73.88395498313105
 10
-52.47987283340183
 20
-73.84718935813105
 10
-52.45570095840183
 20
-73.81376748313104
 10
-52.42999783340182
 20
-73.78368935813104
 10
-52.40276345840182
 20
-73.75695498313104
 10
-52.37399783340182
 20
-73.73356435813105
 10
-52.34284158340182
 20
-73.71293154563105
 10
-52.308435333401825
 20
-73.69447060813104
 10
-52.27077908340183
 20
-73.67818154563105
 10
-52.22987283340183
 20
-73.66406435813104
 10
-52.18571658340183
 20
-73.65211904563104
 10
-52.138310333401826
 20
-73.64234560813105
 10
-52.08765408340182
 20
-73.63474404563104
 10
-52.033747833401826
 20
-73.62931435813104
 10
-51.97659158340183
 20
-73.62605654563104
 10
-51.91618533340183
 20
-73.62497060813105
 10
-51.85141970840183
 20
-73.62645498313104
 10
-51.78993533340183
 20
-73.63090810813104
 10
-51.73173220840182
 20
-73.63832998313104
 10
-51.676810333401825
 20
-73.64872060813104
 10
-51.62516970840183
 20
-73.66207998313105
 10
-51.57681033340182
 20
-73.67840810813104
 10
-51.53173220840183
 20
-73.69770498313105
 10
-51.489935333401824
 20
-73.71997060813105
 10
-51.45141970840182
 20
-73.74520498313105
 10
-51.41618533340183
 20
-73.77340810813105
 10
-51.39243533340182
 20
-73.79702529563104
 10
-51.371185333401826
 20
-73.82381435813105
 10
-51.35243533340183
 20
-73.85377529563104
 10
-51.33618533340182
 20
-73.88690810813104
 10
-51.32243533340183
 20
-73.92321279563104
 10
-51.31118533340182
 20
-73.96268935813104
 10
-51.302435333401824
 20
-74.00533779563105
 10
-51.29618533340182
 20
-74.05115810813105
 10
-51.292435333401826
 20
-74.10015029563104
 10
-51.29118533340183
 20
-74.15231435813105
 10
-51.291208770901825
 20
-74.15782217063105
 10
-51.291279083401825
 20
-74.16465810813105
 10
-51.29139627090183
 20
-74.17282217063105
 10
-51.291560333401826
 20
-74.18231435813104
 10
-51.291771270901826
 20
-74.19313467063104
 10
-51.29202908340183
 20
-74.20528310813104
 10
-51.29233377090183
 20
-74.21875967063104
 10
-51.29268533340182
 20
-74.23356435813105
 10
-51.29308377090182
 20
-74.24969717063104
 10
-51.29352908340182
 20
-74.26715810813104
 10
-51.34664627090182
 20
-74.28441592063105
 10
-51.40537283340183
 20
-74.30118935813104
 10
-51.469708770901825
 20
-74.31747842063105
 10
-51.53965408340183
 20
-74.33328310813104
 10
-51.61520877090182
 20
-74.34860342063105
 10
-51.696372833401824
 20
-74.36343935813105
 10
-51.783146270901824
 20
-74.37779092063104
 10
-51.87552908340182
 20
-74.39165810813104
 10
-51.97352127090183
 20
-74.40504092063105
 10
-52.07712283340182
 20
-74.41793935813105
 10
-52.12813845840182
 20
-74.42436904563104
 10
-52.176497833401825
 20
-74.43084560813105
 10
-52.22220095840183
 20
-74.43736904563104
 10
-52.26524783340182
 20
-74.44393935813105
 10
-52.30563845840182
 20
-74.45055654563104
 10
-52.34337283340182
 20
-74.45722060813104
 10
-52.37845095840183
 20
-74.46393154563104
 10
-52.410872833401825
 20
-74.47068935813104
 10
-52.44063845840182
 20
-74.47749404563105
 10
-52.46774783340182
 20
-74.48434560813105
 10
-52.50255252090182
 20
-74.49450185813104
 10
-52.53665408340183
 20
-74.50559560813105
 10
-52.570052520901825
 20
-74.51762685813104
 10
-52.60274783340182
 20
-74.53059560813105
 10
-52.63474002090182
 20
-74.54450185813104
 10
-52.666029083401824
 20
-74.55934560813104
 10
-52.696615020901824
 20
-74.57512685813104
 10
-52.72649783340182
 20
-74.59184560813104
 10
-52.75567752090183
 20
-74.60950185813104
 10
-52.78415408340182
 20
-74.62809560813105
 10
-52.81174002090182
 20
-74.64778310813105
 10
-52.83824783340182
 20
-74.66872060813104
 10
-52.863677520901824
 20
-74.69090810813104
 10
-52.888029083401825
 20
-74.71434560813104
 10
-52.91130252090183
 20
-74.73903310813104
 10
-52.93349783340182
 20
-74.76497060813105
 10
-52.95461502090183
 20
-74.79215810813105
 10
-52.97465408340182
 20
-74.82059560813104
 10
-52.99361502090182
 20
-74.85028310813105
 10
-53.011497833401826
 20
-74.88122060813104
 10
-53.02797439590182
 20
-74.91296279563105
 10
-53.04271658340183
 20
-74.94537685813104
 10
-53.05572439590183
 20
-74.97846279563105
 10
-53.06699783340183
 20
-75.01222060813105
 10
-53.076536895901825
 20
-75.04665029563104
 10
-53.08434158340182
 20
-75.08175185813104
 10
-53.09041189590182
 20
-75.11752529563104
 10
-53.094747833401826
 20
-75.15397060813105
 10
-53.09734939590182
 20
-75.19108779563105
 10
-53.09821658340182
 20
-75.22887685813104
 10
-53.09591970840182
 20
-75.29271279563105
 10
-53.089029083401826
 20
-75.35422060813104
 10
-53.077544708401824
 20
-75.41340029563105
 10
-53.061466583401824
 20
-75.47025185813105
 10
-53.040794708401826
 20
-75.52477529563104
 10
-53.01552908340182
 20
-75.57697060813105
 10
-52.98566970840182
 20
-75.62683779563105
 10
-52.95121658340182
 20
-75.67437685813104
 10
-52.91216970840183
 20
-75.71958779563104
 10
-52.868529083401825
 20
-75.76247060813104
 10
-52.820615020901826
 20
-75.80210342063104
 10
-52.768747833401825
 20
-75.83756435813105
 10
-52.71292752090182
 20
-75.86885342063104
 10
-52.65315408340182
 20
-75.89597060813105
 10
-52.58942752090182
 20
-75.91891592063105
 10
-52.521747833401825
 20
-75.93768935813104
 10
-52.450115020901826
 20
-75.95229092063104
 10
-52.374529083401825
 20
-75.96272060813105
 10
-52.29499002090182
 20
-75.96897842063105
 10
-52.21149783340182
 20
-75.97106435813104
 10
-52.160107208401826
 20
-75.97021279563104
 10
-52.10937283340182
 20
-75.96765810813105
 10
-52.05929470840182
 20
-75.96340029563105
 10
-52.00987283340182
 20
-75.95743935813104
 10
-51.96110720840183
 20
-75.94977529563104
 10
-51.912997833401825
 20
-75.94040810813104
 10
-51.86554470840183
 20
-75.92933779563104
 10
-51.81874783340182
 20
-75.91656435813104
 10
-51.77260720840182
 20
-75.90208779563105
 10
-51.72712283340182
 20
-75.88590810813105
 10
-51.68177908340182
 20
-75.86750967063105
 10
-51.63606033340182
 20
-75.84668935813104
 10
-51.589966583401825
 20
-75.82344717063104
 10
-51.54349783340182
 20
-75.79778310813104
 10
-51.49665408340182
 20
-75.76969717063105
 10
-51.44943533340182
 20
-75.73918935813104
 10
-51.401841583401826
 20
-75.70625967063104
 10
-51.35387283340182
 20
-75.67090810813104
 10
-51.30552908340182
 20
-75.63313467063105
 10
-51.25681033340182
 20
-75.59293935813105
  0
LWPOLYLINE
  5
40
330
17
100
AcDbEntity
  8
0
100
AcDbPolyline
 90
118
 70
0
 10
-50.187767364651826
 20
-76.91090810813104
 10
-50.15681423965182
 20
-76.92115029563105
 10
-50.126454864651826
 20
-76.93031435813104
 10
-50.09668923965182
 20
-76.93840029563104
 10
-50.06751736465182
 20
-76.94540810813105
 10
-50.038939239651825
 20
-76.95133779563105
 10
-50.01095486465182
 20
-76.95618935813104
 10
-49.98356423965183
 20
-76.95996279563104
 10
-49.956767364651824
 20
-76.96265810813105
 10
-49.93056423965182
 20
-76.96427529563104
 10
-49.90495486465183
 20
-76.96481435813105
 10
-49.863509552151825
 20
-76.96379873313104
 10
-49.82323611465182
 20
-76.96075185813105
 10
-49.784134552151826
 20
-76.95567373313105
 10
-49.74620486465182
 20
-76.94856435813105
 10
-49.70944705215182
 20
-76.93942373313105
 10
-49.67386111465183
 20
-76.92825185813105
 10
-49.63944705215182
 20
-76.91504873313104
 10
-49.60620486465182
 20
-76.89981435813104
 10
-49.574134552151826
 20
-76.88254873313105
 10
-49.543236114651826
 20
-76.86325185813105
 10
-49.513267364651824
 20
-76.84192373313104
 10
-49.48398611465183
 20
-76.81825185813105
 10
-49.45539236465182
 20
-76.79223623313105
 10
-49.42748611465183
 20
-76.76387685813104
 10
-49.400267364651825
 20
-76.73317373313104
 10
-49.37373611465183
 20
-76.70012685813104
 10
-49.34789236465183
 20
-76.66473623313105
 10
-49.322736114651825
 20
-76.62700185813104
 10
-49.29826736465182
 20
-76.58692373313104
 10
-49.27448611465182
 20
-76.54450185813104
 10
-49.25627517715182
 20
-76.50965029563105
 10
-49.23664236465183
 20
-76.46947060813105
 10
-49.215587677151824
 20
-76.42396279563104
 10
-49.19311111465183
 20
-76.37312685813104
 10
-49.169212677151826
 20
-76.31696279563104
 10
-49.143892364651826
 20
-76.25547060813105
 10
-49.11715017715183
 20
-76.18865029563105
 10
-49.088986114651824
 20
-76.11650185813104
 10
-49.05940017715182
 20
-76.03902529563105
 10
-49.02839236465182
 20
-75.95622060813105
 10
-48.04167361465183
 20
-73.31950185813105
 10
-48.48151736465182
 20
-73.31950185813105
 10
-49.035423614651826
 20
-74.83122060813105
 10
-49.056072052151826
 20
-74.88887685813104
 10
-49.07614236465182
 20
-74.94684560813104
 10
-49.09563455215182
 20
-75.00512685813105
 10
-49.114548614651824
 20
-75.06372060813105
 10
-49.13288455215182
 20
-75.12262685813104
 10
-49.15064236465182
 20
-75.18184560813104
 10
-49.16782205215183
 20
-75.24137685813105
 10
-49.18442361465182
 20
-75.30122060813105
 10
-49.20044705215182
 20
-75.36137685813104
 10
-49.21589236465182
 20
-75.42184560813105
 10
-49.232822052151825
 20
-75.35916592063104
 10
-49.25017361465182
 20
-75.29706435813104
 10
-49.267947052151825
 20
-75.23554092063104
 10
-49.28614236465182
 20
-75.17459560813104
 10
-49.30475955215182
 20
-75.11422842063105
 10
-49.32379861465182
 20
-75.05443935813105
 10
-49.34325955215183
 20
-74.99522842063105
 10
-49.36314236465182
 20
-74.93659560813104
 10
-49.38344705215182
 20
-74.87854092063104
 10
-49.404173614651825
 20
-74.82106435813104
 10
-49.94401736465183
 20
-73.31950185813105
 10
-50.41745486465182
 20
-73.31950185813105
 10
-49.43307986465182
 20
-75.91715810813105
 10
-49.438392364651826
 20
-75.93103310813105
 10
-49.44339236465183
 20
-75.94422060813105
 10
-49.448079864651824
 20
-75.95672060813105
 10
-49.45245486465183
 20
-75.96853310813104
 10
-49.45651736465182
 20
-75.97965810813105
 10
-49.46026736465183
 20
-75.99009560813104
 10
-49.463704864651824
 20
-75.99984560813104
 10
-49.46682986465182
 20
-76.00890810813104
 10
-49.469642364651826
 20
-76.01728310813104
 10
-49.47214236465182
 20
-76.02497060813104
 10
-49.490220489651826
 20
-76.07521279563105
 10
-49.507267364651824
 20
-76.12156435813104
 10
-49.523282989651825
 20
-76.16402529563105
 10
-49.53826736465182
 20
-76.20259560813105
 10
-49.55222048965182
 20
-76.23727529563105
 10
-49.56514236465183
 20
-76.26806435813104
 10
-49.577032989651826
 20
-76.29496279563105
 10
-49.58789236465182
 20
-76.31797060813105
 10
-49.59772048965183
 20
-76.33708779563105
 10
-49.60651736465182
 20
-76.35231435813104
 10
-49.61808767715183
 20
-76.36942373313104
 10
-49.63029861465182
 20
-76.38575185813104
 10
-49.643150177151824
 20
-76.40129873313104
 10
-49.65664236465182
 20
-76.41606435813104
 10
-49.670775177151825
 20
-76.43004873313104
 10
-49.68554861465182
 20
-76.44325185813105
 10
-49.70096267715182
 20
-76.45567373313105
 10
-49.717017364651824
 20
-76.46731435813105
 10
-49.73371267715182
 20
-76.47817373313104
 10
-49.75104861465182
 20
-76.48825185813105
 10
-49.76914236465183
 20
-76.49760342063105
 10
-49.788423614651826
 20
-76.50597060813105
 10
-49.808892364651825
 20
-76.51335342063105
 10
-49.830548614651825
 20
-76.51975185813104
 10
-49.853392364651825
 20
-76.52516592063104
 10
-49.877423614651825
 20
-76.52959560813105
 10
-49.902642364651825
 20
-76.53304092063104
 10
-49.929048614651826
 20
-76.53550185813104
 10
-49.95664236465183
 20
-76.53697842063104
 10
-49.98542361465182
 20
-76.53747060813104
 10
-50.007204864651825
 20
-76.53707998313105
 10
-50.029736114651826
 20
-76.53590810813104
 10
-50.05301736465182
 20
-76.53395498313104
 10
-50.07704861465182
 20
-76.53122060813105
 10
-50.101829864651826
 20
-76.52770498313104
 10
-50.127361114651826
 20
-76.52340810813105
 10
-50.15364236465182
 20
-76.51832998313104
 10
-50.18067361465182
 20
-76.51247060813104
 10
-50.20845486465183
 20
-76.50582998313105
 10
-50.23698611465183
 20
-76.49840810813104
 10
-50.187767364651826
 20
-76.91090810813104
  0
LWPOLYLINE
  5
41
330
17
100
AcDbEntity
  8
0
100
AcDbPolyline
 90
18
 70
0
 10
-7.48995305255238
 20
14.924833140858281
 10
-7.107075242490154
 20
15.104199322148693
 10
-7.069463335146293
 20
15.090585196177603
 10
-3.549215609887398
 20
7.57621024418269
 10
-3.5226199751511933
 20
7.566583603388604
 10
-2.6961834538984113
 20
7.953743054786304
 10
-2.6865568131043247
 20
7.980338689522508
 10
-6.218803429049607
 20
15.520326658174898
 10
-6.406784209693747
 20
15.921593324549889
 10
-6.423631708963998
 20
15.90940696809103
 10
-6.425123347872169
 20
15.909792994972442
 10
-6.450063543536969
 20
15.96303072033234
 10
-7.267537408826993
 20
15.580069990636126
 10
-7.316302536756552
 20
15.557225065807707
 10
-7.603360944076791
 20
15.082270329581062
 10
-7.603304469635318
 20
15.081027435923692
 10
-7.489891793116068
 20
14.925071097317359
 10
-7.48995305255238
 20
14.924833140858281
  0
LWPOLYLINE
  5
42
330
17
100
AcDbEntity
  8
0
100
AcDbPolyline
 90
48
 70
0
 10
26.3294077742328
 20
16.162302738265378
 10
25.94620663992407
 20
15.943048481006263
 10
12.753915303061552
 20
8.39488178826535
 10
12.746488363105154
 20
8.3675900209557
 10
13.195604136366953
 20
7.582648939759401
 10
13.185100857153685
 20
7.544052552288963
 10
1.1169531627605083
 20
0.6390814487959693
 10
0.9078079474864986
 20
0.7792004764202565
 10
0.8140878657304198
 20
0.9792568047841933
 10
0.6196546472434069
 20
0.6572287254418517
 10
0.6196129830345138
 20
0.6560485653850636
 10
0.84046587658624
 20
0.22368030452345328
 10
1.2379832088487277
 20
-0.043061340068184455
 10
1.237922629841133
 20
-0.044759686280355426
 10
0.9768178514603405
 20
-0.19415468832937452
 10
0.9654972033714853
 20
-0.20600662387478394
 10
0.9684575378682938
 20
-0.20611113511808632
 10
1.0845985129920974
 20
-0.4354990194477203
 10
0.7339315595628668
 20
-0.6466306352688062
 10
0.7276868838108328
 20
-0.6799565845370754
 10
0.748990722886505
 20
-0.8852815165287856
 10
0.8178993066457156
 20
-1.091375920601558
 10
0.8182238104294653
 20
-1.0919148865579096
 10
0.96812710167776
 20
-1.249243522154452
 10
1.3123617603867797
 20
-1.4798671373755243
 10
1.2453860019481795
 20
-0.8343593965621207
 10
11.468063419418387
 20
-7.68314920787121
 10
11.495810987092222
 20
-7.677665369052831
 10
12.003773514461077
 20
-6.919467614337076
 10
11.998289675642699
 20
-6.8917200466632424
 10
1.9079562333223195
 20
-0.13159546771737415
 10
1.913522557594626
 20
-0.002687960776496929
 10
13.665386077929526
 20
6.721316424569751
 10
13.672813017885924
 20
6.7486081918794
 10
13.223697244624127
 20
7.533549273075697
 10
13.234200523837394
 20
7.572145660546135
 10
26.39475154764923
 20
15.102151658706502
 10
26.43334793511967
 20
15.091648379493234
 10
26.642768562710902
 20
14.725633949288735
 10
26.642858382611234
 20
14.72586980243674
 10
26.82590033318674
 20
14.787209562762417
 10
26.82665967807784
 20
14.788191214127401
 10
26.865114211918474
 20
15.34182085472384
 10
26.838430192075048
 20
15.388457790416435
 10
26.390030823362693
 20
16.173018688074762
 10
26.33719593528367
 20
16.142822013062858
 10
26.335751554748157
 20
16.143372472452594
 10
26.3294077742328
 20
16.162302738265378
  0
LWPOLYLINE
  5
43
330
17
100
AcDbEntity
  8
0
100
AcDbPolyline
 90
23
 70
0
 10
-0.05604400323666806
 20
1.2958954080077212
 10
-0.4906056860273902
 20
1.0472544451738552
 10
-3.532246615945279
 20
7.539987968652397
 10
-3.558842250681484
 20
7.5496146094464835
 10
-4.385278771934265
 20
7.162455158048783
 10
-4.394905412728352
 20
7.135859523312579
 10
-1.359939631727437
 20
0.6573748754068043
 10
-1.4763464930676118
 20
0.47893567557525846
 10
-1.4574578707190688
 20
0.39409070586466605
 10
-1.3564416122516592
 20
0.1784598464438492
 10
-1.3564385309672597
 20
0.1784682752163965
 10
-1.1794887512085002
 20
0.259994051380605
 10
-1.1781550742674696
 20
0.25948875441125374
 10
-1.1545462363937617
 20
0.20586466035353032
 10
-0.31885337204819014
 20
0.5737913860770684
 10
-0.2951473612708376
 20
0.5849798828562212
 10
-0.2950771144884747
 20
0.5850153200702747
 10
-0.27199071710990946
 20
0.597432069369591
 10
-0.24375531460478267
 20
0.6135873770178555
 10
-0.015603637635482562
 20
0.8964187374878205
 10
-0.015308347071978475
 20
0.8973518225431104
 10
-0.03920364242111955
 20
1.259947714728047
 10
-0.05604400323666806
 20
1.2958954080077212
  0
LWPOLYLINE
  5
44
330
17
100
AcDbEntity
  8
0
100
AcDbPolyline
 90
46
 70
0
 10
-1.256502312750162
 20
-0.03487211979973143
 10
-1.1263772055588517
 20
-0.31263917553502857
 10
-1.1081928178341858
 20
-0.48789905032965347
 10
-10.233154945153192
 20
-4.50530494266701
 10
-10.270438355464574
 20
-4.490815383820959
 10
-10.634836560631248
 20
-3.6631370484675085
 10
-10.661199912888186
 20
-3.652891383151064
 10
-20.901936833833425
 20
-8.161534408080499
 10
-21.307487789153736
 20
-8.340084496816655
 10
-21.295698560857524
 20
-8.35721224084748
 10
-21.296119348303673
 20
-8.358694449102728
 10
-21.349925488118153
 20
-8.38238343544183
 10
-20.986177279336818
 20
-9.208585396926791
 10
-20.964478447469514
 20
-9.25787118585728
 10
-20.49636326980378
 20
-9.555952904676385
 10
-20.49511939567431
 20
-9.55592549744996
 10
-20.336554723407055
 20
-9.446189179334425
 10
-20.33631826385925
 20
-9.446255984102233
 10
-20.50668593373117
 20
-9.059290221378074
 10
-20.49219637488512
 20
-9.022006811066694
 10
-10.284927914310625
 20
-4.52809879413234
 10
-10.247644503999243
 20
-4.542588352978392
 10
-9.883246298832569
 20
-5.370266688331843
 10
-9.856882946575631
 20
-5.380512353648288
 10
-0.9460082771667178
 20
-1.4573617801695773
 10
-0.7975832670105955
 20
-1.543598377477667
 10
0.3668203749143256
 20
-12.76604037465063
 10
0.3887776355283578
 20
-12.783869527920697
 10
1.2965324632447883
 20
-12.689683874955485
 10
1.3143616165148533
 20
-12.667726614341452
 10
0.15470567283755282
 20
-1.4910426054515886
 10
0.6938628380023837
 20
-1.8522565955521368
 10
0.6511009518079578
 20
-1.4401204855172405
 10
0.582192368076775
 20
-1.2340260815354926
 10
0.5818678642932039
 20
-1.2334871155793317
 10
0.43196457313962
 20
-1.076158480023991
 10
0.23722497676837406
 20
-0.9456906475933943
 10
-0.021893402689898644
 20
-1.1017021611077615
 10
-0.19523300363293883
 20
-0.8335883903992846
 10
-0.3165715317347192
 20
-0.8535471366565092
 10
-0.5563371321845283
 20
-0.9588508114541451
 10
-0.5577339129848538
 20
-0.9580384273635303
 10
-0.6116909398705046
 20
-0.4380043233715144
 10
-0.8575747207133382
 20
-0.057682531465580396
 10
-0.8585578081888544
 20
-0.057111346604910004
 10
-1.256502312750162
 20
-0.03487211979973143
  0
LWPOLYLINE
  5
45
330
17
100
AcDbEntity
  8
0
100
AcDbPolyline
 90
17
 70
0
 10
-30.756913188488365
 20
-12.500340369532575
 10
-41.401715184510564
 20
-17.186879301409615
 10
-41.41196084982701
 20
-17.213242653666555
 10
-41.04422456239792
 20
-18.048502964812023
 10
-41.017861210140985
 20
-18.058748630128466
 10
-30.803010773774467
 20
-13.561502530931703
 10
-30.76572736346309
 20
-13.575992089777754
 10
-30.595810149748328
 20
-13.961934705853489
 10
-30.59569611177854
 20
-13.961709562201284
 10
-30.407234587446105
 20
-13.919886416403779
 10
-30.406376565806497
 20
-13.918989731993117
 10
-30.31012488863277
 20
-13.372436765617538
 10
-30.331775450746207
 20
-13.323260614304129
 10
-30.695501030001275
 20
-12.496035434000937
 10
-30.751209069974273
 20
-12.520529900059055
 10
-30.75258782330696
 20
-12.51983112977296
 10
-30.756913188488365
 20
-12.500340369532575
  0
LWPOLYLINE
  5
46
330
17
100
AcDbEntity
  8
0
100
AcDbPolyline
 90
18
 70
0
 10
23.22043383001131
 20
-15.013800357431936
 10
22.98510107897718
 20
-15.365063991718866
 10
22.94586009244998
 20
-15.372819310949685
 10
11.501294825910604
 20
-7.705412936726667
 10
11.473547258236769
 20
-7.710896775545046
 10
10.965584730867912
 20
-8.4690945302608
 10
10.97106856968629
 20
-8.496842097934636
 10
22.43913198910468
 20
-16.179991305805846
 10
22.807266113966104
 20
-16.426626618707076
 10
22.815404804918117
 20
-16.407492690148338
 10
22.816881611787874
 20
-16.40705332144143
 10
22.865723504396563
 20
-16.439775458987043
 10
23.368177207828083
 20
-15.68980031480113
 10
23.398150299537996
 20
-15.645061717700772
 10
23.398833372774693
 20
-15.090098598445632
 10
23.3981434194296
 20
-15.089063253871512
 10
23.220504197084836
 20
-15.014035781451891
 10
23.22043383001131
 20
-15.013800357431936
  0
LWPOLYLINE
  5
47
330
17
100
AcDbEntity
  8
0
100
AcDbPolyline
 90
18
 70
0
 10
3.6259557823644677
 20
-25.716060865329524
 10
3.580392581974202
 20
-25.276925882257824
 10
2.2660309654593482
 20
-12.609199267916372
 10
2.244073704845316
 20
-12.591370114646306
 10
1.3363188771288859
 20
-12.685555767611518
 10
1.318489723858821
 20
-12.70751302822555
 10
2.6299323276772895
 20
-25.347106399510462
 10
2.6047180973171327
 20
-25.37815865526339
 10
2.18527847096448
 20
-25.42167833026957
 10
2.1854578563863476
 20
-25.421855855458332
 10
2.167537562380747
 20
-25.614068719067294
 10
2.1681282933730612
 20
-25.615160177248505
 10
2.6589192859100965
 20
-25.87421370894013
 10
2.7123635687952725
 20
-25.868668506056586
 10
3.611240941199258
 20
-25.775839282197765
 10
3.604989518695291
 20
-25.71530595004704
 10
3.6060770573161665
 20
-25.71420754191829
 10
3.6259557823644677
 20
-25.716060865329524
  0
LWPOLYLINE
  5
48
330
17
100
AcDbEntity
  8
0
100
AcDbPolyline
 90
42
 70
0
 10
240.12100529379208
 20
-74.36715810813105
 10
238.6733490437921
 20
-74.36715810813105
 10
238.6802084187921
 20
-74.30332998313105
 10
238.68922404379208
 20
-74.24278310813105
 10
238.70039591879208
 20
-74.18551748313105
 10
238.71372404379207
 20
-74.13153310813104
 10
238.7292084187921
 20
-74.08082998313104
 10
238.74684904379208
 20
-74.03340810813104
 10
238.76664591879208
 20
-73.98926748313104
 10
238.7885990437921
 20
-73.94840810813105
 10
238.81270841879208
 20
-73.91082998313104
 10
238.8389740437921
 20
-73.87653310813104
 10
238.8822474812921
 20
-73.82829092063105
 10
238.92800529379207
 20
-73.78512685813105
 10
238.9762474812921
 20
-73.74704092063105
 10
239.02697404379208
 20
-73.71403310813105
 10
239.0801849812921
 20
-73.68610342063104
 10
239.13588029379207
 20
-73.66325185813105
 10
239.19405998129207
 20
-73.64547842063105
 10
239.25472404379207
 20
-73.63278310813105
 10
239.31787248129208
 20
-73.62516592063105
 10
239.3835052937921
 20
-73.62262685813104
 10
239.4431615437921
 20
-73.62465029563104
 10
239.50088029379208
 20
-73.63072060813104
 10
239.55666154379207
 20
-73.64083779563104
 10
239.61050529379207
 20
-73.65500185813104
 10
239.66241154379208
 20
-73.67321279563104
 10
239.71238029379208
 20
-73.69547060813105
 10
239.7604115437921
 20
-73.72177529563105
 10
239.8065052937921
 20
-73.75212685813105
 10
239.85066154379209
 20
-73.78652529563105
 10
239.89288029379208
 20
-73.82497060813104
 10
239.9322865437921
 20
-73.86681435813105
 10
239.9680052937921
 20
-73.91140810813104
 10
240.00003654379208
 20
-73.95875185813105
 10
240.02838029379208
 20
-74.00884560813104
 10
240.05303654379208
 20
-74.06168935813105
 10
240.07400529379208
 20
-74.11728310813105
 10
240.09128654379208
 20
-74.17562685813104
 10
240.1048802937921
 20
-74.23672060813105
 10
240.1147865437921
 20
-74.30056435813104
 10
240.12100529379208
 20
-74.36715810813105
  0
LWPOLYLINE
  5
49
330
17
100
AcDbEntity
  8
0
100
AcDbPolyline
 90
5
 70
0
 10
101.39240021457013
 20
-85.864317874853
 10
101.39240021457013
 20
59.039376658590925
 10
266.29609474801407
 20
59.039376658590925
 10
266.29609474801407
 20
-85.864317874853
 10
101.39240021457013
 20
-85.864317874853
  0
LWPOLYLINE
  5
4A
330
17
100
AcDbEntity
  8
0
100
AcDbPolyline
 90
53
 70
0
 10
185.92094385754132
 20
-63.84453047733636
 10
185.95769149257154
 20
-63.862576190967275
 10
185.99624687258387
 20
-63.87953130531028
 10
185.99636454112968
 20
-63.87957723349599
 10
186.03621127022285
 20
-63.89322389640047
 10
186.04244829360033
 20
-63.89507007101887
 10
186.08330305388924
 20
-63.905311252097974
 10
186.08342676322758
 20
-63.90533677237353
 10
186.12499906952
 20
-63.91209965485954
 10
186.14399018531282
 20
-63.91437208746802
 10
186.3420742020291
 20
-63.89825535771624
 10
186.34263032719423
 20
-63.898094562081674
 10
186.51875089098002
 20
-63.806015391427756
 10
186.51888563947878
 20
-63.805905976520336
 10
186.64330819312852
 20
-63.655897837368734
 10
186.64357873648447
 20
-63.65539797065655
 10
186.70112455761054
 20
-63.46919407129227
 10
186.7154677386311
 20
-63.33095548180077
 10
186.2337354438391
 20
-63.422048008771334
 10
186.2272885065528
 20
-63.420205463047814
 10
186.22710279174515
 20
-63.421757514098005
 10
186.20379664690714
 20
-63.41896875518119
 10
186.20473613187806
 20
-63.41820589947545
 10
187.51617873569654
 20
-50.77861252819055
 10
187.54723099144945
 20
-50.7533982978304
 10
188.4467457830514
 20
-50.8467289917712
 10
188.4687030436654
 20
-50.82889983850114
 10
189.7830646601803
 20
-38.16117322415968
 10
189.82862786056876
 20
-37.72203824110528
 10
189.8087491355239
 20
-37.723891564485754
 10
189.80766159690452
 20
-37.72279315635687
 10
189.8139130194093
 20
-37.66225982419309
 10
188.91503564697487
 20
-37.56943060033905
 10
188.86159136405678
 20
-37.56388539746024
 10
188.37080037171015
 20
-37.8229389289463
 10
188.37020964071735
 20
-37.8240303871271
 10
188.38812993458762
 20
-38.01624325095948
 10
188.38795054916636
 20
-38.016420776147505
 10
188.8073901755232
 20
-38.05994045115412
 10
188.83260440588336
 20
-38.090992706907045
 10
187.5220167610893
 20
-50.72234604207746
 10
187.49096450533636
 20
-50.74756027243761
 10
186.59144971373442
 20
-50.65422957849681
 10
186.5694924531204
 20
-50.672058731766874
 10
185.29246297948404
 20
-62.97998072767582
 10
184.81510643791165
 20
-62.74556456886795
 10
184.7962152515991
 20
-62.92763651970776
 10
184.8560094913617
 20
-63.22104447664393
 10
184.85641480458293
 20
-63.22177685569719
 10
185.07327198394134
 20
-63.428263039407796
 10
185.38604620097632
 20
-63.58185752098748
 10
185.7816877505104
 20
-63.36290157163346
 10
185.92094385754132
 20
-63.84453047733636
  0
LWPOLYLINE
  5
4B
330
17
100
AcDbEntity
  8
0
100
AcDbPolyline
 90
37
 70
0
 10
127.8955075725689
 20
38.27949553208771
 10
126.77872410761624
 20
38.27949553208771
 10
126.7294013010597
 20
38.27705439103731
 10
126.72925399852984
 20
38.277039774300235
 10
126.68041329006728
 20
38.269740211700665
 10
126.67294872572563
 20
38.26824407199107
 10
126.62506750128024
 20
38.25615743628244
 10
126.62492594381992
 20
38.25611415615077
 10
126.5784722109769
 20
38.23935858627553
 10
126.57836362648767
 20
38.239313236769995
 10
126.4006270514917
 20
38.11369543300841
 10
126.40020414052931
 20
38.11322845274428
 10
126.29276168783477
 20
37.92395023933293
 10
126.29130062750465
 20
37.919170522952804
 10
126.30459973369135
 20
37.58917921355096
 10
126.30493413741439
 20
37.58833516606453
 10
126.52124743889372
 20
37.33877618283866
 10
126.81682457299627
 20
37.16965730714081
 10
126.75146095474254
 20
37.74760930012109
 10
126.76034275416387
 20
37.76656575827262
 10
126.76798115560032
 20
37.77159048479724
 10
126.76822038957687
 20
37.772373115420244
 10
139.9288383135251
 20
30.242328839346797
 10
139.9338045203634
 20
30.25100851616331
 10
139.93059366902912
 20
30.256544927968914
 10
139.95613008083473
 20
30.24975577930319
 10
140.40935999454848
 20
31.04188734020831
 10
140.4019330545921
 20
31.069179107517957
 10
128.67224488912782
 20
37.78049553208771
 10
129.67703590216075
 20
37.78049553208771
 10
128.92034583446383
 20
38.213447065666884
 10
128.80062389171653
 20
38.26262798316525
 10
128.80025301142683
 20
38.2627265859542
 10
128.67191397346096
 20
38.27949553208771
 10
128.5390482792274
 20
38.27949553208771
 10
128.45408010777544
 20
37.95989990627367
 10
127.8955075725689
 20
38.27949553208771
  0
LWPOLYLINE
  5
4C
330
17
100
AcDbEntity
  8
0
100
AcDbPolyline
 90
45
 70
0
 10
209.75033909522455
 20
38.27949553208771
 10
209.43256944287302
 20
38.27949553208771
 10
209.16456738977263
 20
38.20150895420845
 10
209.1639024027891
 20
38.201086139268675
 10
208.97958798961082
 20
37.99147887820673
 10
208.88074894458208
 20
37.78049553208771
 10
209.43179107840132
 20
37.78049553208771
 10
206.0935505809936
 20
30.65463600877513
 10
206.1031772217877
 20
30.628040374038925
 10
206.92211186414815
 20
30.24439531635655
 10
206.93572599011924
 20
30.20678340901269
 10
203.41899265857566
 20
22.6999103359101
 10
203.3813807512318
 20
22.68629620993901
 10
202.99850294122584
 20
22.865662391203074
 10
202.99856420066186
 20
22.86542443474587
 10
202.8851515240468
 20
22.709468095480265
 10
202.88509504960692
 20
22.708225201823
 10
203.17215345720388
 20
22.233270466114845
 10
203.22091858511882
 20
22.21042554132586
 10
204.03839245018196
 20
21.827464811746726
 10
204.06333264586124
 20
21.88070253713901
 10
204.06482428476932
 20
21.881088564020487
 10
204.08167178404034
 20
21.868902207563657
 10
204.26965256467236
 20
22.270168873912798
 10
207.80189918061762
 20
29.810156842565195
 10
207.79227253982356
 20
29.836752477301403
 10
206.9733378974631
 20
30.22039753498378
 10
206.959723771492
 20
30.258009442327637
 10
210.47712808701166
 20
37.76631480814843
 10
210.49073255923355
 20
37.75914865440376
 10
210.49888855998447
 20
37.751177470342334
 10
210.7823938196529
 20
37.24163423337069
 10
210.92852538940068
 20
37.55361139581839
 10
210.94970876120618
 20
37.92446544894707
 10
210.9493920152821
 20
37.9254088081869
 10
210.7086706183947
 20
38.208344639967116
 10
210.70016922268204
 20
38.2128227489101
 10
210.70015390606702
 20
38.2128309878734
 10
210.69124101156052
 20
38.21772573054994
 10
210.57491701851876
 20
38.263737288645
 10
210.57455741582487
 20
38.26382953664861
 10
210.45044116335683
 20
38.27949553208771
 10
209.83650703724564
 20
38.27949553208771
 10
209.76549848631785
 20
38.2556534281139
 10
209.75033909522455
 20
38.27949553208771
  0
LWPOLYLINE
  5
4D
330
17
100
AcDbEntity
  8
0
100
AcDbPolyline
 90
36
 70
0
 10
243.81573316465608
 20
-21.102772126080804
 10
243.73408645797795
 20
-20.956028720834976
 10
243.63399926728374
 20
-20.829649628210657
 10
243.63364843892006
 20
-20.829330001002884
 10
243.49852013241156
 20
-20.741412644485738
 10
242.8960592941816
 20
-20.476169930309272
 10
243.2978338543063
 20
-21.198278261344228
 10
234.2231246312242
 20
-17.202996988350108
 10
234.19676127896727
 20
-17.21324265366655
 10
233.82902499153818
 20
-18.048502964812027
 10
233.83927065685464
 20
-18.074866317068967
 10
244.05946167301087
 20
-22.57446368922625
 10
244.0544787687986
 20
-22.582314701439884
 10
244.05517569771104
 20
-22.58527591680777
 10
244.0510843536602
 20
-22.602646665394015
 10
243.73856509081688
 20
-22.97840485804567
 10
243.857442691488
 20
-23.030742562765916
 10
244.2040535214611
 20
-23.051470597964855
 10
244.2049575192492
 20
-23.051195639435175
 10
244.29074742292818
 20
-22.98594178310029
 10
244.2922266681253
 20
-22.986251505299784
 10
244.29892590335913
 20
-22.998292022679372
 10
244.33594060486905
 20
-22.951605877411392
 10
244.33611880455183
 20
-22.951431223101736
 10
244.48132587557288
 20
-22.840983245602267
 10
244.48203813090743
 20
-22.839861023481898
 10
244.55187374552227
 20
-22.660872777423343
 10
244.55197330222614
 20
-22.6603208874674
 10
244.54908057485787
 20
-22.46821300780819
 10
244.54831686371125
 20
-22.464604894455597
 10
244.4965490901808
 20
-22.355304773838213
 10
244.4964594566385
 20
-22.35499151182109
 10
244.49226647157684
 20
-22.318703610141082
 10
244.01599327587112
 20
-21.462699082724058
 10
243.63902312040796
 20
-21.29673213374802
 10
243.81573316465608
 20
-21.102772126080804
  0
LWPOLYLINE
  5
4E
330
17
100
AcDbEntity
  8
0
100
AcDbPolyline
 90
33
 70
0
 10
111.34424748129209
 20
-73.41247060813104
 10
111.39228428028402
 20
-73.90019641317137
 10
111.53454865001387
 20
-74.36917918904376
 10
111.76557345053573
 20
-74.80139619068005
 10
112.07648052832572
 20
-75.18023756109741
 10
112.45532189874308
 20
-75.4911446388874
 10
112.88753890037935
 20
-75.72216943940926
 10
113.35652167625176
 20
-75.86443380913911
 10
113.84424748129209
 20
-75.91247060813104
 10
114.3319732863324
 20
-75.86443380913911
 10
114.8009560622048
 20
-75.72216943940927
 10
115.2331730638411
 20
-75.4911446388874
 10
115.61201443425846
 20
-75.18023756109741
 10
115.92292151204845
 20
-74.80139619068005
 10
116.1539463125703
 20
-74.36917918904378
 10
116.29621068230016
 20
-73.90019641317137
 10
116.34424748129209
 20
-73.41247060813106
 10
116.29621068230017
 20
-72.92474480309073
 10
116.15394631257031
 20
-72.45576202721833
 10
115.92292151204846
 20
-72.02354502558205
 10
115.61201443425847
 20
-71.64470365516469
 10
115.23317306384111
 20
-71.33379657737468
 10
114.80095606220482
 20
-71.10277177685283
 10
114.33197328633241
 20
-70.96050740712298
 10
113.8442474812921
 20
-70.91247060813104
 10
113.35652167625177
 20
-70.96050740712296
 10
112.88753890037937
 20
-71.10277177685282
 10
112.4553218987431
 20
-71.33379657737468
 10
112.07648052832572
 20
-71.64470365516468
 10
111.76557345053573
 20
-72.02354502558204
 10
111.53454865001387
 20
-72.45576202721831
 10
111.39228428028402
 20
-72.92474480309072
 10
111.34424748129209
 20
-73.41247060813104
  0
LWPOLYLINE
  5
4F
330
17
100
AcDbEntity
  8
0
100
AcDbPolyline
 90
33
 70
0
 10
251.3442474812921
 20
-73.41247060813104
 10
251.392284280284
 20
-73.90019641317137
 10
251.53454865001387
 20
-74.36917918904376
 10
251.76557345053573
 20
-74.80139619068005
 10
252.0764805283257
 20
-75.18023756109741
 10
252.45532189874308
 20
-75.4911446388874
 10
252.88753890037935
 20
-75.72216943940926
 10
253.35652167625176
 20
-75.86443380913911
 10
253.8442474812921
 20
-75.91247060813104
 10
254.3319732863324
 20
-75.86443380913911
 10
254.80095606220482
 20
-75.72216943940927
 10
255.2331730638411
 20
-75.4911446388874
 10
255.61201443425844
 20
-75.18023756109741
 10
255.92292151204845
 20
-74.80139619068005
 10
256.15394631257027
 20
-74.36917918904378
 10
256.29621068230017
 20
-73.90019641317137
 10
256.3442474812921
 20
-73.41247060813106
 10
256.29621068230017
 20
-72.92474480309073
 10
256.1539463125703
 20
-72.45576202721833
 10
255.92292151204845
 20
-72.02354502558205
 10
255.61201443425847
 20
-71.64470365516469
 10
255.2331730638411
 20
-71.33379657737468
 10
254.80095606220482
 20
-71.10277177685283
 10
254.3319732863324
 20
-70.96050740712298
 10
253.8442474812921
 20
-70.91247060813104
 10
253.35652167625176
 20
-70.96050740712296
 10
252.88753890037935
 20
-71.10277177685282
 10
252.45532189874308
 20
-71.33379657737468
 10
252.07648052832573
 20
-71.64470365516468
 10
251.76557345053573
 20
-72.02354502558204
 10
251.53454865001387
 20
-72.45576202721831
 10
251.392284280284
 20
-72.92474480309072
 10
251.3442474812921
 20
-73.41247060813104
  0
LWPOLYLINE
  5
50
330
17
100
AcDbEntity
  8
0
100
AcDbPolyline
 90
33
 70
0
 10
111.34424748129209
 20
46.587529391868955
 10
111.39228428028402
 20
46.099803586828635
 10
111.53454865001387
 20
45.63082081095623
 10
111.76557345053573
 20
45.19860380931995
 10
112.07648052832572
 20
44.819762438902586
 10
112.45532189874308
 20
44.508855361112595
 10
112.88753890037935
 20
44.277830560590736
 10
113.35652167625176
 20
44.13556619086088
 10
113.84424748129209
 20
44.087529391868955
 10
114.3319732863324
 20
44.13556619086088
 10
114.8009560622048
 20
44.277830560590736
 10
115.2331730638411
 20
44.50885536111259
 10
115.61201443425846
 20
44.81976243890258
 10
115.92292151204845
 20
45.19860380931994
 10
116.1539463125703
 20
45.63082081095622
 10
116.29621068230016
 20
46.09980358682863
 10
116.34424748129209
 20
46.58752939186895
 10
116.29621068230017
 20
47.07525519690927
 10
116.15394631257031
 20
47.54423797278167
 10
115.92292151204846
 20
47.976454974417955
 10
115.61201443425847
 20
48.35529634483532
 10
115.23317306384111
 20
48.666203422625316
 10
114.80095606220482
 20
48.89722822314717
 10
114.33197328633241
 20
49.03949259287703
 10
113.8442474812921
 20
49.087529391868955
 10
113.35652167625177
 20
49.03949259287703
 10
112.88753890037937
 20
48.897228223147174
 10
112.4553218987431
 20
48.66620342262532
 10
112.07648052832572
 20
48.35529634483533
 10
111.76557345053573
 20
47.97645497441797
 10
111.53454865001387
 20
47.54423797278169
 10
111.39228428028402
 20
47.07525519690928
 10
111.34424748129209
 20
46.587529391868955
  0
LWPOLYLINE
  5
51
330
17
100
AcDbEntity
  8
0
100
AcDbPolyline
 90
33
 70
0
 10
251.3442474812921
 20
46.587529391868955
 10
251.392284280284
 20
46.099803586828635
 10
251.53454865001387
 20
45.63082081095623
 10
251.76557345053573
 20
45.19860380931995
 10
252.0764805283257
 20
44.819762438902586
 10
252.45532189874308
 20
44.508855361112595
 10
252.88753890037935
 20
44.277830560590736
 10
253.35652167625176
 20
44.13556619086088
 10
253.8442474812921
 20
44.087529391868955
 10
254.3319732863324
 20
44.13556619086088
 10
254.80095606220482
 20
44.277830560590736
 10
255.2331730638411
 20
44.50885536111259
 10
255.61201443425844
 20
44.81976243890258
 10
255.92292151204845
 20
45.19860380931994
 10
256.15394631257027
 20
45.63082081095622
 10
256.29621068230017
 20
46.09980358682863
 10
256.3442474812921
 20
46.58752939186895
 10
256.29621068230017
 20
47.07525519690927
 10
256.1539463125703
 20
47.54423797278167
 10
255.92292151204845
 20
47.976454974417955
 10
255.61201443425847
 20
48.35529634483532
 10
255.2331730638411
 20
48.666203422625316
 10
254.80095606220482
 20
48.89722822314717
 10
254.3319732863324
 20
49.03949259287703
 10
253.8442474812921
 20
49.087529391868955
 10
253.35652167625176
 20
49.03949259287703
 10
252.88753890037935
 20
48.897228223147174
 10
252.45532189874308
 20
48.66620342262532
 10
252.07648052832573
 20
48.35529634483533
 10
251.76557345053573
 20
47.97645497441797
 10
251.53454865001387
 20
47.54423797278169
 10
251.392284280284
 20
47.07525519690928
 10
251.3442474812921
 20
46.587529391868955
  0
LWPOLYLINE
  5
52
330
17
100
AcDbEntity
  8
0
100
AcDbPolyline
 90
274
 70
0
 10
234.73760685629208
 20
-74.96793935813105
 10
234.2985443562921
 20
-74.90934560813105
 10
234.2823256062921
 20
-74.98194717063105
 10
234.26398185629208
 20
-75.05037685813105
 10
234.24351310629208
 20
-75.11463467063105
 10
234.2209193562921
 20
-75.17472060813104
 10
234.19620060629208
 20
-75.23063467063105
 10
234.1693568562921
 20
-75.28237685813104
 10
234.14038810629208
 20
-75.32994717063104
 10
234.10929435629208
 20
-75.37334560813105
 10
234.07607560629208
 20
-75.41257217063105
 10
234.0407318562921
 20
-75.44762685813104
 10
234.00353654379208
 20
-75.47894717063105
 10
233.96476310629208
 20
-75.50697060813104
 10
233.92441154379208
 20
-75.53169717063105
 10
233.8824818562921
 20
-75.55312685813105
 10
233.8389740437921
 20
-75.57125967063105
 10
233.7938881062921
 20
-75.58609560813105
 10
233.74722404379207
 20
-75.59763467063104
 10
233.69898185629208
 20
-75.60587685813104
 10
233.6491615437921
 20
-75.61082217063104
 10
233.5977631062921
 20
-75.61247060813105
 10
233.53670060629207
 20
-75.61032217063105
 10
233.47757560629208
 20
-75.60387685813104
 10
233.42038810629208
 20
-75.59313467063104
 10
233.36513810629208
 20
-75.57809560813105
 10
233.31182560629208
 20
-75.55875967063105
 10
233.26045060629207
 20
-75.53512685813105
 10
233.21101310629209
 20
-75.50719717063104
 10
233.1635131062921
 20
-75.47497060813104
 10
233.11795060629208
 20
-75.43844717063105
 10
233.0743256062921
 20
-75.39762685813105
 10
233.03365373129208
 20
-75.35362685813105
 10
232.99726310629208
 20
-75.30756435813105
 10
232.96515373129208
 20
-75.25943935813105
 10
232.9373256062921
 20
-75.20925185813104
 10
232.9137787312921
 20
-75.15700185813104
 10
232.8945131062921
 20
-75.10268935813104
 10
232.87952873129208
 20
-75.04631435813104
 10
232.8688256062921
 20
-74.98787685813105
 10
232.8624037312921
 20
-74.92737685813104
 10
232.86026310629208
 20
-74.86481435813104
 10
232.86223966879209
 20
-74.80540810813105
 10
232.86816935629207
 20
-74.74812685813104
 10
232.8780521687921
 20
-74.69297060813105
 10
232.89188810629207
 20
-74.63993935813104
 10
232.9096771687921
 20
-74.58903310813105
 10
232.93141935629208
 20
-74.54025185813104
 10
232.9571146687921
 20
-74.49359560813105
 10
232.98676310629207
 20
-74.44906435813104
 10
233.02036466879207
 20
-74.40665810813104
 10
233.05791935629208
 20
-74.36637685813105
 10
233.09852873129208
 20
-74.32897060813104
 10
233.14129435629206
 20
-74.29550185813105
 10
233.1862162312921
 20
-74.26597060813104
 10
233.23329435629208
 20
-74.24037685813104
 10
233.28252873129208
 20
-74.21872060813105
 10
233.33391935629209
 20
-74.20100185813105
 10
233.38746623129208
 20
-74.18722060813104
 10
233.4431693562921
 20
-74.17737685813104
 10
233.50102873129208
 20
-74.17147060813105
 10
233.5610443562921
 20
-74.16950185813104
 10
233.58650529379207
 20
-74.16998623313104
 10
233.61320060629208
 20
-74.17143935813104
 10
233.6411302937921
 20
-74.17386123313105
 10
233.6702943562921
 20
-74.17725185813104
 10
233.7006927937921
 20
-74.18161123313105
 10
233.73232560629208
 20
-74.18693935813104
 10
233.7651927937921
 20
-74.19323623313105
 10
233.79929435629208
 20
-74.20050185813105
 10
233.8346302937921
 20
-74.20873623313105
 10
233.8712006062921
 20
-74.21793935813105
 10
233.8219818562921
 20
-73.83200185813105
 10
233.81340373129208
 20
-73.83304092063105
 10
233.80516935629208
 20
-73.83397060813104
 10
233.79727873129207
 20
-73.83479092063105
 10
233.7897318562921
 20
-73.83550185813104
 10
233.78252873129208
 20
-73.83610342063105
 10
233.7756693562921
 20
-73.83659560813105
 10
233.76915373129208
 20
-73.83697842063104
 10
233.76298185629207
 20
-73.83725185813104
 10
233.75715373129208
 20
-73.83741592063105
 10
233.7516693562921
 20
-73.83747060813104
 10
233.6959896687921
 20
-73.83600967063104
 10
233.6414506062921
 20
-73.83162685813105
 10
233.5880521687921
 20
-73.82432217063105
 10
233.5357943562921
 20
-73.81409560813104
 10
233.48467716879208
 20
-73.80094717063105
 10
233.4347006062921
 20
-73.78487685813104
 10
233.3858646687921
 20
-73.76588467063104
 10
233.3381693562921
 20
-73.74397060813105
 10
233.29161466879208
 20
-73.71913467063105
 10
233.2462006062921
 20
-73.69137685813105
 10
233.20345060629208
 20
-73.66041592063104
 10
233.16520060629207
 20
-73.62628310813105
 10
233.13145060629208
 20
-73.58897842063105
 10
233.1022006062921
 20
-73.54850185813105
 10
233.07745060629208
 20
-73.50485342063105
 10
233.0572006062921
 20
-73.45803310813105
 10
233.04145060629207
 20
-73.40804092063104
 10
233.03020060629208
 20
-73.35487685813105
 10
233.0234506062921
 20
-73.29854092063104
 10
233.0212006062921
 20
-73.23903310813104
 10
233.0228412312921
 20
-73.19157998313105
 10
233.02776310629207
 20
-73.14578310813104
 10
233.0359662312921
 20
-73.10164248313104
 10
233.0474506062921
 20
-73.05915810813104
 10
233.0622162312921
 20
-73.01832998313104
 10
233.08026310629208
 20
-72.97915810813105
 10
233.1015912312921
 20
-72.94164248313105
 10
233.1262006062921
 20
-72.90578310813105
 10
233.15409123129209
 20
-72.87157998313104
 10
233.1852631062921
 20
-72.83903310813105
 10
233.21887248129207
 20
-72.80875185813105
 10
233.25438810629208
 20
-72.78165810813104
 10
233.2918099812921
 20
-72.75775185813104
 10
233.3311381062921
 20
-72.73703310813104
 10
233.37237248129208
 20
-72.71950185813104
 10
233.41551310629208
 20
-72.70515810813104
 10
233.46055998129208
 20
-72.69400185813105
 10
233.5075131062921
 20
-72.68603310813104
 10
233.5563724812921
 20
-72.68125185813105
 10
233.6071381062921
 20
-72.67965810813105
 10
233.65753654379208
 20
-72.68127529563104
 10
233.70623185629208
 20
-72.68612685813105
 10
233.7532240437921
 20
-72.69421279563105
 10
233.7985131062921
 20
-72.70553310813105
 10
233.84209904379208
 20
-72.72008779563104
 10
233.88398185629208
 20
-72.73787685813105
 10
233.92416154379208
 20
-72.75890029563105
 10
233.96263810629208
 20
-72.78315810813105
 10
233.9994115437921
 20
-72.81065029563105
 10
234.03448185629208
 20
-72.84137685813104
 10
234.0674740437921
 20
-72.87517373313105
 10
234.0980131062921
 20
-72.91218935813104
 10
234.1260990437921
 20
-72.95242373313104
 10
234.1517318562921
 20
-72.99587685813104
 10
234.1749115437921
 20
-73.04254873313104
 10
234.19563810629208
 20
-73.09243935813105
 10
234.21391154379208
 20
-73.14554873313105
 10
234.2297318562921
 20
-73.20187685813104
 10
234.24309904379209
 20
-73.26142373313104
 10
234.2540131062921
 20
-73.32418935813105
 10
234.6938568562921
 20
-73.24606435813105
 10
234.67571623129209
 20
-73.15976748313105
 10
234.65348185629207
 20
-73.07743935813104
 10
234.62715373129208
 20
-72.99907998313104
 10
234.59673185629208
 20
-72.92468935813105
 10
234.5622162312921
 20
-72.85426748313104
 10
234.52360685629208
 20
-72.78781435813104
 10
234.48090373129207
 20
-72.72532998313105
 10
234.4341068562921
 20
-72.66681435813105
 10
234.38321623129207
 20
-72.61226748313105
 10
234.3282318562921
 20
-72.56168935813105
 10
234.26965373129207
 20
-72.51552529563105
 10
234.20829435629207
 20
-72.47422060813105
 10
234.14415373129208
 20
-72.43777529563104
 10
234.0772318562921
 20
-72.40618935813104
 10
234.0075287312921
 20
-72.37946279563104
 10
233.93504435629208
 20
-72.35759560813105
 10
233.85977873129207
 20
-72.34058779563105
 10
233.78173185629208
 20
-72.32843935813105
 10
233.7009037312921
 20
-72.32115029563104
 10
233.6172943562921
 20
-72.31872060813104
 10
233.5591693562921
 20
-72.31997842063105
 10
233.50198185629208
 20
-72.32375185813105
 10
233.44573185629207
 20
-72.33004092063105
 10
233.39041935629209
 20
-72.33884560813104
 10
233.3360443562921
 20
-72.35016592063104
 10
233.2826068562921
 20
-72.36400185813105
 10
233.23010685629208
 20
-72.38035342063104
 10
233.1785443562921
 20
-72.39922060813105
 10
233.12791935629207
 20
-72.42060342063104
 10
233.0782318562921
 20
-72.44450185813105
 10
233.03002091879208
 20
-72.47057217063104
 10
232.98413810629208
 20
-72.49847060813104
 10
232.94058341879207
 20
-72.52819717063105
 10
232.8993568562921
 20
-72.55975185813105
 10
232.8604584187921
 20
-72.59313467063104
 10
232.8238881062921
 20
-72.62834560813104
 10
232.78964591879208
 20
-72.66538467063104
 10
232.75773185629208
 20
-72.70425185813104
 10
232.72814591879208
 20
-72.74494717063105
 10
232.7008881062921
 20
-72.78747060813104
 10
232.67595060629208
 20
-72.83118154563104
 10
232.65363810629208
 20
-72.87543935813105
 10
232.6339506062921
 20
-72.92024404563105
 10
232.6168881062921
 20
-72.96559560813104
 10
232.60245060629208
 20
-73.01149404563104
 10
232.5906381062921
 20
-73.05793935813105
 10
232.5814506062921
 20
-73.10493154563105
 10
232.5748881062921
 20
-73.15247060813104
 10
232.5709506062921
 20
-73.20055654563104
 10
232.56963810629208
 20
-73.24918935813105
 10
232.5708881062921
 20
-73.29503310813105
 10
232.57463810629207
 20
-73.34006435813104
 10
232.5808881062921
 20
-73.38428310813104
 10
232.58963810629209
 20
-73.42768935813105
 10
232.60088810629208
 20
-73.47028310813104
 10
232.6146381062921
 20
-73.51206435813104
 10
232.6308881062921
 20
-73.55303310813105
 10
232.6496381062921
 20
-73.59318935813104
 10
232.67088810629207
 20
-73.63253310813104
 10
232.69463810629208
 20
-73.67106435813105
 10
232.7206771687921
 20
-73.70840810813104
 10
232.7491068562921
 20
-73.74418935813104
 10
232.77992716879209
 20
-73.77840810813105
 10
232.8131381062921
 20
-73.81106435813105
 10
232.8487396687921
 20
-73.84215810813104
 10
232.8867318562921
 20
-73.87168935813105
 10
232.9271146687921
 20
-73.89965810813105
 10
232.9698881062921
 20
-73.92606435813104
 10
233.01505216879207
 20
-73.95090810813105
 10
233.0626068562921
 20
-73.97418935813104
 10
233.00058341879208
 20
-73.99030654563104
 10
232.9413881062921
 20
-74.00959560813105
 10
232.8850209187921
 20
-74.03205654563105
 10
232.8314818562921
 20
-74.05768935813104
 10
232.7807709187921
 20
-74.08649404563104
 10
232.73288810629208
 20
-74.11847060813105
 10
232.68783341879208
 20
-74.15361904563105
 10
232.6456068562921
 20
-74.19193935813105
 10
232.60620841879208
 20
-74.23343154563105
 10
232.56963810629208
 20
-74.27809560813104
 10
232.53623966879206
 20
-74.32535342063105
 10
232.5063568562921
 20
-74.37493935813104
 10
232.4799896687921
 20
-74.42685342063105
 10
232.4571381062921
 20
-74.48109560813104
 10
232.43780216879208
 20
-74.53766592063104
 10
232.4219818562921
 20
-74.59656435813105
 10
232.4096771687921
 20
-74.65779092063104
 10
232.4008881062921
 20
-74.72134560813105
 10
232.3956146687921
 20
-74.78722842063104
 10
232.39385685629208
 20
-74.85543935813105
 10
232.3972787312921
 20
-74.94775967063104
 10
232.40754435629208
 20
-75.03722060813105
 10
232.4246537312921
 20
-75.12382217063104
 10
232.4486068562921
 20
-75.20756435813105
 10
232.47940373129208
 20
-75.28844717063104
 10
232.5170443562921
 20
-75.36647060813104
 10
232.56152873129207
 20
-75.44163467063105
 10
232.61285685629207
 20
-75.51393935813104
 10
232.6710287312921
 20
-75.58338467063105
 10
232.7360443562921
 20
-75.64997060813104
 10
232.80613810629208
 20
-75.71186904563105
 10
232.8798568562921
 20
-75.76725185813105
 10
232.95720060629208
 20
-75.81611904563104
 10
233.0381693562921
 20
-75.85847060813104
 10
233.1227631062921
 20
-75.89430654563104
 10
233.21098185629208
 20
-75.92362685813104
 10
233.3028256062921
 20
-75.94643154563104
 10
233.39829435629207
 20
-75.96272060813105
 10
233.49738810629208
 20
-75.97249404563105
 10
233.6001068562921
 20
-75.97575185813105
 10
233.69273185629208
 20
-75.97294717063104
 10
233.7821693562921
 20
-75.96453310813105
 10
233.8684193562921
 20
-75.95050967063105
 10
233.95148185629208
 20
-75.93087685813104
 10
234.0313568562921
 20
-75.90563467063104
 10
234.10804435629208
 20
-75.87478310813104
 10
234.18154435629208
 20
-75.83832217063105
 10
234.25185685629208
 20
-75.79625185813104
 10
234.31898185629208
 20
-75.74857217063105
 10
234.3829193562921
 20
-75.69528310813105
 10
234.44243498129208
 20
-75.63738467063105
 10
234.4966068562921
 20
-75.57618935813105
 10
234.5454349812921
 20
-75.51169717063104
 10
234.58891935629208
 20
-75.44390810813104
 10
234.6270599812921
 20
-75.37282217063104
 10
234.6598568562921
 20
-75.29843935813105
 10
234.6873099812921
 20
-75.22075967063104
 10
234.70941935629207
 20
-75.13978310813104
 10
234.72618498129208
 20
-75.05550967063104
 10
234.73760685629208
 20
-74.96793935813105
  0
LWPOLYLINE
  5
53
330
17
100
AcDbEntity
  8
0
100
AcDbPolyline
 90
7
 70
0
 10
248.47784123129208
 20
-75.91247060813104
 10
248.47784123129208
 20
-72.33356435813104
 10
248.0044037312921
 20
-72.33356435813104
 10
248.0044037312921
 20
-75.48981435813104
 10
246.2419037312921
 20
-75.48981435813104
 10
246.2419037312921
 20
-75.91247060813104
 10
248.47784123129208
 20
-75.91247060813104
  0
LWPOLYLINE
  5
54
330
17
100
AcDbEntity
  8
0
100
AcDbPolyline
 90
77
 70
0
 10
237.6769623250421
 20
-75.91247060813104
 10
237.6769623250421
 20
-73.31950185813105
 10
237.28164982504208
 20
-73.31950185813105
 10
237.28164982504208
 20
-73.71247060813104
 10
237.2515717000421
 20
-73.65919717063105
 10
237.22196232504209
 20
-73.60968935813105
 10
237.1928217000421
 20
-73.56394717063104
 10
237.1641498250421
 20
-73.52197060813104
 10
237.1359467000421
 20
-73.48375967063104
 10
237.10821232504208
 20
-73.44931435813105
 10
237.0809467000421
 20
-73.41863467063105
 10
237.0541498250421
 20
-73.39172060813104
 10
237.02782170004207
 20
-73.36857217063104
 10
237.0019623250421
 20
-73.34918935813104
 10
236.97607951254207
 20
-73.33241592063105
 10
236.94968107504207
 20
-73.31740810813105
 10
236.92276701254207
 20
-73.30416592063105
 10
236.89533732504208
 20
-73.29268935813104
 10
236.8673920125421
 20
-73.28297842063104
 10
236.83893107504207
 20
-73.27503310813104
 10
236.80995451254208
 20
-73.26885342063105
 10
236.7804623250421
 20
-73.26443935813104
 10
236.7504545125421
 20
-73.26179092063104
 10
236.7199310750421
 20
-73.26090810813105
 10
236.67547795004208
 20
-73.26232217063104
 10
236.6308685750421
 20
-73.26656435813105
 10
236.5861029500421
 20
-73.27363467063104
 10
236.5411810750421
 20
-73.28353310813104
 10
236.4961029500421
 20
-73.29625967063104
 10
236.45086857504208
 20
-73.31181435813104
 10
236.4054779500421
 20
-73.33019717063104
 10
236.35993107504208
 20
-73.35140810813104
 10
236.3142279500421
 20
-73.37544717063105
 10
236.26836857504208
 20
-73.40231435813105
 10
236.4199310750421
 20
-73.81012685813104
 10
236.45211857504208
 20
-73.79201748313105
 10
236.48430607504207
 20
-73.77581435813104
 10
236.5164935750421
 20
-73.76151748313104
 10
236.54868107504208
 20
-73.74912685813105
 10
236.58086857504208
 20
-73.73864248313104
 10
236.6130560750421
 20
-73.73006435813105
 10
236.6452435750421
 20
-73.72339248313105
 10
236.67743107504208
 20
-73.71862685813105
 10
236.7096185750421
 20
-73.71576748313105
 10
236.7418060750421
 20
-73.71481435813105
 10
236.7704154500421
 20
-73.71568154563104
 10
236.7984310750421
 20
-73.71828310813105
 10
236.82585295004208
 20
-73.72261904563105
 10
236.85268107504209
 20
-73.72868935813105
 10
236.8789154500421
 20
-73.73649404563105
 10
236.90455607504208
 20
-73.74603310813104
 10
236.92960295004207
 20
-73.75730654563104
 10
236.95405607504208
 20
-73.77031435813105
 10
236.97791545004208
 20
-73.78505654563105
 10
237.0011810750421
 20
-73.80153310813104
 10
237.0234857625421
 20
-73.81954873313104
 10
237.04446232504208
 20
-73.83890810813105
 10
237.0641107625421
 20
-73.85961123313105
 10
237.08243107504208
 20
-73.88165810813105
 10
237.09942326254208
 20
-73.90504873313104
 10
237.11508732504208
 20
-73.92978310813105
 10
237.1294232625421
 20
-73.95586123313105
 10
237.14243107504208
 20
-73.98328310813105
 10
237.15411076254208
 20
-74.01204873313104
 10
237.16446232504208
 20
-74.04215810813105
 10
237.17841545004208
 20
-74.08947060813105
 10
237.1908998250421
 20
-74.13765810813105
 10
237.2019154500421
 20
-74.18672060813104
 10
237.21146232504208
 20
-74.23665810813104
 10
237.21954045004208
 20
-74.28747060813104
 10
237.22614982504209
 20
-74.33915810813104
 10
237.23129045004208
 20
-74.39172060813104
 10
237.2349623250421
 20
-74.44515810813104
 10
237.23716545004208
 20
-74.49947060813105
 10
237.2378998250421
 20
-74.55465810813105
 10
237.2378998250421
 20
-75.91247060813104
 10
237.6769623250421
 20
-75.91247060813104
  0
LWPOLYLINE
  5
55
330
17
100
AcDbEntity
  8
0
100
AcDbPolyline
 90
133
 70
0
 10
238.67803654379208
 20
-75.07731435813105
 10
238.2241302937921
 20
-75.13356435813104
 10
238.24737248129208
 20
-75.21132217063105
 10
238.27428654379207
 20
-75.28553310813105
 10
238.30487248129208
 20
-75.35619717063105
 10
238.3391302937921
 20
-75.42331435813105
 10
238.3770599812921
 20
-75.48688467063104
 10
238.4186615437921
 20
-75.54690810813105
 10
238.46393498129208
 20
-75.60338467063104
 10
238.51288029379208
 20
-75.65631435813104
 10
238.56549748129208
 20
-75.70569717063104
 10
238.6217865437921
 20
-75.75153310813104
 10
238.6815209187921
 20
-75.79324404563104
 10
238.74447404379208
 20
-75.83056435813104
 10
238.8106459187921
 20
-75.86349404563104
 10
238.88003654379207
 20
-75.89203310813105
 10
238.9526459187921
 20
-75.91618154563105
 10
239.02847404379207
 20
-75.93593935813105
 10
239.1075209187921
 20
-75.95130654563104
 10
239.18978654379208
 20
-75.96228310813105
 10
239.2752709187921
 20
-75.96886904563104
 10
239.3639740437921
 20
-75.97106435813104
 10
239.47537248129208
 20
-75.96756435813104
 10
239.58206779379208
 20
-75.95706435813105
 10
239.68405998129208
 20
-75.93956435813105
 10
239.7813490437921
 20
-75.91506435813105
 10
239.87393498129208
 20
-75.88356435813104
 10
239.96181779379208
 20
-75.84506435813104
 10
240.04499748129209
 20
-75.79956435813105
 10
240.1234740437921
 20
-75.74706435813104
 10
240.1972474812921
 20
-75.68756435813104
 10
240.2663177937921
 20
-75.62106435813105
 10
240.32970060629208
 20
-75.54809560813105
 10
240.3864115437921
 20
-75.46950185813104
 10
240.43645060629208
 20
-75.38528310813105
 10
240.47981779379208
 20
-75.29543935813105
 10
240.51651310629208
 20
-75.19997060813104
 10
240.5465365437921
 20
-75.09887685813105
 10
240.56988810629207
 20
-74.99215810813105
 10
240.58656779379209
 20
-74.87981435813104
 10
240.59657560629208
 20
-74.76184560813104
 10
240.59991154379208
 20
-74.63825185813104
 10
240.5965443562921
 20
-74.51025185813104
 10
240.5864427937921
 20
-74.38812685813105
 10
240.56960685629207
 20
-74.27187685813105
 10
240.54603654379207
 20
-74.16150185813105
 10
240.5157318562921
 20
-74.05700185813104
 10
240.47869279379208
 20
-73.95837685813105
 10
240.43491935629208
 20
-73.86562685813105
 10
240.38441154379208
 20
-73.77875185813105
 10
240.32716935629207
 20
-73.69775185813104
 10
240.2631927937921
 20
-73.62262685813104
 10
240.19370060629208
 20
-73.55390029563104
 10
240.1202240437921
 20
-73.49240810813104
 10
240.04276310629209
 20
-73.43815029563105
 10
239.9613177937921
 20
-73.39112685813105
 10
239.87588810629208
 20
-73.35133779563104
 10
239.78647404379208
 20
-73.31878310813104
 10
239.6930756062921
 20
-73.29346279563104
 10
239.59569279379207
 20
-73.27537685813104
 10
239.49432560629208
 20
-73.26452529563105
 10
239.38897404379208
 20
-73.26090810813105
 10
239.28681779379207
 20
-73.26444717063104
 10
239.1884740437921
 20
-73.27506435813105
 10
239.09394279379208
 20
-73.29275967063104
 10
239.0032240437921
 20
-73.31753310813104
 10
238.91631779379208
 20
-73.34938467063104
 10
238.8332240437921
 20
-73.38831435813104
 10
238.75394279379208
 20
-73.43432217063105
 10
238.67847404379208
 20
-73.48740810813105
 10
238.6068177937921
 20
-73.54757217063104
 10
238.53897404379208
 20
-73.61481435813104
 10
238.47633341879208
 20
-73.68847842063104
 10
238.4202865437921
 20
-73.76790810813104
 10
238.37083341879207
 20
-73.85310342063104
 10
238.3279740437921
 20
-73.94406435813104
 10
238.2917084187921
 20
-74.04079092063104
 10
238.26203654379208
 20
-74.14328310813104
 10
238.2389584187921
 20
-74.25154092063104
 10
238.2224740437921
 20
-74.36556435813104
 10
238.2125834187921
 20
-74.48535342063104
 10
238.20928654379208
 20
-74.61090810813104
 10
238.20930998129208
 20
-74.61911123313105
 10
238.2093802937921
 20
-74.62809560813105
 10
238.2094974812921
 20
-74.63786123313105
 10
238.2096615437921
 20
-74.64840810813105
 10
238.20987248129208
 20
-74.65973623313104
 10
238.21013029379208
 20
-74.67184560813105
 10
238.21043498129208
 20
-74.68473623313105
 10
238.2107865437921
 20
-74.69840810813105
 10
238.2111849812921
 20
-74.71286123313105
 10
238.2116302937921
 20
-74.72809560813104
 10
240.1452240437921
 20
-74.72809560813104
 10
240.13845060629208
 20
-74.81156435813105
 10
240.12781779379208
 20
-74.89103310813104
 10
240.11332560629208
 20
-74.96650185813104
 10
240.0949740437921
 20
-75.03797060813105
 10
240.0727631062921
 20
-75.10543935813105
 10
240.0466927937921
 20
-75.16890810813105
 10
240.0167631062921
 20
-75.22837685813104
 10
239.98297404379207
 20
-75.28384560813105
 10
239.9453256062921
 20
-75.33531435813104
 10
239.9038177937921
 20
-75.38278310813105
 10
239.85930216879208
 20
-75.42582998313104
 10
239.8126302937921
 20
-75.46434560813104
 10
239.7638021687921
 20
-75.49832998313104
 10
239.71281779379208
 20
-75.52778310813105
 10
239.6596771687921
 20
-75.55270498313105
 10
239.60438029379208
 20
-75.57309560813104
 10
239.54692716879208
 20
-75.58895498313105
 10
239.4873177937921
 20
-75.60028310813105
 10
239.42555216879208
 20
-75.60707998313104
 10
239.36163029379208
 20
-75.60934560813105
 10
239.3140521687921
 20
-75.60807998313105
 10
239.26788029379208
 20
-75.60428310813104
 10
239.22311466879208
 20
-75.59795498313105
 10
239.17975529379208
 20
-75.58909560813105
 10
239.1378021687921
 20
-75.57770498313104
 10
239.0972552937921
 20
-75.56378310813105
 10
239.0581146687921
 20
-75.54732998313105
 10
239.02038029379207
 20
-75.52834560813105
 10
238.9840521687921
 20
-75.50682998313104
 10
238.94913029379208
 20
-75.48278310813104
 10
238.91562248129208
 20
-75.45580654563105
 10
238.88353654379208
 20
-75.42581435813105
 10
238.85287248129208
 20
-75.39280654563105
 10
238.8236302937921
 20
-75.35678310813104
 10
238.79580998129208
 20
-75.31774404563104
 10
238.7694115437921
 20
-75.27568935813105
 10
238.7444349812921
 20
-75.23061904563104
 10
238.72088029379208
 20
-75.18253310813104
 10
238.6987474812921
 20
-75.13143154563105
 10
238.67803654379208
 20
-75.07731435813105
  0
LWPOLYLINE
  5
56
330
17
100
AcDbEntity
  8
0
100
AcDbPolyline
 90
244
 70
0
 10
244.0416107625421
 20
-75.59293935813105
 10
244.0903295125421
 20
-75.63313467063105
 10
244.13867326254208
 20
-75.67090810813104
 10
244.18664201254208
 20
-75.70625967063104
 10
244.23423576254208
 20
-75.73918935813104
 10
244.2814545125421
 20
-75.76969717063105
 10
244.3282982625421
 20
-75.79778310813104
 10
244.3747670125421
 20
-75.82344717063104
 10
244.42086076254208
 20
-75.84668935813104
 10
244.46657951254207
 20
-75.86750967063105
 10
244.5119232625421
 20
-75.88590810813105
 10
244.5574076375421
 20
-75.90208779563105
 10
244.6035482625421
 20
-75.91656435813104
 10
244.6503451375421
 20
-75.92933779563104
 10
244.69779826254208
 20
-75.94040810813104
 10
244.74590763754208
 20
-75.94977529563104
 10
244.7946732625421
 20
-75.95743935813104
 10
244.84409513754207
 20
-75.96340029563105
 10
244.8941732625421
 20
-75.96765810813105
 10
244.9449076375421
 20
-75.97021279563104
 10
244.9962982625421
 20
-75.97106435813104
 10
245.07979045004208
 20
-75.96897842063105
 10
245.1593295125421
 20
-75.96272060813105
 10
245.23491545004208
 20
-75.95229092063104
 10
245.3065482625421
 20
-75.93768935813104
 10
245.3742279500421
 20
-75.91891592063105
 10
245.4379545125421
 20
-75.89597060813105
 10
245.49772795004208
 20
-75.86885342063104
 10
245.55354826254208
 20
-75.83756435813105
 10
245.60541545004207
 20
-75.80210342063104
 10
245.6533295125421
 20
-75.76247060813104
 10
245.69697013754208
 20
-75.71958779563104
 10
245.73601701254208
 20
-75.67437685813104
 10
245.77047013754208
 20
-75.62683779563105
 10
245.80032951254208
 20
-75.57697060813105
 10
245.82559513754208
 20
-75.52477529563104
 10
245.84626701254209
 20
-75.47025185813105
 10
245.8623451375421
 20
-75.41340029563105
 10
245.8738295125421
 20
-75.35422060813104
 10
245.88072013754208
 20
-75.29271279563105
 10
245.8830170125421
 20
-75.22887685813104
 10
245.8821498250421
 20
-75.19108779563105
 10
245.87954826254207
 20
-75.15397060813105
 10
245.87521232504207
 20
-75.11752529563104
 10
245.86914201254208
 20
-75.08175185813104
 10
245.8613373250421
 20
-75.04665029563104
 10
245.8517982625421
 20
-75.01222060813105
 10
245.84052482504208
 20
-74.97846279563105
 10
245.8275170125421
 20
-74.94537685813104
 10
245.81277482504208
 20
-74.91296279563105
 10
245.79629826254208
 20
-74.88122060813104
 10
245.77841545004208
 20
-74.85028310813105
 10
245.75945451254208
 20
-74.82059560813104
 10
245.7394154500421
 20
-74.79215810813105
 10
245.71829826254208
 20
-74.76497060813105
 10
245.69610295004208
 20
-74.73903310813104
 10
245.67282951254208
 20
-74.71434560813104
 10
245.6484779500421
 20
-74.69090810813104
 10
245.62304826254208
 20
-74.66872060813104
 10
245.59654045004208
 20
-74.64778310813105
 10
245.5689545125421
 20
-74.62809560813105
 10
245.5404779500421
 20
-74.60950185813104
 10
245.51129826254208
 20
-74.59184560813104
 10
245.48141545004208
 20
-74.57512685813104
 10
245.4508295125421
 20
-74.55934560813104
 10
245.4195404500421
 20
-74.54450185813104
 10
245.38754826254208
 20
-74.53059560813105
 10
245.35485295004207
 20
-74.51762685813104
 10
245.3214545125421
 20
-74.50559560813105
 10
245.28735295004208
 20
-74.49450185813104
 10
245.2525482625421
 20
-74.48434560813105
 10
245.22543888754208
 20
-74.47749404563105
 10
245.19567326254207
 20
-74.47068935813104
 10
245.1632513875421
 20
-74.46393154563104
 10
245.12817326254208
 20
-74.45722060813104
 10
245.0904388875421
 20
-74.45055654563104
 10
245.05004826254208
 20
-74.44393935813105
 10
245.0070013875421
 20
-74.43736904563104
 10
244.96129826254207
 20
-74.43084560813105
 10
244.91293888754208
 20
-74.42436904563104
 10
244.8619232625421
 20
-74.41793935813105
 10
244.75832170004207
 20
-74.40504092063105
 10
244.6603295125421
 20
-74.39165810813104
 10
244.56794670004209
 20
-74.37779092063104
 10
244.4811732625421
 20
-74.36343935813105
 10
244.4000092000421
 20
-74.34860342063105
 10
244.3244545125421
 20
-74.33328310813104
 10
244.2545092000421
 20
-74.31747842063105
 10
244.1901732625421
 20
-74.30118935813104
 10
244.1314467000421
 20
-74.28441592063105
 10
244.0783295125421
 20
-74.26715810813104
 10
244.0778842000421
 20
-74.24969717063104
 10
244.0774857625421
 20
-74.23356435813105
 10
244.07713420004208
 20
-74.21875967063104
 10
244.07682951254208
 20
-74.20528310813104
 10
244.07657170004208
 20
-74.19313467063104
 10
244.0763607625421
 20
-74.18231435813104
 10
244.0761967000421
 20
-74.17282217063105
 10
244.0760795125421
 20
-74.16465810813105
 10
244.07600920004208
 20
-74.15782217063105
 10
244.07598576254208
 20
-74.15231435813105
 10
244.0772357625421
 20
-74.10015029563104
 10
244.08098576254207
 20
-74.05115810813105
 10
244.0872357625421
 20
-74.00533779563105
 10
244.09598576254209
 20
-73.96268935813104
 10
244.10723576254208
 20
-73.92321279563104
 10
244.1209857625421
 20
-73.88690810813104
 10
244.1372357625421
 20
-73.85377529563104
 10
244.1559857625421
 20
-73.82381435813105
 10
244.17723576254207
 20
-73.79702529563104
 10
244.20098576254208
 20
-73.77340810813105
 10
244.2362201375421
 20
-73.74520498313105
 10
244.2747357625421
 20
-73.71997060813105
 10
244.31653263754208
 20
-73.69770498313105
 10
244.36161076254209
 20
-73.67840810813104
 10
244.40997013754208
 20
-73.66207998313105
 10
244.46161076254208
 20
-73.64872060813104
 10
244.51653263754207
 20
-73.63832998313104
 10
244.5747357625421
 20
-73.63090810813104
 10
244.6362201375421
 20
-73.62645498313104
 10
244.70098576254208
 20
-73.62497060813105
 10
244.7613920125421
 20
-73.62605654563104
 10
244.8185482625421
 20
-73.62931435813104
 10
244.87245451254208
 20
-73.63474404563104
 10
244.92311076254208
 20
-73.64234560813105
 10
244.97051701254208
 20
-73.65211904563104
 10
245.0146732625421
 20
-73.66406435813104
 10
245.0555795125421
 20
-73.67818154563105
 10
245.0932357625421
 20
-73.69447060813104
 10
245.12764201254208
 20
-73.71293154563105
 10
245.1587982625421
 20
-73.73356435813105
 10
245.18756388754207
 20
-73.75695498313104
 10
245.21479826254208
 20
-73.78368935813104
 10
245.24050138754208
 20
-73.81376748313104
 10
245.2646732625421
 20
-73.84718935813105
 10
245.2873138875421
 20
-73.88395498313105
 10
245.30842326254208
 20
-73.92406435813105
 10
245.3280013875421
 20
-73.96751748313105
 10
245.34604826254207
 20
-74.01431435813105
 10
245.36256388754208
 20
-74.06445498313104
 10
245.3775482625421
 20
-74.11793935813104
 10
245.8072357625421
 20
-74.05934560813104
 10
245.79475920004208
 20
-74.00525185813105
 10
245.78076701254207
 20
-73.95328310813105
 10
245.7652592000421
 20
-73.90343935813104
 10
245.7482357625421
 20
-73.85572060813105
 10
245.7296967000421
 20
-73.81012685813104
 10
245.70964201254208
 20
-73.76665810813104
 10
245.6880717000421
 20
-73.72531435813104
 10
245.66498576254207
 20
-73.68609560813104
 10
245.6403842000421
 20
-73.64900185813104
 10
245.6142670125421
 20
-73.61403310813104
 10
245.58619670004208
 20
-73.58090810813104
 10
245.5557357625421
 20
-73.54934560813105
 10
245.52288420004209
 20
-73.51934560813105
 10
245.4876420125421
 20
-73.49090810813105
 10
245.45000920004208
 20
-73.46403310813105
 10
245.40998576254208
 20
-73.43872060813105
 10
245.36757170004208
 20
-73.41497060813104
 10
245.3227670125421
 20
-73.39278310813104
 10
245.2755717000421
 20
-73.37215810813105
 10
245.22598576254208
 20
-73.35309560813104
 10
245.1743998250421
 20
-73.33557998313104
 10
245.12120451254208
 20
-73.31990810813105
 10
245.06639982504208
 20
-73.30607998313104
 10
245.0099857625421
 20
-73.29409560813104
 10
244.95196232504208
 20
-73.28395498313104
 10
244.8923295125421
 20
-73.27565810813104
 10
244.8310873250421
 20
-73.26920498313105
 10
244.76823576254208
 20
-73.26459560813105
 10
244.7037748250421
 20
-73.26182998313105
 10
244.6377045125421
 20
-73.26090810813105
 10
244.57254826254209
 20
-73.26168935813105
 10
244.50989201254208
 20
-73.26403310813104
 10
244.44973576254208
 20
-73.26793935813104
 10
244.39207951254207
 20
-73.27340810813105
 10
244.3369232625421
 20
-73.28043935813105
 10
244.2842670125421
 20
-73.28903310813105
 10
244.2341107625421
 20
-73.29918935813104
 10
244.18645451254207
 20
-73.31090810813104
 10
244.14129826254208
 20
-73.32418935813105
 10
244.0986420125421
 20
-73.33903310813105
 10
244.05818107504209
 20
-73.35506435813105
 10
244.01992326254208
 20
-73.37190810813104
 10
243.9838685750421
 20
-73.38956435813104
 10
243.95001701254208
 20
-73.40803310813105
 10
243.91836857504208
 20
-73.42731435813104
 10
243.88892326254208
 20
-73.44740810813104
 10
243.8616810750421
 20
-73.46831435813104
 10
243.8366420125421
 20
-73.49003310813104
 10
243.8138060750421
 20
-73.51256435813104
 10
243.7931732625421
 20
-73.53590810813104
 10
243.77422795004208
 20
-73.56013467063104
 10
243.7564545125421
 20
-73.58562685813105
 10
243.7398529500421
 20
-73.61238467063104
 10
243.72442326254208
 20
-73.64040810813104
 10
243.7101654500421
 20
-73.66969717063104
 10
243.69707951254208
 20
-73.70025185813104
 10
243.6851654500421
 20
-73.73207217063104
 10
243.6744232625421
 20
-73.76515810813105
 10
243.66485295004208
 20
-73.79950967063104
 10
243.6564545125421
 20
-73.83512685813105
 10
243.6522982625421
 20
-73.85928310813104
 10
243.64857951254209
 20
-73.88706435813104
 10
243.6452982625421
 20
-73.91847060813105
 10
243.6424545125421
 20
-73.95350185813105
 10
243.64004826254208
 20
-73.99215810813105
 10
243.63807951254208
 20
-74.03443935813104
 10
243.63654826254208
 20
-74.08034560813104
 10
243.63545451254208
 20
-74.12987685813104
 10
243.6347982625421
 20
-74.18303310813104
 10
243.63457951254208
 20
-74.23981435813104
 10
243.63457951254208
 20
-74.82575185813104
 10
243.63429826254207
 20
-74.94390029563104
 10
243.63345451254207
 20
-75.05303310813105
 10
243.63204826254207
 20
-75.15315029563105
 10
243.63007951254207
 20
-75.24425185813105
 10
243.6275482625421
 20
-75.32633779563105
 10
243.6244545125421
 20
-75.39940810813104
 10
243.62079826254208
 20
-75.46346279563105
 10
243.6165795125421
 20
-75.51850185813105
 10
243.6117982625421
 20
-75.56452529563104
 10
243.6064545125421
 20
-75.60153310813105
 10
243.60027482504208
 20
-75.63375185813105
 10
243.59298576254207
 20
-75.66572060813104
 10
243.5845873250421
 20
-75.69743935813105
 10
243.5750795125421
 20
-75.72890810813105
 10
243.5644623250421
 20
-75.76012685813104
 10
243.55273576254208
 20
-75.79109560813104
 10
243.53989982504208
 20
-75.82181435813105
 10
243.52595451254209
 20
-75.85228310813105
 10
243.5108998250421
 20
-75.88250185813105
 10
243.4947357625421
 20
-75.91247060813104
 10
243.9541107625421
 20
-75.91247060813104
 10
243.96722013754209
 20
-75.88466592063105
 10
243.9793607625421
 20
-75.85593935813104
 10
243.9905326375421
 20
-75.82629092063104
 10
244.0007357625421
 20
-75.79572060813105
 10
244.0099701375421
 20
-75.76422842063104
 10
244.01823576254208
 20
-75.73181435813105
 10
244.02553263754209
 20
-75.69847842063105
 10
244.0318607625421
 20
-75.66422060813105
 10
244.03722013754208
 20
-75.62904092063104
 10
244.0416107625421
 20
-75.59293935813105
  0
LWPOLYLINE
  5
57
330
17
100
AcDbEntity
  8
0
100
AcDbPolyline
 90
118
 70
0
 10
242.97256779379208
 20
-76.91090810813104
 10
243.02178654379208
 20
-76.49840810813104
 10
242.9932552937921
 20
-76.50582998313105
 10
242.96547404379209
 20
-76.51247060813104
 10
242.9384427937921
 20
-76.51832998313104
 10
242.91216154379208
 20
-76.52340810813105
 10
242.88663029379208
 20
-76.52770498313104
 10
242.8618490437921
 20
-76.53122060813105
 10
242.83781779379208
 20
-76.53395498313104
 10
242.8145365437921
 20
-76.53590810813104
 10
242.7920052937921
 20
-76.53707998313105
 10
242.7702240437921
 20
-76.53747060813104
 10
242.7414427937921
 20
-76.53697842063104
 10
242.7138490437921
 20
-76.53550185813104
 10
242.6874427937921
 20
-76.53304092063104
 10
242.6622240437921
 20
-76.52959560813105
 10
242.6381927937921
 20
-76.52516592063104
 10
242.6153490437921
 20
-76.51975185813104
 10
242.5936927937921
 20
-76.51335342063105
 10
242.5732240437921
 20
-76.50597060813105
 10
242.5539427937921
 20
-76.49760342063105
 10
242.5358490437921
 20
-76.48825185813105
 10
242.5185131062921
 20
-76.47817373313104
 10
242.5018177937921
 20
-76.46731435813105
 10
242.4857631062921
 20
-76.45567373313105
 10
242.47034904379208
 20
-76.44325185813105
 10
242.4555756062921
 20
-76.43004873313104
 10
242.44144279379208
 20
-76.41606435813104
 10
242.4279506062921
 20
-76.40129873313104
 10
242.41509904379208
 20
-76.38575185813104
 10
242.4028881062921
 20
-76.36942373313104
 10
242.3913177937921
 20
-76.35231435813104
 10
242.3825209187921
 20
-76.33708779563105
 10
242.37269279379208
 20
-76.31797060813105
 10
242.3618334187921
 20
-76.29496279563105
 10
242.34994279379208
 20
-76.26806435813104
 10
242.3370209187921
 20
-76.23727529563105
 10
242.3230677937921
 20
-76.20259560813105
 10
242.30808341879208
 20
-76.16402529563105
 10
242.29206779379209
 20
-76.12156435813104
 10
242.27502091879208
 20
-76.07521279563105
 10
242.2569427937921
 20
-76.02497060813104
 10
242.2544427937921
 20
-76.01728310813104
 10
242.2516302937921
 20
-76.00890810813104
 10
242.24850529379208
 20
-75.99984560813104
 10
242.2450677937921
 20
-75.99009560813104
 10
242.2413177937921
 20
-75.97965810813105
 10
242.2372552937921
 20
-75.96853310813104
 10
242.23288029379208
 20
-75.95672060813105
 10
242.2281927937921
 20
-75.94422060813105
 10
242.2231927937921
 20
-75.93103310813105
 10
242.2178802937921
 20
-75.91715810813105
 10
243.2022552937921
 20
-73.31950185813105
 10
242.72881779379208
 20
-73.31950185813105
 10
242.1889740437921
 20
-74.82106435813104
 10
242.1682474812921
 20
-74.87854092063104
 10
242.14794279379208
 20
-74.93659560813104
 10
242.1280599812921
 20
-74.99522842063105
 10
242.10859904379208
 20
-75.05443935813105
 10
242.0895599812921
 20
-75.11422842063105
 10
242.07094279379209
 20
-75.17459560813104
 10
242.0527474812921
 20
-75.23554092063104
 10
242.0349740437921
 20
-75.29706435813104
 10
242.01762248129208
 20
-75.35916592063104
 10
242.0006927937921
 20
-75.42184560813105
 10
241.98524748129208
 20
-75.36137685813104
 10
241.96922404379208
 20
-75.30122060813105
 10
241.95262248129208
 20
-75.24137685813105
 10
241.93544279379208
 20
-75.18184560813104
 10
241.9176849812921
 20
-75.12262685813104
 10
241.89934904379209
 20
-75.06372060813105
 10
241.88043498129207
 20
-75.00512685813105
 10
241.86094279379208
 20
-74.94684560813104
 10
241.84087248129208
 20
-74.88887685813104
 10
241.82022404379208
 20
-74.83122060813105
 10
241.2663177937921
 20
-73.31950185813105
 10
240.82647404379208
 20
-73.31950185813105
 10
241.8131927937921
 20
-75.95622060813105
 10
241.84420060629208
 20
-76.03902529563105
 10
241.87378654379208
 20
-76.11650185813104
 10
241.90195060629208
 20
-76.18865029563105
 10
241.9286927937921
 20
-76.25547060813105
 10
241.95401310629208
 20
-76.31696279563104
 10
241.9779115437921
 20
-76.37312685813104
 10
242.0003881062921
 20
-76.42396279563104
 10
242.0214427937921
 20
-76.46947060813105
 10
242.04107560629208
 20
-76.50965029563105
 10
242.0592865437921
 20
-76.54450185813104
 10
242.08306779379208
 20
-76.58692373313104
 10
242.1075365437921
 20
-76.62700185813104
 10
242.1326927937921
 20
-76.66473623313105
 10
242.15853654379208
 20
-76.70012685813104
 10
242.1850677937921
 20
-76.73317373313104
 10
242.2122865437921
 20
-76.76387685813104
 10
242.2401927937921
 20
-76.79223623313105
 10
242.2687865437921
 20
-76.81825185813105
 10
242.2980677937921
 20
-76.84192373313104
 10
242.32803654379208
 20
-76.86325185813105
 10
242.3589349812921
 20
-76.88254873313105
 10
242.3910052937921
 20
-76.89981435813104
 10
242.42424748129207
 20
-76.91504873313104
 10
242.4586615437921
 20
-76.92825185813105
 10
242.4942474812921
 20
-76.93942373313105
 10
242.53100529379208
 20
-76.94856435813105
 10
242.5689349812921
 20
-76.95567373313105
 10
242.60803654379208
 20
-76.96075185813105
 10
242.64830998129207
 20
-76.96379873313104
 10
242.68975529379208
 20
-76.96481435813105
 10
242.7153646687921
 20
-76.96427529563104
 10
242.7415677937921
 20
-76.96265810813105
 10
242.7683646687921
 20
-76.95996279563104
 10
242.79575529379207
 20
-76.95618935813104
 10
242.8237396687921
 20
-76.95133779563105
 10
242.85231779379208
 20
-76.94540810813105
 10
242.88148966879209
 20
-76.93840029563104
 10
242.9112552937921
 20
-76.93031435813104
 10
242.94161466879208
 20
-76.92115029563105
 10
242.97256779379208
 20
-76.91090810813104
  0
LWPOLYLINE
  5
58
330
17
100
AcDbEntity
  8
0
100
AcDbPolyline
 90
18
 70
0
 10
200.91621349795372
 20
15.111866250724999
 10
200.8968291653896
 20
15.116646017246985
 10
200.89616281343
 20
15.118040727156668
 10
200.92195272433997
 20
15.17316100547095
 10
200.1034553912902
 20
15.556123028739918
 10
200.0547987431434
 20
15.578917134178061
 10
199.50614528724515
 20
15.495467055242782
 10
199.50522879215626
 20
15.494630227412028
 10
199.45901191408328
 20
15.307197780550663
 10
199.4587841663865
 20
15.30708903631702
 10
199.84064963831545
 20
15.128197103521464
 10
199.85426376428654
 20
15.090585196177603
 10
196.33401603902766
 20
7.57621024418269
 10
196.34364267982176
 20
7.549614609446485
 10
197.17007920107451
 20
7.162455158048785
 10
197.19667483581074
 20
7.172081798842871
 10
200.728921451756
 20
14.712069767495262
 10
200.91621349795372
 20
15.111866250724999
  0
LWPOLYLINE
  5
59
330
17
100
AcDbEntity
  8
0
100
AcDbPolyline
 90
30
 70
0
 10
135.30761503851355
 20
-37.90680575638019
 10
135.10575062229435
 20
-38.04204693641637
 10
134.89320250613565
 20
-38.36300886714465
 10
134.89301025786355
 20
-38.364012163227684
 10
134.97185595645104
 20
-38.74081001151412
 10
134.98193145978198
 20
-38.75547829862354
 10
135.02143763222293
 20
-38.80576308149481
 10
135.0215652983164
 20
-38.80590574287116
 10
135.06717214311635
 20
-38.850731101263285
 10
135.0745984553242
 20
-38.857149190924076
 10
135.12555847696933
 20
-38.895780437878216
 10
135.12571812965618
 20
-38.89588608786312
 10
135.18119609415464
 20
-38.92769005781615
 10
136.13803098477052
 20
-39.397564334457876
 10
136.39159317403383
 20
-39.44758992179787
 10
136.39232795322687
 20
-39.447540691531415
 10
136.6369503494431
 20
-39.36413669593415
 10
136.87595158849555
 20
-39.204015312458296
 10
136.35862159235987
 20
-38.94996933221309
 10
147.35969449146046
 20
-31.57968531483146
 10
147.36517833027887
 20
-31.551937747157623
 10
146.85721580291
 20
-30.793739992441864
 10
146.83253699158234
 20
-30.801242816574185
 10
146.83503416745003
 20
-30.796564005246545
 10
146.82946823523616
 20
-30.788256153623493
 10
135.38248366102414
 20
-38.457283368362376
 10
135.3714189209831
 20
-38.44117491418574
 10
135.37305642647016
 20
-38.44005012764004
 10
135.3669674247624
 20
-38.431605803212236
 10
135.30761503851355
 20
-37.90680575638019
  0
LWPOLYLINE
  5
5A
330
17
100
AcDbEntity
  8
0
100
AcDbPolyline
 90
18
 70
0
 10
189.70326427094233
 20
-25.328685582756975
 10
189.70340030022805
 20
-25.328890209313048
 10
189.6475139639741
 20
-25.513447876166115
 10
189.64786891892223
 20
-25.514640344610324
 10
190.07502075601158
 20
-25.868936602584963
 10
190.12858419270714
 20
-25.874494168467507
 10
191.02649447191186
 20
-25.967658383483382
 10
191.03256176177567
 20
-25.909182262209992
 10
191.03384380743742
 20
-25.908327649837894
 10
191.05375957910994
 20
-25.91430322964799
 10
191.0994903303671
 20
-25.47355340287618
 10
192.41385194688198
 20
-12.805826788534729
 10
192.3960227936119
 20
-12.783869527920697
 10
191.48826796589546
 20
-12.689683874955485
 10
191.46631070528144
 20
-12.70751302822555
 10
190.15486810146297
 20
-25.347106399510462
 10
190.12381584571006
 20
-25.37232062987062
 10
189.70326427094233
 20
-25.328685582756975
  0
LWPOLYLINE
  5
5B
330
17
100
AcDbEntity
  8
0
100
AcDbPolyline
 90
49
 70
0
 10
191.20499942044395
 20
0.328991686400241
 10
191.4193877148301
 20
0.2063350923855493
 10
191.68505434241376
 20
0.14070495363340804
 10
191.68582844852185
 20
0.14073228256934137
 10
191.9462183792022
 20
0.2249424617460569
 10
192.15444507906275
 20
0.36444612034828416
 10
192.2032762141689
 20
0.4077851763944903
 10
192.1980171984455
 20
0.5567494904077842
 10
192.24739288805586
 20
0.5797790262865777
 10
192.33557558482016
 20
0.5818360071420793
 10
192.4933151959478
 20
0.9185494078183506
 10
192.49471732701483
 20
0.9189931772583492
 10
193.02649189014227
 20
0.6147682296178401
 10
193.42522162445835
 20
0.5721114419578804
 10
193.42622427096543
 20
0.5724287464209541
 10
193.72782822609133
 20
0.8367386270698611
 10
193.73072978199036
 20
0.8429323329312778
 10
193.30466185587053
 20
1.0305153358026207
 10
193.27540611516764
 20
1.047254445173855
 10
196.31704704508553
 20
7.539987968652397
 10
196.30742040429146
 20
7.566583603388602
 10
195.48098388303868
 20
7.953743054786302
 10
195.45438824830248
 20
7.944116413992216
 10
192.44398427191692
 20
1.518061772092313
 10
192.3606674936768
 20
1.5402124954643852
 10
192.19510311783202
 20
1.4349426280353776
 10
180.06560383334477
 20
8.375016960912097
 10
180.0383120660351
 20
8.3675900209557
 10
179.5891962927733
 20
7.582648939759402
 10
179.55059990530287
 20
7.572145660546135
 10
166.39004888149103
 20
15.102151658706507
 10
166.37954560227777
 20
15.140748046176942
 10
166.58952141085996
 20
15.50773279270796
 10
166.58927925315695
 20
15.507691131684178
 10
166.4430854689628
 20
15.633437672142225
 10
166.44185131341746
 20
15.633595260515964
 10
165.94508013250612
 20
15.386203012942316
 10
165.91833662087666
 20
15.339462100725063
 10
165.47002195931722
 20
14.55592116070224
 10
165.5210498137621
 20
14.526724810994097
 10
165.5213129805469
 20
14.525206671794702
 10
165.5077940162977
 20
14.509408471865338
 10
165.8924043070822
 20
14.289347944663914
 10
179.08469564394468
 20
6.741181251923003
 10
179.11198741125435
 20
6.7486081918794
 10
179.56110318451613
 20
7.533549273075697
 10
179.59969957198658
 20
7.544052552288964
 10
191.66784726637977
 20
0.63908144879597
 10
191.20499942044395
 20
0.328991686400241
  0
LWPOLYLINE
  5
5C
330
17
100
AcDbEntity
  8
0
100
AcDbPolyline
 90
20
 70
0
 10
153.06595475080678
 20
21.628192793873026
 10
153.0722985313843
 20
21.647123059717583
 10
153.07374291191897
 20
21.64767351910503
 10
153.12657780004344
 20
21.61747684407141
 10
153.574977168572
 20
22.402037741518413
 10
153.6016611882984
 20
22.448674676896164
 10
153.56320665487465
 20
23.002304317723233
 10
153.562447309984
 20
23.003285969088708
 10
153.37940535921012
 20
23.06462572954029
 10
153.37931553930994
 20
23.06486158268799
 10
153.16989491178222
 20
22.69884715259448
 10
153.13129852431177
 20
22.688343873381218
 10
139.96355702079114
 20
30.222464011993537
 10
139.9585908139528
 20
30.213784335177024
 10
139.96180166528708
 20
30.208247923371417
 10
139.93626525348148
 20
30.215037072037145
 10
139.48303533976772
 20
29.422905511132026
 10
139.4904622797241
 20
29.395613743822377
 10
152.68275361658664
 20
21.847447051081463
 10
153.06595475080678
 20
21.628192793873026
  0
LWPOLYLINE
  5
5D
330
17
100
AcDbEntity
  8
0
100
AcDbPolyline
 90
38
 70
0
 10
193.93169583566558
 20
0.7544539154946206
 10
193.9317771259823
 20
0.754038363845357
 10
193.7908773508384
 20
0.6086455492626148
 10
193.4591859953142
 20
-0.10120493897149378
 10
193.43041595313866
 20
-0.17906845878302752
 10
193.4303491770484
 20
-0.17930903984847224
 10
193.41482036595448
 20
-0.26135071481826483
 10
193.39674932015888
 20
-0.4355182079170935
 10
193.46168711695353
 20
-0.7379952374027121
 10
193.46211933658498
 20
-0.7387391466615358
 10
193.69273731182062
 20
-0.9449541323371101
 10
193.83889419684974
 20
-1.0093019644627552
 10
193.89299324697444
 20
-0.4878990503296531
 10
203.01795537429345
 20
-4.505304942667011
 10
203.03244493313952
 20
-4.542588352978392
 10
202.66804672797284
 20
-5.370266688331843
 10
202.67829239328927
 20
-5.396630040588781
 10
212.9190293142345
 20
-9.905273065518216
 10
213.32309438927638
 20
-10.083168972450373
 10
213.32741975443807
 20
-10.063678212250222
 10
213.3287985077709
 20
-10.062979441963622
 10
213.3845065477514
 20
-10.087473908026704
 10
213.74823212692675
 20
-9.260248727960867
 10
213.76988268893254
 20
-9.21107257707336
 10
213.67363101255356
 20
-8.664519610620426
 10
213.67277299091535
 20
-8.663622926208491
 10
213.4843114659492
 20
-8.621799779957042
 10
213.48419742798043
 20
-8.621574636306397
 10
213.31428021433675
 20
-9.007517252220639
 10
213.27699680402537
 20
-9.02200681106669
 10
203.0697283434509
 20
-4.52809879413234
 10
203.05523878460482
 20
-4.490815383820959
 10
203.4196369897715
 20
-3.663137048467508
 10
203.40939132445507
 20
-3.63677369621057
 10
194.24329393553785
 20
0.3987426320959099
 10
194.26114692220787
 20
0.47893567557525846
 10
194.14173535691035
 20
0.6619807634421717
 10
193.93169583566558
 20
0.7544539154946206
  0
LWPOLYLINE
  5
5E
330
17
100
AcDbEntity
  8
0
100
AcDbPolyline
 90
20
 70
0
 10
223.74368931390146
 20
-13.137253357985065
 10
223.7434528543551
 20
-13.137320162752623
 10
223.58488818158904
 20
-13.027583844585727
 10
223.58364430745968
 20
-13.027556437360468
 10
223.11552913020856
 20
-13.325638156307718
 10
223.0938302983754
 20
-13.37492394519511
 10
222.730082089677
 20
-14.20112590666079
 10
222.78388822957115
 20
-14.224814893030118
 10
222.78430901701782
 20
-14.226297101284747
 10
222.77251978879
 20
-14.243424845245091
 10
223.17807074396643
 20
-14.421974933917896
 10
233.41880766491167
 20
-18.93061795884733
 10
233.4451710171686
 20
-18.920372293530885
 10
233.8129073045977
 20
-18.08511198238541
 10
233.7949281441626
 20
-18.067991501136902
 10
233.79863221754613
 20
-18.06790088452182
 10
233.80266163928124
 20
-18.058748630128473
 10
223.58781120291474
 20
-13.561502530931701
 10
223.57332164406867
 20
-13.524219120620321
 10
223.74368931390146
 20
-13.137253357985065
  0
LWPOLYLINE
  5
5F
330
17
100
AcDbEntity
  8
0
100
AcDbPolyline
 90
26
 70
0
 10
193.03971505364035
 20
-1.3716224911009476
 10
192.88701427381403
 20
-1.0655181822972215
 10
192.88596139539345
 20
-1.0648842590830994
 10
192.35034180162535
 20
-1.0778293978262072
 10
191.99297750849016
 20
-1.3172493491559027
 10
191.99142617440083
 20
-1.3163161403360577
 10
192.0355403154038
 20
-0.8878786097467102
 10
191.79633412662184
 20
-0.40883508293826876
 10
191.79528106628283
 20
-0.40820105019363423
 10
191.25966147251472
 20
-0.421146188936739
 10
191.23214043465063
 20
-0.43958419651761177
 10
191.5608602385054
 20
-0.6276661461458484
 10
191.53941442719207
 20
-0.8343593965621205
 10
181.31673700972186
 20
-7.68314920787121
 10
181.31125317090348
 20
-7.710896775545044
 10
181.81921569827236
 20
-8.4690945302608
 10
181.8469632659462
 20
-8.474578369079179
 10
191.54971538133984
 20
-1.9741179597541803
 10
191.6179667973654
 20
-2.0152111725780077
 10
190.52289757102488
 20
-12.569412854032274
 10
190.54072672429496
 20
-12.591370114646306
 10
191.44848155201137
 20
-12.685555767611518
 10
191.47043881262542
 20
-12.667726614341452
 10
192.6300947563027
 20
-1.4910426054515884
 10
192.90009546287197
 20
-1.3101528040148662
 10
193.03971505364035
 20
-1.3716224911009476
  0
LWPOLYLINE
  5
60
330
17
100
AcDbEntity
  8
0
100
AcDbPolyline
 90
20
 70
0
 10
181.28350560322966
 20
-7.705412936726667
 10
181.2794915259736
 20
-7.682394666022023
 10
181.280681590425
 20
-7.683231301266696
 10
181.28898944204803
 20
-7.677665369052832
 10
180.7810269146792
 20
-6.919467614337077
 10
180.75327934700536
 20
-6.913983775518698
 10
169.28521592758696
 20
-14.597132983389908
 10
168.91843059304185
 20
-14.842864660091088
 10
168.93256529751758
 20
-14.856964612089058
 10
168.9324160528579
 20
-14.858503107034698
 10
168.8818746289202
 20
-14.892398963013639
 10
169.38520423038784
 20
-15.642903531800881
 10
169.41511064585748
 20
-15.68754260621866
 10
169.92809111393566
 20
-15.899286719983
 10
169.92930803397027
 20
-15.899043102053373
 10
170.06564435067665
 20
-15.762370754074228
 10
170.06589554300828
 20
-15.762395182219363
 10
169.83118501745946
 20
-15.41206029747689
 10
169.83894033669029
 20
-15.372819310949687
 10
181.28350560322966
 20
-7.705412936726667
  0
LWPOLYLINE
  5
61
330
17
100
AcDbEntity
  8
0
100
AcDbPolyline
 90
17
 70
0
 10
158.58183864575955
 20
-23.457605003958964
 10
158.5819090128329
 20
-23.45736957993935
 10
158.7595482352528
 20
-23.382342107422062
 10
158.7602381885976
 20
-23.38130676284769
 10
158.75955511517373
 20
-22.826343643574035
 10
158.72958202348897
 20
-22.781605046546048
 10
158.2271283202983
 20
-22.031629902550524
 10
158.17828642764104
 20
-22.064352040121296
 10
158.17680962077247
 20
-22.063912671416958
 10
158.16867092973885
 20
-22.044778742817787
 10
146.33247338550407
 20
-29.974563263560068
 10
146.3269895466857
 20
-30.002310831233903
 10
146.83495207405454
 20
-30.76050858594966
 10
146.86269964172837
 20
-30.765992424768037
 10
158.30726490826774
 20
-23.098586050545013
 10
158.34650589479494
 20
-23.10634136977583
 10
158.58183864575955
 20
-23.457605003958964
  0
ENDSEC
  0
SECTION
  2
OBJECTS
  0
DICTIONARY
  5
A
330
0
100
AcDbDictionary
281
1
  3
ACAD_COLOR
350
B
  3
ACAD_GROUP
350
C
  3
ACAD_LAYOUT
350
D
  3
ACAD_MATERIAL
350
E
  3
ACAD_MLEADERSTYLE
350
F
  3
ACAD_MLINESTYLE
350
10
  3
ACAD_PLOTSETTINGS
350
11
  3
ACAD_PLOTSTYLENAME
350
12
  3
ACAD_SCALELIST
350
14
  3
ACAD_TABLESTYLE
350
15
  3
ACAD_VISUALSTYLE
350
16
  0
DICTIONARY
  5
B
330
A
100
AcDbDictionary
281
1
  0
DICTIONARY
  5
C
330
A
100
AcDbDictionary
281
1
  0
DICTIONARY
  5
D
330
A
100
AcDbDictionary
281
1
  3
Model
350
1A
  3
Layout1
350
1E
  0
DICTIONARY
  5
E
330
A
100
AcDbDictionary
281
1
  3
ByBlock
350
1F
  3
ByLayer
350
20
  3
Global
350
21
  0
DICTIONARY
  5
F
330
A
100
AcDbDictionary
281
1
  3
Standard
350
2C
  0
DICTIONARY
  5
10
330
A
100
AcDbDictionary
281
1
  3
Standard
350
22
  0
DICTIONARY
  5
11
330
A
100
AcDbDictionary
281
1
  0
ACDBDICTIONARYWDFLT
  5
12
330
A
100
AcDbDictionary
281
1
  3
Normal
350
13
100
AcDbDictionaryWithDefault
340
13
  0
ACDBPLACEHOLDER
  5
13
330
12
  0
DICTIONARY
  5
14
330
A
100
AcDbDictionary
281
1
  0
DICTIONARY
  5
15
330
A
100
AcDbDictionary
281
1
  0
DICTIONARY
  5
16
330
A
100
AcDbDictionary
281
1
  0
LAYOUT
  5
1A
330
D
100
AcDbPlotSettings
  1

  2
Adobe PDF
  4
A4
  6

 40
3.175
 41
3.175
 42
3.175
 43
3.175
 44
209.91
 45
297.03
 46
0.0
 47
0.0
 48
0.0
 49
0.0
140
0.0
141
0.0
142
1.0
143
1.0
 70
1024
 72
0
 73
1
 74
5
  7

 75
16
 76
0
 77
2
 78
300
147
1.0
148
0.0
149
0.0
100
AcDbLayout
  1
Model
 70
1
 71
0
 10
-3.175
 20
-3.175
 11
293.857
 21
206.735
 12
0.0
 22
0.0
 32
0.0
 14
29.068
 24
20.356
 34
0.0
 15
261.614
 25
183.204
 35
0.0
146
0.0
 13
0.0
 23
0.0
 33
0.0
 16
1.0
 26
0.0
 36
0.0
 17
0.0
 27
1.0
 37
0.0
 76
1
330
17
  0
LAYOUT
  5
1E
330
D
100
AcDbPlotSettings
  1

  2
Adobe PDF
  4
A4
  6

 40
3.175
 41
3.175
 42
3.175
 43
3.175
 44
209.91
 45
297.03
 46
0.0
 47
0.0
 48
0.0
 49
0.0
140
0.0
141
0.0
142
1.0
143
1.0
 70
0
 72
0
 73
1
 74
5
  7

 75
16
 76
0
 77
2
 78
300
147
1.0
148
0.0
149
0.0
100
AcDbLayout
  1
Layout1
 70
1
 71
1
 10
-3.175
 20
-3.175
 11
293.857
 21
206.735
 12
0.0
 22
0.0
 32
0.0
 14
29.068
 24
20.356
 34
0.0
 15
261.614
 25
183.204
 35
0.0
146
0.0
 13
0.0
 23
0.0
 33
0.0
 16
1.0
 26
0.0
 36
0.0
 17
0.0
 27
1.0
 37
0.0
 76
1
330
1B
  0
MATERIAL
  5
1F
102
{ACAD_REACTORS
330
E
102
}
330
E
100
AcDbMaterial
  1
ByBlock
  2

 70
0
 40
1.0
 71
1
 41
1.0
 91
-1023410177
 42
1.0
 72
1
  3

 73
1
 74
1
 75
1
 44
0.5
 73
0
 45
1.0
 46
1.0
 77
1
  4

 78
1
 79
1
170
1
 48
1.0
171
1
  6

172
1
173
1
174
1
140
1.0
141
1.0
175
1
  7

176
1
177
1
178
1
143
1.0
179
1
  8

270
1
271
1
272
1
145
1.0
146
1.0
273
1
  9

274
1
275
1
276
1
 42
1.0
 72
1
  3

 73
1
 74
1
 75
1
 94
63
  0
MATERIAL
  5
20
102
{ACAD_REACTORS
330
E
102
}
330
E
100
AcDbMaterial
  1
ByLayer
  2

 70
0
 40
1.0
 71
1
 41
1.0
 91
-1023410177
 42
1.0
 72
1
  3

 73
1
 74
1
 75
1
 44
0.5
 73
0
 45
1.0
 46
1.0
 77
1
  4

 78
1
 79
1
170
1
 48
1.0
171
1
  6

172
1
173
1
174
1
140
1.0
141
1.0
175
1
  7

176
1
177
1
178
1
143
1.0
179
1
  8

270
1
271
1
272
1
145
1.0
146
1.0
273
1
  9

274
1
275
1
276
1
 42
1.0
 72
1
  3

 73
1
 74
1
 75
1
 94
63
  0
MATERIAL
  5
21
102
{ACAD_REACTORS
330
E
102
}
330
E
100
AcDbMaterial
  1
Global
  2

 70
0
 40
1.0
 71
1
 41
1.0
 91
-1023410177
 42
1.0
 72
1
  3

 73
1
 74
1
 75
1
 44
0.5
 73
0
 45
1.0
 46
1.0
 77
1
  4

 78
1
 79
1
170
1
 48
1.0
171
1
  6

172
1
173
1
174
1
140
1.0
141
1.0
175
1
  7

176
1
177
1
178
1
143
1.0
179
1
  8

270
1
271
1
272
1
145
1.0
146
1.0
273
1
  9

274
1
275
1
276
1
 42
1.0
 72
1
  3

 73
1
 74
1
 75
1
 94
63
  0
MLINESTYLE
  5
22
102
{ACAD_REACTORS
330
10
102
}
330
10
100
AcDbMlineStyle
  2
Standard
 70
0
  3

 62
256
 51
90.0
 52
90.0
 71
2
 49
0.5
 62
256
  6
BYLAYER
 49
-0.5
 62
256
  6
BYLAYER
  0
MLEADERSTYLE
  5
2C
102
{ACAD_REACTORS
330
F
102
}
330
F
100
AcDbMLeaderStyle
179
2
170
2
171
1
172
0
 90
2
 40
0.0
 41
0.0
173
1
 91
-1056964608
 92
-2
290
1
 42
2.0
291
1
 43
8.0
  3
Standard
 44
4.0
300

342
29
174
1
175
1
176
0
178
1
 93
-1056964608
 45
4.0
292
0
297
0
 46
4.0
 94
-1056964608
 47
1.0
 49
0.0
140
1.0
294
1
141
0.0
177
0
142
1.0
295
0
296
0
143
3.75
271
0
272
9
272
9
  0
ENDSEC
  0
EOF
