  0
SECTION
  2
HEADER
  9
$ACADVER
  1
AC1024
  9
$ACADMAINTVER
 70
6
  9
$DWGCODEPAGE
  3
ANSI_1252
  9
$LASTSAVEDBY
  1
ezdxf
  9
$INSBASE
 10
0.0
 20
0.0
 30
0.0
  9
$EXTMIN
 10
-100
 20
-100
 30
-100
  9
$EXTMAX
 10
100
 20
100
 30
100
  9
$LIMMIN
 10
0.0
 20
0.0
  9
$LIMMAX
 10
420.0
 20
297.0
  9
$ORTHOMODE
 70
0
  9
$REGENMODE
 70
1
  9
$FILLMODE
 70
1
  9
$QTEXTMODE
 70
0
  9
$MIRRTEXT
 70
1
  9
$LTSCALE
 40
1.0
  9
$ATTMODE
 70
1
  9
$TEXTSIZE
 40
2.5
  9
$TRACEWID
 40
1.0
  9
$TEXTSTYLE
  7
Standard
  9
$CLAYER
  8
0
  9
$CELTYPE
  6
ByLayer
  9
$CECOLOR
 62
256
  9
$CELTSCALE
 40
1.0
  9
$DISPSILH
 70
0
  9
$DIMSCALE
 40
1.0
  9
$DIMASZ
 40
2.5
  9
$DIMEXO
 40
0.625
  9
$DIMDLI
 40
3.75
  9
$DIMRND
 40
0.0
  9
$DIMDLE
 40
0.0
  9
$DIMEXE
 40
1.25
  9
$DIMTP
 40
0.0
  9
$DIMTM
 40
0.0
  9
$DIMTXT
 40
2.5
  9
$DIMCEN
 40
2.5
  9
$DIMTSZ
 40
0.0
  9
$DIMTOL
 70
0
  9
$DIMLIM
 70
0
  9
$DIMTIH
 70
0
  9
$DIMTOH
 70
0
  9
$DIMSE1
 70
0
  9
$DIMSE2
 70
0
  9
$DIMTAD
 70
1
  9
$DIMZIN
 70
8
  9
$DIMBLK
  1

  9
$DIMASO
 70
1
  9
$DIMSHO
 70
1
  9
$DIMPOST
  1

  9
$DIMAPOST
  1

  9
$DIMALT
 70
0
  9
$DIMALTD
 70
3
  9
$DIMALTF
 40
0.03937007874
  9
$DIMLFAC
 40
1.0
  9
$DIMTOFL
 70
1
  9
$DIMTVP
 40
0.0
  9
$DIMTIX
 70
0
  9
$DIMSOXD
 70
0
  9
$DIMSAH
 70
0
  9
$DIMBLK1
  1

  9
$DIMBLK2
  1

  9
$DIMSTYLE
  2
ISO-25
  9
$DIMCLRD
 70
0
  9
$DIMCLRE
 70
0
  9
$DIMCLRT
 70
0
  9
$DIMTFAC
 40
1.0
  9
$DIMGAP
 40
0.625
  9
$DIMJUST
 70
0
  9
$DIMSD1
 70
0
  9
$DIMSD2
 70
0
  9
$DIMTOLJ
 70
0
  9
$DIMTZIN
 70
8
  9
$DIMALTZ
 70
0
  9
$DIMALTTZ
 70
0
  9
$DIMUPT
 70
0
  9
$DIMDEC
 70
2
  9
$DIMTDEC
 70
2
  9
$DIMALTU
 70
2
  9
$DIMALTTD
 70
3
  9
$DIMTXSTY
  7
Standard
  9
$DIMAUNIT
 70
0
  9
$DIMADEC
 70
0
  9
$DIMALTRND
 40
0.0
  9
$DIMAZIN
 70
0
  9
$DIMDSEP
 70
44
  9
$DIMATFIT
 70
3
  9
$DIMFRAC
 70
0
  9
$DIMLDRBLK
  1

  9
$DIMLUNIT
 70
2
  9
$DIMLWD
 70
-2
  9
$DIMLWE
 70
-2
  9
$DIMTMOVE
 70
0
  9
$DIMFXL
 40
1.0
  9
$DIMFXLON
 70
0
  9
$DIMJOGANG
 40
0.785398163397
  9
$DIMTFILL
 70
0
  9
$DIMTFILLCLR
 70
0
  9
$DIMARCSYM
 70
0
  9
$DIMLTYPE
  6

  9
$DIMLTEX1
  6

  9
$DIMLTEX2
  6

  9
$DIMTXTDIRECTION
 70
0
  9
$LUNITS
 70
2
  9
$LUPREC
 70
4
  9
$SKETCHINC
 40
1.0
  9
$FILLETRAD
 40
10.0
  9
$AUNITS
 70
0
  9
$AUPREC
 70
2
  9
$MENU
  1
.
  9
$ELEVATION
 40
0.0
  9
$PELEVATION
 40
0.0
  9
$THICKNESS
 40
0.0
  9
$LIMCHECK
 70
0
  9
$CHAMFERA
 40
0.0
  9
$CHAMFERB
 40
0.0
  9
$CHAMFERC
 40
0.0
  9
$CHAMFERD
 40
0.0
  9
$SKPOLY
 70
0
  9
$TDCREATE
 40
2459411.643148148
  9
$TDUCREATE
 40
2458532.153996898
  9
$TDUPDATE
 40
2459411.643148148
  9
$TDUUPDATE
 40
2458532.1544311
  9
$TDINDWG
 40
0.0
  9
$TDUSRTIMER
 40
0.0
  9
$USRTIMER
 70
1
  9
$ANGBASE
 50
0.0
  9
$ANGDIR
 70
0
  9
$PDMODE
 70
0
  9
$PDSIZE
 40
0.0
  9
$PLINEWID
 40
0.0
  9
$SPLFRAME
 70
0
  9
$SPLINETYPE
 70
6
  9
$SPLINESEGS
 70
8
  9
$HANDSEED
  5
3B
  9
$SURFTAB1
 70
6
  9
$SURFTAB2
 70
6
  9
$SURFTYPE
 70
6
  9
$SURFU
 70
6
  9
$SURFV
 70
6
  9
$UCSBASE
  2

  9
$UCSNAME
  2

  9
$UCSORG
 10
0.0
 20
0.0
 30
0.0
  9
$UCSXDIR
 10
1.0
 20
0.0
 30
0.0
  9
$UCSYDIR
 10
0.0
 20
1.0
 30
0.0
  9
$UCSORTHOREF
  2

  9
$UCSORTHOVIEW
 70
0
  9
$UCSORGTOP
 10
0.0
 20
0.0
 30
0.0
  9
$UCSORGBOTTOM
 10
0.0
 20
0.0
 30
0.0
  9
$UCSORGLEFT
 10
0.0
 20
0.0
 30
0.0
  9
$UCSORGRIGHT
 10
0.0
 20
0.0
 30
0.0
  9
$UCSORGFRONT
 10
0.0
 20
0.0
 30
0.0
  9
$UCSORGBACK
 10
0.0
 20
0.0
 30
0.0
  9
$PUCSBASE
  2

  9
$PUCSNAME
  2

  9
$PUCSORG
 10
0.0
 20
0.0
 30
0.0
  9
$PUCSXDIR
 10
1.0
 20
0.0
 30
0.0
  9
$PUCSYDIR
 10
0.0
 20
1.0
 30
0.0
  9
$PUCSORTHOREF
  2

  9
$PUCSORTHOVIEW
 70
0
  9
$PUCSORGTOP
 10
0.0
 20
0.0
 30
0.0
  9
$PUCSORGBOTTOM
 10
0.0
 20
0.0
 30
0.0
  9
$PUCSORGLEFT
 10
0.0
 20
0.0
 30
0.0
  9
$PUCSORGRIGHT
 10
0.0
 20
0.0
 30
0.0
  9
$PUCSORGFRONT
 10
0.0
 20
0.0
 30
0.0
  9
$PUCSORGBACK
 10
0.0
 20
0.0
 30
0.0
  9
$USERI1
 70
0
  9
$USERI2
 70
0
  9
$USERI3
 70
0
  9
$USERI4
 70
0
  9
$USERI5
 70
0
  9
$USERR1
 40
0.0
  9
$USERR2
 40
0.0
  9
$USERR3
 40
0.0
  9
$USERR4
 40
0.0
  9
$USERR5
 40
0.0
  9
$WORLDVIEW
 70
1
  9
$SHADEDGE
 70
3
  9
$SHADEDIF
 70
70
  9
$TILEMODE
 70
1
  9
$MAXACTVP
 70
64
  9
$PINSBASE
 10
0.0
 20
0.0
 30
0.0
  9
$PLIMCHECK
 70
0
  9
$PEXTMIN
 10
1e+20
 20
1e+20
 30
1e+20
  9
$PEXTMAX
 10
-1e+20
 20
-1e+20
 30
-1e+20
  9
$PLIMMIN
 10
0.0
 20
0.0
  9
$PLIMMAX
 10
420.0
 20
297.0
  9
$UNITMODE
 70
0
  9
$VISRETAIN
 70
1
  9
$PLINEGEN
 70
0
  9
$PSLTSCALE
 70
1
  9
$TREEDEPTH
 70
3020
  9
$CMLSTYLE
  2
Standard
  9
$CMLJUST
 70
0
  9
$CMLSCALE
 40
20.0
  9
$PROXYGRAPHICS
 70
1
  9
$MEASUREMENT
 70
1
  9
$CELWEIGHT
370
-1
  9
$ENDCAPS
280
0
  9
$JOINSTYLE
280
0
  9
$LWDISPLAY
290
0
  9
$INSUNITS
 70
6
  9
$HYPERLINKBASE
  1

  9
$STYLESHEET
  1

  9
$XEDIT
290
1
  9
$CEPSNTYPE
380
0
  9
$PSTYLEMODE
290
1
  9
$FINGERPRINTGUID
  2
A6FEE396-E5BB-11EB-AC7C-8ADB33BF8A49
  9
$VERSIONGUID
  2
A6FEE398-E5BB-11EB-8BC0-8ADB33BF8A49
  9
$EXTNAMES
290
1
  9
$PSVPSCALE
 40
0.0
  9
$OLESTARTUP
290
0
  9
$SORTENTS
280
127
  9
$INDEXCTL
280
0
  9
$HIDETEXT
280
1
  9
$XCLIPFRAME
280
2
  9
$HALOGAP
280
0
  9
$OBSCOLOR
 70
257
  9
$OBSLTYPE
280
0
  9
$INTERSECTIONDISPLAY
280
0
  9
$INTERSECTIONCOLOR
 70
257
  9
$DIMASSOC
280
2
  9
$PROJECTNAME
  1

  9
$CAMERADISPLAY
290
0
  9
$LENSLENGTH
 40
50.0
  9
$CAMERAHEIGHT
 40
0.0
  9
$STEPSPERSEC
 40
24.0
  9
$STEPSIZE
 40
100.0
  9
$3DDWFPREC
 40
2.0
  9
$PSOLWIDTH
 40
0.005
  9
$PSOLHEIGHT
 40
0.08
  9
$LOFTANG1
 40
1.570796326795
  9
$LOFTANG2
 40
1.570796326795
  9
$LOFTMAG1
 40
0.0
  9
$LOFTMAG2
 40
0.0
  9
$LOFTPARAM
 70
7
  9
$LOFTNORMALS
280
1
  9
$LATITUDE
 40
37.795
  9
$LONGITUDE
 40
-122.394
  9
$NORTHDIRECTION
 40
0.0
  9
$TIMEZONE
 70
-8000
  9
$LIGHTGLYPHDISPLAY
280
1
  9
$TILEMODELIGHTSYNCH
280
1
  9
$CMATERIAL
347
20
  9
$SOLIDHIST
280
0
  9
$SHOWHIST
280
1
  9
$DWFFRAME
280
2
  9
$DGNFRAME
280
2
  9
$REALWORLDSCALE
290
1
  9
$INTERFERECOLOR
 62
256
  9
$CSHADOW
280
0
  9
$SHADOWPLANELOCATION
 40
0.0
  0
ENDSEC
  0
SECTION
  2
CLASSES
  0
CLASS
  1
ACDBDICTIONARYWDFLT
  2
AcDbDictionaryWithDefault
  3
ObjectDBX Classes
 90
0
 91
0
280
0
281
0
  0
CLASS
  1
SUN
  2
AcDbSun
  3
SCENEOE
 90
1153
 91
0
280
0
281
0
  0
CLASS
  1
VISUALSTYLE
  2
AcDbVisualStyle
  3
ObjectDBX Classes
 90
4095
 91
0
280
0
281
0
  0
CLASS
  1
MATERIAL
  2
AcDbMaterial
  3
ObjectDBX Classes
 90
1153
 91
0
280
0
281
0
  0
CLASS
  1
SCALE
  2
AcDbScale
  3
ObjectDBX Classes
 90
1153
 91
0
280
0
281
0
  0
CLASS
  1
TABLESTYLE
  2
AcDbTableStyle
  3
ObjectDBX Classes
 90
4095
 91
0
280
0
281
0
  0
CLASS
  1
MLEADERSTYLE
  2
AcDbMLeaderStyle
  3
ACDB_MLEADERSTYLE_CLASS
 90
4095
 91
0
280
0
281
0
  0
CLASS
  1
DICTIONARYVAR
  2
AcDbDictionaryVar
  3
ObjectDBX Classes
 90
0
 91
0
280
0
281
0
  0
CLASS
  1
CELLSTYLEMAP
  2
AcDbCellStyleMap
  3
ObjectDBX Classes
 90
1152
 91
0
280
0
281
0
  0
CLASS
  1
MENTALRAYRENDERSETTINGS
  2
AcDbMentalRayRenderSettings
  3
SCENEOE
 90
1024
 91
0
280
0
281
0
  0
CLASS
  1
ACDBDETAILVIEWSTYLE
  2
AcDbDetailViewStyle
  3
ObjectDBX Classes
 90
1025
 91
0
280
0
281
0
  0
CLASS
  1
ACDBSECTIONVIEWSTYLE
  2
AcDbSectionViewStyle
  3
ObjectDBX Classes
 90
1025
 91
0
280
0
281
0
  0
CLASS
  1
RASTERVARIABLES
  2
AcDbRasterVariables
  3
ISM
 90
0
 91
0
280
0
281
0
  0
CLASS
  1
ACDBPLACEHOLDER
  2
AcDbPlaceHolder
  3
ObjectDBX Classes
 90
0
 91
0
280
0
281
0
  0
CLASS
  1
LAYOUT
  2
AcDbLayout
  3
ObjectDBX Classes
 90
0
 91
0
280
0
281
0
  0
ENDSEC
  0
SECTION
  2
TABLES
  0
TABLE
  2
VPORT
  5
8
330
0
100
AcDbSymbolTable
 70
1
  0
VPORT
  5
23
330
8
100
AcDbSymbolTableRecord
100
AcDbViewportTableRecord
  2
*Active
 70
0
 10
0.0
 20
0.0
 11
1.0
 21
1.0
 12
70.0
 22
50.0
 13
0.0
 23
0.0
 14
0.5
 24
0.5
 15
0.5
 25
0.5
 16
0.0
 26
0.0
 36
1.0
 17
0.0
 27
0.0
 37
0.0
 40
1.0
 41
1.34
 42
50.0
 43
0.0
 44
0.0
 50
0.0
 51
0.0
 71
0
 72
1000
 73
1
 74
3
 75
0
 76
0
 77
0
 78
0
281
0
 65
0
146
0.0
  0
ENDTAB
  0
TABLE
  2
LTYPE
  5
2
330
0
100
AcDbSymbolTable
 70
3
  0
LTYPE
  5
24
330
2
100
AcDbSymbolTableRecord
100
AcDbLinetypeTableRecord
  2
ByBlock
 70
0
  3

 72
65
 73
0
 40
0.0
  0
LTYPE
  5
25
330
2
100
AcDbSymbolTableRecord
100
AcDbLinetypeTableRecord
  2
ByLayer
 70
0
  3

 72
65
 73
0
 40
0.0
  0
LTYPE
  5
26
330
2
100
AcDbSymbolTableRecord
100
AcDbLinetypeTableRecord
  2
Continuous
 70
0
  3

 72
65
 73
0
 40
0.0
  0
ENDTAB
  0
TABLE
  2
LAYER
  5
1
330
0
100
AcDbSymbolTable
 70
2
  0
LAYER
  5
27
330
1
100
AcDbSymbolTableRecord
100
AcDbLayerTableRecord
  2
0
 70
0
 62
7
  6
Continuous
370
-3
390
13
347
21
  0
LAYER
  5
28
330
1
100
AcDbSymbolTableRecord
100
AcDbLayerTableRecord
  2
Defpoints
 70
0
 62
7
  6
Continuous
290
0
370
-3
390
13
347
21
  0
ENDTAB
  0
TABLE
  2
STYLE
  5
5
330
0
100
AcDbSymbolTable
 70
1
  0
STYLE
  5
29
330
5
100
AcDbSymbolTableRecord
100
AcDbTextStyleTableRecord
  2
Standard
 70
0
 40
0.0
 41
1.0
 50
0.0
 71
0
 42
2.5
  3
txt
  4

  0
ENDTAB
  0
TABLE
  2
VIEW
  5
7
330
0
100
AcDbSymbolTable
 70
0
  0
ENDTAB
  0
TABLE
  2
UCS
  5
6
330
0
100
AcDbSymbolTable
 70
0
  0
ENDTAB
  0
TABLE
  2
APPID
  5
3
330
0
100
AcDbSymbolTable
 70
2
  0
APPID
  5
2A
330
3
100
AcDbSymbolTableRecord
100
AcDbRegAppTableRecord
  2
ACAD
 70
0
  0
APPID
  5
3A
330
3
100
AcDbSymbolTableRecord
100
AcDbRegAppTableRecord
  2
HATCHBACKGROUNDCOLOR
 70
0
  0
ENDTAB
  0
TABLE
  2
DIMSTYLE
  5
4
330
0
100
AcDbSymbolTable
 70
1
100
AcDbDimStyleTable
  0
DIMSTYLE
105
2B
330
4
100
AcDbSymbolTableRecord
100
AcDbDimStyleTableRecord
  2
Standard
 70
0
 40
1.0
 41
2.5
 42
0.625
 43
3.75
 44
1.25
 45
0.0
 46
0.0
 47
0.0
 48
0.0
 49
2.5
140
2.5
141
2.5
142
0.0
143
0.03937007874
144
1.0
145
0.0
146
1.0
147
0.625
148
0.0
 69
0
 70
0
 71
0
 72
0
 73
0
 74
0
 75
0
 76
0
 77
1
 78
8
 79
0
170
0
171
3
172
1
173
0
174
0
175
0
176
0
177
0
178
0
179
0
271
0
272
2
273
2
274
3
275
0
276
0
277
2
278
44
279
0
280
0
281
0
282
0
283
0
284
8
285
0
286
0
288
0
289
3
290
0
371
-2
372
-2
  0
ENDTAB
  0
TABLE
  2
BLOCK_RECORD
  5
9
330
0
100
AcDbSymbolTable
 70
2
  0
BLOCK_RECORD
  5
17
330
9
100
AcDbSymbolTableRecord
100
AcDbBlockTableRecord
  2
*Model_Space
340
1A
 70
0
280
1
281
0
  0
BLOCK_RECORD
  5
1B
330
9
100
AcDbSymbolTableRecord
100
AcDbBlockTableRecord
  2
*Paper_Space
340
1E
 70
0
280
1
281
0
  0
ENDTAB
  0
ENDSEC
  0
SECTION
  2
BLOCKS
  0
BLOCK
  5
18
330
17
100
AcDbEntity
  8
0
100
AcDbBlockBegin
  2
*Model_Space
 70
0
 10
0.0
 20
0.0
 30
0.0
  3
*Model_Space
  1

  0
ENDBLK
  5
19
330
17
100
AcDbEntity
  8
0
100
AcDbBlockEnd
  0
BLOCK
  5
1C
330
1B
100
AcDbEntity
  8
0
100
AcDbBlockBegin
  2
*Paper_Space
 70
0
 10
0.0
 20
0.0
 30
0.0
  3
*Paper_Space
  1

  0
ENDBLK
  5
1D
330
1B
100
AcDbEntity
  8
0
100
AcDbBlockEnd
  0
ENDSEC
  0
SECTION
  2
ENTITIES
  0
LWPOLYLINE
  5
2D
330
17
100
AcDbEntity
  8
0
100
AcDbPolyline
 90
42
 70
0
 10
-47.336204864651826
 20
-74.36715810813105
 10
-47.329986114651824
 20
-74.30056435813104
 10
-47.320079864651824
 20
-74.23672060813105
 10
-47.306486114651825
 20
-74.17562685813104
 10
-47.28920486465182
 20
-74.11728310813105
 10
-47.26823611465183
 20
-74.06168935813105
 10
-47.24357986465182
 20
-74.00884560813104
 10
-47.21523611465182
 20
-73.95875185813105
 10
-47.18320486465183
 20
-73.91140810813104
 10
-47.14748611465183
 20
-73.86681435813105
 10
-47.10807986465183
 20
-73.82497060813104
 10
-47.065861114651824
 20
-73.78652529563105
 10
-47.021704864651824
 20
-73.75212685813105
 10
-46.97561111465183
 20
-73.72177529563105
 10
-46.927579864651825
 20
-73.69547060813105
 10
-46.87761111465183
 20
-73.67321279563104
 10
-46.825704864651826
 20
-73.65500185813104
 10
-46.77186111465183
 20
-73.64083779563104
 10
-46.716079864651824
 20
-73.63072060813104
 10
-46.658361114651825
 20
-73.62465029563104
 10
-46.59870486465182
 20
-73.62262685813104
 10
-46.53307205215182
 20
-73.62516592063105
 10
-46.46992361465182
 20
-73.63278310813105
 10
-46.40925955215182
 20
-73.64547842063105
 10
-46.35107986465182
 20
-73.66325185813105
 10
-46.29538455215182
 20
-73.68610342063104
 10
-46.242173614651826
 20
-73.71403310813105
 10
-46.19144705215182
 20
-73.74704092063105
 10
-46.14320486465182
 20
-73.78512685813105
 10
-46.09744705215182
 20
-73.82829092063105
 10
-46.05417361465182
 20
-73.87653310813104
 10
-46.02790798965182
 20
-73.91082998313104
 10
-46.00379861465182
 20
-73.94840810813105
 10
-45.981845489651825
 20
-73.98926748313104
 10
-45.96204861465182
 20
-74.03340810813104
 10
-45.94440798965182
 20
-74.08082998313104
 10
-45.92892361465182
 20
-74.13153310813104
 10
-45.91559548965182
 20
-74.18551748313105
 10
-45.90442361465182
 20
-74.24278310813105
 10
-45.89540798965182
 20
-74.30332998313105
 10
-45.888548614651825
 20
-74.36715810813105
 10
-47.336204864651826
 20
-74.36715810813105
  0
LWPOLYLINE
  5
2E
330
17
100
AcDbEntity
  8
0
100
AcDbPolyline
 90
92
 70
0
 10
-51.29352908340182
 20
-74.61090810813104
 10
-51.29352908340182
 20
-74.77262685813105
 10
-51.294240020901825
 20
-74.82918935813105
 10
-51.296372833401826
 20
-74.88293935813104
 10
-51.299927520901825
 20
-74.93387685813104
 10
-51.30490408340182
 20
-74.98200185813104
 10
-51.311302520901826
 20
-75.02731435813105
 10
-51.31912283340183
 20
-75.06981435813104
 10
-51.32836502090183
 20
-75.10950185813104
 10
-51.339029083401826
 20
-75.14637685813105
 10
-51.35111502090182
 20
-75.18043935813104
 10
-51.364622833401825
 20
-75.21168935813104
 10
-51.384263458401826
 20
-75.24946279563105
 10
-51.40599783340183
 20
-75.28559560813105
 10
-51.42982595840182
 20
-75.32008779563104
 10
-51.45574783340182
 20
-75.35293935813104
 10
-51.483763458401825
 20
-75.38415029563104
 10
-51.51387283340183
 20
-75.41372060813104
 10
-51.54607595840182
 20
-75.44165029563105
 10
-51.580372833401825
 20
-75.46793935813105
 10
-51.61676345840182
 20
-75.49258779563104
 10
-51.65524783340182
 20
-75.51559560813105
 10
-51.69534158340183
 20
-75.53667373313104
 10
-51.736560333401826
 20
-75.55553310813104
 10
-51.77890408340183
 20
-75.57217373313104
 10
-51.82237283340182
 20
-75.58659560813105
 10
-51.866966583401826
 20
-75.59879873313105
 10
-51.912685333401825
 20
-75.60878310813105
 10
-51.959529083401826
 20
-75.61654873313104
 10
-52.00749783340182
 20
-75.62209560813105
 10
-52.056591583401826
 20
-75.62542373313104
 10
-52.106810333401825
 20
-75.62653310813104
 10
-52.15683377090183
 20
-75.62536123313104
 10
-52.204404083401826
 20
-75.62184560813104
 10
-52.24952127090182
 20
-75.61598623313104
 10
-52.292185333401825
 20
-75.60778310813104
 10
-52.332396270901825
 20
-75.59723623313104
 10
-52.37015408340182
 20
-75.58434560813104
 10
-52.405458770901824
 20
-75.56911123313104
 10
-52.43831033340182
 20
-75.55153310813104
 10
-52.46870877090183
 20
-75.53161123313104
 10
-52.49665408340182
 20
-75.50934560813104
 10
-52.521888458401826
 20
-75.48532217063105
 10
-52.54446658340182
 20
-75.46012685813105
 10
-52.56438845840182
 20
-75.43375967063105
 10
-52.58165408340182
 20
-75.40622060813105
 10
-52.59626345840182
 20
-75.37750967063104
 10
-52.60821658340183
 20
-75.34762685813105
 10
-52.617513458401824
 20
-75.31657217063105
 10
-52.62415408340183
 20
-75.28434560813105
 10
-52.62813845840182
 20
-75.25094717063105
 10
-52.62946658340182
 20
-75.21637685813104
 10
-52.628857208401826
 20
-75.19361904563104
 10
-52.62702908340182
 20
-75.17128310813105
 10
-52.62398220840183
 20
-75.14936904563105
 10
-52.619716583401825
 20
-75.12787685813105
 10
-52.61423220840182
 20
-75.10680654563104
 10
-52.60752908340182
 20
-75.08615810813104
 10
-52.59960720840182
 20
-75.06593154563105
 10
-52.59046658340182
 20
-75.04612685813105
 10
-52.58010720840183
 20
-75.02674404563105
 10
-52.56852908340183
 20
-75.00778310813105
 10
-52.555685333401826
 20
-74.98948623313105
 10
-52.541841583401826
 20
-74.97209560813104
 10
-52.52699783340182
 20
-74.95561123313105
 10
-52.51115408340183
 20
-74.94003310813105
 10
-52.49431033340183
 20
-74.92536123313104
 10
-52.47646658340182
 20
-74.91159560813105
 10
-52.45762283340183
 20
-74.89873623313105
 10
-52.43777908340182
 20
-74.88678310813104
 10
-52.416935333401824
 20
-74.87573623313105
 10
-52.39509158340182
 20
-74.86559560813104
 10
-52.371005645901825
 20
-74.85585342063105
 10
-52.34374783340182
 20
-74.84631435813104
 10
-52.313318145901825
 20
-74.83697842063104
 10
-52.27971658340182
 20
-74.82784560813104
 10
-52.242943145901826
 20
-74.81891592063104
 10
-52.202997833401824
 20
-74.81018935813104
 10
-52.15988064590182
 20
-74.80166592063104
 10
-52.11359158340182
 20
-74.79334560813105
 10
-52.06413064590183
 20
-74.78522842063104
 10
-52.011497833401826
 20
-74.77731435813105
 10
-51.91825564590182
 20
-74.76327529563105
 10
-51.829779083401824
 20
-74.74865810813104
 10
-51.74606814590182
 20
-74.73346279563104
 10
-51.66712283340183
 20
-74.71768935813104
 10
-51.59294314590183
 20
-74.70133779563105
 10
-51.523529083401826
 20
-74.68440810813104
 10
-51.45888064590182
 20
-74.66690029563105
 10
-51.39899783340182
 20
-74.64881435813105
 10
-51.34388064590183
 20
-74.63015029563104
 10
-51.29352908340182
 20
-74.61090810813104
  0
LWPOLYLINE
  5
2F
330
17
100
AcDbEntity
  8
0
100
AcDbPolyline
 90
5
 70
0
 10
91.39240021457013
 20
-85.864317874853
 10
-73.5112943188738
 20
-85.864317874853
 10
-73.5112943188738
 20
59.039376658590925
 10
91.39240021457013
 20
59.039376658590925
 10
91.39240021457013
 20
-85.864317874853
  0
LWPOLYLINE
  5
30
330
17
100
AcDbEntity
  8
0
100
AcDbPolyline
 90
33
 70
0
 10
81.44055294784818
 20
-73.41247060813104
 10
81.39251614885625
 20
-72.92474480309072
 10
81.25025177912639
 20
-72.45576202721831
 10
81.01922697860454
 20
-72.02354502558204
 10
80.70831990081454
 20
-71.64470365516468
 10
80.32947853039717
 20
-71.33379657737468
 10
79.8972615287609
 20
-71.10277177685282
 10
79.42827875288849
 20
-70.96050740712296
 10
78.94055294784816
 20
-70.91247060813104
 10
78.45282714280785
 20
-70.96050740712298
 10
77.98384436693544
 20
-71.10277177685283
 10
77.55162736529915
 20
-71.33379657737468
 10
77.17278599488179
 20
-71.64470365516469
 10
76.8618789170918
 20
-72.02354502558205
 10
76.63085411656995
 20
-72.45576202721833
 10
76.48858974684009
 20
-72.92474480309073
 10
76.44055294784818
 20
-73.41247060813106
 10
76.4885897468401
 20
-73.90019641317137
 10
76.63085411656996
 20
-74.36917918904378
 10
76.86187891709181
 20
-74.80139619068005
 10
77.1727859948818
 20
-75.18023756109741
 10
77.55162736529917
 20
-75.4911446388874
 10
77.98384436693546
 20
-75.72216943940927
 10
78.45282714280786
 20
-75.86443380913911
 10
78.94055294784818
 20
-75.91247060813104
 10
79.4282787528885
 20
-75.86443380913911
 10
79.89726152876091
 20
-75.72216943940926
 10
80.32947853039718
 20
-75.4911446388874
 10
80.70831990081454
 20
-75.18023756109741
 10
81.01922697860454
 20
-74.80139619068005
 10
81.25025177912639
 20
-74.36917918904376
 10
81.39251614885625
 20
-73.90019641317137
 10
81.44055294784818
 20
-73.41247060813104
  0
LWPOLYLINE
  5
31
330
17
100
AcDbEntity
  8
0
100
AcDbPolyline
 90
33
 70
0
 10
-58.559447052151825
 20
-73.41247060813104
 10
-58.60748385114375
 20
-72.92474480309072
 10
-58.74974822087361
 20
-72.45576202721831
 10
-58.980773021395464
 20
-72.02354502558204
 10
-59.29168009918546
 20
-71.64470365516468
 10
-59.670521469602825
 20
-71.33379657737468
 10
-60.10273847123911
 20
-71.10277177685282
 10
-60.57172124711151
 20
-70.96050740712296
 10
-61.05944705215183
 20
-70.91247060813104
 10
-61.54717285719215
 20
-70.96050740712298
 10
-62.01615563306456
 20
-71.10277177685283
 10
-62.44837263470084
 20
-71.33379657737468
 10
-62.8272140051182
 20
-71.64470365516469
 10
-63.13812108290819
 20
-72.02354502558205
 10
-63.36914588343004
 20
-72.45576202721833
 10
-63.5114102531599
 20
-72.92474480309073
 10
-63.559447052151825
 20
-73.41247060813106
 10
-63.5114102531599
 20
-73.90019641317137
 10
-63.369145883430036
 20
-74.36917918904378
 10
-63.138121082908185
 20
-74.80139619068005
 10
-62.827214005118186
 20
-75.18023756109741
 10
-62.448372634700824
 20
-75.4911446388874
 10
-62.01615563306454
 20
-75.72216943940927
 10
-61.54717285719214
 20
-75.86443380913911
 10
-61.05944705215182
 20
-75.91247060813104
 10
-60.5717212471115
 20
-75.86443380913911
 10
-60.1027384712391
 20
-75.72216943940926
 10
-59.67052146960282
 20
-75.4911446388874
 10
-59.291680099185456
 20
-75.18023756109741
 10
-58.980773021395464
 20
-74.80139619068005
 10
-58.749748220873606
 20
-74.36917918904376
 10
-58.60748385114375
 20
-73.90019641317137
 10
-58.559447052151825
 20
-73.41247060813104
  0
LWPOLYLINE
  5
32
330
17
100
AcDbEntity
  8
0
100
AcDbPolyline
 90
33
 70
0
 10
81.44055294784818
 20
46.587529391868955
 10
81.39251614885625
 20
47.07525519690928
 10
81.25025177912639
 20
47.54423797278169
 10
81.01922697860454
 20
47.97645497441797
 10
80.70831990081454
 20
48.35529634483533
 10
80.32947853039717
 20
48.66620342262532
 10
79.8972615287609
 20
48.897228223147174
 10
79.42827875288849
 20
49.03949259287703
 10
78.94055294784816
 20
49.087529391868955
 10
78.45282714280785
 20
49.03949259287703
 10
77.98384436693544
 20
48.89722822314717
 10
77.55162736529915
 20
48.666203422625316
 10
77.17278599488179
 20
48.35529634483532
 10
76.8618789170918
 20
47.976454974417955
 10
76.63085411656995
 20
47.54423797278167
 10
76.48858974684009
 20
47.07525519690927
 10
76.44055294784818
 20
46.58752939186895
 10
76.4885897468401
 20
46.09980358682863
 10
76.63085411656996
 20
45.63082081095622
 10
76.86187891709181
 20
45.19860380931994
 10
77.1727859948818
 20
44.81976243890258
 10
77.55162736529917
 20
44.50885536111259
 10
77.98384436693546
 20
44.277830560590736
 10
78.45282714280786
 20
44.13556619086088
 10
78.94055294784818
 20
44.087529391868955
 10
79.4282787528885
 20
44.13556619086088
 10
79.89726152876091
 20
44.277830560590736
 10
80.32947853039718
 20
44.508855361112595
 10
80.70831990081454
 20
44.819762438902586
 10
81.01922697860454
 20
45.19860380931995
 10
81.25025177912639
 20
45.63082081095623
 10
81.39251614885625
 20
46.099803586828635
 10
81.44055294784818
 20
46.587529391868955
  0
LWPOLYLINE
  5
33
330
17
100
AcDbEntity
  8
0
100
AcDbPolyline
 90
33
 70
0
 10
-58.559447052151825
 20
46.587529391868955
 10
-58.60748385114375
 20
47.07525519690928
 10
-58.74974822087361
 20
47.54423797278169
 10
-58.980773021395464
 20
47.97645497441797
 10
-59.29168009918546
 20
48.35529634483533
 10
-59.670521469602825
 20
48.66620342262532
 10
-60.10273847123911
 20
48.897228223147174
 10
-60.57172124711151
 20
49.03949259287703
 10
-61.05944705215183
 20
49.087529391868955
 10
-61.54717285719215
 20
49.03949259287703
 10
-62.01615563306456
 20
48.89722822314717
 10
-62.44837263470084
 20
48.666203422625316
 10
-62.8272140051182
 20
48.35529634483532
 10
-63.13812108290819
 20
47.976454974417955
 10
-63.36914588343004
 20
47.54423797278167
 10
-63.5114102531599
 20
47.07525519690927
 10
-63.559447052151825
 20
46.58752939186895
 10
-63.5114102531599
 20
46.09980358682863
 10
-63.369145883430036
 20
45.63082081095622
 10
-63.138121082908185
 20
45.19860380931994
 10
-62.827214005118186
 20
44.81976243890258
 10
-62.448372634700824
 20
44.50885536111259
 10
-62.01615563306454
 20
44.277830560590736
 10
-61.54717285719214
 20
44.13556619086088
 10
-61.05944705215182
 20
44.087529391868955
 10
-60.5717212471115
 20
44.13556619086088
 10
-60.1027384712391
 20
44.277830560590736
 10
-59.67052146960282
 20
44.508855361112595
 10
-59.291680099185456
 20
44.819762438902586
 10
-58.980773021395464
 20
45.19860380931995
 10
-58.749748220873606
 20
45.63082081095623
 10
-58.60748385114375
 20
46.099803586828635
 10
-58.559447052151825
 20
46.587529391868955
  0
LWPOLYLINE
  5
34
330
17
100
AcDbEntity
  8
0
100
AcDbPolyline
 90
7
 70
0
 10
-55.69304080215183
 20
-75.91247060813104
 10
-53.45710330215182
 20
-75.91247060813104
 10
-53.45710330215182
 20
-75.48981435813104
 10
-55.219603302151825
 20
-75.48981435813104
 10
-55.219603302151825
 20
-72.33356435813104
 10
-55.69304080215183
 20
-72.33356435813104
 10
-55.69304080215183
 20
-75.91247060813104
  0
LWPOLYLINE
  5
35
330
17
100
AcDbEntity
  8
0
100
AcDbPolyline
 90
185
 70
0
 10
-39.64577517715182
 20
-75.48981435813104
 10
-41.401243927151825
 20
-75.48981435813104
 10
-41.386173614651824
 20
-75.46592373313105
 10
-41.370337677151824
 20
-75.44206435813105
 10
-41.353736114651824
 20
-75.41823623313104
 10
-41.336368927151824
 20
-75.39443935813104
 10
-41.318236114651825
 20
-75.37067373313104
 10
-41.299337677151826
 20
-75.34693935813104
 10
-41.27967361465183
 20
-75.32323623313104
 10
-41.25924392715182
 20
-75.29956435813105
 10
-41.238048614651824
 20
-75.27592373313105
 10
-41.216087677151826
 20
-75.25231435813104
 10
-41.19075173965182
 20
-75.22643154563104
 10
-41.15974392715182
 20
-75.19628310813104
 10
-41.123064239651825
 20
-75.16186904563105
 10
-41.08071267715182
 20
-75.12318935813104
 10
-41.03268923965182
 20
-75.08024404563105
 10
-40.97899392715182
 20
-75.03303310813105
 10
-40.919626739651825
 20
-74.98155654563105
 10
-40.85458767715182
 20
-74.92581435813105
 10
-40.783876739651824
 20
-74.86580654563105
 10
-40.70749392715182
 20
-74.80153310813104
 10
-40.615501739651826
 20
-74.72323623313105
 10
-40.528900177151826
 20
-74.64834560813104
 10
-40.44768923965182
 20
-74.57686123313104
 10
-40.37186892715182
 20
-74.50878310813104
 10
-40.30143923965183
 20
-74.44411123313104
 10
-40.23640017715182
 20
-74.38284560813105
 10
-40.17675173965182
 20
-74.32498623313104
 10
-40.12249392715182
 20
-74.27053310813105
 10
-40.07362673965182
 20
-74.21948623313105
 10
-40.030150177151825
 20
-74.17184560813105
 10
-39.990532989651825
 20
-74.12613467063105
 10
-39.953243927151824
 20
-74.08087685813105
 10
-39.91828298965183
 20
-74.03607217063104
 10
-39.885650177151824
 20
-73.99172060813105
 10
-39.855345489651825
 20
-73.94782217063104
 10
-39.827368927151824
 20
-73.90437685813104
 10
-39.80172048965183
 20
-73.86138467063104
 10
-39.77840017715182
 20
-73.81884560813104
 10
-39.757407989651824
 20
-73.77675967063105
 10
-39.73874392715182
 20
-73.73512685813104
 10
-39.721970489651824
 20
-73.69349404563104
 10
-39.70696267715182
 20
-73.65172060813104
 10
-39.693720489651824
 20
-73.60980654563105
 10
-39.68224392715182
 20
-73.56775185813105
 10
-39.67253298965183
 20
-73.52555654563105
 10
-39.66458767715183
 20
-73.48322060813105
 10
-39.65840798965182
 20
-73.44074404563105
 10
-39.653993927151824
 20
-73.39812685813105
 10
-39.651345489651824
 20
-73.35536904563105
 10
-39.65046267715182
 20
-73.31247060813105
 10
-39.65347048965182
 20
-73.22931435813105
 10
-39.66249392715183
 20
-73.14890810813104
 10
-39.67753298965182
 20
-73.07125185813105
 10
-39.69858767715183
 20
-72.99634560813105
 10
-39.72565798965182
 20
-72.92418935813104
 10
-39.758743927151826
 20
-72.85478310813104
 10
-39.79784548965183
 20
-72.78812685813105
 10
-39.84296267715182
 20
-72.72422060813105
 10
-39.894095489651825
 20
-72.66306435813104
 10
-39.95124392715182
 20
-72.60465810813105
 10
-40.01339236465182
 20
-72.55032998313105
 10
-40.07983767715182
 20
-72.50172060813105
 10
-40.150579864651824
 20
-72.45882998313104
 10
-40.22561892715183
 20
-72.42165810813104
 10
-40.30495486465182
 20
-72.39020498313104
 10
-40.38858767715182
 20
-72.36447060813104
 10
-40.476517364651826
 20
-72.34445498313104
 10
-40.56874392715182
 20
-72.33015810813104
 10
-40.665267364651825
 20
-72.32157998313104
 10
-40.76608767715182
 20
-72.31872060813104
 10
-40.86619705215182
 20
-72.32136904563104
 10
-40.96215017715183
 20
-72.32931435813104
 10
-41.05394705215183
 20
-72.34255654563104
 10
-41.141587677151826
 20
-72.36109560813105
 10
-41.22507205215182
 20
-72.38493154563105
 10
-41.30440017715182
 20
-72.41406435813104
 10
-41.37957205215182
 20
-72.44849404563105
 10
-41.450587677151816
 20
-72.48822060813104
 10
-41.51744705215182
 20
-72.53324404563105
 10
-41.58015017715182
 20
-72.58356435813104
 10
-41.638056427151824
 20
-72.63893935813104
 10
-41.69083767715182
 20
-72.69912685813104
 10
-41.73849392715182
 20
-72.76412685813105
 10
-41.781025177151825
 20
-72.83393935813105
 10
-41.81843142715182
 20
-72.90856435813104
 10
-41.85071267715182
 20
-72.98800185813104
 10
-41.87786892715182
 20
-73.07225185813104
 10
-41.89990017715182
 20
-73.16131435813105
 10
-41.916806427151826
 20
-73.25518935813105
 10
-41.928587677151825
 20
-73.35387685813104
 10
-41.47702517715182
 20
-73.39997060813104
 10
-41.47467361465182
 20
-73.33409560813105
 10
-41.468556427151825
 20
-73.27115810813105
 10
-41.45867361465182
 20
-73.21115810813104
 10
-41.44502517715182
 20
-73.15409560813104
 10
-41.427611114651825
 20
-73.09997060813104
 10
-41.40643142715182
 20
-73.04878310813105
 10
-41.38148611465182
 20
-73.00053310813105
 10
-41.35277517715182
 20
-72.95522060813104
 10
-41.32029861465182
 20
-72.91284560813105
 10
-41.284056427151825
 20
-72.87340810813104
 10
-41.24466580215182
 20
-72.83718935813104
 10
-41.20274392715182
 20
-72.80478310813105
 10
-41.158290802151825
 20
-72.77618935813105
 10
-41.111306427151824
 20
-72.75140810813105
 10
-41.061790802151826
 20
-72.73043935813105
 10
-41.009743927151824
 20
-72.71328310813105
 10
-40.955165802151825
 20
-72.69993935813105
 10
-40.89805642715182
 20
-72.69040810813104
 10
-40.83841580215183
 20
-72.68468935813104
 10
-40.776243927151825
 20
-72.68278310813105
 10
-40.717376739651826
 20
-72.68457998313104
 10
-40.66077517715182
 20
-72.68997060813105
 10
-40.60643923965182
 20
-72.69895498313105
 10
-40.55436892715183
 20
-72.71153310813105
 10
-40.50456423965183
 20
-72.72770498313105
 10
-40.45702517715182
 20
-72.74747060813104
 10
-40.41175173965183
 20
-72.77082998313105
 10
-40.368743927151826
 20
-72.79778310813104
 10
-40.328001739651825
 20
-72.82832998313104
 10
-40.28952517715182
 20
-72.86247060813105
 10
-40.25390017715182
 20
-72.89907217063104
 10
-40.22202517715182
 20
-72.93731435813105
 10
-40.193900177151825
 20
-72.97719717063104
 10
-40.169525177151826
 20
-73.01872060813105
 10
-40.14890017715182
 20
-73.06188467063104
 10
-40.132025177151824
 20
-73.10668935813105
 10
-40.11890017715183
 20
-73.15313467063105
 10
-40.10952517715182
 20
-73.20122060813104
 10
-40.10390017715182
 20
-73.25094717063105
 10
-40.10202517715182
 20
-73.30231435813104
 10
-40.10407986465182
 20
-73.35246279563104
 10
-40.11024392715182
 20
-73.40322060813105
 10
-40.120517364651825
 20
-73.45458779563104
 10
-40.13490017715182
 20
-73.50656435813104
 10
-40.15339236465182
 20
-73.55915029563104
 10
-40.17599392715182
 20
-73.61234560813105
 10
-40.20270486465182
 20
-73.66615029563104
 10
-40.23352517715182
 20
-73.72056435813104
 10
-40.26845486465182
 20
-73.77558779563104
 10
-40.307493927151825
 20
-73.83122060813105
 10
-40.35222048965183
 20
-73.88914248313104
 10
-40.404525177151825
 20
-73.95103310813104
 10
-40.464407989651825
 20
-74.01689248313104
 10
-40.53186892715182
 20
-74.08672060813105
 10
-40.60690798965182
 20
-74.16051748313104
 10
-40.68952517715182
 20
-74.23828310813104
 10
-40.77972048965182
 20
-74.32001748313104
 10
-40.87749392715182
 20
-74.40572060813105
 10
-40.98284548965182
 20
-74.49539248313104
 10
-41.09577517715182
 20
-74.58903310813105
 10
-41.169314239651825
 20
-74.64986123313105
 10
-41.239306427151824
 20
-74.70922060813105
 10
-41.305751739651825
 20
-74.76711123313105
 10
-41.36865017715182
 20
-74.82353310813104
 10
-41.42800173965182
 20
-74.87848623313104
 10
-41.48380642715182
 20
-74.93197060813104
 10
-41.53606423965182
 20
-74.98398623313105
 10
-41.584775177151826
 20
-75.03453310813104
 10
-41.629939239651826
 20
-75.08361123313105
 10
-41.67155642715183
 20
-75.13122060813104
 10
-41.71016580215182
 20
-75.17816592063105
 10
-41.74661892715183
 20
-75.22525185813105
 10
-41.780915802151824
 20
-75.27247842063105
 10
-41.81305642715182
 20
-75.31984560813105
 10
-41.843040802151826
 20
-75.36735342063105
 10
-41.870868927151825
 20
-75.41500185813105
 10
-41.89654080215182
 20
-75.46279092063105
 10
-41.92005642715182
 20
-75.51072060813104
 10
-41.94141580215182
 20
-75.55879092063104
 10
-41.96061892715183
 20
-75.60700185813104
 10
-41.97111111465182
 20
-75.63649404563104
 10
-41.98040017715182
 20
-75.66622060813104
 10
-41.98848611465182
 20
-75.69618154563105
 10
-41.99536892715182
 20
-75.72637685813105
 10
-42.00104861465182
 20
-75.75680654563105
 10
-42.005525177151824
 20
-75.78747060813104
 10
-42.00879861465182
 20
-75.81836904563104
 10
-42.01086892715182
 20
-75.84950185813105
 10
-42.011736114651825
 20
-75.88086904563104
 10
-42.01140017715183
 20
-75.91247060813104
 10
-39.64577517715182
 20
-75.91247060813104
 10
-39.64577517715182
 20
-75.48981435813104
  0
LWPOLYLINE
  5
36
330
17
100
AcDbEntity
  8
0
100
AcDbPolyline
 90
77
 70
0
 10
-44.89216189590182
 20
-75.91247060813104
 10
-44.45309939590182
 20
-75.91247060813104
 10
-44.45309939590182
 20
-74.55465810813105
 10
-44.45236502090182
 20
-74.49947060813105
 10
-44.45016189590182
 20
-74.44515810813104
 10
-44.44649002090182
 20
-74.39172060813104
 10
-44.441349395901824
 20
-74.33915810813104
 10
-44.43474002090183
 20
-74.28747060813104
 10
-44.42666189590182
 20
-74.23665810813104
 10
-44.417115020901825
 20
-74.18672060813104
 10
-44.40609939590182
 20
-74.13765810813105
 10
-44.39361502090182
 20
-74.08947060813105
 10
-44.379661895901826
 20
-74.04215810813105
 10
-44.36931033340183
 20
-74.01204873313104
 10
-44.35763064590182
 20
-73.98328310813105
 10
-44.34462283340183
 20
-73.95586123313105
 10
-44.33028689590182
 20
-73.92978310813105
 10
-44.31462283340183
 20
-73.90504873313104
 10
-44.297630645901826
 20
-73.88165810813105
 10
-44.279310333401824
 20
-73.85961123313105
 10
-44.25966189590182
 20
-73.83890810813105
 10
-44.238685333401826
 20
-73.81954873313104
 10
-44.21638064590182
 20
-73.80153310813104
 10
-44.19311502090182
 20
-73.78505654563105
 10
-44.16925564590182
 20
-73.77031435813105
 10
-44.14480252090182
 20
-73.75730654563104
 10
-44.11975564590182
 20
-73.74603310813104
 10
-44.094115020901825
 20
-73.73649404563105
 10
-44.06788064590182
 20
-73.72868935813105
 10
-44.04105252090182
 20
-73.72261904563105
 10
-44.01363064590182
 20
-73.71828310813105
 10
-43.985615020901825
 20
-73.71568154563104
 10
-43.95700564590182
 20
-73.71481435813105
 10
-43.924818145901824
 20
-73.71576748313105
 10
-43.89263064590182
 20
-73.71862685813105
 10
-43.860443145901826
 20
-73.72339248313105
 10
-43.82825564590182
 20
-73.73006435813105
 10
-43.79606814590183
 20
-73.73864248313104
 10
-43.76388064590182
 20
-73.74912685813105
 10
-43.73169314590182
 20
-73.76151748313104
 10
-43.69950564590182
 20
-73.77581435813104
 10
-43.667318145901824
 20
-73.79201748313105
 10
-43.635130645901825
 20
-73.81012685813104
 10
-43.48356814590183
 20
-73.40231435813105
 10
-43.52942752090182
 20
-73.37544717063105
 10
-43.57513064590182
 20
-73.35140810813104
 10
-43.62067752090182
 20
-73.33019717063104
 10
-43.666068145901825
 20
-73.31181435813104
 10
-43.711302520901825
 20
-73.29625967063104
 10
-43.75638064590183
 20
-73.28353310813104
 10
-43.80130252090183
 20
-73.27363467063104
 10
-43.846068145901825
 20
-73.26656435813105
 10
-43.890677520901825
 20
-73.26232217063104
 10
-43.93513064590182
 20
-73.26090810813105
 10
-43.96565408340182
 20
-73.26179092063104
 10
-43.99566189590182
 20
-73.26443935813104
 10
-44.02515408340182
 20
-73.26885342063105
 10
-44.05413064590182
 20
-73.27503310813104
 10
-44.08259158340182
 20
-73.28297842063104
 10
-44.110536895901824
 20
-73.29268935813104
 10
-44.13796658340182
 20
-73.30416592063105
 10
-44.16488064590182
 20
-73.31740810813105
 10
-44.191279083401824
 20
-73.33241592063105
 10
-44.217161895901825
 20
-73.34918935813104
 10
-44.24302127090182
 20
-73.36857217063104
 10
-44.26934939590183
 20
-73.39172060813104
 10
-44.29614627090182
 20
-73.41863467063105
 10
-44.32341189590183
 20
-73.44931435813105
 10
-44.35114627090182
 20
-73.48375967063104
 10
-44.379349395901826
 20
-73.52197060813104
 10
-44.40802127090183
 20
-73.56394717063104
 10
-44.43716189590182
 20
-73.60968935813105
 10
-44.46677127090182
 20
-73.65919717063105
 10
-44.496849395901826
 20
-73.71247060813104
 10
-44.496849395901826
 20
-73.31950185813105
 10
-44.89216189590182
 20
-73.31950185813105
 10
-44.89216189590182
 20
-75.91247060813104
  0
LWPOLYLINE
  5
37
330
17
100
AcDbEntity
  8
0
100
AcDbPolyline
 90
133
 70
0
 10
-45.89323611465183
 20
-75.07731435813105
 10
-45.913947052151826
 20
-75.13143154563105
 10
-45.93607986465182
 20
-75.18253310813104
 10
-45.959634552151826
 20
-75.23061904563104
 10
-45.98461111465183
 20
-75.27568935813105
 10
-46.01100955215182
 20
-75.31774404563104
 10
-46.038829864651824
 20
-75.35678310813104
 10
-46.06807205215183
 20
-75.39280654563105
 10
-46.09873611465182
 20
-75.42581435813105
 10
-46.13082205215182
 20
-75.45580654563105
 10
-46.164329864651826
 20
-75.48278310813104
 10
-46.19925173965183
 20
-75.50682998313104
 10
-46.235579864651825
 20
-75.52834560813105
 10
-46.273314239651825
 20
-75.54732998313105
 10
-46.312454864651826
 20
-75.56378310813105
 10
-46.35300173965182
 20
-75.57770498313104
 10
-46.39495486465182
 20
-75.58909560813105
 10
-46.438314239651824
 20
-75.59795498313105
 10
-46.48307986465182
 20
-75.60428310813104
 10
-46.529251739651826
 20
-75.60807998313105
 10
-46.57682986465183
 20
-75.60934560813105
 10
-46.640751739651826
 20
-75.60707998313104
 10
-46.702517364651825
 20
-75.60028310813105
 10
-46.762126739651826
 20
-75.58895498313105
 10
-46.81957986465183
 20
-75.57309560813104
 10
-46.874876739651825
 20
-75.55270498313105
 10
-46.92801736465182
 20
-75.52778310813105
 10
-46.97900173965182
 20
-75.49832998313104
 10
-47.02782986465182
 20
-75.46434560813104
 10
-47.07450173965182
 20
-75.42582998313104
 10
-47.119017364651825
 20
-75.38278310813105
 10
-47.160525177151825
 20
-75.33531435813104
 10
-47.19817361465182
 20
-75.28384560813105
 10
-47.23196267715183
 20
-75.22837685813104
 10
-47.26189236465183
 20
-75.16890810813105
 10
-47.287962677151825
 20
-75.10543935813105
 10
-47.31017361465182
 20
-75.03797060813105
 10
-47.328525177151825
 20
-74.96650185813104
 10
-47.34301736465182
 20
-74.89103310813104
 10
-47.35365017715182
 20
-74.81156435813105
 10
-47.36042361465182
 20
-74.72809560813104
 10
-45.42682986465182
 20
-74.72809560813104
 10
-45.42638455215182
 20
-74.71286123313105
 10
-45.42598611465182
 20
-74.69840810813105
 10
-45.42563455215182
 20
-74.68473623313105
 10
-45.42532986465182
 20
-74.67184560813105
 10
-45.425072052151826
 20
-74.65973623313104
 10
-45.42486111465182
 20
-74.64840810813105
 10
-45.42469705215183
 20
-74.63786123313105
 10
-45.42457986465182
 20
-74.62809560813105
 10
-45.42450955215182
 20
-74.61911123313105
 10
-45.42448611465183
 20
-74.61090810813104
 10
-45.427782989651824
 20
-74.48535342063104
 10
-45.43767361465182
 20
-74.36556435813104
 10
-45.454157989651826
 20
-74.25154092063104
 10
-45.477236114651824
 20
-74.14328310813104
 10
-45.50690798965182
 20
-74.04079092063104
 10
-45.54317361465182
 20
-73.94406435813104
 10
-45.58603298965183
 20
-73.85310342063104
 10
-45.635486114651826
 20
-73.76790810813104
 10
-45.69153298965182
 20
-73.68847842063104
 10
-45.754173614651826
 20
-73.61481435813104
 10
-45.82201736465183
 20
-73.54757217063104
 10
-45.893673614651824
 20
-73.48740810813105
 10
-45.96914236465182
 20
-73.43432217063105
 10
-46.048423614651824
 20
-73.38831435813104
 10
-46.13151736465183
 20
-73.34938467063104
 10
-46.218423614651826
 20
-73.31753310813104
 10
-46.30914236465183
 20
-73.29275967063104
 10
-46.40367361465182
 20
-73.27506435813105
 10
-46.50201736465182
 20
-73.26444717063104
 10
-46.60417361465183
 20
-73.26090810813105
 10
-46.709525177151825
 20
-73.26452529563105
 10
-46.81089236465182
 20
-73.27537685813104
 10
-46.90827517715182
 20
-73.29346279563104
 10
-47.00167361465182
 20
-73.31878310813104
 10
-47.091087677151826
 20
-73.35133779563104
 10
-47.17651736465182
 20
-73.39112685813105
 10
-47.25796267715182
 20
-73.43815029563105
 10
-47.33542361465182
 20
-73.49240810813104
 10
-47.40890017715182
 20
-73.55390029563104
 10
-47.478392364651825
 20
-73.62262685813104
 10
-47.54236892715183
 20
-73.69775185813104
 10
-47.59961111465182
 20
-73.77875185813105
 10
-47.65011892715182
 20
-73.86562685813105
 10
-47.69389236465182
 20
-73.95837685813105
 10
-47.73093142715182
 20
-74.05700185813104
 10
-47.76123611465182
 20
-74.16150185813105
 10
-47.78480642715182
 20
-74.27187685813105
 10
-47.801642364651826
 20
-74.38812685813105
 10
-47.811743927151824
 20
-74.51025185813104
 10
-47.81511111465183
 20
-74.63825185813104
 10
-47.81177517715182
 20
-74.76184560813104
 10
-47.80176736465182
 20
-74.87981435813104
 10
-47.78508767715182
 20
-74.99215810813105
 10
-47.761736114651825
 20
-75.09887685813105
 10
-47.73171267715182
 20
-75.19997060813104
 10
-47.695017364651825
 20
-75.29543935813105
 10
-47.65165017715182
 20
-75.38528310813105
 10
-47.601611114651824
 20
-75.46950185813104
 10
-47.544900177151824
 20
-75.54809560813105
 10
-47.48151736465182
 20
-75.62106435813105
 10
-47.41244705215182
 20
-75.68756435813104
 10
-47.338673614651825
 20
-75.74706435813104
 10
-47.260197052151824
 20
-75.79956435813105
 10
-47.177017364651824
 20
-75.84506435813104
 10
-47.089134552151826
 20
-75.88356435813104
 10
-46.99654861465183
 20
-75.91506435813105
 10
-46.899259552151825
 20
-75.93956435813105
 10
-46.79726736465182
 20
-75.95706435813105
 10
-46.69057205215182
 20
-75.96756435813104
 10
-46.57917361465182
 20
-75.97106435813104
 10
-46.49047048965183
 20
-75.96886904563104
 10
-46.40498611465182
 20
-75.96228310813105
 10
-46.32272048965182
 20
-75.95130654563104
 10
-46.243673614651826
 20
-75.93593935813105
 10
-46.167845489651825
 20
-75.91618154563105
 10
-46.095236114651826
 20
-75.89203310813105
 10
-46.02584548965182
 20
-75.86349404563104
 10
-45.95967361465182
 20
-75.83056435813104
 10
-45.89672048965183
 20
-75.79324404563104
 10
-45.83698611465182
 20
-75.75153310813104
 10
-45.78069705215182
 20
-75.70569717063104
 10
-45.728079864651825
 20
-75.65631435813104
 10
-45.67913455215182
 20
-75.60338467063104
 10
-45.63386111465182
 20
-75.54690810813105
 10
-45.59225955215182
 20
-75.48688467063104
 10
-45.55432986465183
 20
-75.42331435813105
 10
-45.520072052151825
 20
-75.35619717063105
 10
-45.489486114651825
 20
-75.28553310813105
 10
-45.46257205215183
 20
-75.21132217063105
 10
-45.439329864651825
 20
-75.13356435813104
 10
-45.89323611465183
 20
-75.07731435813105
  0
LWPOLYLINE
  5
38
330
17
100
AcDbEntity
  8
0
100
AcDbPolyline
 90
244
 70
0
 10
-51.25681033340182
 20
-75.59293935813105
 10
-51.252419708401824
 20
-75.62904092063104
 10
-51.247060333401826
 20
-75.66422060813105
 10
-51.24073220840182
 20
-75.69847842063105
 10
-51.23343533340182
 20
-75.73181435813105
 10
-51.22516970840182
 20
-75.76422842063104
 10
-51.21593533340182
 20
-75.79572060813105
 10
-51.20573220840183
 20
-75.82629092063104
 10
-51.194560333401824
 20
-75.85593935813104
 10
-51.182419708401824
 20
-75.88466592063105
 10
-51.169310333401825
 20
-75.91247060813104
 10
-50.70993533340182
 20
-75.91247060813104
 10
-50.72609939590183
 20
-75.88250185813105
 10
-50.741154083401824
 20
-75.85228310813105
 10
-50.75509939590182
 20
-75.82181435813105
 10
-50.76793533340182
 20
-75.79109560813104
 10
-50.779661895901825
 20
-75.76012685813104
 10
-50.79027908340183
 20
-75.72890810813105
 10
-50.799786895901825
 20
-75.69743935813105
 10
-50.80818533340182
 20
-75.66572060813104
 10
-50.81547439590182
 20
-75.63375185813105
 10
-50.821654083401825
 20
-75.60153310813105
 10
-50.826997833401826
 20
-75.56452529563104
 10
-50.83177908340183
 20
-75.51850185813105
 10
-50.83599783340183
 20
-75.46346279563105
 10
-50.839654083401825
 20
-75.39940810813104
 10
-50.84274783340182
 20
-75.32633779563105
 10
-50.84527908340182
 20
-75.24425185813105
 10
-50.84724783340182
 20
-75.15315029563105
 10
-50.848654083401826
 20
-75.05303310813105
 10
-50.84949783340183
 20
-74.94390029563104
 10
-50.84977908340183
 20
-74.82575185813104
 10
-50.84977908340183
 20
-74.23981435813104
 10
-50.84999783340182
 20
-74.18303310813104
 10
-50.85065408340182
 20
-74.12987685813104
 10
-50.851747833401824
 20
-74.08034560813104
 10
-50.85327908340182
 20
-74.03443935813104
 10
-50.855247833401826
 20
-73.99215810813105
 10
-50.857654083401826
 20
-73.95350185813105
 10
-50.86049783340182
 20
-73.91847060813105
 10
-50.86377908340182
 20
-73.88706435813104
 10
-50.86749783340183
 20
-73.85928310813104
 10
-50.87165408340182
 20
-73.83512685813105
 10
-50.88005252090183
 20
-73.79950967063104
 10
-50.88962283340182
 20
-73.76515810813105
 10
-50.90036502090182
 20
-73.73207217063104
 10
-50.91227908340183
 20
-73.70025185813104
 10
-50.92536502090182
 20
-73.66969717063104
 10
-50.93962283340183
 20
-73.64040810813104
 10
-50.95505252090182
 20
-73.61238467063104
 10
-50.97165408340182
 20
-73.58562685813105
 10
-50.98942752090183
 20
-73.56013467063104
 10
-51.00837283340182
 20
-73.53590810813104
 10
-51.029005645901826
 20
-73.51256435813104
 10
-51.051841583401824
 20
-73.49003310813104
 10
-51.076880645901824
 20
-73.46831435813104
 10
-51.104122833401824
 20
-73.44740810813104
 10
-51.133568145901826
 20
-73.42731435813104
 10
-51.16521658340182
 20
-73.40803310813105
 10
-51.199068145901826
 20
-73.38956435813104
 10
-51.235122833401824
 20
-73.37190810813104
 10
-51.273380645901824
 20
-73.35506435813105
 10
-51.313841583401825
 20
-73.33903310813105
 10
-51.356497833401825
 20
-73.32418935813105
 10
-51.40165408340182
 20
-73.31090810813104
 10
-51.449310333401826
 20
-73.29918935813104
 10
-51.499466583401826
 20
-73.28903310813105
 10
-51.552122833401825
 20
-73.28043935813105
 10
-51.60727908340182
 20
-73.27340810813105
 10
-51.66493533340182
 20
-73.26793935813104
 10
-51.72509158340182
 20
-73.26403310813104
 10
-51.78774783340182
 20
-73.26168935813105
 10
-51.852904083401825
 20
-73.26090810813105
 10
-51.91897439590183
 20
-73.26182998313105
 10
-51.98343533340182
 20
-73.26459560813105
 10
-52.04628689590182
 20
-73.26920498313105
 10
-52.10752908340182
 20
-73.27565810813104
 10
-52.16716189590183
 20
-73.28395498313104
 10
-52.225185333401825
 20
-73.29409560813104
 10
-52.28159939590182
 20
-73.30607998313104
 10
-52.336404083401824
 20
-73.31990810813105
 10
-52.389599395901826
 20
-73.33557998313104
 10
-52.441185333401826
 20
-73.35309560813104
 10
-52.490771270901824
 20
-73.37215810813105
 10
-52.537966583401825
 20
-73.39278310813104
 10
-52.58277127090182
 20
-73.41497060813104
 10
-52.625185333401824
 20
-73.43872060813105
 10
-52.66520877090183
 20
-73.46403310813105
 10
-52.70284158340183
 20
-73.49090810813105
 10
-52.738083770901824
 20
-73.51934560813105
 10
-52.77093533340182
 20
-73.54934560813105
 10
-52.801396270901826
 20
-73.58090810813104
 10
-52.829466583401825
 20
-73.61403310813104
 10
-52.85558377090182
 20
-73.64900185813104
 10
-52.880185333401826
 20
-73.68609560813104
 10
-52.903271270901826
 20
-73.72531435813104
 10
-52.92484158340182
 20
-73.76665810813104
 10
-52.94489627090182
 20
-73.81012685813104
 10
-52.963435333401826
 20
-73.85572060813105
 10
-52.980458770901826
 20
-73.90343935813104
 10
-52.995966583401824
 20
-73.95328310813105
 10
-53.009958770901825
 20
-74.00525185813105
 10
-53.02243533340182
 20
-74.05934560813104
 10
-52.59274783340182
 20
-74.11793935813104
 10
-52.577763458401826
 20
-74.06445498313104
 10
-52.56124783340182
 20
-74.01431435813105
 10
-52.543200958401826
 20
-73.96751748313105
 10
-52.523622833401824
 20
-73.92406435813105
 10
-52.50251345840182
 20
-73.88395498313105
 10
-52.47987283340183
 20
-73.84718935813105
 10
-52.45570095840183
 20
-73.81376748313104
 10
-52.42999783340182
 20
-73.78368935813104
 10
-52.40276345840182
 20
-73.75695498313104
 10
-52.37399783340182
 20
-73.73356435813105
 10
-52.34284158340182
 20
-73.71293154563105
 10
-52.308435333401825
 20
-73.69447060813104
 10
-52.27077908340183
 20
-73.67818154563105
 10
-52.22987283340183
 20
-73.66406435813104
 10
-52.18571658340183
 20
-73.65211904563104
 10
-52.138310333401826
 20
-73.64234560813105
 10
-52.08765408340182
 20
-73.63474404563104
 10
-52.033747833401826
 20
-73.62931435813104
 10
-51.97659158340183
 20
-73.62605654563104
 10
-51.91618533340183
 20
-73.62497060813105
 10
-51.85141970840183
 20
-73.62645498313104
 10
-51.78993533340183
 20
-73.63090810813104
 10
-51.73173220840182
 20
-73.63832998313104
 10
-51.676810333401825
 20
-73.64872060813104
 10
-51.62516970840183
 20
-73.66207998313105
 10
-51.57681033340182
 20
-73.67840810813104
 10
-51.53173220840183
 20
-73.69770498313105
 10
-51.489935333401824
 20
-73.71997060813105
 10
-51.45141970840182
 20
-73.74520498313105
 10
-51.41618533340183
 20
-73.77340810813105
 10
-51.39243533340182
 20
-73.79702529563104
 10
-51.371185333401826
 20
-73.82381435813105
 10
-51.35243533340183
 20
-73.85377529563104
 10
-51.33618533340182
 20
-73.88690810813104
 10
-51.32243533340183
 20
-73.92321279563104
 10
-51.31118533340182
 20
-73.96268935813104
 10
-51.302435333401824
 20
-74.00533779563105
 10
-51.29618533340182
 20
-74.05115810813105
 10
-51.292435333401826
 20
-74.10015029563104
 10
-51.29118533340183
 20
-74.15231435813105
 10
-51.291208770901825
 20
-74.15782217063105
 10
-51.291279083401825
 20
-74.16465810813105
 10
-51.29139627090183
 20
-74.17282217063105
 10
-51.291560333401826
 20
-74.18231435813104
 10
-51.291771270901826
 20
-74.19313467063104
 10
-51.29202908340183
 20
-74.20528310813104
 10
-51.29233377090183
 20
-74.21875967063104
 10
-51.29268533340182
 20
-74.23356435813105
 10
-51.29308377090182
 20
-74.24969717063104
 10
-51.29352908340182
 20
-74.26715810813104
 10
-51.34664627090182
 20
-74.28441592063105
 10
-51.40537283340183
 20
-74.30118935813104
 10
-51.469708770901825
 20
-74.31747842063105
 10
-51.53965408340183
 20
-74.33328310813104
 10
-51.61520877090182
 20
-74.34860342063105
 10
-51.696372833401824
 20
-74.36343935813105
 10
-51.783146270901824
 20
-74.37779092063104
 10
-51.87552908340182
 20
-74.39165810813104
 10
-51.97352127090183
 20
-74.40504092063105
 10
-52.07712283340182
 20
-74.41793935813105
 10
-52.12813845840182
 20
-74.42436904563104
 10
-52.176497833401825
 20
-74.43084560813105
 10
-52.22220095840183
 20
-74.43736904563104
 10
-52.26524783340182
 20
-74.44393935813105
 10
-52.30563845840182
 20
-74.45055654563104
 10
-52.34337283340182
 20
-74.45722060813104
 10
-52.37845095840183
 20
-74.46393154563104
 10
-52.410872833401825
 20
-74.47068935813104
 10
-52.44063845840182
 20
-74.47749404563105
 10
-52.46774783340182
 20
-74.48434560813105
 10
-52.50255252090182
 20
-74.49450185813104
 10
-52.53665408340183
 20
-74.50559560813105
 10
-52.570052520901825
 20
-74.51762685813104
 10
-52.60274783340182
 20
-74.53059560813105
 10
-52.63474002090182
 20
-74.54450185813104
 10
-52.666029083401824
 20
-74.55934560813104
 10
-52.696615020901824
 20
-74.57512685813104
 10
-52.72649783340182
 20
-74.59184560813104
 10
-52.75567752090183
 20
-74.60950185813104
 10
-52.78415408340182
 20
-74.62809560813105
 10
-52.81174002090182
 20
-74.64778310813105
 10
-52.83824783340182
 20
-74.66872060813104
 10
-52.863677520901824
 20
-74.69090810813104
 10
-52.888029083401825
 20
-74.71434560813104
 10
-52.91130252090183
 20
-74.73903310813104
 10
-52.93349783340182
 20
-74.76497060813105
 10
-52.95461502090183
 20
-74.79215810813105
 10
-52.97465408340182
 20
-74.82059560813104
 10
-52.99361502090182
 20
-74.85028310813105
 10
-53.011497833401826
 20
-74.88122060813104
 10
-53.02797439590182
 20
-74.91296279563105
 10
-53.04271658340183
 20
-74.94537685813104
 10
-53.05572439590183
 20
-74.97846279563105
 10
-53.06699783340183
 20
-75.01222060813105
 10
-53.076536895901825
 20
-75.04665029563104
 10
-53.08434158340182
 20
-75.08175185813104
 10
-53.09041189590182
 20
-75.11752529563104
 10
-53.094747833401826
 20
-75.15397060813105
 10
-53.09734939590182
 20
-75.19108779563105
 10
-53.09821658340182
 20
-75.22887685813104
 10
-53.09591970840182
 20
-75.29271279563105
 10
-53.089029083401826
 20
-75.35422060813104
 10
-53.077544708401824
 20
-75.41340029563105
 10
-53.061466583401824
 20
-75.47025185813105
 10
-53.040794708401826
 20
-75.52477529563104
 10
-53.01552908340182
 20
-75.57697060813105
 10
-52.98566970840182
 20
-75.62683779563105
 10
-52.95121658340182
 20
-75.67437685813104
 10
-52.91216970840183
 20
-75.71958779563104
 10
-52.868529083401825
 20
-75.76247060813104
 10
-52.820615020901826
 20
-75.80210342063104
 10
-52.768747833401825
 20
-75.83756435813105
 10
-52.71292752090182
 20
-75.86885342063104
 10
-52.65315408340182
 20
-75.89597060813105
 10
-52.58942752090182
 20
-75.91891592063105
 10
-52.521747833401825
 20
-75.93768935813104
 10
-52.450115020901826
 20
-75.95229092063104
 10
-52.374529083401825
 20
-75.96272060813105
 10
-52.29499002090182
 20
-75.96897842063105
 10
-52.21149783340182
 20
-75.97106435813104
 10
-52.160107208401826
 20
-75.97021279563104
 10
-52.10937283340182
 20
-75.96765810813105
 10
-52.05929470840182
 20
-75.96340029563105
 10
-52.00987283340182
 20
-75.95743935813104
 10
-51.96110720840183
 20
-75.94977529563104
 10
-51.912997833401825
 20
-75.94040810813104
 10
-51.86554470840183
 20
-75.92933779563104
 10
-51.81874783340182
 20
-75.91656435813104
 10
-51.77260720840182
 20
-75.90208779563105
 10
-51.72712283340182
 20
-75.88590810813105
 10
-51.68177908340182
 20
-75.86750967063105
 10
-51.63606033340182
 20
-75.84668935813104
 10
-51.589966583401825
 20
-75.82344717063104
 10
-51.54349783340182
 20
-75.79778310813104
 10
-51.49665408340182
 20
-75.76969717063105
 10
-51.44943533340182
 20
-75.73918935813104
 10
-51.401841583401826
 20
-75.70625967063104
 10
-51.35387283340182
 20
-75.67090810813104
 10
-51.30552908340182
 20
-75.63313467063105
 10
-51.25681033340182
 20
-75.59293935813105
  0
LWPOLYLINE
  5
39
330
17
100
AcDbEntity
  8
0
100
AcDbPolyline
 90
118
 70
0
 10
-50.187767364651826
 20
-76.91090810813104
 10
-50.15681423965182
 20
-76.92115029563105
 10
-50.126454864651826
 20
-76.93031435813104
 10
-50.09668923965182
 20
-76.93840029563104
 10
-50.06751736465182
 20
-76.94540810813105
 10
-50.038939239651825
 20
-76.95133779563105
 10
-50.01095486465182
 20
-76.95618935813104
 10
-49.98356423965183
 20
-76.95996279563104
 10
-49.956767364651824
 20
-76.96265810813105
 10
-49.93056423965182
 20
-76.96427529563104
 10
-49.90495486465183
 20
-76.96481435813105
 10
-49.863509552151825
 20
-76.96379873313104
 10
-49.82323611465182
 20
-76.96075185813105
 10
-49.784134552151826
 20
-76.95567373313105
 10
-49.74620486465182
 20
-76.94856435813105
 10
-49.70944705215182
 20
-76.93942373313105
 10
-49.67386111465183
 20
-76.92825185813105
 10
-49.63944705215182
 20
-76.91504873313104
 10
-49.60620486465182
 20
-76.89981435813104
 10
-49.574134552151826
 20
-76.88254873313105
 10
-49.543236114651826
 20
-76.86325185813105
 10
-49.513267364651824
 20
-76.84192373313104
 10
-49.48398611465183
 20
-76.81825185813105
 10
-49.45539236465182
 20
-76.79223623313105
 10
-49.42748611465183
 20
-76.76387685813104
 10
-49.400267364651825
 20
-76.73317373313104
 10
-49.37373611465183
 20
-76.70012685813104
 10
-49.34789236465183
 20
-76.66473623313105
 10
-49.322736114651825
 20
-76.62700185813104
 10
-49.29826736465182
 20
-76.58692373313104
 10
-49.27448611465182
 20
-76.54450185813104
 10
-49.25627517715182
 20
-76.50965029563105
 10
-49.23664236465183
 20
-76.46947060813105
 10
-49.215587677151824
 20
-76.42396279563104
 10
-49.19311111465183
 20
-76.37312685813104
 10
-49.169212677151826
 20
-76.31696279563104
 10
-49.143892364651826
 20
-76.25547060813105
 10
-49.11715017715183
 20
-76.18865029563105
 10
-49.088986114651824
 20
-76.11650185813104
 10
-49.05940017715182
 20
-76.03902529563105
 10
-49.02839236465182
 20
-75.95622060813105
 10
-48.04167361465183
 20
-73.31950185813105
 10
-48.48151736465182
 20
-73.31950185813105
 10
-49.035423614651826
 20
-74.83122060813105
 10
-49.056072052151826
 20
-74.88887685813104
 10
-49.07614236465182
 20
-74.94684560813104
 10
-49.09563455215182
 20
-75.00512685813105
 10
-49.114548614651824
 20
-75.06372060813105
 10
-49.13288455215182
 20
-75.12262685813104
 10
-49.15064236465182
 20
-75.18184560813104
 10
-49.16782205215183
 20
-75.24137685813105
 10
-49.18442361465182
 20
-75.30122060813105
 10
-49.20044705215182
 20
-75.36137685813104
 10
-49.21589236465182
 20
-75.42184560813105
 10
-49.232822052151825
 20
-75.35916592063104
 10
-49.25017361465182
 20
-75.29706435813104
 10
-49.267947052151825
 20
-75.23554092063104
 10
-49.28614236465182
 20
-75.17459560813104
 10
-49.30475955215182
 20
-75.11422842063105
 10
-49.32379861465182
 20
-75.05443935813105
 10
-49.34325955215183
 20
-74.99522842063105
 10
-49.36314236465182
 20
-74.93659560813104
 10
-49.38344705215182
 20
-74.87854092063104
 10
-49.404173614651825
 20
-74.82106435813104
 10
-49.94401736465183
 20
-73.31950185813105
 10
-50.41745486465182
 20
-73.31950185813105
 10
-49.43307986465182
 20
-75.91715810813105
 10
-49.438392364651826
 20
-75.93103310813105
 10
-49.44339236465183
 20
-75.94422060813105
 10
-49.448079864651824
 20
-75.95672060813105
 10
-49.45245486465183
 20
-75.96853310813104
 10
-49.45651736465182
 20
-75.97965810813105
 10
-49.46026736465183
 20
-75.99009560813104
 10
-49.463704864651824
 20
-75.99984560813104
 10
-49.46682986465182
 20
-76.00890810813104
 10
-49.469642364651826
 20
-76.01728310813104
 10
-49.47214236465182
 20
-76.02497060813104
 10
-49.490220489651826
 20
-76.07521279563105
 10
-49.507267364651824
 20
-76.12156435813104
 10
-49.523282989651825
 20
-76.16402529563105
 10
-49.53826736465182
 20
-76.20259560813105
 10
-49.55222048965182
 20
-76.23727529563105
 10
-49.56514236465183
 20
-76.26806435813104
 10
-49.577032989651826
 20
-76.29496279563105
 10
-49.58789236465182
 20
-76.31797060813105
 10
-49.59772048965183
 20
-76.33708779563105
 10
-49.60651736465182
 20
-76.35231435813104
 10
-49.61808767715183
 20
-76.36942373313104
 10
-49.63029861465182
 20
-76.38575185813104
 10
-49.643150177151824
 20
-76.40129873313104
 10
-49.65664236465182
 20
-76.41606435813104
 10
-49.670775177151825
 20
-76.43004873313104
 10
-49.68554861465182
 20
-76.44325185813105
 10
-49.70096267715182
 20
-76.45567373313105
 10
-49.717017364651824
 20
-76.46731435813105
 10
-49.73371267715182
 20
-76.47817373313104
 10
-49.75104861465182
 20
-76.48825185813105
 10
-49.76914236465183
 20
-76.49760342063105
 10
-49.788423614651826
 20
-76.50597060813105
 10
-49.808892364651825
 20
-76.51335342063105
 10
-49.830548614651825
 20
-76.51975185813104
 10
-49.853392364651825
 20
-76.52516592063104
 10
-49.877423614651825
 20
-76.52959560813105
 10
-49.902642364651825
 20
-76.53304092063104
 10
-49.929048614651826
 20
-76.53550185813104
 10
-49.95664236465183
 20
-76.53697842063104
 10
-49.98542361465182
 20
-76.53747060813104
 10
-50.007204864651825
 20
-76.53707998313105
 10
-50.029736114651826
 20
-76.53590810813104
 10
-50.05301736465182
 20
-76.53395498313104
 10
-50.07704861465182
 20
-76.53122060813105
 10
-50.101829864651826
 20
-76.52770498313104
 10
-50.127361114651826
 20
-76.52340810813105
 10
-50.15364236465182
 20
-76.51832998313104
 10
-50.18067361465182
 20
-76.51247060813104
 10
-50.20845486465183
 20
-76.50582998313105
 10
-50.23698611465183
 20
-76.49840810813104
 10
-50.187767364651826
 20
-76.91090810813104
  0
ENDSEC
  0
SECTION
  2
OBJECTS
  0
DICTIONARY
  5
A
330
0
100
AcDbDictionary
281
1
  3
ACAD_COLOR
350
B
  3
ACAD_GROUP
350
C
  3
ACAD_LAYOUT
350
D
  3
ACAD_MATERIAL
350
E
  3
ACAD_MLEADERSTYLE
350
F
  3
ACAD_MLINESTYLE
350
10
  3
ACAD_PLOTSETTINGS
350
11
  3
ACAD_PLOTSTYLENAME
350
12
  3
ACAD_SCALELIST
350
14
  3
ACAD_TABLESTYLE
350
15
  3
ACAD_VISUALSTYLE
350
16
  0
DICTIONARY
  5
B
330
A
100
AcDbDictionary
281
1
  0
DICTIONARY
  5
C
330
A
100
AcDbDictionary
281
1
  0
DICTIONARY
  5
D
330
A
100
AcDbDictionary
281
1
  3
Model
350
1A
  3
Layout1
350
1E
  0
DICTIONARY
  5
E
330
A
100
AcDbDictionary
281
1
  3
ByBlock
350
1F
  3
ByLayer
350
20
  3
Global
350
21
  0
DICTIONARY
  5
F
330
A
100
AcDbDictionary
281
1
  3
Standard
350
2C
  0
DICTIONARY
  5
10
330
A
100
AcDbDictionary
281
1
  3
Standard
350
22
  0
DICTIONARY
  5
11
330
A
100
AcDbDictionary
281
1
  0
ACDBDICTIONARYWDFLT
  5
12
330
A
100
AcDbDictionary
281
1
  3
Normal
350
13
100
AcDbDictionaryWithDefault
340
13
  0
ACDBPLACEHOLDER
  5
13
330
12
  0
DICTIONARY
  5
14
330
A
100
AcDbDictionary
281
1
  0
DICTIONARY
  5
15
330
A
100
AcDbDictionary
281
1
  0
DICTIONARY
  5
16
330
A
100
AcDbDictionary
281
1
  0
LAYOUT
  5
1A
330
D
100
AcDbPlotSettings
  1

  2
Adobe PDF
  4
A4
  6

 40
3.175
 41
3.175
 42
3.175
 43
3.175
 44
209.91
 45
297.03
 46
0.0
 47
0.0
 48
0.0
 49
0.0
140
0.0
141
0.0
142
1.0
143
1.0
 70
1024
 72
0
 73
1
 74
5
  7

 75
16
 76
0
 77
2
 78
300
147
1.0
148
0.0
149
0.0
100
AcDbLayout
  1
Model
 70
1
 71
0
 10
-3.175
 20
-3.175
 11
293.857
 21
206.735
 12
0.0
 22
0.0
 32
0.0
 14
29.068
 24
20.356
 34
0.0
 15
261.614
 25
183.204
 35
0.0
146
0.0
 13
0.0
 23
0.0
 33
0.0
 16
1.0
 26
0.0
 36
0.0
 17
0.0
 27
1.0
 37
0.0
 76
1
330
17
  0
LAYOUT
  5
1E
330
D
100
AcDbPlotSettings
  1

  2
Adobe PDF
  4
A4
  6

 40
3.175
 41
3.175
 42
3.175
 43
3.175
 44
209.91
 45
297.03
 46
0.0
 47
0.0
 48
0.0
 49
0.0
140
0.0
141
0.0
142
1.0
143
1.0
 70
0
 72
0
 73
1
 74
5
  7

 75
16
 76
0
 77
2
 78
300
147
1.0
148
0.0
149
0.0
100
AcDbLayout
  1
Layout1
 70
1
 71
1
 10
-3.175
 20
-3.175
 11
293.857
 21
206.735
 12
0.0
 22
0.0
 32
0.0
 14
29.068
 24
20.356
 34
0.0
 15
261.614
 25
183.204
 35
0.0
146
0.0
 13
0.0
 23
0.0
 33
0.0
 16
1.0
 26
0.0
 36
0.0
 17
0.0
 27
1.0
 37
0.0
 76
1
330
1B
  0
MATERIAL
  5
1F
102
{ACAD_REACTORS
330
E
102
}
330
E
100
AcDbMaterial
  1
ByBlock
  2

 70
0
 40
1.0
 71
1
 41
1.0
 91
-1023410177
 42
1.0
 72
1
  3

 73
1
 74
1
 75
1
 44
0.5
 73
0
 45
1.0
 46
1.0
 77
1
  4

 78
1
 79
1
170
1
 48
1.0
171
1
  6

172
1
173
1
174
1
140
1.0
141
1.0
175
1
  7

176
1
177
1
178
1
143
1.0
179
1
  8

270
1
271
1
272
1
145
1.0
146
1.0
273
1
  9

274
1
275
1
276
1
 42
1.0
 72
1
  3

 73
1
 74
1
 75
1
 94
63
  0
MATERIAL
  5
20
102
{ACAD_REACTORS
330
E
102
}
330
E
100
AcDbMaterial
  1
ByLayer
  2

 70
0
 40
1.0
 71
1
 41
1.0
 91
-1023410177
 42
1.0
 72
1
  3

 73
1
 74
1
 75
1
 44
0.5
 73
0
 45
1.0
 46
1.0
 77
1
  4

 78
1
 79
1
170
1
 48
1.0
171
1
  6

172
1
173
1
174
1
140
1.0
141
1.0
175
1
  7

176
1
177
1
178
1
143
1.0
179
1
  8

270
1
271
1
272
1
145
1.0
146
1.0
273
1
  9

274
1
275
1
276
1
 42
1.0
 72
1
  3

 73
1
 74
1
 75
1
 94
63
  0
MATERIAL
  5
21
102
{ACAD_REACTORS
330
E
102
}
330
E
100
AcDbMaterial
  1
Global
  2

 70
0
 40
1.0
 71
1
 41
1.0
 91
-1023410177
 42
1.0
 72
1
  3

 73
1
 74
1
 75
1
 44
0.5
 73
0
 45
1.0
 46
1.0
 77
1
  4

 78
1
 79
1
170
1
 48
1.0
171
1
  6

172
1
173
1
174
1
140
1.0
141
1.0
175
1
  7

176
1
177
1
178
1
143
1.0
179
1
  8

270
1
271
1
272
1
145
1.0
146
1.0
273
1
  9

274
1
275
1
276
1
 42
1.0
 72
1
  3

 73
1
 74
1
 75
1
 94
63
  0
MLINESTYLE
  5
22
102
{ACAD_REACTORS
330
10
102
}
330
10
100
AcDbMlineStyle
  2
Standard
 70
0
  3

 62
256
 51
90.0
 52
90.0
 71
2
 49
0.5
 62
256
  6
BYLAYER
 49
-0.5
 62
256
  6
BYLAYER
  0
MLEADERSTYLE
  5
2C
102
{ACAD_REACTORS
330
F
102
}
330
F
100
AcDbMLeaderStyle
179
2
170
2
171
1
172
0
 90
2
 40
0.0
 41
0.0
173
1
 91
-1056964608
 92
-2
290
1
 42
2.0
291
1
 43
8.0
  3
Standard
 44
4.0
300

342
29
174
1
175
1
176
0
178
1
 93
-1056964608
 45
4.0
292
0
297
0
 46
4.0
 94
-1056964608
 47
1.0
 49
0.0
140
1.0
294
1
141
0.0
177
0
142
1.0
295
0
296
0
143
3.75
271
0
272
9
272
9
  0
ENDSEC
  0
EOF
